<svg width="3895" height="2471" viewBox="0 0 3895 2471" fill="none" xmlns="http://www.w3.org/2000/svg">
<path opacity="0.3" d="M3438.54 1677.23C3438.54 1766.15 3394.39 1852.04 3312.04 1931.41C3229.66 2010.81 3109.79 2082.89 2960.67 2143.69C2662.47 2265.25 2249.67 2340.72 1793.07 2340.72C1336.47 2340.72 923.667 2265.25 625.474 2143.69C476.346 2082.89 356.483 2010.81 274.097 1931.41C191.746 1852.04 147.597 1766.15 147.597 1677.23C147.597 1588.32 191.746 1502.43 274.097 1423.06C356.483 1343.66 476.346 1271.58 625.474 1210.78C923.667 1089.22 1336.47 1013.75 1793.07 1013.75C2249.67 1013.75 2662.47 1089.22 2960.67 1210.78C3109.79 1271.58 3229.66 1343.66 3312.04 1423.06C3394.39 1502.43 3438.54 1588.32 3438.54 1677.23Z" stroke="#DBE3EC" stroke-width="24.7012"/>
<path opacity="0.2" d="M3055.25 1677.24C3055.25 1808.29 2935.07 1927.9 2737.17 2018.75M1793.07 1162.69C1583.53 1162.69 1385.91 1183.5 1211.99 1220.34M896.875 2039.56C670.637 1946.57 530.885 1818.56 530.885 1677.24C530.885 1584.58 590.953 1497.65 696.079 1422.56M1292.98 2149.82C1446.32 2176.82 1615.41 2191.78 1793.07 2191.78C1979.98 2191.78 2157.39 2175.22 2316.97 2145.5M2167.75 1185.74C2417.74 1217.37 2634.45 1279.84 2791.14 1362.22" stroke="#B3BCC6" stroke-width="24.7012"/>
<ellipse cx="1793.07" cy="1621.84" rx="457.353" ry="158.06" fill="url(#paint0_linear)"/>
<path opacity="0.1" d="M1751.34 905.279L1331.62 1113.35L1088.5 980.703L1507.53 772.63L1751.34 905.279Z" fill="url(#paint1_linear)"/>
<path fill-rule="evenodd" clip-rule="evenodd" d="M1270.8 1022.96L1137.91 1077.59V912.75L1270.79 849.426V849.425L1270.8 849.425L1270.8 849.425V849.426L1403.68 912.75V1077.59L1270.8 1022.96Z" fill="url(#paint2_linear)"/>
<path d="M1137.91 912.747L1270.8 976.073V1140.91L1137.91 1077.58V912.747Z" fill="url(#paint3_linear)"/>
<path d="M1403.69 912.747L1270.8 976.073V1140.91L1403.69 1077.58V912.747Z" fill="url(#paint4_linear)"/>
<path d="M601.935 1021.18L645.18 1041.39L646.59 998.772L601.935 1021.18Z" fill="#F4F6F9"/>
<path d="M1225.39 1117.62L1149.28 1153.31L1137.26 1115.44V912.233L1271.28 849.597L1336.79 880.139L1202.81 943.552V978.429L1228.16 990.193L1225.39 1117.62Z" fill="url(#paint5_linear)"/>
<path d="M597.226 1027.81L583.091 1021.34L725.804 953.225L740.734 959.072L597.226 1027.81Z" fill="#FDFDFE"/>
<path d="M1166.58 992.124L1123.34 1012.34L1121.93 969.718L1166.58 992.124Z" fill="#DBE2EB"/>
<path d="M1171.61 999.659L1185.74 993.192L1043.85 924.842L1028.92 930.689L1171.61 999.659Z" fill="#E5EBF1"/>
<path fill-rule="evenodd" clip-rule="evenodd" d="M867.482 1051.15L1125.66 1157.28V791.493C1125.66 784.994 1121.92 779.074 1116.05 776.278L879.535 663.57C876.87 662.3 874.007 662.561 871.741 663.853L856.798 670.781L867.482 677.773V1051.15Z" fill="url(#paint6_linear)"/>
<path d="M1110.15 1164.54L987.494 1185.47L851.973 1058.41V678.437C851.973 672.242 858.433 668.165 864.025 670.83L1100.54 783.537C1106.41 786.333 1110.15 792.253 1110.15 798.752V1164.54Z" fill="url(#paint7_linear)"/>
<mask id="mask0" style="mask-type:alpha" maskUnits="userSpaceOnUse" x="851" y="670" width="260" height="516">
<path d="M1110.15 1164.54L987.494 1185.47L851.973 1058.42V678.441C851.973 672.246 858.433 668.169 864.025 670.833L1100.54 783.541C1106.41 786.337 1110.15 792.257 1110.15 798.756V1164.54Z" fill="url(#paint8_linear)"/>
</mask>
<g mask="url(#mask0)">
<g opacity="0.3" filter="url(#filter0_f)">
<path d="M1071.89 1180.85L944.292 1208.01L788.594 1067.17V673.838L1062.09 799.91C1068.06 802.664 1071.89 808.64 1071.89 815.217V1180.85Z" fill="#FB4059"/>
</g>
</g>
<path d="M776.585 1093.64L1034.76 1199.76V833.979C1034.76 827.48 1031.02 821.56 1025.16 818.764L791.403 707.344C788.518 705.969 785.402 706.388 783.061 707.967L757.563 720.232L776.585 733.5V1093.64Z" fill="url(#paint9_linear)" stroke="url(#paint10_linear)" stroke-width="4.58554"/>
<g filter="url(#filter1_i)">
<path d="M1006.93 1213.33L879.332 1240.5L748.754 1107.21V727.237C748.754 721.042 755.214 716.964 760.806 719.629L997.325 832.337C1003.19 835.133 1006.93 841.053 1006.93 847.552V1213.33Z" fill="url(#paint11_linear)"/>
</g>
<path d="M1004.64 847.552V1211.48L880.087 1237.99L751.046 1106.28V727.237C751.046 722.727 755.749 719.759 759.82 721.699L996.339 834.407C1001.41 836.822 1004.64 841.937 1004.64 847.552Z" stroke="url(#paint12_linear)" stroke-width="4.58554"/>
<g opacity="0.78" filter="url(#filter2_f)">
<path d="M788.519 823.515L787.791 717.743C787.754 712.373 793.309 708.784 798.189 711.024L812.371 717.534" stroke="url(#paint13_linear)" stroke-width="4.58554"/>
</g>
<g filter="url(#filter3_i)">
<path fill-rule="evenodd" clip-rule="evenodd" d="M658.427 1151.93L916.602 1258.05V892.265C916.602 885.766 912.866 879.846 906.999 877.05L670.479 764.343C667.825 763.078 664.975 763.332 662.713 764.61L647.744 771.55L658.427 778.541V1151.93Z" fill="url(#paint14_linear)"/>
</g>
<path d="M901.095 1265.3L642.919 1159.18V779.205C642.919 773.01 649.379 768.932 654.972 771.597L891.491 884.305C897.358 887.101 901.095 893.021 901.095 899.52V1265.3Z" fill="url(#paint15_linear)"/>
<path d="M865.974 1146.2L866.198 1146.31L856.132 1152L583.091 1021.21L596.579 1014.97L849.34 1133.49C852.921 1135.17 857.064 1135.16 860.64 1133.47L1172.3 986.196L1185.65 993.115L865.974 1146.2Z" fill="url(#paint16_linear)"/>
<path d="M845.536 1146.38C851.787 1149.36 859.051 1149.36 865.3 1146.37L1185.61 993.142V1128.78C1185.61 1132.96 1183.21 1136.77 1179.44 1138.57L865.3 1288.85C859.051 1291.84 851.787 1291.84 845.537 1288.86L589.139 1166.42C585.365 1164.61 582.962 1160.8 582.962 1156.62V1020.99L845.536 1146.38Z" fill="url(#paint17_linear)"/>
<path d="M845.536 1146.38C851.787 1149.36 859.051 1149.36 865.3 1146.37L1185.61 993.142V1128.78C1185.61 1132.96 1183.21 1136.77 1179.44 1138.57L865.3 1288.85C859.051 1291.84 851.787 1291.84 845.537 1288.86L589.139 1166.42C585.365 1164.61 582.962 1160.8 582.962 1156.62V1020.99L845.536 1146.38Z" fill="url(#paint18_linear)"/>
<path d="M675.679 817.774L854.955 903.381V917.089L675.679 831.482V817.774Z" fill="#F1F4F8"/>
<path opacity="0.3" d="M675.679 860.354L817.045 927.859V941.566L675.679 874.062V860.354Z" fill="#F1F4F8"/>
<path opacity="0.4" d="M675.679 902.931L765.317 945.734V959.442L675.679 916.638V902.931Z" fill="#F1F4F8"/>
<path opacity="0.4" d="M675.679 945.51L854.955 1031.12V1044.82L675.679 959.217V945.51Z" fill="#F1F4F8"/>
<path opacity="0.6" d="M675.679 988.089L854.955 1073.7V1087.4L675.679 1001.8V988.089Z" fill="#F1F4F8"/>
<ellipse cx="924.171" cy="2049.74" rx="64.752" ry="26.3971" fill="#F0F2F4"/>
<ellipse cx="699.07" cy="1416.52" rx="64.752" ry="26.3971" fill="#F0F2F4"/>
<ellipse cx="1816.1" cy="1161.16" rx="64.752" ry="26.3971" fill="#F8F9FB"/>
<ellipse cx="2179.33" cy="1190.69" rx="64.752" ry="26.3971" fill="#F0F2F4"/>
<ellipse cx="2797.26" cy="1369.04" rx="64.752" ry="26.3971" fill="#F0F2F4"/>
<ellipse cx="2732.51" cy="2029.14" rx="64.752" ry="26.3971" fill="#F0F2F4"/>
<ellipse cx="2346.15" cy="2139.49" rx="64.752" ry="26.3971" fill="#F0F2F4"/>
<ellipse cx="1247.32" cy="2143.24" rx="64.752" ry="26.3971" fill="#F0F2F4"/>
<ellipse cx="1207.4" cy="1226.74" rx="64.752" ry="26.3971" fill="#F0F2F4"/>
<path opacity="0.1" d="M2280.23 2265.84L1954.56 2438.34L1732.5 2329.02L2057.32 2156.53L2280.23 2265.84Z" fill="black"/>
<path opacity="0.1" d="M2732.51 2130.71L2209 2390.24L1905.75 2224.79L2428.41 1965.26L2732.51 2130.71Z" fill="url(#paint19_linear)"/>
<circle cx="2130.48" cy="2249.22" r="162.163" fill="url(#paint20_radial)"/>
<circle cx="2130.48" cy="2249.22" r="162.163" fill="url(#paint21_linear)"/>
<path opacity="0.1" fill-rule="evenodd" clip-rule="evenodd" d="M2108.43 2088.55C2052.21 2180.82 2041.55 2253.69 2049.9 2389.98C2001.15 2362.02 1968.31 2309.46 1968.31 2249.22C1968.31 2167.14 2029.3 2099.3 2108.43 2088.55Z" fill="url(#paint22_linear)"/>
<path fill-rule="evenodd" clip-rule="evenodd" d="M2026.26 1946.51H1504.87V2365.7C1504.87 2365.93 1504.87 2366.16 1504.87 2366.39C1504.87 2366.62 1504.87 2366.84 1504.87 2367.07V2369.47H1504.98C1509.08 2425.43 1624.17 2470.29 1765.56 2470.29C1906.95 2470.29 2022.05 2425.43 2026.14 2369.47H2026.26V1946.51Z" fill="url(#paint23_linear)"/>
<path fill-rule="evenodd" clip-rule="evenodd" d="M2026.26 1946.51H1504.87V2365.7C1504.87 2365.93 1504.87 2366.16 1504.87 2366.39C1504.87 2366.62 1504.87 2366.84 1504.87 2367.07V2369.47H1504.98C1509.08 2425.43 1624.17 2470.29 1765.56 2470.29C1906.95 2470.29 2022.05 2425.43 2026.14 2369.47H2026.26V1946.51Z" fill="url(#paint24_radial)"/>
<ellipse cx="1765.56" cy="1946.51" rx="260.692" ry="103.906" fill="url(#paint25_linear)"/>
<mask id="mask1" style="mask-type:alpha" maskUnits="userSpaceOnUse" x="1504" y="1946" width="523" height="525">
<path fill-rule="evenodd" clip-rule="evenodd" d="M2026.26 1946.51H1504.87V2365.7C1504.87 2365.93 1504.87 2366.16 1504.87 2366.39C1504.87 2366.62 1504.87 2366.84 1504.87 2367.07V2369.47H1504.98C1509.08 2425.43 1624.17 2470.29 1765.56 2470.29C1906.95 2470.29 2022.05 2425.43 2026.14 2369.47H2026.26V1946.51Z" fill="url(#paint26_linear)"/>
</mask>
<g mask="url(#mask1)">
<path d="M1516.17 2113.08L1504.15 2094.19L1496.08 2236.9L1505.18 2246.87L1530.94 2275.03L1565.97 2296.15L1615.26 2313.84L1663.01 2324.66L1727.41 2330.33H1803.66L1888.33 2318.65L1932.98 2308.86L1978.32 2287.05L2001.33 2272.45L2018.5 2257.86L2028.98 2244.8L2031.04 2092.13L2019.19 2106.9L1989.48 2134.38L1935.04 2158.25C1915.35 2163.06 1875.79 2172.74 1875.1 2173.02C1874.42 2173.29 1832.45 2178.28 1811.56 2180.75L1752.14 2183.49L1696.15 2178.68L1628.32 2166.84L1573.02 2150.86L1516.17 2113.08Z" fill="url(#paint27_linear)"/>
<path d="M1516.17 2113.08L1504.15 2094.19L1496.08 2236.9L1505.18 2246.87L1530.94 2275.03L1565.97 2296.15L1615.26 2313.84L1663.01 2324.66L1727.41 2330.33H1803.66L1888.33 2318.65L1932.98 2308.86L1978.32 2287.05L2001.33 2272.45L2018.5 2257.86L2028.98 2244.8L2031.04 2092.13L2019.19 2106.9L1989.48 2134.38L1935.04 2158.25C1915.35 2163.06 1875.79 2172.74 1875.1 2173.02C1874.42 2173.29 1832.45 2178.28 1811.56 2180.75L1752.14 2183.49L1696.15 2178.68L1628.32 2166.84L1573.02 2150.86L1516.17 2113.08Z" fill="url(#paint28_linear)"/>
<g filter="url(#filter4_f)">
<path d="M2029.68 2224.96C2029.68 2196.44 2000.02 2170.61 1952.5 2151.83M1501.44 2224.96C1501.44 2196.56 1530.85 2170.83 1578 2152.08" stroke="url(#paint29_linear)" stroke-width="6.40559"/>
</g>
<path d="M2029.68 2078.66C2029.68 2136.05 1909.54 2182.57 1765.56 2182.57C1621.58 2182.57 1501.44 2136.05 1501.44 2078.66" stroke="#3AC43F" stroke-width="6.40559"/>
<path d="M2029.68 2227.37C2029.68 2284.76 1909.54 2331.28 1765.56 2331.28C1621.58 2331.28 1501.44 2284.76 1501.44 2227.37" stroke="#3AC43F" stroke-width="6.40559"/>
</g>
<g opacity="0.6" filter="url(#filter5_f)">
<path d="M1518.46 2110.8L1506.44 2091.9L1498.36 2234.62L1507.47 2244.58L1533.23 2272.74L1568.26 2293.87L1617.55 2311.56L1665.29 2322.38L1729.7 2328.04H1805.95L1890.61 2316.37L1935.27 2306.58L1980.61 2284.77L2003.62 2270.17L2020.79 2255.57L2031.27 2242.52L2033.33 2089.84L2021.48 2104.61L1991.77 2132.09L1937.33 2155.96C1917.63 2160.77 1878.08 2170.46 1877.39 2170.73C1876.7 2171.01 1834.74 2176 1813.85 2178.46L1754.43 2181.21L1698.44 2176.4L1630.6 2164.55L1575.3 2148.58L1518.46 2110.8Z" fill="url(#paint30_linear)"/>
</g>
<path opacity="0.3" d="M2023.03 2101.67L2023.34 2249.22" stroke="#3BC740" stroke-width="6.40559"/>
<g filter="url(#filter6_i)">
<path d="M1757.06 1872.68C1760.25 1869.61 1765.56 1871.87 1765.56 1876.3V1965.9H1672.86C1668.34 1965.9 1666.12 1960.41 1669.37 1957.27L1757.06 1872.68Z" fill="url(#paint31_linear)"/>
<path d="M1774.06 2020.34C1770.87 2023.41 1765.56 2021.16 1765.56 2016.73V1927.12H1858.27C1862.78 1927.12 1865 1932.62 1861.75 1935.75L1774.06 2020.34Z" fill="url(#paint32_linear)"/>
</g>
<path opacity="0.1" d="M1061.77 1632.07L644.938 1838.71L403.486 1706.97L819.64 1500.33L1061.77 1632.07Z" fill="url(#paint33_linear)"/>
<path fill-rule="evenodd" clip-rule="evenodd" d="M539.283 1750.55L381.524 1815.4V1619.71L539.283 1544.54V1544.54H539.284L697.042 1619.71V1815.4L539.284 1750.55H539.283Z" fill="url(#paint34_linear)"/>
<path d="M381.524 1619.71L539.284 1694.89V1890.57L381.524 1815.4V1619.71Z" fill="url(#paint35_linear)"/>
<path d="M697.042 1619.71L539.283 1694.89V1890.57L697.042 1815.4V1619.71Z" fill="url(#paint36_linear)"/>
<path opacity="0.1" d="M479.549 1875.41L315.31 1957.92L322.92 1940.59L318.339 1899.85L437.914 1858.14L442.987 1590.11L539.217 1544.54L649.299 1596.87L493.719 1674.66V1852.43C493.719 1862.16 488.236 1871.05 479.549 1875.41Z" fill="url(#paint37_linear)"/>
<path d="M539.284 1544.54L381.53 1619.71L381.526 1619.71V1815.4L381.53 1815.4L539.284 1890.57L539.285 1890.57L697.039 1815.4L697.043 1815.4V1619.71L697.039 1619.71L539.285 1544.54H539.284Z" fill="url(#paint38_radial)" fill-opacity="0.6" style="mix-blend-mode:multiply"/>
<path fill-rule="evenodd" clip-rule="evenodd" d="M141.448 1312.52C136.874 1317.65 134.008 1324.45 134.008 1332.19V1740C134.008 1751.29 140.419 1761.61 150.545 1766.61L409.92 1894.63C413.338 1896.32 416.858 1897.28 420.34 1897.61L416.321 1906.27L436.376 1896.81L429.025 1897.11C442.052 1894.39 452.72 1882.98 452.72 1868.03V1460.22C452.72 1448.92 446.309 1438.61 436.183 1433.61L176.808 1305.59C167.241 1300.87 156.882 1301.81 148.752 1306.55L150.156 1303.53L130.101 1312.99L141.448 1312.52Z" fill="url(#paint39_linear)"/>
<path d="M114.742 1341.31C114.742 1319.32 137.825 1304.97 157.542 1314.7L416.917 1442.73C427.043 1447.73 433.454 1458.04 433.454 1469.33V1877.14C433.454 1899.13 410.371 1913.48 390.654 1903.75L131.279 1775.72C121.153 1770.72 114.742 1760.41 114.742 1749.12V1341.31Z" fill="url(#paint40_linear)"/>
<g opacity="0.6" filter="url(#filter7_f)">
<path d="M135.219 1334.84L74.8076 1364.45L336.947 1916.85L401.621 1887.73C407.652 1885.01 411.53 1879.01 411.53 1872.4V1478.04C411.53 1470.55 407.303 1463.71 400.609 1460.36L150.149 1334.9C145.455 1332.55 139.932 1332.53 135.219 1334.84Z" fill="url(#paint41_linear)"/>
</g>
<path d="M135.219 1334.84L74.8076 1364.45L336.947 1916.85L401.621 1887.73C407.652 1885.01 411.53 1879.01 411.53 1872.4V1478.04C411.53 1470.55 407.303 1463.71 400.609 1460.36L150.149 1334.9C145.455 1332.55 139.932 1332.53 135.219 1334.84Z" fill="url(#paint42_linear)"/>
<mask id="mask2" style="mask-type:alpha" maskUnits="userSpaceOnUse" x="74" y="1333" width="338" height="584">
<path d="M135.219 1334.84L74.8076 1364.45L336.947 1916.85L401.621 1887.73C407.652 1885.01 411.53 1879.01 411.53 1872.4V1478.04C411.53 1470.55 407.303 1463.71 400.609 1460.36L150.149 1334.9C145.455 1332.55 139.932 1332.53 135.219 1334.84Z" fill="url(#paint43_linear)"/>
</mask>
<g mask="url(#mask2)">
<path d="M142.653 1345.42V1399.3L77.8633 1364.62L138.945 1335.17L149.416 1338.66C145.681 1338.66 142.653 1341.69 142.653 1345.42Z" fill="url(#paint44_linear)"/>
<g filter="url(#filter8_f)">
<path d="M143.21 1402.06V1347.77C143.21 1341.97 149.241 1338.14 154.488 1340.61L173.481 1349.54" stroke="#11BBFA" stroke-width="4.94473"/>
</g>
<g opacity="0.34" filter="url(#filter9_f)">
<path d="M409.803 1860.4V1865.94C409.803 1874.19 400.972 1879.44 393.723 1875.49L332.871 1842.36" stroke="#1289F6" stroke-width="4.94473"/>
</g>
<path d="M338.142 1913.6L78.0878 1365.6L136.307 1337.06C140.327 1335.09 145.038 1335.11 149.042 1337.11L399.502 1462.57C405.359 1465.5 409.057 1471.49 409.057 1478.04V1872.4C409.057 1878.04 405.75 1883.16 400.606 1885.47L338.142 1913.6Z" stroke="url(#paint45_linear)" stroke-width="4.94473"/>
</g>
<g opacity="0.2">
<mask id="mask3" style="mask-type:alpha" maskUnits="userSpaceOnUse" x="74" y="1333" width="338" height="584">
<path d="M135.219 1334.84L74.8076 1364.45L336.947 1916.85L401.621 1887.73C407.652 1885.01 411.53 1879.01 411.53 1872.4V1478.04C411.53 1470.55 407.303 1463.71 400.609 1460.36L150.149 1334.9C145.455 1332.55 139.932 1332.53 135.219 1334.84Z" fill="url(#paint46_linear)"/>
</mask>
<g mask="url(#mask3)">
<g style="mix-blend-mode:overlay" filter="url(#filter10_f)">
<path d="M358.8 1466.75L106.361 1339.48L51.1592 1357.62L63.2582 1382.58L208.446 1737.99L316.58 1924.76L377.831 1908.88V1497.66C377.831 1484.59 370.47 1472.63 358.8 1466.75Z" fill="black"/>
</g>
</g>
</g>
<path fill-rule="evenodd" clip-rule="evenodd" d="M36.4479 1364.43C31.8738 1369.56 29.0083 1376.36 29.0083 1384.11V1791.92C29.0083 1803.21 35.419 1813.52 45.5451 1818.52L304.92 1946.55C308.338 1948.23 311.858 1949.2 315.341 1949.52L311.321 1958.19L331.376 1948.72L324.025 1949.03C337.052 1946.31 347.72 1934.89 347.72 1919.94V1512.13C347.72 1500.84 341.309 1490.53 331.183 1485.53L71.8081 1357.5C62.2413 1352.78 51.8823 1353.73 43.7519 1358.47L45.156 1355.44L25.1006 1364.9L36.4479 1364.43Z" fill="url(#paint47_linear)"/>
<path d="M9.74414 1393.22C9.74414 1371.23 32.8267 1356.89 52.544 1366.62L311.919 1494.64C322.045 1499.64 328.456 1509.95 328.456 1521.25V1929.06C328.456 1951.05 305.373 1965.39 285.656 1955.66L26.281 1827.64C16.1548 1822.64 9.74414 1812.33 9.74414 1801.03V1393.22Z" fill="url(#paint48_linear)"/>
<g filter="url(#filter11_i)">
<path d="M358.046 1571.85C358.046 1569.25 359.522 1566.88 361.85 1565.74L395.207 1549.35C399.728 1547.13 405.01 1550.42 405.01 1555.46C405.01 1558.05 403.535 1560.42 401.206 1561.57L367.85 1577.95C363.329 1580.17 358.046 1576.88 358.046 1571.85Z" fill="url(#paint49_linear)"/>
</g>
<g filter="url(#filter12_i)">
<path d="M358.046 1598.3C358.046 1595.71 359.522 1593.34 361.85 1592.19L395.207 1575.81C399.728 1573.59 405.01 1576.88 405.01 1581.92C405.01 1584.51 403.535 1586.88 401.206 1588.02L367.85 1604.41C363.329 1606.63 358.046 1603.34 358.046 1598.3Z" fill="url(#paint50_linear)"/>
</g>
<g filter="url(#filter13_i)">
<path d="M358.046 1624.76C358.046 1622.17 359.522 1619.8 361.85 1618.65L395.207 1602.27C399.728 1600.05 405.01 1603.34 405.01 1608.37C405.01 1610.97 403.535 1613.34 401.206 1614.48L367.85 1630.87C363.329 1633.09 358.046 1629.8 358.046 1624.76Z" fill="url(#paint51_linear)"/>
</g>
<g filter="url(#filter14_i)">
<path d="M358.046 1651.22C358.046 1648.62 359.522 1646.25 361.85 1645.11L395.207 1628.72C399.728 1626.5 405.01 1629.79 405.01 1634.83C405.01 1637.42 403.535 1639.79 401.206 1640.94L367.85 1657.32C363.329 1659.54 358.046 1656.25 358.046 1651.22Z" fill="url(#paint52_linear)"/>
</g>
<g filter="url(#filter15_i)">
<path d="M358.046 1677.67C358.046 1675.08 359.522 1672.71 361.85 1671.57L395.207 1655.18C399.728 1652.96 405.01 1656.25 405.01 1661.29C405.01 1663.88 403.535 1666.25 401.206 1667.39L367.85 1683.78C363.329 1686 358.046 1682.71 358.046 1677.67Z" fill="url(#paint53_linear)"/>
</g>
<g filter="url(#filter16_i)">
<path d="M358.046 1704.13C358.046 1701.53 359.522 1699.17 361.85 1698.02L395.207 1681.64C399.728 1679.42 405.01 1682.71 405.01 1687.74C405.01 1690.34 403.535 1692.71 401.206 1693.85L367.85 1710.23C363.329 1712.46 358.046 1709.17 358.046 1704.13Z" fill="url(#paint54_linear)"/>
</g>
<ellipse cx="168.806" cy="1599.17" rx="167.384" ry="91.0745" transform="rotate(61.6417 168.806 1599.17)" fill="url(#paint55_linear)"/>
<ellipse cx="159.65" cy="1608.22" rx="167.384" ry="91.0745" transform="rotate(61.6417 159.65 1608.22)" fill="url(#paint56_linear)"/>
<ellipse cx="159.649" cy="1608.22" rx="42.6819" ry="23.2235" transform="rotate(61.6417 159.649 1608.22)" fill="#EBEFF4"/>
<ellipse opacity="0.4" cx="300.07" cy="1519.32" rx="12.9502" ry="7.04628" transform="rotate(61.6417 300.07 1519.32)" fill="#CAD4DF"/>
<ellipse opacity="0.4" cx="33.4319" cy="1405.45" rx="12.9502" ry="7.04628" transform="rotate(61.6417 33.4319 1405.45)" fill="#CAD4DF"/>
<ellipse opacity="0.4" cx="300.022" cy="1618.44" rx="12.9502" ry="7.04628" transform="rotate(61.6417 300.022 1618.44)" fill="#CAD4DF"/>
<ellipse opacity="0.4" cx="33.3831" cy="1504.57" rx="12.9502" ry="7.04628" transform="rotate(61.6417 33.3831 1504.57)" fill="#CAD4DF"/>
<ellipse opacity="0.4" cx="299.973" cy="1717.55" rx="12.9502" ry="7.04628" transform="rotate(61.6417 299.973 1717.55)" fill="#CAD4DF"/>
<ellipse opacity="0.4" cx="33.3342" cy="1603.69" rx="12.9502" ry="7.04628" transform="rotate(61.6417 33.3342 1603.69)" fill="#CAD4DF"/>
<ellipse opacity="0.4" cx="299.923" cy="1816.67" rx="12.9502" ry="7.04628" transform="rotate(61.6417 299.923 1816.67)" fill="#CAD4DF"/>
<ellipse opacity="0.4" cx="33.2864" cy="1702.81" rx="12.9502" ry="7.04628" transform="rotate(61.6417 33.2864 1702.81)" fill="#CAD4DF"/>
<ellipse opacity="0.4" cx="299.874" cy="1915.79" rx="12.9502" ry="7.04628" transform="rotate(61.6417 299.874 1915.79)" fill="#CAD4DF"/>
<ellipse opacity="0.4" cx="33.2356" cy="1801.93" rx="12.9502" ry="7.04628" transform="rotate(61.6417 33.2356 1801.93)" fill="#CAD4DF"/>
<path d="M254.095 1842.38C261.965 1858.16 260.961 1874.63 251.852 1879.17C242.743 1883.72 228.978 1874.61 221.107 1858.83C214.863 1846.31 176.579 1743.57 161.019 1701.64C159.639 1697.92 162.523 1696.48 164.665 1699.82C188.806 1737.47 247.851 1829.86 254.095 1842.38Z" fill="url(#paint57_linear)"/>
<path d="M155.505 1700.42L161.116 1696.93L170.382 1715.89L168.852 1723.03L155.505 1700.42Z" fill="#E0E7EF"/>
<path d="M248.507 1845.73C256.377 1861.51 255.373 1877.99 246.264 1882.53C237.155 1887.07 223.39 1877.96 215.519 1862.19C209.276 1849.67 170.991 1746.93 155.431 1704.99C154.051 1701.27 156.935 1699.83 159.077 1703.17C183.218 1740.83 242.263 1833.21 248.507 1845.73Z" fill="url(#paint58_linear)"/>
<path opacity="0.1" d="M3595.74 961.605L3185.78 1164.84L2948.31 1035.28L3357.6 832.04L3595.74 961.605Z" fill="url(#paint59_linear)"/>
<path opacity="0.1" d="M3330.63 1007.63L2920.67 1210.87L2683.2 1081.3L3092.49 878.069L3330.63 1007.63Z" fill="url(#paint60_linear)"/>
<circle cx="3124.29" cy="1054.41" r="126.99" fill="url(#paint61_radial)"/>
<circle cx="3124.29" cy="1054.41" r="126.99" fill="url(#paint62_linear)"/>
<path opacity="0.1" fill-rule="evenodd" clip-rule="evenodd" d="M3107.02 928.579C3063 1000.84 3054.65 1057.91 3061.19 1164.63C3023.01 1142.73 2997.3 1101.57 2997.3 1054.41C2997.3 990.126 3045.06 937.001 3107.02 928.579Z" fill="url(#paint63_linear)"/>
<path d="M2774.39 981.334L3023.81 866.494V1150.91C3023.81 1157.11 3020.25 1162.77 3014.65 1165.44L2783.99 1275.59C2780.25 1277.07 2778.14 1277.35 2774.39 1277.3V981.334Z" fill="url(#paint64_linear)"/>
<path d="M2774.36 982.511L2531.87 867.208V1150.25C2531.87 1156.38 2535.35 1161.98 2540.85 1164.69L2763.05 1274.36C2767.21 1276.47 2769.67 1277.2 2774.36 1277.31V982.511Z" fill="url(#paint65_linear)"/>
<path opacity="0.32" d="M2849.17 1010.83C2849.17 1009.61 2849.86 1008.49 2850.96 1007.95L2973.93 946.824C2976.08 945.759 2978.59 947.317 2978.59 949.709V956.78C2978.59 958.003 2977.9 959.121 2976.8 959.665L2853.83 1020.79C2851.69 1021.85 2849.17 1020.3 2849.17 1017.9V1010.83Z" fill="#C0CDDC"/>
<path opacity="0.32" d="M2884.68 1180.24C2884.68 1179.03 2885.36 1177.92 2886.44 1177.37L2998.26 1120.52C3000.4 1119.43 3002.94 1120.98 3002.94 1123.39V1130.43C3002.94 1131.64 3002.26 1132.75 3001.18 1133.3L2889.36 1190.15C2887.22 1191.24 2884.68 1189.69 2884.68 1187.28V1180.24Z" fill="#C0CDDC"/>
<ellipse opacity="0.4" rx="17.7665" ry="9.66684" transform="matrix(-0.474984 0.879994 0.879994 0.474984 2824.01 1026.39)" fill="#C0CDDC"/>
<ellipse opacity="0.4" rx="17.7665" ry="9.66684" transform="matrix(-0.474984 0.879994 0.879994 0.474984 2824.08 1215.29)" fill="#C0CDDC"/>
<ellipse opacity="0.4" rx="17.7665" ry="9.66684" transform="matrix(-0.474984 0.879994 0.879994 0.474984 2857.97 1199.62)" fill="#C0CDDC"/>
<g opacity="0.6" filter="url(#filter17_f)">
<path d="M2530.27 1067.71L2527.86 968.339L2537.87 972.974L2663.38 1036.38L2742.73 1075.68L2773.32 1089.4L2793.15 1081.98L2873.61 1043.24L2962.23 1000.23L3014.14 973.159L3027.86 965.002L3025.82 1066.97L2864.16 1146.31L2800.2 1178.2L2775.54 1188.58L2768.13 1187.1L2593.86 1101.26L2530.27 1067.71Z" fill="url(#paint66_linear)"/>
</g>
<mask id="mask4" style="mask-type:alpha" maskUnits="userSpaceOnUse" x="2531" y="866" width="493" height="405">
<path d="M2774.38 981.337L3023.81 866.497V1153.9L2783.99 1268.43C2780.24 1269.91 2778.14 1270.18 2774.38 1270.13V981.337Z" fill="url(#paint67_linear)"/>
<path d="M2774.38 981.337L2531.87 867.21V1153.1L2763.05 1267.2C2767.21 1269.31 2769.7 1270.02 2774.38 1270.13V981.337Z" fill="url(#paint68_linear)"/>
</mask>
<g mask="url(#mask4)">
<path d="M2530.27 1067.71L2527.86 968.339L2537.87 972.974L2663.38 1036.38L2742.73 1075.68L2773.32 1089.4L2793.15 1081.98L2873.61 1043.24L2962.23 1000.23L3014.14 973.159L3027.86 965.002L3025.82 1066.97L2864.16 1146.31L2800.2 1178.2L2775.54 1188.58L2768.13 1187.1L2593.86 1101.26L2530.27 1067.71Z" fill="url(#paint69_linear)"/>
<path d="M2529.55 1061.38C2529.67 1066.02 2534.19 1070.51 2539.02 1072.93L2762.98 1185.1C2770.48 1188.86 2779.31 1188.9 2786.84 1185.21L3015.96 1072.99C3020.86 1070.59 3026.05 1065.96 3026.17 1061.28" stroke="#BA46DF" stroke-width="5.36983"/>
<g opacity="0.21" filter="url(#filter18_i)">
<ellipse rx="17.7665" ry="9.66684" transform="matrix(-0.474984 0.879994 0.879994 0.474984 2832.22 1121.13)" fill="#D564F0"/>
</g>
<g opacity="0.1" filter="url(#filter19_i)">
<path d="M2865.31 1099.82C2865.31 1098.61 2865.99 1097.5 2867.07 1096.95L2978.89 1040.09C2981.03 1039 2983.57 1040.56 2983.57 1042.96V1050C2983.57 1051.21 2982.89 1052.32 2981.81 1052.87L2869.99 1109.73C2867.85 1110.82 2865.31 1109.26 2865.31 1106.86V1099.82Z" fill="#D564F0"/>
</g>
<path d="M2529.51 961.911C2529.63 966.554 2534.15 971.048 2538.98 973.467L2762.94 1085.64C2770.44 1089.39 2779.27 1089.43 2786.8 1085.74L3015.92 973.521C3020.82 971.121 3026.01 966.493 3026.13 961.812" stroke="#BA46DF" stroke-width="5.36983"/>
<g filter="url(#filter20_f)">
<path d="M2786.82 934.605C2779.29 930.915 2770.46 930.954 2762.96 934.71M2529.53 1058.44C2529.65 1053.79 2534.17 1049.3 2539 1046.88L2612.86 1009.89M3026.15 1058.54C3026.03 1053.86 3020.84 1049.23 3015.94 1046.83L2941 1010.12" stroke="url(#paint70_linear)" stroke-width="5.36983"/>
</g>
</g>
<path d="M2761.42 748.922C2770.13 744.753 2780.24 744.71 2788.99 748.804L3010.98 852.735C3023.23 858.471 3023.39 875.841 3011.24 881.792L2789.51 990.395C2780.48 994.819 2769.9 994.772 2760.91 990.269L2544.19 881.727C2532.21 875.727 2532.36 858.578 2544.44 852.793L2761.42 748.922Z" fill="url(#paint71_linear)"/>
<g opacity="0.5" filter="url(#filter21_i)">
<path d="M2761.69 772.481C2770.4 768.312 2780.52 768.268 2789.26 772.362L2974.26 858.972C2981.61 862.414 2981.7 872.836 2974.41 876.407L2789.78 966.839C2780.75 971.262 2770.17 971.215 2761.18 966.712L2580.79 876.368C2573.61 872.768 2573.7 862.478 2580.95 859.007L2761.69 772.481Z" fill="url(#paint72_linear)"/>
</g>
<path d="M1862.66 13.502L1593.76 143.819L1559.46 533.256L1963.84 824.969L1743.07 1366.71L2011.03 1231.12L2299.92 809.608L1856.99 521.489L1862.66 13.502Z" fill="#DEC344"/>
<path d="M1742.63 1359.28C1744.17 1358.63 1746.02 1357.86 1748.13 1356.97C1755.17 1354.01 1765.26 1349.75 1777.45 1344.55C1801.82 1334.16 1834.59 1320.03 1868.19 1305.07C1901.79 1290.11 1936.19 1274.33 1963.83 1260.64C1977.65 1253.79 1989.76 1247.48 1999.21 1242.06C2008.76 1236.59 2015.35 1232.18 2018.37 1229.14L2455.72 789.754C2465.92 779.511 2466.58 760.654 2459.4 741.331C2452.27 722.18 2437.81 703.76 2419.66 695.104L1936.36 466.302L1934.82 465.574V463.875V89.0137C1934.82 67.3777 1923.33 45.7983 1908.28 31.3204C1900.77 24.0985 1892.5 18.7639 1884.51 16.0685C1876.54 13.3747 1869.04 13.3666 1862.79 16.4635C1860.45 17.6283 1858.23 19.0954 1855.84 20.6734L1855.82 20.6839C1853.49 22.2268 1850.99 23.8776 1848.29 25.2041L1596.68 148.823L1423.08 453.847C1421.89 455.942 1420.52 457.895 1419.21 459.733L1418.95 460.1C1417.71 461.834 1416.55 463.469 1415.52 465.176C1408.5 476.825 1409.61 495.011 1417.24 512.799C1424.81 530.477 1438.49 546.937 1455.34 554.975L1742.63 1359.28ZM1742.63 1359.28L1940.04 788.101L1940.83 785.83L1938.66 784.799L1455.35 554.977L1742.63 1359.28Z" fill="url(#paint73_linear)" stroke="#FDC007" stroke-width="5.36983"/>
<g filter="url(#filter22_ii)">
<path d="M1184.69 687.763L1668 917.587V1291.43C1668 1340.4 1724.3 1387.99 1750.77 1361.4L2188.12 922.012C2210.79 899.244 2189.16 841.093 2151.32 823.044L1668 594.238V219.377C1668 170.407 1611.71 122.814 1585.24 149.407L1147.88 588.796C1125.22 611.563 1146.85 669.714 1184.69 687.763Z" fill="url(#paint74_linear)"/>
</g>
<path d="M1670.69 915.89V917.587V1291.43C1670.69 1314.95 1684.27 1338.39 1701.19 1352.7C1709.64 1359.84 1718.72 1364.54 1727.11 1365.92C1735.4 1367.3 1742.96 1365.44 1748.87 1359.51L2186.22 920.118C2196.42 909.874 2197.08 891.017 2189.89 871.694C2182.77 852.543 2168.31 834.123 2150.16 825.467L1666.85 596.665L1665.32 595.938V594.238V219.377C1665.32 195.853 1651.74 172.413 1634.81 158.106C1626.37 150.967 1617.28 146.269 1608.9 144.883C1600.6 143.512 1593.04 145.37 1587.14 151.301L1149.79 590.69C1139.59 600.933 1138.93 619.79 1146.11 639.113C1153.23 658.263 1167.69 676.682 1185.84 685.339L1670.69 915.89ZM1670.69 915.89L1669.16 915.162L1185.84 685.34L1670.69 915.89Z" stroke="#FDC007" stroke-width="5.36983"/>
<path d="M1670.69 915.89V917.587V1291.43C1670.69 1314.95 1684.27 1338.39 1701.19 1352.7C1709.64 1359.84 1718.72 1364.54 1727.11 1365.92C1735.4 1367.3 1742.96 1365.44 1748.87 1359.51L2186.22 920.118C2196.42 909.874 2197.08 891.017 2189.89 871.694C2182.77 852.543 2168.31 834.123 2150.16 825.467L1666.85 596.665L1665.32 595.938V594.238V219.377C1665.32 195.853 1651.74 172.413 1634.81 158.106C1626.37 150.967 1617.28 146.269 1608.9 144.883C1600.6 143.512 1593.04 145.37 1587.14 151.301L1149.79 590.69C1139.59 600.933 1138.93 619.79 1146.11 639.113C1153.23 658.263 1167.69 676.682 1185.84 685.339L1670.69 915.89ZM1670.69 915.89L1669.16 915.162L1185.84 685.34L1670.69 915.89Z" stroke="#FDC007" stroke-width="5.36983"/>
<g opacity="0.3" filter="url(#filter23_f)">
<path d="M1938.27 1168.62V785.041L1457.5 550.654C1439.15 541.709 1424.91 526.096 1417.68 507.004L1415.52 501.275C1413.52 496.005 1412.5 490.418 1412.5 484.783C1412.5 472.222 1417.57 460.193 1426.56 451.423L1650.74 232.77L1664.37 212.297L1660.13 195.214L1637.83 158.833L1596.75 144.75L1569.76 174.091L1268.39 472.29L1156.37 586.404C1147.58 595.366 1142.65 607.424 1142.65 619.983C1142.65 628.756 1145.06 637.36 1149.61 644.859L1155.54 654.63C1164.56 669.486 1177.74 681.368 1193.45 688.803L1671.17 914.908V1289.78V1315.89L1691.25 1343.34L1714.68 1362.75L1737.44 1368.1L1754.85 1355.39L1938.27 1168.62Z" fill="url(#paint75_linear)"/>
</g>
<g filter="url(#filter24_f)">
<path d="M1940.19 785.12V786.816V1160.66C1940.19 1184.18 1953.77 1207.62 1970.7 1221.93C1979.14 1229.07 1988.22 1233.77 1996.61 1235.15C2004.91 1236.52 2012.46 1234.67 2018.37 1228.74L2455.72 789.347C2465.92 779.104 2466.58 760.247 2459.4 740.924C2452.27 721.773 2437.81 703.353 2419.66 694.697L1936.36 465.894L1934.82 465.167V463.468V88.6064C1934.82 65.082 1921.24 41.6422 1904.32 27.3355C1895.87 20.1965 1886.79 15.4985 1878.4 14.1128C1870.11 12.7416 1862.55 14.5997 1856.64 20.5303L1419.29 459.919C1409.09 470.163 1408.43 489.019 1415.62 508.342C1422.74 527.492 1437.2 545.911 1455.34 554.568L1940.19 785.12ZM1940.19 785.12L1938.66 784.391L1455.35 554.57L1940.19 785.12Z" stroke="url(#paint76_linear)" stroke-width="5.36983"/>
</g>
<path d="M1743.41 1363.62L2013.6 1232.85" stroke="#FDC007" stroke-width="5.36983"/>
<path d="M1668 594.058L1938.19 463.296" stroke="#FDC007" stroke-width="5.36983"/>
<g filter="url(#filter25_f)">
<path d="M1667.32 917.38L1937.51 786.617" stroke="url(#paint77_linear)" stroke-width="5.36983"/>
</g>
<path d="M1594.31 146.456L1864.5 15.6934" stroke="#FDC007" stroke-width="5.36983"/>
<path opacity="0.3" d="M3863.05 1854.66L3310.41 2121.68L3128.15 1995.97L3560.2 1764.41L3863.05 1854.66Z" fill="url(#paint78_linear)"/>
<path fill-rule="evenodd" clip-rule="evenodd" d="M3310.43 1982.3L3153.63 2046.75V1852.26L3310.43 1777.54V1777.54H3310.43L3467.22 1852.26V2046.75L3310.43 1982.3H3310.43Z" fill="url(#paint79_linear)"/>
<path d="M3153.63 1852.26L3310.43 1926.97V2121.46L3153.63 2046.74V1852.26Z" fill="url(#paint80_linear)"/>
<g opacity="0.6">
<path d="M3310.4 1777.54L3153.64 1852.3L3153.63 1852.3V2046.92L3153.64 2046.91L3310.4 2121.67L3467.17 2046.91L3467.18 2046.92V1852.3L3467.17 1852.3L3310.4 1777.54Z" fill="url(#paint81_radial)" style="mix-blend-mode:multiply"/>
</g>
<path opacity="0.07" d="M3254.83 2101.15L3075.41 2191.33L2970.22 2141.38L3146.25 2053.75L3155.47 1880.89V1818.18L3288.68 1729.76C3345.16 1754.87 3435.67 1797.75 3435.67 1797.75C3389.81 1840.87 3335.41 1861.95 3254.83 1880.89V2101.15Z" fill="url(#paint82_linear)"/>
<path d="M3467.21 1852.25L3310.42 1926.97V2121.46L3467.21 2046.74V1852.25Z" fill="url(#paint83_linear)"/>
<g opacity="0.2" filter="url(#filter26_f)">
<path d="M3445.23 1494.68L3391.14 1438.23L3383.73 1469.53C3325.07 1466.13 3390.8 1599.3 3333.11 1667.17C3272.15 1738.88 3107.43 1727.98 3125.49 1785.8L3093.39 1790.34L3160.99 1835.33C3220.55 1876.15 3326.26 1839.52 3402.56 1749.76C3480.29 1658.31 3498.7 1545.61 3445.23 1494.68Z" fill="#FD7A17"/>
<path fill-rule="evenodd" clip-rule="evenodd" d="M3329 1544.35C3298.58 1549.17 3262.99 1570.7 3234.01 1604.79C3203.4 1640.8 3187.81 1681.85 3189.84 1713.41C3171.47 1716.32 3154.98 1713.13 3142.99 1702.94C3111.13 1675.85 3122.98 1609.58 3169.45 1554.9C3215.93 1500.23 3279.43 1477.86 3311.29 1504.94C3322.17 1514.19 3327.95 1528 3329 1544.35Z" fill="#FD7618"/>
<path fill-rule="evenodd" clip-rule="evenodd" d="M3085.63 1784.53C3142.79 1833.12 3256.14 1793.68 3338.8 1696.44C3421.47 1599.19 3442.14 1480.97 3384.98 1432.38C3327.82 1383.79 3214.47 1423.24 3131.81 1520.48C3049.15 1617.72 3028.47 1735.94 3085.63 1784.53ZM3142.98 1702.93C3174.84 1730.02 3238.34 1707.65 3284.82 1652.97C3331.3 1598.3 3343.15 1532.03 3311.29 1504.94C3279.43 1477.86 3215.93 1500.23 3169.45 1554.9C3122.97 1609.58 3111.12 1675.85 3142.98 1702.93Z" fill="#FD8714"/>
</g>
<path d="M3443.38 1496.45L3443.42 1496.49L3443.46 1496.53C3469.36 1521.2 3478.13 1561.11 3470.57 1606.61C3463.02 1652.06 3439.22 1702.68 3400.61 1748.1C3362.71 1792.69 3317.57 1823.99 3274.65 1839.1C3231.67 1854.22 3191.3 1853 3162.44 1833.22L3162.42 1833.21L3162.41 1833.2L3100.4 1791.93L3125.84 1788.33L3128.83 1787.91L3127.93 1785.04C3125.85 1778.39 3126.44 1772.96 3128.98 1768.26C3131.56 1763.46 3136.31 1759.15 3143.04 1755.16C3156.56 1747.13 3177.01 1740.91 3200.38 1734.15C3202.15 1733.64 3203.94 1733.12 3205.75 1732.6C3227.55 1726.32 3251.33 1719.46 3273.4 1710.19C3297.3 1700.16 3319.44 1687.2 3335.06 1668.83C3349.91 1651.35 3356.74 1629.77 3359.64 1607.51C3362.54 1585.28 3361.55 1562.15 3360.61 1541.51L3360.57 1540.65C3359.64 1520.18 3358.83 1502.47 3361.68 1490C3363.11 1483.73 3365.4 1479.13 3368.76 1476.18C3372.07 1473.28 3376.73 1471.68 3383.58 1472.08L3385.72 1472.2L3386.22 1470.12L3392.55 1443.39L3443.38 1496.45Z" fill="url(#paint84_linear)" stroke="#FD8813" stroke-width="5.1176"/>
<mask id="path-137-outside-1" maskUnits="userSpaceOnUse" x="3091.79" y="1446.53" width="259.407" height="309.052" fill="black">
<rect fill="white" x="3091.79" y="1446.53" width="259.407" height="309.052"/>
<path fill-rule="evenodd" clip-rule="evenodd" d="M3329 1544.35C3298.58 1549.17 3262.99 1570.7 3234.01 1604.79C3203.4 1640.8 3187.81 1681.85 3189.84 1713.41C3171.47 1716.32 3154.98 1713.13 3142.99 1702.94C3111.13 1675.85 3122.98 1609.58 3169.45 1554.9C3215.93 1500.23 3279.43 1477.86 3311.29 1504.94C3322.17 1514.19 3327.95 1528 3329 1544.35Z"/>
</mask>
<path fill-rule="evenodd" clip-rule="evenodd" d="M3329 1544.35C3298.58 1549.17 3262.99 1570.7 3234.01 1604.79C3203.4 1640.8 3187.81 1681.85 3189.84 1713.41C3171.47 1716.32 3154.98 1713.13 3142.99 1702.94C3111.13 1675.85 3122.98 1609.58 3169.45 1554.9C3215.93 1500.23 3279.43 1477.86 3311.29 1504.94C3322.17 1514.19 3327.95 1528 3329 1544.35Z" fill="url(#paint85_linear)"/>
<path d="M3234.01 1604.79L3230.14 1601.5L3234.01 1604.79ZM3329 1544.35L3329.79 1549.38L3334.37 1548.65L3334.07 1544.03L3329 1544.35ZM3189.84 1713.41L3190.63 1718.43L3195.21 1717.71L3194.91 1713.08L3189.84 1713.41ZM3142.99 1702.94L3146.28 1699.06L3146.28 1699.06L3142.99 1702.94ZM3169.45 1554.9L3173.33 1558.2L3169.45 1554.9ZM3311.29 1504.94L3314.58 1501.07L3311.29 1504.94ZM3237.89 1608.08C3266.32 1574.63 3300.9 1553.95 3329.79 1549.38L3328.2 1539.33C3296.26 1544.39 3259.66 1566.77 3230.14 1601.5L3237.89 1608.08ZM3194.91 1713.08C3192.99 1683.24 3207.82 1643.45 3237.89 1608.08L3230.14 1601.5C3198.98 1638.16 3182.63 1680.45 3184.77 1713.74L3194.91 1713.08ZM3189.04 1708.39C3171.66 1711.14 3156.82 1708.02 3146.28 1699.06L3139.69 1706.81C3153.15 1718.24 3171.28 1721.5 3190.63 1718.43L3189.04 1708.39ZM3146.28 1699.06C3132.3 1687.18 3127.22 1666.06 3131.85 1640.16C3136.46 1614.41 3150.57 1584.97 3173.33 1558.2L3165.58 1551.61C3141.87 1579.51 3126.82 1610.55 3121.84 1638.37C3116.89 1666.05 3121.81 1691.61 3139.69 1706.81L3146.28 1699.06ZM3173.33 1558.2C3196.09 1531.42 3222.87 1512.75 3247.54 1504.06C3272.36 1495.32 3294.02 1496.94 3308 1508.82L3314.58 1501.07C3296.7 1485.87 3270.68 1485.13 3244.17 1494.47C3217.51 1503.86 3189.3 1523.71 3165.58 1551.61L3173.33 1558.2ZM3308 1508.82C3317.56 1516.95 3322.94 1529.31 3323.93 1544.68L3334.07 1544.03C3332.96 1526.68 3326.77 1511.43 3314.58 1501.07L3308 1508.82Z" fill="#FD8813" mask="url(#path-137-outside-1)"/>
<mask id="path-139-inside-2" fill="white">
<path fill-rule="evenodd" clip-rule="evenodd" d="M3085.63 1784.53C3142.79 1833.12 3256.14 1793.68 3338.8 1696.44C3421.47 1599.19 3442.14 1480.97 3384.98 1432.38C3327.82 1383.79 3214.47 1423.24 3131.81 1520.48C3049.15 1617.72 3028.47 1735.94 3085.63 1784.53ZM3142.98 1702.93C3174.84 1730.02 3238.34 1707.65 3284.82 1652.97C3331.3 1598.3 3343.15 1532.03 3311.29 1504.94C3279.43 1477.86 3215.93 1500.23 3169.45 1554.9C3122.97 1609.58 3111.12 1675.85 3142.98 1702.93Z"/>
</mask>
<g filter="url(#filter27_ii)">
<path fill-rule="evenodd" clip-rule="evenodd" d="M3085.63 1784.53C3142.79 1833.12 3256.14 1793.68 3338.8 1696.44C3421.47 1599.19 3442.14 1480.97 3384.98 1432.38C3327.82 1383.79 3214.47 1423.24 3131.81 1520.48C3049.15 1617.72 3028.47 1735.94 3085.63 1784.53ZM3142.98 1702.93C3174.84 1730.02 3238.34 1707.65 3284.82 1652.97C3331.3 1598.3 3343.15 1532.03 3311.29 1504.94C3279.43 1477.86 3215.93 1500.23 3169.45 1554.9C3122.97 1609.58 3111.12 1675.85 3142.98 1702.93Z" fill="url(#paint86_linear)"/>
</g>
<path d="M3338.8 1696.44L3342.7 1699.75L3338.8 1696.44ZM3085.63 1784.53L3088.95 1780.63L3085.63 1784.53ZM3384.98 1432.38L3388.29 1428.48L3388.29 1428.48L3384.98 1432.38ZM3284.82 1652.97L3288.72 1656.29L3284.82 1652.97ZM3142.98 1702.93L3146.3 1699.04L3142.98 1702.93ZM3311.29 1504.94L3314.6 1501.04L3311.29 1504.94ZM3169.45 1554.9L3165.55 1551.59L3169.45 1554.9ZM3334.91 1693.12C3294.06 1741.17 3245.79 1774.74 3200.97 1790.34C3156.03 1805.97 3115.58 1803.27 3088.95 1780.63L3082.32 1788.43C3112.85 1814.38 3157.65 1816.25 3204.34 1800C3251.16 1783.71 3300.89 1748.94 3342.7 1699.75L3334.91 1693.12ZM3381.66 1436.28C3408.3 1458.92 3417.48 1498.41 3409.28 1545.28C3401.11 1592.02 3375.75 1645.07 3334.91 1693.12L3342.7 1699.75C3384.52 1650.56 3410.83 1595.88 3419.37 1547.05C3427.88 1498.35 3418.82 1454.43 3388.29 1428.48L3381.66 1436.28ZM3135.71 1523.79C3176.55 1475.74 3224.83 1442.17 3269.64 1426.58C3314.58 1410.94 3355.03 1413.64 3381.66 1436.28L3388.29 1428.48C3357.77 1402.53 3312.96 1400.67 3266.28 1416.91C3219.46 1433.2 3169.73 1467.97 3127.91 1517.16L3135.71 1523.79ZM3088.95 1780.63C3062.32 1757.99 3053.13 1718.5 3061.33 1671.63C3069.5 1624.89 3094.86 1571.84 3135.71 1523.79L3127.91 1517.16C3086.09 1566.36 3059.79 1621.04 3051.25 1669.87C3042.73 1718.56 3051.79 1762.48 3082.32 1788.43L3088.95 1780.63ZM3280.92 1649.66C3258.16 1676.43 3231.39 1695.1 3206.72 1703.79C3181.91 1712.53 3160.26 1710.91 3146.3 1699.04L3139.67 1706.83C3157.56 1722.04 3183.59 1722.78 3210.12 1713.44C3236.78 1704.05 3265 1684.19 3288.72 1656.29L3280.92 1649.66ZM3307.97 1508.84C3321.94 1520.71 3327.02 1541.82 3322.39 1567.71C3317.79 1593.46 3303.68 1622.89 3280.92 1649.66L3288.72 1656.29C3312.44 1628.39 3327.49 1597.34 3332.47 1569.51C3337.42 1541.83 3332.49 1516.26 3314.6 1501.04L3307.97 1508.84ZM3173.35 1558.22C3196.11 1531.45 3222.88 1512.78 3247.55 1504.09C3272.36 1495.35 3294.01 1496.97 3307.97 1508.84L3314.6 1501.04C3296.71 1485.83 3270.67 1485.1 3244.15 1494.44C3217.49 1503.83 3189.27 1523.69 3165.55 1551.59L3173.35 1558.22ZM3146.3 1699.04C3132.33 1687.16 3127.25 1666.06 3131.88 1640.17C3136.48 1614.42 3150.59 1584.99 3173.35 1558.22L3165.55 1551.59C3141.83 1579.49 3126.78 1610.54 3121.8 1638.37C3116.85 1666.05 3121.77 1691.62 3139.67 1706.83L3146.3 1699.04Z" fill="#FD8813" mask="url(#path-139-inside-2)"/>
<path d="M3222.25 1851.93L3209.38 1838.48L3202.84 1839.92L3202.49 1851.02C3210.14 1851.81 3214.47 1851.96 3222.25 1851.93Z" fill="#FD6C1A"/>
<g opacity="0.3" filter="url(#filter28_f)">
<path d="M3209.96 1754.45L3144.45 1710.43M3367.07 1550.76L3311.29 1500.1" stroke="#FD8414" stroke-width="5.1176"/>
</g>
<g opacity="0.5" filter="url(#filter29_f)">
<path d="M3347.44 1701.2C3324.44 1728.26 3297.31 1747.22 3272.14 1756.09C3246.9 1764.98 3224.16 1763.58 3209.21 1750.87C3194.26 1738.17 3189.22 1715.94 3193.93 1689.6C3198.63 1663.33 3212.97 1633.5 3235.97 1606.45C3258.97 1579.39 3286.1 1560.43 3311.27 1551.57C3336.51 1542.68 3359.25 1544.07 3374.2 1556.78C3389.15 1569.49 3394.19 1591.71 3389.48 1618.05C3384.78 1644.32 3370.44 1674.15 3347.44 1701.2Z" stroke="url(#paint87_linear)" stroke-width="5.1176"/>
</g>
<path d="M3143.28 1810.54C3143.59 1809.89 3144.19 1809.42 3144.9 1809.32C3164.44 1806.67 3197.41 1817.42 3208.71 1837.68C3209.03 1838.27 3209.04 1838.98 3208.76 1839.59L3190.08 1879.77L3125.3 1849.65L3143.28 1810.54Z" fill="url(#paint88_linear)"/>
<path opacity="0.5" d="M3143.28 1810.54C3143.59 1809.89 3144.19 1809.42 3144.9 1809.32C3164.44 1806.67 3197.41 1817.42 3208.71 1837.68C3209.03 1838.27 3209.04 1838.98 3208.76 1839.59L3190.08 1879.77L3125.3 1849.65L3143.28 1810.54Z" fill="url(#paint89_linear)"/>
<g filter="url(#filter30_i)">
<path d="M3089.35 1848.23C3092.27 1841.94 3098.65 1837.91 3105.56 1838.46C3148.53 1841.87 3185.25 1858.94 3210.08 1886.77C3214.38 1891.59 3215.04 1898.54 3212.32 1904.39L3079.4 2190.24L2956.82 2133.23L3089.35 1848.23Z" fill="url(#paint90_linear)"/>
</g>
<path opacity="0.5" d="M3089.35 1848.23C3092.27 1841.94 3098.65 1837.91 3105.56 1838.46C3148.53 1841.87 3185.25 1858.94 3210.08 1886.77C3214.38 1891.59 3215.04 1898.54 3212.32 1904.39L3079.4 2190.24L2956.82 2133.23L3089.35 1848.23Z" fill="url(#paint91_linear)"/>
<ellipse cx="3018.21" cy="2161.52" rx="67.5997" ry="11.282" transform="rotate(24.9512 3018.21 2161.52)" fill="url(#paint92_linear)"/>
<g opacity="0.3" filter="url(#filter31_f)">
<path d="M3090.8 1772.63C3150.25 1823.16 3268.14 1782.14 3354.11 1681C3440.08 1579.87 3461.58 1456.91 3402.13 1406.38C3342.68 1355.84 3224.79 1396.86 3138.82 1498" stroke="url(#paint93_linear)" stroke-width="36.3021"/>
</g>
<defs>
<filter id="filter0_f" x="750.076" y="635.319" width="360.333" height="611.213" filterUnits="userSpaceOnUse" color-interpolation-filters="sRGB">
<feFlood flood-opacity="0" result="BackgroundImageFix"/>
<feBlend mode="normal" in="SourceGraphic" in2="BackgroundImageFix" result="shape"/>
<feGaussianBlur stdDeviation="19.2593" result="effect1_foregroundBlur"/>
</filter>
<filter id="filter1_i" x="748.754" y="703.161" width="258.176" height="537.339" filterUnits="userSpaceOnUse" color-interpolation-filters="sRGB">
<feFlood flood-opacity="0" result="BackgroundImageFix"/>
<feBlend mode="normal" in="SourceGraphic" in2="BackgroundImageFix" result="shape"/>
<feColorMatrix in="SourceAlpha" type="matrix" values="0 0 0 0 0 0 0 0 0 0 0 0 0 0 0 0 0 0 127 0" result="hardAlpha"/>
<feOffset dy="-15.6378"/>
<feGaussianBlur stdDeviation="23.4567"/>
<feComposite in2="hardAlpha" operator="arithmetic" k2="-1" k3="1"/>
<feColorMatrix type="matrix" values="0 0 0 0 1 0 0 0 0 1 0 0 0 0 1 0 0 0 0.96 0"/>
<feBlend mode="overlay" in2="shape" result="effect1_innerShadow"/>
</filter>
<filter id="filter2_f" x="781.83" y="704.382" width="35.1665" height="122.816" filterUnits="userSpaceOnUse" color-interpolation-filters="sRGB">
<feFlood flood-opacity="0" result="BackgroundImageFix"/>
<feBlend mode="normal" in="SourceGraphic" in2="BackgroundImageFix" result="shape"/>
<feGaussianBlur stdDeviation="1.83422" result="effect1_foregroundBlur"/>
</filter>
<filter id="filter3_i" x="641.324" y="763.513" width="275.278" height="501.872" filterUnits="userSpaceOnUse" color-interpolation-filters="sRGB">
<feFlood flood-opacity="0" result="BackgroundImageFix"/>
<feBlend mode="normal" in="SourceGraphic" in2="BackgroundImageFix" result="shape"/>
<feColorMatrix in="SourceAlpha" type="matrix" values="0 0 0 0 0 0 0 0 0 0 0 0 0 0 0 0 0 0 127 0" result="hardAlpha"/>
<feOffset dx="-6.41976" dy="7.33686"/>
<feGaussianBlur stdDeviation="9.62963"/>
<feComposite in2="hardAlpha" operator="arithmetic" k2="-1" k3="1"/>
<feColorMatrix type="matrix" values="0 0 0 0 0.984314 0 0 0 0 0.32549 0 0 0 0 0.423529 0 0 0 0.24 0"/>
<feBlend mode="normal" in2="shape" result="effect1_innerShadow"/>
</filter>
<filter id="filter4_f" x="1493.11" y="2143.73" width="544.902" height="86.3506" filterUnits="userSpaceOnUse" color-interpolation-filters="sRGB">
<feFlood flood-opacity="0" result="BackgroundImageFix"/>
<feBlend mode="normal" in="SourceGraphic" in2="BackgroundImageFix" result="shape"/>
<feGaussianBlur stdDeviation="2.56224" result="effect1_foregroundBlur"/>
</filter>
<filter id="filter5_f" x="1357.44" y="1948.92" width="816.81" height="520.047" filterUnits="userSpaceOnUse" color-interpolation-filters="sRGB">
<feFlood flood-opacity="0" result="BackgroundImageFix"/>
<feBlend mode="normal" in="SourceGraphic" in2="BackgroundImageFix" result="shape"/>
<feGaussianBlur stdDeviation="70.4615" result="effect1_foregroundBlur"/>
</filter>
<filter id="filter6_i" x="1667.83" y="1871.27" width="195.464" height="150.487" filterUnits="userSpaceOnUse" color-interpolation-filters="sRGB">
<feFlood flood-opacity="0" result="BackgroundImageFix"/>
<feBlend mode="normal" in="SourceGraphic" in2="BackgroundImageFix" result="shape"/>
<feColorMatrix in="SourceAlpha" type="matrix" values="0 0 0 0 0 0 0 0 0 0 0 0 0 0 0 0 0 0 127 0" result="hardAlpha"/>
<feOffset dy="12.8112"/>
<feComposite in2="hardAlpha" operator="arithmetic" k2="-1" k3="1"/>
<feColorMatrix type="matrix" values="0 0 0 0 0.796078 0 0 0 0 0.843137 0 0 0 0 0.894118 0 0 0 1 0"/>
<feBlend mode="normal" in2="shape" result="effect1_innerShadow"/>
</filter>
<filter id="filter7_f" x="16.4598" y="1274.77" width="453.418" height="700.426" filterUnits="userSpaceOnUse" color-interpolation-filters="sRGB">
<feFlood flood-opacity="0" result="BackgroundImageFix"/>
<feBlend mode="normal" in="SourceGraphic" in2="BackgroundImageFix" result="shape"/>
<feGaussianBlur stdDeviation="29.1739" result="effect1_foregroundBlur"/>
</filter>
<filter id="filter8_f" x="137.77" y="1334.41" width="39.7288" height="70.6205" filterUnits="userSpaceOnUse" color-interpolation-filters="sRGB">
<feFlood flood-opacity="0" result="BackgroundImageFix"/>
<feBlend mode="normal" in="SourceGraphic" in2="BackgroundImageFix" result="shape"/>
<feGaussianBlur stdDeviation="1.48342" result="effect1_foregroundBlur"/>
</filter>
<filter id="filter9_f" x="328.722" y="1837.22" width="86.5209" height="45.0526" filterUnits="userSpaceOnUse" color-interpolation-filters="sRGB">
<feFlood flood-opacity="0" result="BackgroundImageFix"/>
<feBlend mode="normal" in="SourceGraphic" in2="BackgroundImageFix" result="shape"/>
<feGaussianBlur stdDeviation="1.48342" result="effect1_foregroundBlur"/>
</filter>
<filter id="filter10_f" x="12.5903" y="1300.91" width="403.809" height="662.425" filterUnits="userSpaceOnUse" color-interpolation-filters="sRGB">
<feFlood flood-opacity="0" result="BackgroundImageFix"/>
<feBlend mode="normal" in="SourceGraphic" in2="BackgroundImageFix" result="shape"/>
<feGaussianBlur stdDeviation="19.2844" result="effect1_foregroundBlur"/>
</filter>
<filter id="filter11_i" x="358.046" y="1548.65" width="46.9638" height="30.0102" filterUnits="userSpaceOnUse" color-interpolation-filters="sRGB">
<feFlood flood-opacity="0" result="BackgroundImageFix"/>
<feBlend mode="normal" in="SourceGraphic" in2="BackgroundImageFix" result="shape"/>
<feColorMatrix in="SourceAlpha" type="matrix" values="0 0 0 0 0 0 0 0 0 0 0 0 0 0 0 0 0 0 127 0" result="hardAlpha"/>
<feOffset dx="-6.92262" dy="-2.96684"/>
<feComposite in2="hardAlpha" operator="arithmetic" k2="-1" k3="1"/>
<feColorMatrix type="matrix" values="0 0 0 0 0.0823529 0 0 0 0 0.447059 0 0 0 0 0.94902 0 0 0 0.18 0"/>
<feBlend mode="normal" in2="shape" result="effect1_innerShadow"/>
</filter>
<filter id="filter12_i" x="358.046" y="1575.1" width="46.9638" height="30.0102" filterUnits="userSpaceOnUse" color-interpolation-filters="sRGB">
<feFlood flood-opacity="0" result="BackgroundImageFix"/>
<feBlend mode="normal" in="SourceGraphic" in2="BackgroundImageFix" result="shape"/>
<feColorMatrix in="SourceAlpha" type="matrix" values="0 0 0 0 0 0 0 0 0 0 0 0 0 0 0 0 0 0 127 0" result="hardAlpha"/>
<feOffset dx="-6.92262" dy="-2.96684"/>
<feComposite in2="hardAlpha" operator="arithmetic" k2="-1" k3="1"/>
<feColorMatrix type="matrix" values="0 0 0 0 0.0823529 0 0 0 0 0.447059 0 0 0 0 0.94902 0 0 0 0.18 0"/>
<feBlend mode="normal" in2="shape" result="effect1_innerShadow"/>
</filter>
<filter id="filter13_i" x="358.046" y="1601.56" width="46.9638" height="30.0102" filterUnits="userSpaceOnUse" color-interpolation-filters="sRGB">
<feFlood flood-opacity="0" result="BackgroundImageFix"/>
<feBlend mode="normal" in="SourceGraphic" in2="BackgroundImageFix" result="shape"/>
<feColorMatrix in="SourceAlpha" type="matrix" values="0 0 0 0 0 0 0 0 0 0 0 0 0 0 0 0 0 0 127 0" result="hardAlpha"/>
<feOffset dx="-6.92262" dy="-2.96684"/>
<feComposite in2="hardAlpha" operator="arithmetic" k2="-1" k3="1"/>
<feColorMatrix type="matrix" values="0 0 0 0 0.0823529 0 0 0 0 0.447059 0 0 0 0 0.94902 0 0 0 0.18 0"/>
<feBlend mode="normal" in2="shape" result="effect1_innerShadow"/>
</filter>
<filter id="filter14_i" x="358.046" y="1628.02" width="46.9638" height="30.0102" filterUnits="userSpaceOnUse" color-interpolation-filters="sRGB">
<feFlood flood-opacity="0" result="BackgroundImageFix"/>
<feBlend mode="normal" in="SourceGraphic" in2="BackgroundImageFix" result="shape"/>
<feColorMatrix in="SourceAlpha" type="matrix" values="0 0 0 0 0 0 0 0 0 0 0 0 0 0 0 0 0 0 127 0" result="hardAlpha"/>
<feOffset dx="-6.92262" dy="-2.96684"/>
<feComposite in2="hardAlpha" operator="arithmetic" k2="-1" k3="1"/>
<feColorMatrix type="matrix" values="0 0 0 0 0.0823529 0 0 0 0 0.447059 0 0 0 0 0.94902 0 0 0 0.18 0"/>
<feBlend mode="normal" in2="shape" result="effect1_innerShadow"/>
</filter>
<filter id="filter15_i" x="358.046" y="1654.47" width="46.9638" height="30.0102" filterUnits="userSpaceOnUse" color-interpolation-filters="sRGB">
<feFlood flood-opacity="0" result="BackgroundImageFix"/>
<feBlend mode="normal" in="SourceGraphic" in2="BackgroundImageFix" result="shape"/>
<feColorMatrix in="SourceAlpha" type="matrix" values="0 0 0 0 0 0 0 0 0 0 0 0 0 0 0 0 0 0 127 0" result="hardAlpha"/>
<feOffset dx="-6.92262" dy="-2.96684"/>
<feComposite in2="hardAlpha" operator="arithmetic" k2="-1" k3="1"/>
<feColorMatrix type="matrix" values="0 0 0 0 0.0823529 0 0 0 0 0.447059 0 0 0 0 0.94902 0 0 0 0.18 0"/>
<feBlend mode="normal" in2="shape" result="effect1_innerShadow"/>
</filter>
<filter id="filter16_i" x="358.046" y="1680.93" width="46.9638" height="30.0102" filterUnits="userSpaceOnUse" color-interpolation-filters="sRGB">
<feFlood flood-opacity="0" result="BackgroundImageFix"/>
<feBlend mode="normal" in="SourceGraphic" in2="BackgroundImageFix" result="shape"/>
<feColorMatrix in="SourceAlpha" type="matrix" values="0 0 0 0 0 0 0 0 0 0 0 0 0 0 0 0 0 0 127 0" result="hardAlpha"/>
<feOffset dx="-6.92262" dy="-2.96684"/>
<feComposite in2="hardAlpha" operator="arithmetic" k2="-1" k3="1"/>
<feColorMatrix type="matrix" values="0 0 0 0 0.0823529 0 0 0 0 0.447059 0 0 0 0 0.94902 0 0 0 0.18 0"/>
<feBlend mode="normal" in2="shape" result="effect1_innerShadow"/>
</filter>
<filter id="filter17_f" x="2409.72" y="846.866" width="736.267" height="459.852" filterUnits="userSpaceOnUse" color-interpolation-filters="sRGB">
<feFlood flood-opacity="0" result="BackgroundImageFix"/>
<feBlend mode="normal" in="SourceGraphic" in2="BackgroundImageFix" result="shape"/>
<feGaussianBlur stdDeviation="59.0682" result="effect1_foregroundBlur"/>
</filter>
<filter id="filter18_i" x="2815.28" y="1100.91" width="33.8911" height="40.452" filterUnits="userSpaceOnUse" color-interpolation-filters="sRGB">
<feFlood flood-opacity="0" result="BackgroundImageFix"/>
<feBlend mode="normal" in="SourceGraphic" in2="BackgroundImageFix" result="shape"/>
<feColorMatrix in="SourceAlpha" type="matrix" values="0 0 0 0 0 0 0 0 0 0 0 0 0 0 0 0 0 0 127 0" result="hardAlpha"/>
<feOffset dx="-4.29587" dy="-3.2219"/>
<feComposite in2="hardAlpha" operator="arithmetic" k2="-1" k3="1"/>
<feColorMatrix type="matrix" values="0 0 0 0 0 0 0 0 0 0 0 0 0 0 0 0 0 0 0.34 0"/>
<feBlend mode="normal" in2="shape" result="effect1_innerShadow"/>
</filter>
<filter id="filter19_i" x="2865.31" y="1039.74" width="118.261" height="70.3447" filterUnits="userSpaceOnUse" color-interpolation-filters="sRGB">
<feFlood flood-opacity="0" result="BackgroundImageFix"/>
<feBlend mode="normal" in="SourceGraphic" in2="BackgroundImageFix" result="shape"/>
<feColorMatrix in="SourceAlpha" type="matrix" values="0 0 0 0 0 0 0 0 0 0 0 0 0 0 0 0 0 0 127 0" result="hardAlpha"/>
<feOffset dx="-4.29587" dy="-3.2219"/>
<feComposite in2="hardAlpha" operator="arithmetic" k2="-1" k3="1"/>
<feColorMatrix type="matrix" values="0 0 0 0 0 0 0 0 0 0 0 0 0 0 0 0 0 0 0.34 0"/>
<feBlend mode="normal" in2="shape" result="effect1_innerShadow"/>
</filter>
<filter id="filter20_f" x="2522.55" y="924.885" width="510.577" height="138.017" filterUnits="userSpaceOnUse" color-interpolation-filters="sRGB">
<feFlood flood-opacity="0" result="BackgroundImageFix"/>
<feBlend mode="normal" in="SourceGraphic" in2="BackgroundImageFix" result="shape"/>
<feGaussianBlur stdDeviation="2.14793" result="effect1_foregroundBlur"/>
</filter>
<filter id="filter21_i" x="2575.46" y="769.322" width="404.37" height="200.8" filterUnits="userSpaceOnUse" color-interpolation-filters="sRGB">
<feFlood flood-opacity="0" result="BackgroundImageFix"/>
<feBlend mode="normal" in="SourceGraphic" in2="BackgroundImageFix" result="shape"/>
<feColorMatrix in="SourceAlpha" type="matrix" values="0 0 0 0 0 0 0 0 0 0 0 0 0 0 0 0 0 0 127 0" result="hardAlpha"/>
<feOffset dy="9.6657"/>
<feComposite in2="hardAlpha" operator="arithmetic" k2="-1" k3="1"/>
<feColorMatrix type="matrix" values="0 0 0 0 0.8175 0 0 0 0 0.856429 0 0 0 0 0.908333 0 0 0 1 0"/>
<feBlend mode="normal" in2="shape" result="effect1_innerShadow"/>
</filter>
<filter id="filter22_ii" x="1138.65" y="123.458" width="1058.71" height="1263.89" filterUnits="userSpaceOnUse" color-interpolation-filters="sRGB">
<feFlood flood-opacity="0" result="BackgroundImageFix"/>
<feBlend mode="normal" in="SourceGraphic" in2="BackgroundImageFix" result="shape"/>
<feColorMatrix in="SourceAlpha" type="matrix" values="0 0 0 0 0 0 0 0 0 0 0 0 0 0 0 0 0 0 127 0" result="hardAlpha"/>
<feOffset dy="-18.3124"/>
<feGaussianBlur stdDeviation="27.4686"/>
<feComposite in2="hardAlpha" operator="arithmetic" k2="-1" k3="1"/>
<feColorMatrix type="matrix" values="0 0 0 0 1 0 0 0 0 1 0 0 0 0 1 0 0 0 0.96 0"/>
<feBlend mode="overlay" in2="shape" result="effect1_innerShadow"/>
<feColorMatrix in="SourceAlpha" type="matrix" values="0 0 0 0 0 0 0 0 0 0 0 0 0 0 0 0 0 0 127 0" result="hardAlpha"/>
<feOffset dy="18.3124"/>
<feGaussianBlur stdDeviation="16.0234"/>
<feComposite in2="hardAlpha" operator="arithmetic" k2="-1" k3="1"/>
<feColorMatrix type="matrix" values="0 0 0 0 0.975 0 0 0 0 0.902344 0 0 0 0 0.47125 0 0 0 1 0"/>
<feBlend mode="normal" in2="effect1_innerShadow" result="effect2_innerShadow"/>
</filter>
<filter id="filter23_f" x="1138.35" y="140.454" width="804.212" height="1231.95" filterUnits="userSpaceOnUse" color-interpolation-filters="sRGB">
<feFlood flood-opacity="0" result="BackgroundImageFix"/>
<feBlend mode="normal" in="SourceGraphic" in2="BackgroundImageFix" result="shape"/>
<feGaussianBlur stdDeviation="2.14793" result="effect1_foregroundBlur"/>
</filter>
<filter id="filter24_f" x="1397.41" y="0.26033" width="1080.19" height="1248.75" filterUnits="userSpaceOnUse" color-interpolation-filters="sRGB">
<feFlood flood-opacity="0" result="BackgroundImageFix"/>
<feBlend mode="normal" in="SourceGraphic" in2="BackgroundImageFix" result="shape"/>
<feGaussianBlur stdDeviation="5.36983" result="effect1_foregroundBlur"/>
</filter>
<filter id="filter25_f" x="1655.41" y="773.461" width="294.008" height="157.075" filterUnits="userSpaceOnUse" color-interpolation-filters="sRGB">
<feFlood flood-opacity="0" result="BackgroundImageFix"/>
<feBlend mode="normal" in="SourceGraphic" in2="BackgroundImageFix" result="shape"/>
<feGaussianBlur stdDeviation="5.36983" result="effect1_foregroundBlur"/>
</filter>
<filter id="filter26_f" x="2645.49" y="980.108" width="1249.02" height="1301.5" filterUnits="userSpaceOnUse" color-interpolation-filters="sRGB">
<feFlood flood-opacity="0" result="BackgroundImageFix"/>
<feBlend mode="normal" in="SourceGraphic" in2="BackgroundImageFix" result="shape"/>
<feGaussianBlur stdDeviation="181.067" result="effect1_foregroundBlur"/>
</filter>
<filter id="filter27_ii" x="3007.62" y="1322.8" width="455.366" height="569.328" filterUnits="userSpaceOnUse" color-interpolation-filters="sRGB">
<feFlood flood-opacity="0" result="BackgroundImageFix"/>
<feBlend mode="normal" in="SourceGraphic" in2="BackgroundImageFix" result="shape"/>
<feColorMatrix in="SourceAlpha" type="matrix" values="0 0 0 0 0 0 0 0 0 0 0 0 0 0 0 0 0 0 127 0" result="hardAlpha"/>
<feOffset dy="17.4522"/>
<feGaussianBlur stdDeviation="15.2707"/>
<feComposite in2="hardAlpha" operator="arithmetic" k2="-1" k3="1"/>
<feColorMatrix type="matrix" values="0 0 0 0 0.996078 0 0 0 0 0.631373 0 0 0 0 0.054902 0 0 0 1 0"/>
<feBlend mode="normal" in2="shape" result="effect1_innerShadow"/>
<feColorMatrix in="SourceAlpha" type="matrix" values="0 0 0 0 0 0 0 0 0 0 0 0 0 0 0 0 0 0 127 0" result="hardAlpha"/>
<feOffset dy="-19.4469"/>
<feGaussianBlur stdDeviation="24.294"/>
<feComposite in2="hardAlpha" operator="arithmetic" k2="-1" k3="1"/>
<feColorMatrix type="matrix" values="0 0 0 0 1 0 0 0 0 1 0 0 0 0 1 0 0 0 0.33 0"/>
<feBlend mode="normal" in2="effect1_innerShadow" result="effect2_innerShadow"/>
</filter>
<filter id="filter28_f" x="3138.93" y="1494.11" width="233.951" height="266.551" filterUnits="userSpaceOnUse" color-interpolation-filters="sRGB">
<feFlood flood-opacity="0" result="BackgroundImageFix"/>
<feBlend mode="normal" in="SourceGraphic" in2="BackgroundImageFix" result="shape"/>
<feGaussianBlur stdDeviation="2.04704" result="effect1_foregroundBlur"/>
</filter>
<filter id="filter29_f" x="3145.78" y="1501.7" width="291.862" height="304.251" filterUnits="userSpaceOnUse" color-interpolation-filters="sRGB">
<feFlood flood-opacity="0" result="BackgroundImageFix"/>
<feBlend mode="normal" in="SourceGraphic" in2="BackgroundImageFix" result="shape"/>
<feGaussianBlur stdDeviation="2.04704" result="effect1_foregroundBlur"/>
</filter>
<filter id="filter30_i" x="2954.64" y="1795.39" width="268.677" height="394.849" filterUnits="userSpaceOnUse" color-interpolation-filters="sRGB">
<feFlood flood-opacity="0" result="BackgroundImageFix"/>
<feBlend mode="normal" in="SourceGraphic" in2="BackgroundImageFix" result="shape"/>
<feColorMatrix in="SourceAlpha" type="matrix" values="0 0 0 0 0 0 0 0 0 0 0 0 0 0 0 0 0 0 127 0" result="hardAlpha"/>
<feOffset dx="-2.18153" dy="-28.3599"/>
<feGaussianBlur stdDeviation="33.8137"/>
<feComposite in2="hardAlpha" operator="arithmetic" k2="-1" k3="1"/>
<feColorMatrix type="matrix" values="0 0 0 0 0.635938 0 0 0 0 0.661719 0 0 0 0 0.6875 0 0 0 0.22 0"/>
<feBlend mode="normal" in2="shape" result="effect1_innerShadow"/>
</filter>
<filter id="filter31_f" x="2903.12" y="1234.84" width="686.692" height="709.328" filterUnits="userSpaceOnUse" color-interpolation-filters="sRGB">
<feFlood flood-opacity="0" result="BackgroundImageFix"/>
<feBlend mode="normal" in="SourceGraphic" in2="BackgroundImageFix" result="shape"/>
<feGaussianBlur stdDeviation="27.2266" result="effect1_foregroundBlur"/>
</filter>
<linearGradient id="paint0_linear" x1="1235.06" y1="1563.05" x2="3371.35" y2="2194.04" gradientUnits="userSpaceOnUse">
<stop stop-color="#F5F7FA"/>
<stop offset="1" stop-color="#F5F7FA" stop-opacity="0"/>
</linearGradient>
<linearGradient id="paint1_linear" x1="1177.63" y1="1076.04" x2="1423.65" y2="836.892" gradientUnits="userSpaceOnUse">
<stop/>
<stop offset="1" stop-opacity="0"/>
</linearGradient>
<linearGradient id="paint2_linear" x1="1466.93" y1="883.63" x2="1162.52" y2="899.43" gradientUnits="userSpaceOnUse">
<stop stop-color="#DAE2EB"/>
<stop offset="1" stop-color="#FBFBFD"/>
</linearGradient>
<linearGradient id="paint3_linear" x1="1204.35" y1="1226.89" x2="1183.29" y2="818.335" gradientUnits="userSpaceOnUse">
<stop offset="0.437974" stop-color="#FDFDFE"/>
<stop offset="1" stop-color="#E5EBF2"/>
</linearGradient>
<linearGradient id="paint4_linear" x1="1261.59" y1="1026.83" x2="1412.96" y2="1016.62" gradientUnits="userSpaceOnUse">
<stop stop-color="#F4F4F4"/>
<stop offset="1" stop-color="#DAE2EB"/>
</linearGradient>
<linearGradient id="paint5_linear" x1="1278.47" y1="843.931" x2="1187.04" y2="1134.41" gradientUnits="userSpaceOnUse">
<stop stop-opacity="0"/>
<stop offset="0.373743" stop-opacity="0.06"/>
<stop offset="1" stop-opacity="0"/>
</linearGradient>
<linearGradient id="paint6_linear" x1="839.896" y1="641.882" x2="1130.25" y2="795" gradientUnits="userSpaceOnUse">
<stop stop-color="#FBFBFD"/>
<stop offset="0.870249" stop-color="#EBEFF4"/>
<stop offset="0.994115" stop-color="#E8ECF2"/>
</linearGradient>
<linearGradient id="paint7_linear" x1="985.573" y1="478.855" x2="1039.05" y2="1369.77" gradientUnits="userSpaceOnUse">
<stop offset="0.437974" stop-color="#FDFDFE"/>
<stop offset="1" stop-color="#E5EBF2"/>
</linearGradient>
<linearGradient id="paint8_linear" x1="985.573" y1="478.859" x2="1039.05" y2="1369.77" gradientUnits="userSpaceOnUse">
<stop offset="0.437974" stop-color="#FDFDFE"/>
<stop offset="1" stop-color="#E5EBF2"/>
</linearGradient>
<linearGradient id="paint9_linear" x1="736.553" y1="689.702" x2="1022.31" y2="853.178" gradientUnits="userSpaceOnUse">
<stop stop-color="#FE758A"/>
<stop offset="0.870249" stop-color="#FB5A72"/>
<stop offset="0.994115" stop-color="#FB4059"/>
</linearGradient>
<linearGradient id="paint10_linear" x1="1003.9" y1="806.759" x2="1024" y2="819.278" gradientUnits="userSpaceOnUse">
<stop stop-color="#FF4E65"/>
<stop offset="1" stop-color="#FB4059"/>
</linearGradient>
<linearGradient id="paint11_linear" x1="877.841" y1="1240.5" x2="792.847" y2="800.147" gradientUnits="userSpaceOnUse">
<stop stop-color="#FB364F"/>
<stop offset="1" stop-color="#FB5770"/>
</linearGradient>
<linearGradient id="paint12_linear" x1="988.792" y1="844.943" x2="758.121" y2="726.589" gradientUnits="userSpaceOnUse">
<stop stop-color="#FB4059"/>
<stop offset="1" stop-color="#FF4D65"/>
</linearGradient>
<linearGradient id="paint13_linear" x1="796.055" y1="747.653" x2="800.042" y2="823.515" gradientUnits="userSpaceOnUse">
<stop stop-color="#FF4D65"/>
<stop offset="1" stop-color="#FF4D65" stop-opacity="0"/>
</linearGradient>
<linearGradient id="paint14_linear" x1="630.842" y1="742.654" x2="921.193" y2="895.771" gradientUnits="userSpaceOnUse">
<stop stop-color="#FBFBFD"/>
<stop offset="0.870249" stop-color="#EBEFF4"/>
<stop offset="0.994115" stop-color="#E8ECF2"/>
</linearGradient>
<linearGradient id="paint15_linear" x1="776.519" y1="579.622" x2="829.999" y2="1470.54" gradientUnits="userSpaceOnUse">
<stop offset="0.437974" stop-color="#FDFDFE"/>
<stop offset="1" stop-color="#E5EBF2"/>
</linearGradient>
<linearGradient id="paint16_linear" x1="1423.21" y1="900.654" x2="669.152" y2="1264.18" gradientUnits="userSpaceOnUse">
<stop stop-color="#DAE2EB"/>
<stop offset="0.998094" stop-color="white"/>
</linearGradient>
<linearGradient id="paint17_linear" x1="787.133" y1="1134.19" x2="1243.09" y2="1134.19" gradientUnits="userSpaceOnUse">
<stop stop-color="#FB5770"/>
<stop offset="0.160911" stop-color="#FB364F"/>
<stop offset="0.770399" stop-color="#FB364F"/>
<stop offset="0.842505" stop-color="#FB2B44"/>
</linearGradient>
<linearGradient id="paint18_linear" x1="531.79" y1="1134.19" x2="1204.53" y2="1097.26" gradientUnits="userSpaceOnUse">
<stop stop-color="#FDFDFE"/>
<stop offset="0.400649" stop-color="#F0F3F7"/>
<stop offset="0.526485" stop-color="#DFE5ED"/>
<stop offset="1" stop-color="#DAE2EB"/>
</linearGradient>
<linearGradient id="paint19_linear" x1="2016.93" y1="2343.71" x2="2324.98" y2="2032.59" gradientUnits="userSpaceOnUse">
<stop/>
<stop offset="1" stop-opacity="0"/>
</linearGradient>
<radialGradient id="paint20_radial" cx="0" cy="0" r="1" gradientUnits="userSpaceOnUse" gradientTransform="translate(2066.28 2198.65) rotate(24.8733) scale(249.505)">
<stop stop-color="white"/>
<stop offset="1" stop-color="#C9D5E3"/>
</radialGradient>
<linearGradient id="paint21_linear" x1="2045.61" y1="2211.37" x2="2274.58" y2="2306.77" gradientUnits="userSpaceOnUse">
<stop stop-color="#58D45C" stop-opacity="0.33"/>
<stop offset="1" stop-color="white" stop-opacity="0"/>
</linearGradient>
<linearGradient id="paint22_linear" x1="2038.37" y1="2088.55" x2="2030.35" y2="2356.23" gradientUnits="userSpaceOnUse">
<stop stop-opacity="0.21"/>
<stop offset="1"/>
</linearGradient>
<linearGradient id="paint23_linear" x1="1990.56" y1="2281.63" x2="1434.49" y2="2278.95" gradientUnits="userSpaceOnUse">
<stop stop-color="#CED8E4"/>
<stop offset="0.665987" stop-color="white"/>
<stop offset="0.800848" stop-color="white"/>
<stop offset="1" stop-color="#BDCDDE"/>
</linearGradient>
<radialGradient id="paint24_radial" cx="0" cy="0" r="1" gradientUnits="userSpaceOnUse" gradientTransform="translate(1667.24 2208.4) rotate(-176.607) scale(339.217 353.074)">
<stop stop-color="#44D049" stop-opacity="0.21"/>
<stop offset="0.968694" stop-color="#44D049" stop-opacity="0"/>
</radialGradient>
<linearGradient id="paint25_linear" x1="2396.83" y1="1833.58" x2="1576.51" y2="1998.48" gradientUnits="userSpaceOnUse">
<stop stop-color="#C4D2E1"/>
<stop offset="1" stop-color="#FCFDFE"/>
</linearGradient>
<linearGradient id="paint26_linear" x1="1990.56" y1="2281.63" x2="1434.49" y2="2278.95" gradientUnits="userSpaceOnUse">
<stop stop-color="#CED8E4"/>
<stop offset="0.665987" stop-color="#FDFDFE"/>
<stop offset="0.800848" stop-color="#FDFDFE"/>
<stop offset="1" stop-color="#BDCDDE"/>
</linearGradient>
<linearGradient id="paint27_linear" x1="2046.84" y1="2180.29" x2="1496.08" y2="2192.61" gradientUnits="userSpaceOnUse">
<stop stop-color="#6AEB6E"/>
<stop offset="0.0805294" stop-color="#10D414"/>
<stop offset="0.791522" stop-color="#78EF7A"/>
<stop offset="0.907232" stop-color="#77EF7A"/>
<stop offset="1" stop-color="#3AC43F"/>
</linearGradient>
<linearGradient id="paint28_linear" x1="2051.59" y1="2170.93" x2="1506.97" y2="2192.46" gradientUnits="userSpaceOnUse">
<stop stop-color="white"/>
<stop offset="0.193368" stop-color="#10D414"/>
<stop offset="0.791522" stop-color="#A4F4A6"/>
<stop offset="0.907232" stop-color="#A9F4AB"/>
<stop offset="1" stop-color="#3AC43F"/>
</linearGradient>
<linearGradient id="paint29_linear" x1="1523.99" y1="2205.77" x2="2022.48" y2="2181.89" gradientUnits="userSpaceOnUse">
<stop stop-color="#3ACC3F"/>
<stop offset="0.123246" stop-color="#3ACC3F" stop-opacity="0"/>
<stop offset="0.912857" stop-color="#3ACC3F" stop-opacity="0.118365"/>
<stop offset="1" stop-color="#3ACC3F"/>
</linearGradient>
<linearGradient id="paint30_linear" x1="2025.05" y1="2176.7" x2="1512.07" y2="2186.35" gradientUnits="userSpaceOnUse">
<stop stop-color="#6AEB6E"/>
<stop offset="0.110357" stop-color="#10D414"/>
<stop offset="0.791522" stop-color="#78EF7A"/>
<stop offset="0.907232" stop-color="#77EF7A"/>
<stop offset="1" stop-color="#3AC43F"/>
</linearGradient>
<linearGradient id="paint31_linear" x1="1925.65" y1="1938.17" x2="1605.47" y2="1921.81" gradientUnits="userSpaceOnUse">
<stop stop-color="#FBFCFE"/>
<stop offset="1" stop-color="#CAD6E3"/>
</linearGradient>
<linearGradient id="paint32_linear" x1="1925.65" y1="1938.17" x2="1605.47" y2="1921.81" gradientUnits="userSpaceOnUse">
<stop stop-color="#FBFCFE"/>
<stop offset="1" stop-color="#CAD6E3"/>
</linearGradient>
<linearGradient id="paint33_linear" x1="492.006" y1="1801.66" x2="736.332" y2="1564.15" gradientUnits="userSpaceOnUse">
<stop/>
<stop offset="1" stop-opacity="0"/>
</linearGradient>
<linearGradient id="paint34_linear" x1="772.121" y1="1585.14" x2="410.749" y2="1603.9" gradientUnits="userSpaceOnUse">
<stop stop-color="#DAE2EB"/>
<stop offset="1" stop-color="#FBFBFD"/>
</linearGradient>
<linearGradient id="paint35_linear" x1="460.404" y1="1992.64" x2="435.396" y2="1507.63" gradientUnits="userSpaceOnUse">
<stop offset="0.437974" stop-color="#FDFDFE"/>
<stop offset="1" stop-color="#E5EBF2"/>
</linearGradient>
<linearGradient id="paint36_linear" x1="528.347" y1="1755.14" x2="708.054" y2="1743.03" gradientUnits="userSpaceOnUse">
<stop stop-color="#F4F4F4"/>
<stop offset="1" stop-color="#DAE2EB"/>
</linearGradient>
<linearGradient id="paint37_linear" x1="573.745" y1="1582.78" x2="326.022" y2="1957.92" gradientUnits="userSpaceOnUse">
<stop stop-opacity="0"/>
<stop offset="0.232365" stop-opacity="0.667326"/>
<stop offset="0.544813" stop-opacity="0.22"/>
<stop offset="1"/>
</linearGradient>
<radialGradient id="paint38_radial" cx="0" cy="0" r="1" gradientUnits="userSpaceOnUse" gradientTransform="translate(253.246 1618.53) rotate(5.11926) scale(775.589 945.282)">
<stop stop-color="#13C2FB"/>
<stop offset="0.39566" stop-color="#13C2FB" stop-opacity="0"/>
</radialGradient>
<linearGradient id="paint39_linear" x1="439.317" y1="1441.27" x2="442.785" y2="1498.97" gradientUnits="userSpaceOnUse">
<stop stop-color="#EBEFF4"/>
<stop offset="1" stop-color="#D2DDE8"/>
</linearGradient>
<linearGradient id="paint40_linear" x1="274.098" y1="2162.76" x2="206.915" y2="1033.34" gradientUnits="userSpaceOnUse">
<stop offset="0.437974" stop-color="#FDFDFE"/>
<stop offset="1" stop-color="#E5EBF2"/>
</linearGradient>
<linearGradient id="paint41_linear" x1="323.289" y1="1316.63" x2="404.078" y2="1711.45" gradientUnits="userSpaceOnUse">
<stop offset="0.306231" stop-color="#13C2FB"/>
<stop offset="1" stop-color="#1599F7"/>
</linearGradient>
<linearGradient id="paint42_linear" x1="201.262" y1="1303.22" x2="378.267" y2="1649.85" gradientUnits="userSpaceOnUse">
<stop stop-color="#13C2FB"/>
<stop offset="0.287449" stop-color="#11BDFA"/>
<stop offset="0.561939" stop-color="#10B9FA"/>
<stop offset="1" stop-color="#1599F7"/>
</linearGradient>
<linearGradient id="paint43_linear" x1="201.262" y1="1303.22" x2="378.267" y2="1649.85" gradientUnits="userSpaceOnUse">
<stop stop-color="#13C2FB"/>
<stop offset="0.287449" stop-color="#11BDFA"/>
<stop offset="0.561939" stop-color="#10B9FA"/>
<stop offset="1" stop-color="#1599F7"/>
</linearGradient>
<linearGradient id="paint44_linear" x1="113.64" y1="1335.17" x2="113.64" y2="1399.3" gradientUnits="userSpaceOnUse">
<stop stop-color="#4ACEFF"/>
<stop offset="1" stop-color="#4ACEFF" stop-opacity="0"/>
</linearGradient>
<linearGradient id="paint45_linear" x1="411.53" y1="1843.85" x2="112.873" y2="1331.17" gradientUnits="userSpaceOnUse">
<stop stop-color="#128AF6"/>
<stop offset="1" stop-color="#2AB6F4"/>
</linearGradient>
<linearGradient id="paint46_linear" x1="323.289" y1="1316.63" x2="404.078" y2="1711.45" gradientUnits="userSpaceOnUse">
<stop offset="0.306231" stop-color="#13C2FB"/>
<stop offset="1" stop-color="#1599F7"/>
</linearGradient>
<linearGradient id="paint47_linear" x1="334.317" y1="1493.18" x2="340.503" y2="1527.1" gradientUnits="userSpaceOnUse">
<stop stop-color="#E7EEF4"/>
<stop offset="1" stop-color="#CAD4DF"/>
</linearGradient>
<linearGradient id="paint48_linear" x1="169.1" y1="2214.68" x2="-50.0753" y2="1117.39" gradientUnits="userSpaceOnUse">
<stop offset="0.295365" stop-color="#FDFDFE"/>
<stop offset="1" stop-color="#E5EBF2"/>
</linearGradient>
<linearGradient id="paint49_linear" x1="351.608" y1="1570.28" x2="411.687" y2="1552.66" gradientUnits="userSpaceOnUse">
<stop stop-color="#1596F7"/>
<stop offset="1" stop-color="#13C2FB"/>
</linearGradient>
<linearGradient id="paint50_linear" x1="358.046" y1="1595.33" x2="411.687" y2="1579.12" gradientUnits="userSpaceOnUse">
<stop stop-color="#1596F7"/>
<stop offset="1" stop-color="#13C2FB"/>
</linearGradient>
<linearGradient id="paint51_linear" x1="358.046" y1="1621.61" x2="411.687" y2="1605.58" gradientUnits="userSpaceOnUse">
<stop stop-color="#1090F6"/>
<stop offset="1" stop-color="#13C2FB"/>
</linearGradient>
<linearGradient id="paint52_linear" x1="351.608" y1="1649.65" x2="435.201" y2="1631.39" gradientUnits="userSpaceOnUse">
<stop stop-color="#108FF6"/>
<stop offset="1" stop-color="#13C2FB"/>
</linearGradient>
<linearGradient id="paint53_linear" x1="350.861" y1="1683.18" x2="441.102" y2="1654.32" gradientUnits="userSpaceOnUse">
<stop stop-color="#1089F5"/>
<stop offset="1" stop-color="#13C2FB"/>
</linearGradient>
<linearGradient id="paint54_linear" x1="372.618" y1="1692.46" x2="418.796" y2="1672.96" gradientUnits="userSpaceOnUse">
<stop stop-color="#1089F5"/>
<stop offset="1" stop-color="#13C2FB"/>
</linearGradient>
<linearGradient id="paint55_linear" x1="-2.18776" y1="1590.78" x2="449.689" y2="1606.38" gradientUnits="userSpaceOnUse">
<stop stop-color="#D8DFE8"/>
<stop offset="1" stop-color="#FDFDFE"/>
</linearGradient>
<linearGradient id="paint56_linear" x1="378.608" y1="1603.74" x2="34.8056" y2="1609.4" gradientUnits="userSpaceOnUse">
<stop stop-color="#F2F5F8"/>
<stop offset="0.907209" stop-color="#FDFDFE"/>
</linearGradient>
<linearGradient id="paint57_linear" x1="154.454" y1="1683.91" x2="233.818" y2="1841.78" gradientUnits="userSpaceOnUse">
<stop stop-color="#E0E7EF"/>
<stop offset="1" stop-color="#EEF1F5"/>
</linearGradient>
<linearGradient id="paint58_linear" x1="141.165" y1="1675.34" x2="246.264" y2="1882.53" gradientUnits="userSpaceOnUse">
<stop stop-color="#EBEFF4"/>
<stop offset="1" stop-color="#FDFDFE"/>
</linearGradient>
<linearGradient id="paint59_linear" x1="3035.37" y1="1128.4" x2="3177.74" y2="952.694" gradientUnits="userSpaceOnUse">
<stop/>
<stop offset="1" stop-opacity="0"/>
</linearGradient>
<linearGradient id="paint60_linear" x1="2770.26" y1="1174.43" x2="2912.63" y2="998.724" gradientUnits="userSpaceOnUse">
<stop/>
<stop offset="1" stop-opacity="0"/>
</linearGradient>
<radialGradient id="paint61_radial" cx="0" cy="0" r="1" gradientUnits="userSpaceOnUse" gradientTransform="translate(3074.01 1014.81) rotate(24.8733) scale(195.388)">
<stop stop-color="white"/>
<stop offset="1" stop-color="#C9D5E3"/>
</radialGradient>
<linearGradient id="paint62_linear" x1="2997.3" y1="959.922" x2="3237.14" y2="1099.48" gradientUnits="userSpaceOnUse">
<stop stop-color="#B057C9" stop-opacity="0.5"/>
<stop offset="1" stop-color="white" stop-opacity="0"/>
</linearGradient>
<linearGradient id="paint63_linear" x1="3052.16" y1="928.579" x2="3045.88" y2="1138.2" gradientUnits="userSpaceOnUse">
<stop stop-opacity="0.21"/>
<stop offset="1"/>
</linearGradient>
<linearGradient id="paint64_linear" x1="2496.88" y1="1011.66" x2="3007.62" y2="988.766" gradientUnits="userSpaceOnUse">
<stop stop-color="#FDFDFE"/>
<stop offset="0.390246" stop-color="#F0F3F7"/>
<stop offset="0.555705" stop-color="#DEE5EC"/>
<stop offset="1" stop-color="#D3DBE3"/>
</linearGradient>
<linearGradient id="paint65_linear" x1="2496.88" y1="1011.66" x2="3007.62" y2="988.766" gradientUnits="userSpaceOnUse">
<stop stop-color="#FDFDFE"/>
<stop offset="0.390246" stop-color="#F0F3F7"/>
<stop offset="0.555705" stop-color="#DEE5EC"/>
<stop offset="1" stop-color="#D3DBE3"/>
</linearGradient>
<linearGradient id="paint66_linear" x1="2515.98" y1="1010.98" x2="3055.07" y2="1023.57" gradientUnits="userSpaceOnUse">
<stop stop-color="#BF4BE2"/>
<stop offset="0.110593" stop-color="#EB8BFF"/>
<stop offset="0.152394" stop-color="#E989FE"/>
<stop offset="0.193774" stop-color="#E888FD"/>
<stop offset="0.258058" stop-color="#D361F0"/>
<stop offset="0.44857" stop-color="#D666F1"/>
<stop offset="0.539289" stop-color="#AB5CC1"/>
<stop offset="0.807053" stop-color="#BE4AE2"/>
<stop offset="1" stop-color="#E798FA"/>
</linearGradient>
<linearGradient id="paint67_linear" x1="2549.71" y1="1068.32" x2="3040.41" y2="1052.39" gradientUnits="userSpaceOnUse">
<stop stop-color="#FDFDFE"/>
<stop offset="0.400649" stop-color="#F0F3F7"/>
<stop offset="0.526485" stop-color="#DFE5ED"/>
<stop offset="1" stop-color="#DAE2EB"/>
</linearGradient>
<linearGradient id="paint68_linear" x1="2549.71" y1="1068.32" x2="3040.41" y2="1052.39" gradientUnits="userSpaceOnUse">
<stop stop-color="#FDFDFE"/>
<stop offset="0.400649" stop-color="#F0F3F7"/>
<stop offset="0.526485" stop-color="#DFE5ED"/>
<stop offset="1" stop-color="#DAE2EB"/>
</linearGradient>
<linearGradient id="paint69_linear" x1="2515.98" y1="1010.98" x2="3055.07" y2="1023.57" gradientUnits="userSpaceOnUse">
<stop stop-color="#BF4BE2"/>
<stop offset="0.127491" stop-color="#EB8BFF"/>
<stop offset="0.258058" stop-color="#D361F0"/>
<stop offset="0.44857" stop-color="#D666F1"/>
<stop offset="0.539289" stop-color="#AB5CC1"/>
<stop offset="0.807053" stop-color="#BE4AE2"/>
<stop offset="1" stop-color="#E798FA"/>
</linearGradient>
<linearGradient id="paint70_linear" x1="3018.12" y1="1046.8" x2="2544.3" y2="1052.31" gradientUnits="userSpaceOnUse">
<stop stop-color="#BA46DF"/>
<stop offset="0.160041" stop-color="#BA46DF" stop-opacity="0"/>
<stop offset="0.853021" stop-color="#BA46DF" stop-opacity="0"/>
<stop offset="1" stop-color="#BA46DF"/>
</linearGradient>
<linearGradient id="paint71_linear" x1="3249.09" y1="610.738" x2="2493.51" y2="817.692" gradientUnits="userSpaceOnUse">
<stop stop-color="#DAE2EB"/>
<stop offset="0.998094" stop-color="white"/>
</linearGradient>
<linearGradient id="paint72_linear" x1="2482.93" y1="816.638" x2="2926.02" y2="750.222" gradientUnits="userSpaceOnUse">
<stop stop-color="#DAE2EB"/>
<stop offset="0.998094" stop-color="white"/>
</linearGradient>
<linearGradient id="paint73_linear" x1="1438.23" y1="369.308" x2="1937.51" y2="1402.87" gradientUnits="userSpaceOnUse">
<stop offset="0.0726388" stop-color="#FDC007"/>
<stop offset="0.352497" stop-color="#FFE051"/>
<stop offset="0.638412" stop-color="#F4D040"/>
<stop offset="0.805669" stop-color="#FEC107"/>
<stop offset="0.955602" stop-color="#D9A812"/>
</linearGradient>
<linearGradient id="paint74_linear" x1="1973.81" y1="-433.421" x2="1653.34" y2="1368.87" gradientUnits="userSpaceOnUse">
<stop stop-color="#FFFAC0"/>
<stop offset="1" stop-color="#FFDD47"/>
</linearGradient>
<linearGradient id="paint75_linear" x1="1809.54" y1="790.506" x2="1488.78" y2="289.748" gradientUnits="userSpaceOnUse">
<stop stop-color="#FCC617"/>
<stop offset="0.517023" stop-color="#FFEBA9"/>
<stop offset="0.694168" stop-color="#FEDD73"/>
<stop offset="0.785854" stop-color="#F4BA0A"/>
</linearGradient>
<linearGradient id="paint76_linear" x1="1515.8" y1="709.301" x2="1604.14" y2="264.572" gradientUnits="userSpaceOnUse">
<stop stop-color="#FDC007"/>
<stop offset="1" stop-color="#FDC007" stop-opacity="0"/>
</linearGradient>
<linearGradient id="paint77_linear" x1="1875.24" y1="767.178" x2="1704.66" y2="899.683" gradientUnits="userSpaceOnUse">
<stop stop-color="#FDC007"/>
<stop offset="1" stop-color="#FDC007" stop-opacity="0"/>
</linearGradient>
<linearGradient id="paint78_linear" x1="2807.09" y1="2554.12" x2="3400.97" y2="1690.09" gradientUnits="userSpaceOnUse">
<stop/>
<stop offset="1" stop-opacity="0"/>
</linearGradient>
<linearGradient id="paint79_linear" x1="3541.84" y1="1817.9" x2="3182.68" y2="1836.54" gradientUnits="userSpaceOnUse">
<stop stop-color="#DAE2EB"/>
<stop offset="1" stop-color="#FBFBFD"/>
</linearGradient>
<linearGradient id="paint80_linear" x1="3232.03" y1="2222.9" x2="3207.18" y2="1740.86" gradientUnits="userSpaceOnUse">
<stop offset="0.437974" stop-color="#FDFDFE"/>
<stop offset="1" stop-color="#E5EBF2"/>
</linearGradient>
<radialGradient id="paint81_radial" cx="0" cy="0" r="1" gradientUnits="userSpaceOnUse" gradientTransform="translate(3172.18 1850.25) rotate(6.39801) scale(625.528 762.964)">
<stop stop-color="#FD8315"/>
<stop offset="0.369792" stop-color="#FD8C12" stop-opacity="0"/>
</radialGradient>
<linearGradient id="paint82_linear" x1="3344.16" y1="1792.02" x2="3065.57" y2="2184.03" gradientUnits="userSpaceOnUse">
<stop stop-opacity="0"/>
<stop offset="0.150381"/>
<stop offset="0.27746"/>
<stop offset="0.507478" stop-opacity="0.16"/>
<stop offset="0.745725" stop-opacity="0.24"/>
<stop offset="0.949083"/>
<stop offset="1"/>
</linearGradient>
<linearGradient id="paint83_linear" x1="3299.55" y1="1986.86" x2="3478.16" y2="1974.82" gradientUnits="userSpaceOnUse">
<stop stop-color="#F4F4F4"/>
<stop offset="1" stop-color="#DAE2EB"/>
</linearGradient>
<linearGradient id="paint84_linear" x1="3397.98" y1="1516.29" x2="3170.56" y2="1875.73" gradientUnits="userSpaceOnUse">
<stop stop-color="#FEA30D"/>
<stop offset="0.137983" stop-color="#FFBC57"/>
<stop offset="0.854529" stop-color="#FD6C1A"/>
<stop offset="1" stop-color="#FD6A1A"/>
</linearGradient>
<linearGradient id="paint85_linear" x1="3275.74" y1="1486.23" x2="3113.09" y2="1716.82" gradientUnits="userSpaceOnUse">
<stop offset="0.0662217" stop-color="#FD6B1A"/>
<stop offset="1" stop-color="#FEA40D"/>
</linearGradient>
<linearGradient id="paint86_linear" x1="3514.97" y1="1262.65" x2="3068.28" y2="1757.11" gradientUnits="userSpaceOnUse">
<stop stop-color="#FBC56C"/>
<stop offset="1" stop-color="#FD8514"/>
</linearGradient>
<linearGradient id="paint87_linear" x1="3339.45" y1="1696.02" x2="3225.25" y2="1593.21" gradientUnits="userSpaceOnUse">
<stop stop-color="#FD8215"/>
<stop offset="0.528057" stop-color="#DAA60C" stop-opacity="0"/>
</linearGradient>
<linearGradient id="paint88_linear" x1="3202.79" y1="1859.49" x2="3140.83" y2="1826.97" gradientUnits="userSpaceOnUse">
<stop offset="0.159539" stop-color="#ADC1D7"/>
<stop offset="0.581247" stop-color="#E0E7EF"/>
<stop offset="1" stop-color="#FDFDFE"/>
</linearGradient>
<linearGradient id="paint89_linear" x1="3175.29" y1="1798.6" x2="3090.14" y2="1979.05" gradientUnits="userSpaceOnUse">
<stop offset="0.056488" stop-color="#FBB251"/>
<stop offset="0.454877" stop-color="#E0E7EF" stop-opacity="0"/>
<stop offset="1" stop-color="#FDFDFE" stop-opacity="0"/>
</linearGradient>
<linearGradient id="paint90_linear" x1="3154.24" y1="2016.57" x2="3057.48" y2="1969.96" gradientUnits="userSpaceOnUse">
<stop stop-color="#CED8E4"/>
<stop offset="0.491169" stop-color="#DFE6EE"/>
<stop offset="0.911857" stop-color="#F8F8FE"/>
</linearGradient>
<linearGradient id="paint91_linear" x1="3199.9" y1="1763.4" x2="3057.48" y2="1969.96" gradientUnits="userSpaceOnUse">
<stop stop-color="#FFD535"/>
<stop offset="0.877225" stop-color="#DFE6EE" stop-opacity="0"/>
<stop offset="1" stop-color="#FDFDFE" stop-opacity="0"/>
</linearGradient>
<linearGradient id="paint92_linear" x1="3029.42" y1="2170.37" x2="2951.05" y2="2174.28" gradientUnits="userSpaceOnUse">
<stop stop-color="#BEC9D6"/>
<stop offset="1" stop-color="#EBEEF1"/>
</linearGradient>
<linearGradient id="paint93_linear" x1="3402.13" y1="1406.38" x2="3090.8" y2="1772.63" gradientUnits="userSpaceOnUse">
<stop stop-color="#FFFBDF"/>
<stop offset="1" stop-color="#FFEB28" stop-opacity="0"/>
</linearGradient>
</defs>
</svg>
