<svg width="1222" height="776" viewBox="0 0 1222 776" fill="none" xmlns="http://www.w3.org/2000/svg">
<path opacity="0.3" d="M1078.24 526.49C1078.24 554.37 1064.4 581.303 1038.58 606.192C1012.74 631.092 975.156 653.694 928.393 672.757C834.887 710.877 705.442 734.542 562.263 734.542C419.084 734.542 289.64 710.877 196.134 672.757C149.371 653.694 111.785 631.092 85.9506 606.192C60.1274 581.303 46.2833 554.37 46.2833 526.49C46.2833 498.609 60.1274 471.676 85.9506 446.787C111.785 421.888 149.371 399.286 196.134 380.222C289.64 342.103 419.084 318.437 562.263 318.437C705.442 318.437 834.887 342.103 928.393 380.222C975.156 399.286 1012.74 421.888 1038.58 446.787C1064.4 471.676 1078.24 498.609 1078.24 526.49Z" stroke="#DBE3EC" stroke-width="7.7457"/>
<path opacity="0.2" d="M958.053 526.49C958.053 567.586 920.366 605.093 858.311 633.582M562.263 365.141C496.556 365.141 434.589 371.668 380.05 383.219M281.239 640.107C210.296 610.947 166.473 570.805 166.473 526.49C166.473 497.437 185.309 470.178 218.274 446.631M405.446 674.68C453.531 683.147 506.553 687.84 562.263 687.84C620.872 687.84 676.506 682.646 726.546 673.327M679.754 372.369C758.145 382.289 826.099 401.875 875.233 427.709" stroke="#B3BCC6" stroke-width="7.7457"/>
<g filter="url(#filter0_f)">
<ellipse cx="562.26" cy="509.119" rx="143.415" ry="49.5637" fill="#FFEB7F"/>
</g>
<g filter="url(#filter1_f)">
<ellipse cx="562.338" cy="509.384" rx="80.3339" ry="28.1768" fill="#FFEB7F" fill-opacity="0.5"/>
</g>
<path opacity="0.1" d="M549.178 284.424L417.563 349.671L341.326 308.075L472.725 242.829L549.178 284.424Z" fill="url(#paint0_linear)"/>
<path fill-rule="evenodd" clip-rule="evenodd" d="M398.492 321.327L356.822 338.455V286.767L398.491 266.91V266.909L398.492 266.91L398.493 266.909V266.91L440.163 286.767V338.455L398.492 321.327Z" fill="url(#paint1_linear)"/>
<path d="M356.822 286.766L398.493 306.624V358.312L356.822 338.455V286.766Z" fill="url(#paint2_linear)"/>
<path d="M440.165 286.766L398.494 306.624V358.312L440.165 338.455V286.766Z" fill="url(#paint3_linear)"/>
<path d="M188.753 320.767L202.313 327.105L202.755 313.741L188.753 320.767Z" fill="#F4F6F9"/>
<path d="M384.253 351.009L360.386 362.2L356.618 350.324V286.604L398.641 266.963L419.184 276.54L377.173 296.424V307.361L385.121 311.05L384.253 351.009Z" fill="url(#paint4_linear)"/>
<path d="M187.275 322.846L182.843 320.818L227.594 299.459L232.276 301.292L187.275 322.846Z" fill="#FDFDFE"/>
<path d="M365.813 311.656L352.252 317.994L351.81 304.63L365.813 311.656Z" fill="#DBE2EB"/>
<path d="M367.388 314.019L371.821 311.992L327.325 290.559L322.643 292.392L367.388 314.019Z" fill="#E5EBF1"/>
<path fill-rule="evenodd" clip-rule="evenodd" d="M272.021 330.167L352.978 363.444V248.743C352.978 246.705 351.807 244.849 349.967 243.972L275.8 208.63C274.967 208.233 274.072 208.313 273.362 208.716L268.671 210.891L272.021 213.083V330.167Z" fill="url(#paint5_linear)"/>
<path d="M348.114 365.72L309.653 372.284L267.157 332.443V213.292C267.157 211.349 269.183 210.071 270.936 210.907L345.103 246.249C346.943 247.126 348.114 248.982 348.114 251.02V365.72Z" fill="url(#paint6_linear)"/>
<mask id="mask0" mask-type="alpha" maskUnits="userSpaceOnUse" x="267" y="210" width="82" height="163">
<path d="M348.115 365.72L309.653 372.284L267.157 332.443V213.292C267.157 211.349 269.183 210.071 270.936 210.907L345.103 246.249C346.943 247.126 348.115 248.982 348.115 251.02V365.72Z" fill="url(#paint7_linear)"/>
</mask>
<g mask="url(#mask0)">
<g opacity="0.3" filter="url(#filter2_f)">
<path d="M336.117 370.835L296.106 379.353L247.283 335.186V211.849L333.045 251.382C334.918 252.245 336.117 254.119 336.117 256.182V370.835Z" fill="#FB4059"/>
</g>
</g>
<path d="M243.52 343.489L324.478 376.766V262.066C324.478 260.028 323.306 258.171 321.466 257.295L248.167 222.356C247.262 221.925 246.285 222.056 245.551 222.551L237.555 226.398L243.52 230.558V343.489Z" fill="url(#paint8_linear)" stroke="url(#paint9_linear)" stroke-width="1.43791"/>
<g filter="url(#filter3_i)">
<path d="M315.749 381.023L275.737 389.541L234.791 347.746V228.595C234.791 226.652 236.817 225.373 238.571 226.209L312.737 261.551C314.577 262.428 315.749 264.284 315.749 266.322V381.023Z" fill="url(#paint10_linear)"/>
</g>
<path d="M315.03 266.322V380.441L275.974 388.756L235.51 347.452V228.595C235.51 227.18 236.985 226.25 238.261 226.858L312.428 262.2C314.017 262.958 315.03 264.562 315.03 266.322Z" stroke="url(#paint11_linear)" stroke-width="1.43791"/>
<g opacity="0.78" filter="url(#filter4_f)">
<path d="M247.262 258.785L247.034 225.617C247.022 223.934 248.764 222.808 250.294 223.511L254.742 225.552" stroke="url(#paint12_linear)" stroke-width="1.43791"/>
</g>
<g filter="url(#filter5_i)">
<path fill-rule="evenodd" clip-rule="evenodd" d="M206.468 361.766L287.426 395.043V280.343C287.426 278.305 286.254 276.448 284.414 275.571L210.247 240.229C209.416 239.833 208.524 239.912 207.815 240.312L203.118 242.489L206.468 244.682V361.766Z" fill="url(#paint13_linear)"/>
</g>
<path d="M282.562 397.318L201.605 364.041V244.89C201.605 242.948 203.63 241.669 205.384 242.505L279.551 277.847C281.391 278.724 282.562 280.58 282.562 282.618V397.318Z" fill="url(#paint14_linear)"/>
<path d="M271.548 359.973L271.618 360.006L268.462 361.791L182.843 320.776L187.072 318.821L266.332 355.985C267.455 356.512 268.754 356.51 269.875 355.98L367.605 309.798L371.791 311.967L271.548 359.973Z" fill="url(#paint15_linear)"/>
<path d="M265.14 360.027C267.1 360.963 269.378 360.962 271.337 360.025L371.78 311.975V354.508C371.78 355.818 371.027 357.013 369.845 357.578L271.337 404.702C269.378 405.639 267.1 405.64 265.14 404.704L184.74 366.31C183.556 365.745 182.803 364.55 182.803 363.238V320.707L265.14 360.027Z" fill="url(#paint16_linear)"/>
<path d="M265.14 360.027C267.1 360.963 269.378 360.962 271.337 360.025L371.78 311.975V354.508C371.78 355.818 371.027 357.013 369.845 357.578L271.337 404.702C269.378 405.639 267.1 405.64 265.14 404.704L184.74 366.31C183.556 365.745 182.803 364.55 182.803 363.238V320.707L265.14 360.027Z" fill="url(#paint17_linear)"/>
<path d="M211.877 256.985L268.093 283.829V288.127L211.877 261.283V256.985Z" fill="#F1F4F8"/>
<path opacity="0.3" d="M211.877 270.336L256.206 291.504V295.802L211.877 274.634V270.336Z" fill="#F1F4F8"/>
<path opacity="0.4" d="M211.877 283.688L239.985 297.11V301.408L211.877 287.986V283.688Z" fill="#F1F4F8"/>
<path opacity="0.4" d="M211.877 297.039L268.093 323.883V328.182L211.877 301.338V297.039Z" fill="#F1F4F8"/>
<path opacity="0.6" d="M211.877 310.392L268.093 337.236V341.534L211.877 314.69V310.392Z" fill="#F1F4F8"/>
<ellipse cx="289.797" cy="643.298" rx="20.3046" ry="8.27748" fill="#F0F2F4"/>
<ellipse cx="219.212" cy="444.736" rx="20.3046" ry="8.27748" fill="#F0F2F4"/>
<ellipse cx="569.483" cy="364.662" rx="20.3046" ry="8.27748" fill="#F8F9FB"/>
<ellipse cx="683.385" cy="373.92" rx="20.3046" ry="8.27748" fill="#F0F2F4"/>
<ellipse cx="877.152" cy="429.847" rx="20.3046" ry="8.27748" fill="#F0F2F4"/>
<ellipse cx="856.848" cy="636.839" rx="20.3046" ry="8.27748" fill="#F0F2F4"/>
<ellipse cx="735.694" cy="671.442" rx="20.3046" ry="8.27748" fill="#F0F2F4"/>
<ellipse cx="391.13" cy="672.619" rx="20.3046" ry="8.27748" fill="#F0F2F4"/>
<ellipse cx="378.61" cy="385.227" rx="20.3046" ry="8.27748" fill="#F0F2F4"/>
<path opacity="0.1" d="M715.023 711.064L612.9 765.155L543.27 730.875L645.125 676.785L715.023 711.064Z" fill="black"/>
<path opacity="0.1" d="M856.846 668.69L692.686 750.071L597.595 698.19L761.488 616.809L856.846 668.69Z" fill="url(#paint18_linear)"/>
<circle cx="668.063" cy="705.852" r="50.8502" fill="url(#paint19_radial)"/>
<circle cx="668.063" cy="705.852" r="50.8502" fill="url(#paint20_linear)"/>
<path opacity="0.1" fill-rule="evenodd" clip-rule="evenodd" d="M661.147 655.468C643.519 684.402 640.178 707.253 642.795 749.99C627.509 741.221 617.212 724.739 617.212 705.852C617.212 680.114 636.335 658.842 661.147 655.468Z" fill="url(#paint21_linear)"/>
<path fill-rule="evenodd" clip-rule="evenodd" d="M635.384 610.928H471.89V742.344C471.889 742.427 471.888 742.51 471.888 742.593C471.888 742.676 471.889 742.759 471.89 742.842V743.56H471.923C473.207 761.107 509.299 775.175 553.635 775.175C597.971 775.175 634.063 761.107 635.346 743.56H635.384V610.928Z" fill="url(#paint22_linear)"/>
<path fill-rule="evenodd" clip-rule="evenodd" d="M635.384 610.928H471.89V742.344C471.889 742.427 471.888 742.51 471.888 742.593C471.888 742.676 471.889 742.759 471.89 742.842V743.56H471.923C473.207 761.107 509.299 775.175 553.635 775.175C597.971 775.175 634.063 761.107 635.346 743.56H635.384V610.928Z" fill="url(#paint23_radial)"/>
<ellipse cx="553.635" cy="610.928" rx="81.7466" ry="32.5825" fill="url(#paint24_linear)"/>
<mask id="mask1" mask-type="alpha" maskUnits="userSpaceOnUse" x="471" y="610" width="165" height="166">
<path fill-rule="evenodd" clip-rule="evenodd" d="M635.384 610.928H471.89V742.344C471.889 742.427 471.888 742.51 471.888 742.593C471.888 742.676 471.889 742.759 471.89 742.842V743.56H471.923C473.207 761.107 509.299 775.175 553.635 775.175C597.971 775.175 634.063 761.107 635.346 743.56H635.384V610.928Z" fill="url(#paint25_linear)"/>
</mask>
<g mask="url(#mask1)">
<path d="M475.433 663.162L471.663 657.238L469.132 701.99L471.986 705.114L480.064 713.945L491.05 720.569L506.506 726.116L521.477 729.509L541.672 731.286H565.582L592.132 727.624L606.133 724.554L620.351 717.715L627.567 713.138L632.952 708.56L636.237 704.467L636.883 656.592L633.168 661.224L623.851 669.84L606.78 677.326C600.605 678.833 588.2 681.871 587.985 681.957C587.77 682.043 574.612 683.608 568.059 684.38L549.426 685.242L531.87 683.734L510.598 680.018L493.258 675.01L475.433 663.162Z" fill="url(#paint26_linear)"/>
<path d="M475.433 663.162L471.663 657.238L469.132 701.99L471.986 705.114L480.064 713.945L491.05 720.569L506.506 726.116L521.477 729.509L541.672 731.286H565.582L592.132 727.624L606.133 724.554L620.351 717.715L627.567 713.138L632.952 708.56L636.237 704.467L636.883 656.592L633.168 661.224L623.851 669.84L606.78 677.326C600.605 678.833 588.2 681.871 587.985 681.957C587.77 682.043 574.612 683.608 568.059 684.38L549.426 685.242L531.87 683.734L510.598 680.018L493.258 675.01L475.433 663.162Z" fill="url(#paint27_linear)"/>
<g filter="url(#filter6_f)">
<path d="M636.456 698.243C636.456 689.301 627.154 681.201 612.254 675.313M470.811 698.243C470.811 689.34 480.033 681.271 494.819 675.39" stroke="url(#paint28_linear)" stroke-width="2.00864"/>
</g>
<path d="M636.456 652.369C636.456 670.363 598.781 684.951 553.634 684.951C508.486 684.951 470.811 670.363 470.811 652.369" stroke="#3AC43F" stroke-width="2.00864"/>
<path d="M636.456 698.999C636.456 716.994 598.781 731.582 553.634 731.582C508.486 731.582 470.811 716.994 470.811 698.999" stroke="#3AC43F" stroke-width="2.00864"/>
</g>
<g opacity="0.6" filter="url(#filter7_f)">
<path d="M476.15 662.445L472.38 656.521L469.849 701.273L472.703 704.396L480.781 713.228L491.767 719.852L507.223 725.399L522.194 728.792L542.389 730.569H566.3L592.849 726.907L606.851 723.837L621.068 716.998L628.284 712.42L633.67 707.843L636.955 703.75L637.601 655.875L633.885 660.506L624.568 669.123L607.497 676.608C601.322 678.116 588.918 681.153 588.702 681.24C588.487 681.326 575.329 682.891 568.777 683.663L550.144 684.525L532.588 683.017L511.316 679.301L493.975 674.293L476.15 662.445Z" fill="url(#paint29_linear)"/>
</g>
<path opacity="0.3" d="M634.371 659.584L634.469 705.853" stroke="#3BC740" stroke-width="2.00864"/>
<g filter="url(#filter8_i)">
<path d="M550.97 587.778C551.969 586.814 553.636 587.522 553.636 588.91V617.008H524.566C523.151 617.008 522.455 615.285 523.474 614.303L550.97 587.778Z" fill="url(#paint30_linear)"/>
<path d="M556.301 634.079C555.302 635.043 553.636 634.335 553.636 632.947V604.849H582.706C584.121 604.849 584.817 606.572 583.798 607.554L556.301 634.079Z" fill="url(#paint31_linear)"/>
</g>
<path opacity="0.1" d="M332.947 512.326L202.238 577.124L126.524 535.814L257.02 471.017L332.947 512.326Z" fill="url(#paint32_linear)"/>
<path fill-rule="evenodd" clip-rule="evenodd" d="M169.107 549.479L119.637 569.813V508.452L169.107 484.878V549.479ZM169.108 549.479L218.577 569.813V508.452L169.108 484.878V549.479Z" fill="url(#paint33_linear)"/>
<path d="M119.637 508.451L169.107 532.024V593.386L119.637 569.812V508.451Z" fill="url(#paint34_linear)"/>
<path d="M218.577 508.451L169.108 532.024V593.386L218.577 569.812V508.451Z" fill="url(#paint35_linear)"/>
<path opacity="0.1" d="M150.376 588.633L98.8745 614.506L101.261 609.071L99.8242 596.296L137.32 583.219L138.911 499.17L169.086 484.881L203.605 501.291L154.819 525.684V581.428C154.819 584.477 153.1 587.265 150.376 588.633Z" fill="url(#paint36_linear)"/>
<path d="M169.106 484.88L119.638 508.452L119.637 508.452V569.815L119.638 569.814L169.106 593.387L169.107 593.387L218.574 569.814L218.576 569.815V508.452L218.574 508.452L169.107 484.88H169.106Z" fill="url(#paint37_radial)" fill-opacity="0.6" style="mix-blend-mode:multiply"/>
<path fill-rule="evenodd" clip-rule="evenodd" d="M44.3551 412.122C42.9208 413.731 42.0223 415.863 42.0223 418.293V546.172C42.0223 549.713 44.0325 552.947 47.2078 554.514L128.541 594.66C129.614 595.189 130.717 595.491 131.81 595.593L130.549 598.31L136.838 595.342L134.529 595.439C138.615 594.587 141.962 591.006 141.962 586.317V458.438C141.962 454.897 139.952 451.663 136.777 450.096L55.4433 409.95C52.4437 408.47 49.1957 408.766 46.6463 410.252L47.0864 409.303L40.7975 412.271L44.3551 412.122Z" fill="url(#paint38_linear)"/>
<path d="M35.9802 421.151C35.9802 414.256 43.2183 409.757 49.4012 412.809L130.735 452.954C133.91 454.522 135.92 457.756 135.92 461.297V589.176C135.92 596.071 128.682 600.57 122.499 597.518L41.1657 557.373C37.9904 555.806 35.9802 552.572 35.9802 549.03V421.151Z" fill="url(#paint39_linear)"/>
<g opacity="0.6" filter="url(#filter9_f)">
<path d="M42.4019 419.122L23.4585 428.409L105.659 601.627L125.939 592.494C127.83 591.643 129.046 589.761 129.046 587.687V464.027C129.046 461.679 127.721 459.533 125.622 458.481L47.0837 419.142C45.6118 418.404 43.88 418.397 42.4019 419.122Z" fill="url(#paint40_linear)"/>
</g>
<path d="M42.4019 419.122L23.4585 428.409L105.659 601.627L125.939 592.494C127.83 591.643 129.046 589.761 129.046 587.687V464.027C129.046 461.679 127.721 459.533 125.622 458.481L47.0837 419.142C45.6118 418.404 43.88 418.397 42.4019 419.122Z" fill="url(#paint41_linear)"/>
<mask id="mask2" mask-type="alpha" maskUnits="userSpaceOnUse" x="23" y="418" width="107" height="184">
<path d="M42.4019 419.122L23.4585 428.409L105.659 601.627L125.939 592.494C127.83 591.643 129.046 589.761 129.046 587.687V464.027C129.046 461.679 127.721 459.533 125.622 458.481L47.0837 419.142C45.6118 418.404 43.88 418.397 42.4019 419.122Z" fill="url(#paint42_linear)"/>
</mask>
<g mask="url(#mask2)">
<path d="M44.7323 422.44V439.336L24.4158 428.46L43.5694 419.225L46.8529 420.319C45.6817 420.319 44.7323 421.269 44.7323 422.44Z" fill="url(#paint43_linear)"/>
<g filter="url(#filter10_f)">
<path d="M44.9067 440.201V423.177C44.9067 421.358 46.798 420.158 48.4433 420.932L54.3989 423.732" stroke="#11BBFA" stroke-width="1.55054"/>
</g>
<g opacity="0.34" filter="url(#filter11_f)">
<path d="M128.504 583.924V585.661C128.504 588.249 125.735 589.894 123.461 588.657L104.38 578.267" stroke="#1289F6" stroke-width="1.55054"/>
</g>
<path d="M106.034 600.608L24.4871 428.768L42.7432 419.818C44.0039 419.2 45.481 419.206 46.7365 419.835L125.275 459.175C127.111 460.095 128.271 461.973 128.271 464.027V587.687C128.271 589.456 127.234 591.061 125.621 591.787L106.034 600.608Z" stroke="url(#paint44_linear)" stroke-width="1.55054"/>
</g>
<g opacity="0.2">
<mask id="mask3" mask-type="alpha" maskUnits="userSpaceOnUse" x="23" y="418" width="107" height="184">
<path d="M42.4019 419.122L23.4585 428.409L105.659 601.627L125.939 592.494C127.83 591.643 129.046 589.761 129.046 587.687V464.027C129.046 461.679 127.721 459.533 125.622 458.481L47.0837 419.142C45.6118 418.404 43.88 418.397 42.4019 419.122Z" fill="url(#paint45_linear)"/>
</mask>
<g mask="url(#mask3)">
<g style="mix-blend-mode:overlay" filter="url(#filter12_f)">
<path d="M112.513 460.487L33.3536 420.577L16.0438 426.267L19.8378 434.092L65.365 545.539L99.2733 604.108L118.48 599.129V470.178C118.48 466.08 116.172 462.332 112.513 460.487Z" fill="black"/>
</g>
</g>
</g>
<path fill-rule="evenodd" clip-rule="evenodd" d="M11.429 428.401C9.9947 430.01 9.09617 432.142 9.09617 434.572V562.451C9.09617 565.992 11.1064 569.226 14.2817 570.793L95.6153 610.939C96.6875 611.468 97.7914 611.77 98.8837 611.872L97.623 614.589L103.912 611.621L101.603 611.718C105.689 610.866 109.036 607.285 109.036 602.596V474.717C109.036 471.176 107.026 467.942 103.851 466.375L22.5171 426.229C19.5175 424.749 16.2696 425.045 13.7202 426.531L14.1603 425.582L7.8714 428.55L11.429 428.401Z" fill="url(#paint46_linear)"/>
<path d="M3.05652 437.43C3.05652 430.535 10.2946 426.036 16.4775 429.088L97.8111 469.233C100.986 470.801 102.997 474.035 102.997 477.576V605.455C102.997 612.35 95.7585 616.849 89.5757 613.797L8.24207 573.652C5.06676 572.085 3.05652 568.851 3.05652 565.31V437.43Z" fill="url(#paint47_linear)"/>
<g filter="url(#filter13_i)">
<path d="M112.274 493.443C112.274 492.629 112.737 491.887 113.467 491.528L123.927 486.39C125.345 485.693 127.001 486.725 127.001 488.305C127.001 489.118 126.538 489.861 125.808 490.219L115.348 495.358C113.931 496.054 112.274 495.022 112.274 493.443Z" fill="url(#paint48_linear)"/>
</g>
<g filter="url(#filter14_i)">
<path d="M112.274 501.739C112.274 500.925 112.737 500.182 113.467 499.824L123.927 494.686C125.345 493.989 127.001 495.021 127.001 496.6C127.001 497.414 126.538 498.157 125.808 498.515L115.348 503.654C113.931 504.35 112.274 503.318 112.274 501.739Z" fill="url(#paint49_linear)"/>
</g>
<g filter="url(#filter15_i)">
<path d="M112.274 510.035C112.274 509.221 112.737 508.478 113.467 508.12L123.927 502.982C125.345 502.285 127.001 503.317 127.001 504.896C127.001 505.71 126.538 506.453 125.808 506.811L115.348 511.949C113.931 512.646 112.274 511.614 112.274 510.035Z" fill="url(#paint50_linear)"/>
</g>
<g filter="url(#filter16_i)">
<path d="M112.274 518.331C112.274 517.518 112.737 516.775 113.467 516.416L123.927 511.278C125.345 510.582 127.001 511.613 127.001 513.193C127.001 514.006 126.538 514.749 125.808 515.108L115.348 520.246C113.931 520.942 112.274 519.91 112.274 518.331Z" fill="url(#paint51_linear)"/>
</g>
<g filter="url(#filter17_i)">
<path d="M112.274 526.627C112.274 525.813 112.737 525.071 113.467 524.712L123.927 519.574C125.345 518.878 127.001 519.909 127.001 521.489C127.001 522.302 126.538 523.045 125.808 523.404L115.348 528.542C113.931 529.238 112.274 528.206 112.274 526.627Z" fill="url(#paint52_linear)"/>
</g>
<g filter="url(#filter18_i)">
<path d="M112.274 534.923C112.274 534.11 112.737 533.367 113.467 533.009L123.927 527.87C125.345 527.174 127.001 528.206 127.001 529.785C127.001 530.599 126.538 531.342 125.808 531.7L115.348 536.838C113.931 537.535 112.274 536.503 112.274 534.923Z" fill="url(#paint53_linear)"/>
</g>
<ellipse cx="52.9332" cy="502.009" rx="52.4875" ry="28.5587" transform="rotate(61.6417 52.9332 502.009)" fill="url(#paint54_linear)"/>
<ellipse cx="50.0621" cy="504.848" rx="52.4875" ry="28.5587" transform="rotate(61.6417 50.0621 504.848)" fill="url(#paint55_linear)"/>
<ellipse cx="50.0619" cy="504.848" rx="13.384" ry="7.28231" transform="rotate(61.6417 50.0619 504.848)" fill="#EBEFF4"/>
<ellipse opacity="0.4" cx="94.0957" cy="476.97" rx="4.06087" ry="2.20954" transform="rotate(61.6417 94.0957 476.97)" fill="#CAD4DF"/>
<ellipse opacity="0.4" cx="10.4833" cy="441.266" rx="4.06087" ry="2.20954" transform="rotate(61.6417 10.4833 441.266)" fill="#CAD4DF"/>
<ellipse opacity="0.4" cx="94.0793" cy="508.052" rx="4.06087" ry="2.20954" transform="rotate(61.6417 94.0793 508.052)" fill="#CAD4DF"/>
<ellipse opacity="0.4" cx="10.4693" cy="472.347" rx="4.06087" ry="2.20954" transform="rotate(61.6417 10.4693 472.347)" fill="#CAD4DF"/>
<ellipse opacity="0.4" cx="94.0653" cy="539.133" rx="4.06087" ry="2.20954" transform="rotate(61.6417 94.0653 539.133)" fill="#CAD4DF"/>
<ellipse opacity="0.4" cx="10.4528" cy="503.429" rx="4.06087" ry="2.20954" transform="rotate(61.6417 10.4528 503.429)" fill="#CAD4DF"/>
<ellipse opacity="0.4" cx="94.0489" cy="570.214" rx="4.06087" ry="2.20954" transform="rotate(61.6417 94.0489 570.214)" fill="#CAD4DF"/>
<ellipse opacity="0.4" cx="10.4388" cy="534.51" rx="4.06087" ry="2.20954" transform="rotate(61.6417 10.4388 534.51)" fill="#CAD4DF"/>
<ellipse opacity="0.4" cx="94.0348" cy="601.295" rx="4.06087" ry="2.20954" transform="rotate(61.6417 94.0348 601.295)" fill="#CAD4DF"/>
<ellipse opacity="0.4" cx="10.4224" cy="565.591" rx="4.06087" ry="2.20954" transform="rotate(61.6417 10.4224 565.591)" fill="#CAD4DF"/>
<path d="M79.679 578.275C82.147 583.223 81.8322 588.389 78.9758 589.814C76.1193 591.238 71.803 588.382 69.335 583.434C67.3771 579.509 55.372 547.292 50.4929 534.142C50.06 532.975 50.9644 532.524 51.636 533.572C59.2063 545.38 77.7211 574.35 79.679 578.275Z" fill="url(#paint56_linear)"/>
<path d="M48.763 533.762L50.5225 532.669L53.4282 538.614L52.9484 540.853L48.763 533.762Z" fill="#E0E7EF"/>
<path d="M77.927 579.326C80.395 584.274 80.0802 589.44 77.2237 590.865C74.3673 592.29 70.051 589.434 67.583 584.486C65.6251 580.561 53.62 548.344 48.7408 535.193C48.308 534.027 49.2123 533.576 49.884 534.623C57.4542 546.431 75.9691 575.401 77.927 579.326Z" fill="url(#paint57_linear)"/>
<path opacity="0.1" d="M1127.54 302.087L998.983 365.816L924.517 325.188L1052.86 261.458L1127.54 302.087Z" fill="url(#paint58_linear)"/>
<path opacity="0.1" d="M1044.4 316.521L915.85 380.25L841.385 339.622L969.73 275.892L1044.4 316.521Z" fill="url(#paint59_linear)"/>
<circle cx="979.701" cy="331.189" r="39.821" fill="url(#paint60_radial)"/>
<circle cx="979.701" cy="331.189" r="39.821" fill="url(#paint61_linear)"/>
<path opacity="0.1" fill-rule="evenodd" clip-rule="evenodd" d="M974.287 291.731C960.481 314.39 957.865 332.284 959.914 365.752C947.943 358.885 939.88 345.978 939.88 331.187C939.88 311.031 954.855 294.372 974.287 291.731Z" fill="url(#paint62_linear)"/>
<path d="M869.979 308.273L948.194 272.262V361.447C948.194 363.393 947.076 365.166 945.319 366.005L872.992 400.544C871.817 401.009 871.157 401.095 869.979 401.079V308.273Z" fill="url(#paint63_linear)"/>
<path d="M869.97 308.642L793.933 272.485V361.239C793.933 363.162 795.024 364.918 796.749 365.769L866.424 400.158C867.729 400.82 868.5 401.047 869.97 401.082V308.642Z" fill="url(#paint64_linear)"/>
<path opacity="0.32" d="M893.43 317.523C893.43 317.139 893.647 316.789 893.99 316.618L932.552 297.451C933.223 297.117 934.012 297.606 934.012 298.356V300.573C934.012 300.957 933.795 301.307 933.451 301.478L894.89 320.645C894.218 320.979 893.43 320.49 893.43 319.74V317.523Z" fill="#C0CDDC"/>
<path opacity="0.32" d="M904.565 370.645C904.565 370.265 904.779 369.917 905.118 369.745L940.181 351.916C940.853 351.575 941.649 352.063 941.649 352.817V355.024C941.649 355.404 941.435 355.752 941.096 355.924L906.033 373.753C905.361 374.094 904.565 373.606 904.565 372.852V370.645Z" fill="#C0CDDC"/>
<ellipse opacity="0.4" rx="5.57113" ry="3.03128" transform="matrix(-0.474984 0.879994 0.879994 0.474984 885.539 322.4)" fill="#C0CDDC"/>
<ellipse opacity="0.4" rx="5.57113" ry="3.03128" transform="matrix(-0.474984 0.879994 0.879994 0.474984 885.56 381.634)" fill="#C0CDDC"/>
<ellipse opacity="0.4" rx="5.57113" ry="3.03128" transform="matrix(-0.474984 0.879994 0.879994 0.474984 896.187 376.721)" fill="#C0CDDC"/>
<g opacity="0.6" filter="url(#filter19_f)">
<path d="M793.43 335.356L792.674 304.197L795.813 305.65L835.169 325.532L860.05 337.856L869.643 342.158L875.863 339.833L901.093 327.683L928.881 314.196L945.158 305.708L949.46 303.15L948.82 335.124L898.128 360.005L878.072 370.004L870.34 373.259L868.015 372.794L813.369 345.879L793.43 335.356Z" fill="url(#paint65_linear)"/>
</g>
<mask id="mask4" mask-type="alpha" maskUnits="userSpaceOnUse" x="793" y="272" width="156" height="127">
<path d="M869.978 308.273L948.192 272.262V362.385L872.991 398.297C871.815 398.762 871.155 398.848 869.978 398.832V308.273Z" fill="url(#paint66_linear)"/>
<path d="M869.978 308.273L793.931 272.485V362.132L866.423 397.911C867.727 398.573 868.508 398.797 869.978 398.832V308.273Z" fill="url(#paint67_linear)"/>
</mask>
<g mask="url(#mask4)">
<path d="M793.43 335.356L792.674 304.197L795.813 305.65L835.169 325.532L860.05 337.856L869.643 342.158L875.863 339.833L901.093 327.683L928.881 314.196L945.158 305.708L949.46 303.15L948.82 335.124L898.128 360.005L878.072 370.004L870.34 373.259L868.015 372.794L813.369 345.879L793.43 335.356Z" fill="url(#paint68_linear)"/>
<path d="M793.203 333.371C793.241 334.827 794.657 336.236 796.171 336.995L866.401 372.169C868.753 373.346 871.52 373.359 873.882 372.202L945.729 337.012C947.265 336.259 948.892 334.808 948.93 333.34" stroke="#BA46DF" stroke-width="1.68385"/>
<g opacity="0.21" filter="url(#filter20_i)">
<ellipse rx="5.57113" ry="3.03128" transform="matrix(-0.474984 0.879994 0.879994 0.474984 888.115 352.109)" fill="#D564F0"/>
</g>
<g opacity="0.1" filter="url(#filter21_i)">
<path d="M898.489 345.426C898.489 345.045 898.702 344.697 899.041 344.525L934.104 326.697C934.777 326.355 935.573 326.843 935.573 327.597V329.804C935.573 330.185 935.359 330.533 935.02 330.705L899.957 348.533C899.285 348.875 898.489 348.387 898.489 347.633V345.426Z" fill="#D564F0"/>
</g>
<path d="M793.191 302.181C793.229 303.637 794.645 305.047 796.159 305.805L866.39 340.979C868.741 342.157 871.508 342.169 873.87 341.012L945.717 305.822C947.254 305.069 948.881 303.618 948.918 302.15" stroke="#BA46DF" stroke-width="1.68385"/>
<g filter="url(#filter22_f)">
<path d="M873.877 293.619C871.515 292.462 868.748 292.474 866.397 293.652M793.198 332.45C793.236 330.994 794.652 329.584 796.166 328.826L819.329 317.225M948.925 332.481C948.888 331.013 947.261 329.562 945.724 328.809L922.226 317.3" stroke="url(#paint69_linear)" stroke-width="1.68385"/>
</g>
</g>
<path d="M865.913 235.394C868.644 234.087 871.817 234.073 874.559 235.357L944.171 267.947C948.013 269.746 948.061 275.193 944.251 277.059L874.721 311.114C871.889 312.501 868.572 312.487 865.753 311.074L797.795 277.039C794.039 275.157 794.087 269.78 797.876 267.965L865.913 235.394Z" fill="url(#paint70_linear)"/>
<g opacity="0.5" filter="url(#filter23_i)">
<path d="M865.999 242.782C868.73 241.475 871.903 241.461 874.645 242.745L932.655 269.904C934.96 270.983 934.989 274.251 932.703 275.371L874.807 303.728C871.975 305.115 868.658 305.1 865.839 303.688L809.274 275.358C807.02 274.23 807.049 271.003 809.323 269.914L865.999 242.782Z" fill="url(#paint71_linear)"/>
</g>
<path d="M584.084 4.7851L499.767 45.6494L489.01 167.767L615.814 259.241L546.585 429.119L630.61 386.601L721.199 254.424L582.307 164.077L584.084 4.7851Z" fill="#DEC344"/>
<path d="M546.449 426.787C546.932 426.584 547.51 426.342 548.174 426.062C550.381 425.134 553.544 423.798 557.365 422.169C565.008 418.911 575.285 414.48 585.819 409.789C596.355 405.097 607.142 400.149 615.81 395.855C620.145 393.707 623.941 391.728 626.906 390.029C629.901 388.313 631.966 386.93 632.912 385.979L770.056 248.198C773.254 244.985 773.461 239.072 771.208 233.013C768.975 227.009 764.441 221.233 758.751 218.519L546.449 426.787ZM546.449 426.787L608.352 247.679L608.598 246.967L607.918 246.644L456.363 174.577L546.449 426.787ZM607.196 146.771L758.749 218.517L456.362 174.577C451.078 172.056 446.788 166.895 444.412 161.351C442.022 155.773 441.673 150.071 443.873 146.418C444.196 145.882 444.561 145.37 444.949 144.826L445.03 144.711C445.441 144.135 445.872 143.522 446.246 142.865L500.682 47.2171L579.58 8.45337C580.427 8.03743 581.21 7.51978 581.942 7.03599L581.947 7.03266C582.696 6.53785 583.392 6.07778 584.129 5.71255C586.086 4.74143 588.438 4.74395 590.939 5.58867C593.442 6.43388 596.037 8.10668 598.392 10.3713C603.112 14.9112 606.714 21.678 606.714 28.4625V146.01V146.543L607.196 146.771Z" fill="url(#paint72_linear)" stroke="#FDC007" stroke-width="1.68385"/>
<g filter="url(#filter24_ii)">
<path d="M371.491 216.216L523.047 288.283V405.511C523.047 420.867 540.699 435.791 549 427.452L686.144 289.671C693.25 282.532 686.469 264.297 674.602 258.637L523.047 186.889V69.3419C523.047 53.986 505.394 39.0622 497.094 47.401L359.95 185.183C352.843 192.322 359.625 210.556 371.491 216.216Z" fill="url(#paint73_linear)"/>
</g>
<path d="M523.889 287.751V288.283V405.511C523.889 412.888 528.148 420.238 533.454 424.725C536.102 426.963 538.951 428.436 541.58 428.871C544.182 429.301 546.552 428.718 548.403 426.858L685.547 289.077C688.744 285.865 688.952 279.952 686.699 273.893C684.466 267.888 679.932 262.113 674.242 259.398L523.889 287.751ZM523.889 287.751L523.408 287.523L371.854 215.457L523.889 287.751ZM522.686 187.65L674.24 259.397L371.853 215.456C366.162 212.741 361.628 206.966 359.395 200.961C357.141 194.902 357.349 188.989 360.546 185.776L497.69 47.9949C499.542 46.1352 501.912 45.5526 504.513 45.9826C507.143 46.4171 509.991 47.8903 512.639 50.1289C517.946 54.6151 522.205 61.9653 522.205 69.3419V186.889V187.422L522.686 187.65Z" stroke="#FDC007" stroke-width="1.68385"/>
<path d="M523.889 287.751V288.283V405.511C523.889 412.888 528.148 420.238 533.454 424.725C536.102 426.963 538.951 428.436 541.58 428.871C544.182 429.301 546.552 428.718 548.403 426.858L685.547 289.077C688.744 285.865 688.952 279.952 686.699 273.893C684.466 267.888 679.932 262.113 674.242 259.398L523.889 287.751ZM523.889 287.751L523.408 287.523L371.854 215.457L523.889 287.751ZM522.686 187.65L674.24 259.397L371.853 215.456C366.162 212.741 361.628 206.966 359.395 200.961C357.141 194.902 357.349 188.989 360.546 185.776L497.69 47.9949C499.542 46.1352 501.912 45.5526 504.513 45.9826C507.143 46.4171 509.991 47.8903 512.639 50.1289C517.946 54.6151 522.205 61.9653 522.205 69.3419V186.889V187.422L522.686 187.65Z" stroke="#FDC007" stroke-width="1.68385"/>
<g opacity="0.3" filter="url(#filter25_f)">
<path d="M607.796 367.001V246.72L457.038 173.222C451.284 170.417 446.819 165.521 444.553 159.535L443.874 157.738C443.248 156.086 442.928 154.334 442.928 152.567C442.928 148.628 444.518 144.856 447.338 142.106L517.633 73.5419L521.909 67.1219L520.577 61.7651L513.585 50.3569L500.705 45.9409L492.241 55.1415L397.738 148.649L362.613 184.433C359.854 187.243 358.309 191.024 358.309 194.962C358.309 197.713 359.064 200.411 360.491 202.763L362.351 205.827C365.18 210.485 369.313 214.211 374.239 216.542L524.04 287.444V404.995V413.181L530.338 421.788L537.684 427.875L544.822 429.555L550.279 425.566L607.796 367.001Z" fill="url(#paint74_linear)"/>
</g>
<g filter="url(#filter26_f)">
<path d="M608.398 246.745V247.277V364.505C608.398 371.882 612.657 379.232 617.964 383.718C620.611 385.957 623.46 387.43 626.09 387.864C628.691 388.294 631.061 387.712 632.912 385.852L770.056 248.07C773.254 244.858 773.461 238.945 771.208 232.886C768.975 226.882 764.441 221.106 758.751 218.391L608.398 246.745ZM608.398 246.745L607.918 246.517L456.363 174.45L608.398 246.745ZM607.196 146.644L758.749 218.39L456.362 174.45C450.672 171.735 446.137 165.959 443.904 159.954C441.651 153.895 441.858 147.982 445.056 144.77L582.2 6.98848C584.051 5.12877 586.421 4.54614 589.023 4.97609C591.652 5.41061 594.501 6.88381 597.149 9.12242C602.455 13.6087 606.714 20.9588 606.714 28.3355V145.883V146.416L607.196 146.644Z" stroke="url(#paint75_linear)" stroke-width="1.68385"/>
</g>
<path d="M546.692 428.148L631.417 387.144" stroke="#FDC007" stroke-width="1.68385"/>
<path d="M523.047 186.833L607.771 145.829" stroke="#FDC007" stroke-width="1.68385"/>
<g filter="url(#filter27_f)">
<path d="M522.831 288.218L607.556 247.214" stroke="url(#paint76_linear)" stroke-width="1.68385"/>
</g>
<path d="M499.937 46.4763L584.662 5.47241" stroke="#FDC007" stroke-width="1.68385"/>
<path opacity="0.3" d="M1211.36 582.124L1038.06 665.855L980.912 626.436L1116.39 553.825L1211.36 582.124Z" fill="url(#paint77_linear)"/>
<path fill-rule="evenodd" clip-rule="evenodd" d="M1038.07 622.15L988.903 642.36V581.373L1038.07 557.944V557.944H1038.07L1087.24 581.373V642.36L1038.07 622.15H1038.07Z" fill="url(#paint78_linear)"/>
<path d="M988.903 581.373L1038.07 604.802V665.788L988.903 642.359V581.373Z" fill="url(#paint79_linear)"/>
<g opacity="0.6">
<path d="M1038.06 557.944L988.904 581.387L988.903 581.387V642.413L988.904 642.412L1038.06 665.855L1087.22 642.412L1087.22 642.413V581.387L1087.22 581.387L1038.06 557.944Z" fill="url(#paint80_radial)" style="mix-blend-mode:multiply"/>
</g>
<path opacity="0.07" d="M1020.64 659.42L964.374 687.699L931.39 672.036L986.588 644.554L989.48 590.353V570.688L1031.25 542.961C1048.96 550.834 1077.34 564.281 1077.34 564.281C1062.96 577.802 1045.9 584.412 1020.64 590.353V659.42Z" fill="url(#paint81_linear)"/>
<path d="M1087.23 581.371L1038.07 604.8V665.787L1087.23 642.357V581.371Z" fill="url(#paint82_linear)"/>
<g opacity="0.2" filter="url(#filter28_f)">
<path d="M1080.34 469.245L1063.38 451.545L1061.05 461.358C1042.66 460.292 1063.27 502.053 1045.18 523.336C1026.07 545.822 974.415 542.404 980.077 560.534L970.011 561.958L991.21 576.066C1009.89 588.867 1043.04 577.378 1066.96 549.233C1091.34 520.558 1097.11 485.217 1080.34 469.245Z" fill="#FD7A17"/>
<path fill-rule="evenodd" clip-rule="evenodd" d="M1043.89 484.821C1034.35 486.333 1023.19 493.084 1014.11 503.772C1004.51 515.064 999.62 527.935 1000.26 537.832C994.494 538.745 989.325 537.746 985.563 534.548C975.573 526.056 979.288 505.273 993.862 488.129C1008.44 470.985 1028.35 463.971 1038.34 472.463C1041.75 475.362 1043.56 479.692 1043.89 484.821Z" fill="#FD7618"/>
<path fill-rule="evenodd" clip-rule="evenodd" d="M967.58 560.136C985.504 575.372 1021.05 563.004 1046.97 532.512C1072.89 502.019 1079.37 464.948 1061.45 449.711C1043.52 434.475 1007.98 446.843 982.059 477.336C956.138 507.828 949.656 544.899 967.58 560.136ZM985.561 534.549C995.551 543.042 1015.46 536.028 1030.04 518.883C1044.61 501.739 1048.33 480.956 1038.34 472.464C1028.35 463.972 1008.43 470.986 993.86 488.131C979.286 505.275 975.571 526.057 985.561 534.549Z" fill="#FD8714"/>
</g>
<path d="M1079.76 469.8L1079.77 469.814L1079.79 469.826C1087.91 477.562 1090.66 490.076 1088.29 504.344C1085.92 518.596 1078.46 534.469 1066.35 548.713C1054.47 562.693 1040.31 572.511 1026.85 577.247C1013.38 581.989 1000.71 581.607 991.664 575.404L991.655 575.398L972.21 562.457L980.189 561.328L981.124 561.196L980.843 560.295C980.192 558.21 980.378 556.506 981.171 555.033C981.982 553.528 983.472 552.179 985.583 550.925C989.821 548.408 996.233 546.459 1003.56 544.339C1004.12 544.178 1004.68 544.016 1005.25 543.853C1012.08 541.882 1019.54 539.731 1026.46 536.825C1033.95 533.678 1040.9 529.615 1045.79 523.856C1050.45 518.375 1052.59 511.606 1053.5 504.627C1054.41 497.655 1054.1 490.404 1053.81 483.93L1053.79 483.662C1053.5 477.241 1053.25 471.689 1054.14 467.778C1054.59 465.813 1055.31 464.371 1056.36 463.445C1057.4 462.537 1058.86 462.035 1061.01 462.159L1061.68 462.198L1061.84 461.543L1063.82 453.164L1079.76 469.8Z" fill="url(#paint83_linear)" stroke="#FD8813" stroke-width="1.60475"/>
<mask id="path-138-outside-1" maskUnits="userSpaceOnUse" x="969.198" y="453.988" width="81.4435" height="97.3674" fill="black">
<rect fill="white" x="969.198" y="453.988" width="81.4435" height="97.3674"/>
<path fill-rule="evenodd" clip-rule="evenodd" d="M1043.89 484.821C1034.35 486.333 1023.19 493.084 1014.11 503.772C1004.51 515.064 999.62 527.935 1000.26 537.832C994.494 538.745 989.325 537.746 985.563 534.548C975.573 526.056 979.288 505.273 993.862 488.129C1008.44 470.985 1028.35 463.971 1038.34 472.463C1041.75 475.362 1043.56 479.692 1043.89 484.821Z"/>
</mask>
<path fill-rule="evenodd" clip-rule="evenodd" d="M1043.89 484.821C1034.35 486.333 1023.19 493.084 1014.11 503.772C1004.51 515.064 999.62 527.935 1000.26 537.832C994.494 538.745 989.325 537.746 985.563 534.548C975.573 526.056 979.288 505.273 993.862 488.129C1008.44 470.985 1028.35 463.971 1038.34 472.463C1041.75 475.362 1043.56 479.692 1043.89 484.821Z" fill="url(#paint84_linear)"/>
<path d="M1014.11 503.772L1012.89 502.739L1014.11 503.772ZM1043.89 484.821L1044.14 486.396L1045.58 486.169L1045.48 484.719L1043.89 484.821ZM1000.26 537.832L1000.5 539.407L1001.94 539.179L1001.85 537.73L1000.26 537.832ZM985.563 534.548L986.595 533.333L986.595 533.333L985.563 534.548ZM993.862 488.129L992.647 487.096L993.862 488.129ZM1038.34 472.463L1039.37 471.248L1039.37 471.248L1038.34 472.463ZM1015.32 504.804C1024.24 494.316 1035.08 487.831 1044.14 486.396L1043.64 483.247C1033.63 484.834 1022.15 491.851 1012.89 502.739L1015.32 504.804ZM1001.85 537.73C1001.25 528.372 1005.9 515.894 1015.32 504.804L1012.89 502.739C1003.12 514.235 997.994 527.498 998.664 537.934L1001.85 537.73ZM1000.01 536.258C994.553 537.122 989.901 536.143 986.595 533.333L984.53 535.763C988.748 539.348 994.435 540.368 1000.5 539.407L1000.01 536.258ZM986.595 533.333C982.212 529.608 980.618 522.985 982.07 514.864C983.514 506.787 987.94 497.558 995.077 489.162L992.647 487.096C985.211 495.845 980.491 505.579 978.932 514.303C977.38 522.981 978.923 530.996 984.53 535.763L986.595 533.333ZM995.077 489.162C1002.21 480.766 1010.61 474.912 1018.35 472.186C1026.13 469.445 1032.92 469.952 1037.31 473.677L1039.37 471.248C1033.76 466.482 1025.61 466.249 1017.29 469.179C1008.93 472.123 1000.08 478.348 992.647 487.096L995.077 489.162ZM1037.31 473.677C1040.3 476.227 1041.99 480.105 1042.3 484.924L1045.48 484.719C1045.13 479.28 1043.19 474.496 1039.37 471.248L1037.31 473.677Z" fill="#FD8813" mask="url(#path-138-outside-1)"/>
<mask id="path-140-inside-2" fill="white">
<path fill-rule="evenodd" clip-rule="evenodd" d="M967.58 560.136C985.504 575.372 1021.05 563.004 1046.97 532.512C1072.89 502.019 1079.37 464.948 1061.45 449.711C1043.52 434.475 1007.98 446.843 982.059 477.336C956.138 507.828 949.656 544.899 967.58 560.136ZM985.561 534.549C995.551 543.042 1015.46 536.028 1030.04 518.883C1044.61 501.739 1048.33 480.956 1038.34 472.464C1028.35 463.972 1008.43 470.986 993.86 488.131C979.286 505.275 975.571 526.057 985.561 534.549Z"/>
</mask>
<g filter="url(#filter29_ii)">
<path fill-rule="evenodd" clip-rule="evenodd" d="M967.58 560.136C985.504 575.372 1021.05 563.004 1046.97 532.512C1072.89 502.019 1079.37 464.948 1061.45 449.711C1043.52 434.475 1007.98 446.843 982.059 477.336C956.138 507.828 949.656 544.899 967.58 560.136ZM985.561 534.549C995.551 543.042 1015.46 536.028 1030.04 518.883C1044.61 501.739 1048.33 480.956 1038.34 472.464C1028.35 463.972 1008.43 470.986 993.86 488.131C979.286 505.275 975.571 526.057 985.561 534.549Z" fill="url(#paint85_linear)"/>
</g>
<path d="M1046.97 532.512L1048.19 533.551L1046.97 532.512ZM967.58 560.136L966.54 561.358L967.58 560.136ZM1061.45 449.711L1060.41 450.934L1061.45 449.711ZM982.059 477.336L980.836 476.296L982.059 477.336ZM1030.04 518.883L1031.26 519.923L1030.04 518.883ZM1038.34 472.464L1037.3 473.687L1038.34 472.464ZM993.86 488.131L995.083 489.17L993.86 488.131ZM1045.74 531.472C1032.94 546.54 1017.8 557.067 1003.75 561.957C989.655 566.86 976.97 566.012 968.619 558.913L966.54 561.358C976.113 569.496 990.162 570.082 1004.8 564.988C1019.48 559.879 1035.08 548.977 1048.19 533.551L1045.74 531.472ZM1060.41 450.934C1068.76 458.033 1071.64 470.415 1069.07 485.114C1066.51 499.77 1058.55 516.405 1045.74 531.472L1048.19 533.551C1061.3 518.125 1069.55 500.978 1072.23 485.667C1074.9 470.398 1072.06 456.626 1062.49 448.489L1060.41 450.934ZM983.282 478.375C996.09 463.308 1011.23 452.78 1025.28 447.891C1039.37 442.987 1052.06 443.835 1060.41 450.934L1062.49 448.489C1052.91 440.351 1038.86 439.765 1024.22 444.859C1009.54 449.968 993.949 460.871 980.836 476.296L983.282 478.375ZM968.619 558.913C960.268 551.814 957.388 539.432 959.958 524.733C962.521 510.077 970.474 493.442 983.282 478.375L980.836 476.296C967.724 491.722 959.474 508.869 956.797 524.18C954.127 539.449 956.968 553.221 966.54 561.358L968.619 558.913ZM1028.81 517.844C1021.68 526.239 1013.28 532.091 1005.55 534.816C997.767 537.557 990.979 537.049 986.6 533.327L984.521 535.772C990.133 540.542 998.296 540.773 1006.61 537.844C1014.97 534.899 1023.82 528.672 1031.26 519.923L1028.81 517.844ZM1037.3 473.687C1041.68 477.409 1043.27 484.027 1041.82 492.147C1040.38 500.221 1035.95 509.449 1028.81 517.844L1031.26 519.923C1038.7 511.173 1043.42 501.438 1044.98 492.712C1046.53 484.031 1044.99 476.011 1039.38 471.242L1037.3 473.687ZM995.083 489.17C1002.22 480.775 1010.61 474.922 1018.35 472.197C1026.13 469.457 1032.92 469.965 1037.3 473.687L1039.38 471.242C1033.77 466.472 1025.6 466.24 1017.28 469.17C1008.92 472.115 1000.08 478.342 992.637 487.091L995.083 489.17ZM986.6 533.327C982.221 529.604 980.627 522.987 982.079 514.867C983.522 506.793 987.947 497.565 995.083 489.17L992.637 487.091C985.2 495.841 980.479 505.576 978.919 514.302C977.367 522.983 978.91 531.002 984.521 535.772L986.6 533.327Z" fill="#FD8813" mask="url(#path-140-inside-2)"/>
<path d="M1010.42 581.27L1006.38 577.051L1004.33 577.504L1004.22 580.987C1006.62 581.233 1007.98 581.278 1010.42 581.27Z" fill="#FD6C1A"/>
<g opacity="0.3" filter="url(#filter30_f)">
<path d="M1006.57 550.702L986.026 536.901M1055.83 486.833L1038.34 470.946" stroke="#FD8414" stroke-width="1.60475"/>
</g>
<g opacity="0.5" filter="url(#filter31_f)">
<path d="M1049.68 534.007C1042.47 542.49 1033.96 548.436 1026.06 551.216C1018.15 554.004 1011.02 553.565 1006.33 549.581C1001.64 545.597 1000.06 538.629 1001.54 530.369C1003.01 522.132 1007.51 512.777 1014.72 504.293C1021.93 495.81 1030.44 489.864 1038.33 487.084C1046.25 484.296 1053.38 484.734 1058.07 488.719C1062.75 492.703 1064.34 499.671 1062.86 507.931C1061.39 516.168 1056.89 525.523 1049.68 534.007Z" stroke="url(#paint86_linear)" stroke-width="1.60475"/>
</g>
<path d="M985.657 568.291C985.752 568.085 985.939 567.939 986.164 567.908C992.29 567.078 1002.63 570.449 1006.17 576.801C1006.27 576.986 1006.28 577.208 1006.19 577.4L1000.33 590L980.017 580.555L985.657 568.291Z" fill="url(#paint87_linear)"/>
<path opacity="0.5" d="M985.657 568.291C985.752 568.085 985.939 567.939 986.164 567.908C992.29 567.078 1002.63 570.449 1006.17 576.801C1006.27 576.986 1006.28 577.208 1006.19 577.4L1000.33 590L980.017 580.555L985.657 568.291Z" fill="url(#paint88_linear)"/>
<g filter="url(#filter32_i)">
<path d="M968.743 580.109C969.66 578.138 971.66 576.874 973.828 577.046C987.3 578.117 998.816 583.469 1006.6 592.197C1007.95 593.708 1008.16 595.886 1007.3 597.722L965.625 687.356L927.185 669.481L968.743 580.109Z" fill="url(#paint89_linear)"/>
</g>
<path opacity="0.5" d="M968.743 580.109C969.66 578.138 971.66 576.874 973.828 577.046C987.3 578.117 998.816 583.469 1006.6 592.197C1007.95 593.708 1008.16 595.886 1007.3 597.722L965.625 687.356L927.185 669.481L968.743 580.109Z" fill="url(#paint90_linear)"/>
<ellipse cx="946.436" cy="678.35" rx="21.1976" ry="3.53777" transform="rotate(24.9512 946.436 678.35)" fill="url(#paint91_linear)"/>
<g opacity="0.3" filter="url(#filter33_f)">
<path d="M969.2 556.402C987.842 572.249 1024.81 559.386 1051.77 527.672C1078.73 495.958 1085.47 457.403 1066.83 441.556C1048.18 425.71 1011.22 438.573 984.259 470.287" stroke="url(#paint92_linear)" stroke-width="11.3835"/>
</g>
<defs>
<filter id="filter0_f" x="234.198" y="274.908" width="656.125" height="468.423" filterUnits="userSpaceOnUse" color-interpolation-filters="sRGB">
<feFlood flood-opacity="0" result="BackgroundImageFix"/>
<feBlend mode="normal" in="SourceGraphic" in2="BackgroundImageFix" result="shape"/>
<feGaussianBlur stdDeviation="92.324" result="effect1_foregroundBlur"/>
</filter>
<filter id="filter1_f" x="481.234" y="480.437" width="162.208" height="57.8936" filterUnits="userSpaceOnUse" color-interpolation-filters="sRGB">
<feFlood flood-opacity="0" result="BackgroundImageFix"/>
<feBlend mode="normal" in="SourceGraphic" in2="BackgroundImageFix" result="shape"/>
<feGaussianBlur stdDeviation="0.385" result="effect1_foregroundBlur"/>
</filter>
<filter id="filter2_f" x="235.205" y="199.77" width="112.991" height="191.661" filterUnits="userSpaceOnUse" color-interpolation-filters="sRGB">
<feFlood flood-opacity="0" result="BackgroundImageFix"/>
<feBlend mode="normal" in="SourceGraphic" in2="BackgroundImageFix" result="shape"/>
<feGaussianBlur stdDeviation="6.03923" result="effect1_foregroundBlur"/>
</filter>
<filter id="filter3_i" x="234.791" y="221.045" width="80.9575" height="168.496" filterUnits="userSpaceOnUse" color-interpolation-filters="sRGB">
<feFlood flood-opacity="0" result="BackgroundImageFix"/>
<feBlend mode="normal" in="SourceGraphic" in2="BackgroundImageFix" result="shape"/>
<feColorMatrix in="SourceAlpha" type="matrix" values="0 0 0 0 0 0 0 0 0 0 0 0 0 0 0 0 0 0 127 0" result="hardAlpha"/>
<feOffset dy="-4.90362"/>
<feGaussianBlur stdDeviation="7.35544"/>
<feComposite in2="hardAlpha" operator="arithmetic" k2="-1" k3="1"/>
<feColorMatrix type="matrix" values="0 0 0 0 1 0 0 0 0 1 0 0 0 0 1 0 0 0 0.96 0"/>
<feBlend mode="overlay" in2="shape" result="effect1_innerShadow"/>
</filter>
<filter id="filter4_f" x="245.165" y="221.428" width="11.0274" height="38.5122" filterUnits="userSpaceOnUse" color-interpolation-filters="sRGB">
<feFlood flood-opacity="0" result="BackgroundImageFix"/>
<feBlend mode="normal" in="SourceGraphic" in2="BackgroundImageFix" result="shape"/>
<feGaussianBlur stdDeviation="0.575165" result="effect1_foregroundBlur"/>
</filter>
<filter id="filter5_i" x="201.105" y="239.969" width="86.321" height="157.375" filterUnits="userSpaceOnUse" color-interpolation-filters="sRGB">
<feFlood flood-opacity="0" result="BackgroundImageFix"/>
<feBlend mode="normal" in="SourceGraphic" in2="BackgroundImageFix" result="shape"/>
<feColorMatrix in="SourceAlpha" type="matrix" values="0 0 0 0 0 0 0 0 0 0 0 0 0 0 0 0 0 0 127 0" result="hardAlpha"/>
<feOffset dx="-2.01308" dy="2.30066"/>
<feGaussianBlur stdDeviation="3.01962"/>
<feComposite in2="hardAlpha" operator="arithmetic" k2="-1" k3="1"/>
<feColorMatrix type="matrix" values="0 0 0 0 0.984314 0 0 0 0 0.32549 0 0 0 0 0.423529 0 0 0 0.24 0"/>
<feBlend mode="normal" in2="shape" result="effect1_innerShadow"/>
</filter>
<filter id="filter6_f" x="468.2" y="672.772" width="170.868" height="27.0774" filterUnits="userSpaceOnUse" color-interpolation-filters="sRGB">
<feFlood flood-opacity="0" result="BackgroundImageFix"/>
<feBlend mode="normal" in="SourceGraphic" in2="BackgroundImageFix" result="shape"/>
<feGaussianBlur stdDeviation="0.803454" result="effect1_foregroundBlur"/>
</filter>
<filter id="filter7_f" x="425.659" y="611.685" width="256.132" height="163.074" filterUnits="userSpaceOnUse" color-interpolation-filters="sRGB">
<feFlood flood-opacity="0" result="BackgroundImageFix"/>
<feBlend mode="normal" in="SourceGraphic" in2="BackgroundImageFix" result="shape"/>
<feGaussianBlur stdDeviation="22.095" result="effect1_foregroundBlur"/>
</filter>
<filter id="filter8_i" x="522.989" y="587.334" width="61.2928" height="47.1891" filterUnits="userSpaceOnUse" color-interpolation-filters="sRGB">
<feFlood flood-opacity="0" result="BackgroundImageFix"/>
<feBlend mode="normal" in="SourceGraphic" in2="BackgroundImageFix" result="shape"/>
<feColorMatrix in="SourceAlpha" type="matrix" values="0 0 0 0 0 0 0 0 0 0 0 0 0 0 0 0 0 0 127 0" result="hardAlpha"/>
<feOffset dy="4.01727"/>
<feComposite in2="hardAlpha" operator="arithmetic" k2="-1" k3="1"/>
<feColorMatrix type="matrix" values="0 0 0 0 0.796078 0 0 0 0 0.843137 0 0 0 0 0.894118 0 0 0 1 0"/>
<feBlend mode="normal" in2="shape" result="effect1_innerShadow"/>
</filter>
<filter id="filter9_f" x="5.16207" y="400.287" width="142.181" height="219.636" filterUnits="userSpaceOnUse" color-interpolation-filters="sRGB">
<feFlood flood-opacity="0" result="BackgroundImageFix"/>
<feBlend mode="normal" in="SourceGraphic" in2="BackgroundImageFix" result="shape"/>
<feGaussianBlur stdDeviation="9.14821" result="effect1_foregroundBlur"/>
</filter>
<filter id="filter10_f" x="43.2011" y="418.986" width="12.458" height="22.1448" filterUnits="userSpaceOnUse" color-interpolation-filters="sRGB">
<feFlood flood-opacity="0" result="BackgroundImageFix"/>
<feBlend mode="normal" in="SourceGraphic" in2="BackgroundImageFix" result="shape"/>
<feGaussianBlur stdDeviation="0.465163" result="effect1_foregroundBlur"/>
</filter>
<filter id="filter11_f" x="103.079" y="576.656" width="27.1308" height="14.1274" filterUnits="userSpaceOnUse" color-interpolation-filters="sRGB">
<feFlood flood-opacity="0" result="BackgroundImageFix"/>
<feBlend mode="normal" in="SourceGraphic" in2="BackgroundImageFix" result="shape"/>
<feGaussianBlur stdDeviation="0.465163" result="effect1_foregroundBlur"/>
</filter>
<filter id="filter12_f" x="3.94955" y="408.482" width="126.625" height="207.72" filterUnits="userSpaceOnUse" color-interpolation-filters="sRGB">
<feFlood flood-opacity="0" result="BackgroundImageFix"/>
<feBlend mode="normal" in="SourceGraphic" in2="BackgroundImageFix" result="shape"/>
<feGaussianBlur stdDeviation="6.04712" result="effect1_foregroundBlur"/>
</filter>
<filter id="filter13_i" x="112.274" y="486.168" width="14.7267" height="9.41046" filterUnits="userSpaceOnUse" color-interpolation-filters="sRGB">
<feFlood flood-opacity="0" result="BackgroundImageFix"/>
<feBlend mode="normal" in="SourceGraphic" in2="BackgroundImageFix" result="shape"/>
<feColorMatrix in="SourceAlpha" type="matrix" values="0 0 0 0 0 0 0 0 0 0 0 0 0 0 0 0 0 0 127 0" result="hardAlpha"/>
<feOffset dx="-2.17076" dy="-0.930327"/>
<feComposite in2="hardAlpha" operator="arithmetic" k2="-1" k3="1"/>
<feColorMatrix type="matrix" values="0 0 0 0 0.0823529 0 0 0 0 0.447059 0 0 0 0 0.94902 0 0 0 0.18 0"/>
<feBlend mode="normal" in2="shape" result="effect1_innerShadow"/>
</filter>
<filter id="filter14_i" x="112.274" y="494.464" width="14.7267" height="9.41046" filterUnits="userSpaceOnUse" color-interpolation-filters="sRGB">
<feFlood flood-opacity="0" result="BackgroundImageFix"/>
<feBlend mode="normal" in="SourceGraphic" in2="BackgroundImageFix" result="shape"/>
<feColorMatrix in="SourceAlpha" type="matrix" values="0 0 0 0 0 0 0 0 0 0 0 0 0 0 0 0 0 0 127 0" result="hardAlpha"/>
<feOffset dx="-2.17076" dy="-0.930327"/>
<feComposite in2="hardAlpha" operator="arithmetic" k2="-1" k3="1"/>
<feColorMatrix type="matrix" values="0 0 0 0 0.0823529 0 0 0 0 0.447059 0 0 0 0 0.94902 0 0 0 0.18 0"/>
<feBlend mode="normal" in2="shape" result="effect1_innerShadow"/>
</filter>
<filter id="filter15_i" x="112.274" y="502.76" width="14.7267" height="9.41046" filterUnits="userSpaceOnUse" color-interpolation-filters="sRGB">
<feFlood flood-opacity="0" result="BackgroundImageFix"/>
<feBlend mode="normal" in="SourceGraphic" in2="BackgroundImageFix" result="shape"/>
<feColorMatrix in="SourceAlpha" type="matrix" values="0 0 0 0 0 0 0 0 0 0 0 0 0 0 0 0 0 0 127 0" result="hardAlpha"/>
<feOffset dx="-2.17076" dy="-0.930327"/>
<feComposite in2="hardAlpha" operator="arithmetic" k2="-1" k3="1"/>
<feColorMatrix type="matrix" values="0 0 0 0 0.0823529 0 0 0 0 0.447059 0 0 0 0 0.94902 0 0 0 0.18 0"/>
<feBlend mode="normal" in2="shape" result="effect1_innerShadow"/>
</filter>
<filter id="filter16_i" x="112.274" y="511.057" width="14.7267" height="9.41046" filterUnits="userSpaceOnUse" color-interpolation-filters="sRGB">
<feFlood flood-opacity="0" result="BackgroundImageFix"/>
<feBlend mode="normal" in="SourceGraphic" in2="BackgroundImageFix" result="shape"/>
<feColorMatrix in="SourceAlpha" type="matrix" values="0 0 0 0 0 0 0 0 0 0 0 0 0 0 0 0 0 0 127 0" result="hardAlpha"/>
<feOffset dx="-2.17076" dy="-0.930327"/>
<feComposite in2="hardAlpha" operator="arithmetic" k2="-1" k3="1"/>
<feColorMatrix type="matrix" values="0 0 0 0 0.0823529 0 0 0 0 0.447059 0 0 0 0 0.94902 0 0 0 0.18 0"/>
<feBlend mode="normal" in2="shape" result="effect1_innerShadow"/>
</filter>
<filter id="filter17_i" x="112.274" y="519.353" width="14.7267" height="9.41046" filterUnits="userSpaceOnUse" color-interpolation-filters="sRGB">
<feFlood flood-opacity="0" result="BackgroundImageFix"/>
<feBlend mode="normal" in="SourceGraphic" in2="BackgroundImageFix" result="shape"/>
<feColorMatrix in="SourceAlpha" type="matrix" values="0 0 0 0 0 0 0 0 0 0 0 0 0 0 0 0 0 0 127 0" result="hardAlpha"/>
<feOffset dx="-2.17076" dy="-0.930327"/>
<feComposite in2="hardAlpha" operator="arithmetic" k2="-1" k3="1"/>
<feColorMatrix type="matrix" values="0 0 0 0 0.0823529 0 0 0 0 0.447059 0 0 0 0 0.94902 0 0 0 0.18 0"/>
<feBlend mode="normal" in2="shape" result="effect1_innerShadow"/>
</filter>
<filter id="filter18_i" x="112.274" y="527.649" width="14.7267" height="9.41046" filterUnits="userSpaceOnUse" color-interpolation-filters="sRGB">
<feFlood flood-opacity="0" result="BackgroundImageFix"/>
<feBlend mode="normal" in="SourceGraphic" in2="BackgroundImageFix" result="shape"/>
<feColorMatrix in="SourceAlpha" type="matrix" values="0 0 0 0 0 0 0 0 0 0 0 0 0 0 0 0 0 0 127 0" result="hardAlpha"/>
<feOffset dx="-2.17076" dy="-0.930327"/>
<feComposite in2="hardAlpha" operator="arithmetic" k2="-1" k3="1"/>
<feColorMatrix type="matrix" values="0 0 0 0 0.0823529 0 0 0 0 0.447059 0 0 0 0 0.94902 0 0 0 0.18 0"/>
<feBlend mode="normal" in2="shape" result="effect1_innerShadow"/>
</filter>
<filter id="filter19_f" x="755.629" y="266.106" width="230.875" height="144.198" filterUnits="userSpaceOnUse" color-interpolation-filters="sRGB">
<feFlood flood-opacity="0" result="BackgroundImageFix"/>
<feBlend mode="normal" in="SourceGraphic" in2="BackgroundImageFix" result="shape"/>
<feGaussianBlur stdDeviation="18.5223" result="effect1_foregroundBlur"/>
</filter>
<filter id="filter20_i" x="882.801" y="345.766" width="10.6274" height="12.6847" filterUnits="userSpaceOnUse" color-interpolation-filters="sRGB">
<feFlood flood-opacity="0" result="BackgroundImageFix"/>
<feBlend mode="normal" in="SourceGraphic" in2="BackgroundImageFix" result="shape"/>
<feColorMatrix in="SourceAlpha" type="matrix" values="0 0 0 0 0 0 0 0 0 0 0 0 0 0 0 0 0 0 127 0" result="hardAlpha"/>
<feOffset dx="-1.34708" dy="-1.01031"/>
<feComposite in2="hardAlpha" operator="arithmetic" k2="-1" k3="1"/>
<feColorMatrix type="matrix" values="0 0 0 0 0 0 0 0 0 0 0 0 0 0 0 0 0 0 0.34 0"/>
<feBlend mode="normal" in2="shape" result="effect1_innerShadow"/>
</filter>
<filter id="filter21_i" x="898.489" y="326.586" width="37.0837" height="22.0584" filterUnits="userSpaceOnUse" color-interpolation-filters="sRGB">
<feFlood flood-opacity="0" result="BackgroundImageFix"/>
<feBlend mode="normal" in="SourceGraphic" in2="BackgroundImageFix" result="shape"/>
<feColorMatrix in="SourceAlpha" type="matrix" values="0 0 0 0 0 0 0 0 0 0 0 0 0 0 0 0 0 0 127 0" result="hardAlpha"/>
<feOffset dx="-1.34708" dy="-1.01031"/>
<feComposite in2="hardAlpha" operator="arithmetic" k2="-1" k3="1"/>
<feColorMatrix type="matrix" values="0 0 0 0 0 0 0 0 0 0 0 0 0 0 0 0 0 0 0.34 0"/>
<feBlend mode="normal" in2="shape" result="effect1_innerShadow"/>
</filter>
<filter id="filter22_f" x="791.01" y="290.571" width="160.104" height="43.2786" filterUnits="userSpaceOnUse" color-interpolation-filters="sRGB">
<feFlood flood-opacity="0" result="BackgroundImageFix"/>
<feBlend mode="normal" in="SourceGraphic" in2="BackgroundImageFix" result="shape"/>
<feGaussianBlur stdDeviation="0.673539" result="effect1_foregroundBlur"/>
</filter>
<filter id="filter23_i" x="807.6" y="241.792" width="126.8" height="62.9661" filterUnits="userSpaceOnUse" color-interpolation-filters="sRGB">
<feFlood flood-opacity="0" result="BackgroundImageFix"/>
<feBlend mode="normal" in="SourceGraphic" in2="BackgroundImageFix" result="shape"/>
<feColorMatrix in="SourceAlpha" type="matrix" values="0 0 0 0 0 0 0 0 0 0 0 0 0 0 0 0 0 0 127 0" result="hardAlpha"/>
<feOffset dy="3.03093"/>
<feComposite in2="hardAlpha" operator="arithmetic" k2="-1" k3="1"/>
<feColorMatrix type="matrix" values="0 0 0 0 0.8175 0 0 0 0 0.856429 0 0 0 0 0.908333 0 0 0 1 0"/>
<feBlend mode="normal" in2="shape" result="effect1_innerShadow"/>
</filter>
<filter id="filter24_ii" x="357.053" y="39.2641" width="331.986" height="396.325" filterUnits="userSpaceOnUse" color-interpolation-filters="sRGB">
<feFlood flood-opacity="0" result="BackgroundImageFix"/>
<feBlend mode="normal" in="SourceGraphic" in2="BackgroundImageFix" result="shape"/>
<feColorMatrix in="SourceAlpha" type="matrix" values="0 0 0 0 0 0 0 0 0 0 0 0 0 0 0 0 0 0 127 0" result="hardAlpha"/>
<feOffset dy="-5.74232"/>
<feGaussianBlur stdDeviation="8.61349"/>
<feComposite in2="hardAlpha" operator="arithmetic" k2="-1" k3="1"/>
<feColorMatrix type="matrix" values="0 0 0 0 1 0 0 0 0 1 0 0 0 0 1 0 0 0 0.96 0"/>
<feBlend mode="overlay" in2="shape" result="effect1_innerShadow"/>
<feColorMatrix in="SourceAlpha" type="matrix" values="0 0 0 0 0 0 0 0 0 0 0 0 0 0 0 0 0 0 127 0" result="hardAlpha"/>
<feOffset dy="5.74232"/>
<feGaussianBlur stdDeviation="5.02453"/>
<feComposite in2="hardAlpha" operator="arithmetic" k2="-1" k3="1"/>
<feColorMatrix type="matrix" values="0 0 0 0 0.975 0 0 0 0 0.902344 0 0 0 0 0.47125 0 0 0 1 0"/>
<feBlend mode="normal" in2="effect1_innerShadow" result="effect2_innerShadow"/>
</filter>
<filter id="filter25_f" x="356.962" y="44.5938" width="252.181" height="386.308" filterUnits="userSpaceOnUse" color-interpolation-filters="sRGB">
<feFlood flood-opacity="0" result="BackgroundImageFix"/>
<feBlend mode="normal" in="SourceGraphic" in2="BackgroundImageFix" result="shape"/>
<feGaussianBlur stdDeviation="0.673539" result="effect1_foregroundBlur"/>
</filter>
<filter id="filter26_f" x="438.195" y="0.632304" width="338.722" height="391.576" filterUnits="userSpaceOnUse" color-interpolation-filters="sRGB">
<feFlood flood-opacity="0" result="BackgroundImageFix"/>
<feBlend mode="normal" in="SourceGraphic" in2="BackgroundImageFix" result="shape"/>
<feGaussianBlur stdDeviation="1.68385" result="effect1_foregroundBlur"/>
</filter>
<filter id="filter27_f" x="519.097" y="243.088" width="92.1938" height="49.255" filterUnits="userSpaceOnUse" color-interpolation-filters="sRGB">
<feFlood flood-opacity="0" result="BackgroundImageFix"/>
<feBlend mode="normal" in="SourceGraphic" in2="BackgroundImageFix" result="shape"/>
<feGaussianBlur stdDeviation="1.68385" result="effect1_foregroundBlur"/>
</filter>
<filter id="filter28_f" x="829.561" y="307.889" width="391.662" height="408.119" filterUnits="userSpaceOnUse" color-interpolation-filters="sRGB">
<feFlood flood-opacity="0" result="BackgroundImageFix"/>
<feBlend mode="normal" in="SourceGraphic" in2="BackgroundImageFix" result="shape"/>
<feGaussianBlur stdDeviation="56.7782" result="effect1_foregroundBlur"/>
</filter>
<filter id="filter29_ii" x="943.117" y="415.347" width="142.792" height="178.527" filterUnits="userSpaceOnUse" color-interpolation-filters="sRGB">
<feFlood flood-opacity="0" result="BackgroundImageFix"/>
<feBlend mode="normal" in="SourceGraphic" in2="BackgroundImageFix" result="shape"/>
<feColorMatrix in="SourceAlpha" type="matrix" values="0 0 0 0 0 0 0 0 0 0 0 0 0 0 0 0 0 0 127 0" result="hardAlpha"/>
<feOffset dy="5.47259"/>
<feGaussianBlur stdDeviation="4.78852"/>
<feComposite in2="hardAlpha" operator="arithmetic" k2="-1" k3="1"/>
<feColorMatrix type="matrix" values="0 0 0 0 0.996078 0 0 0 0 0.631373 0 0 0 0 0.054902 0 0 0 1 0"/>
<feBlend mode="normal" in2="shape" result="effect1_innerShadow"/>
<feColorMatrix in="SourceAlpha" type="matrix" values="0 0 0 0 0 0 0 0 0 0 0 0 0 0 0 0 0 0 127 0" result="hardAlpha"/>
<feOffset dy="-6.09806"/>
<feGaussianBlur stdDeviation="7.61799"/>
<feComposite in2="hardAlpha" operator="arithmetic" k2="-1" k3="1"/>
<feColorMatrix type="matrix" values="0 0 0 0 1 0 0 0 0 1 0 0 0 0 1 0 0 0 0.33 0"/>
<feBlend mode="normal" in2="effect1_innerShadow" result="effect2_innerShadow"/>
</filter>
<filter id="filter30_f" x="984.294" y="469.068" width="73.3614" height="83.5838" filterUnits="userSpaceOnUse" color-interpolation-filters="sRGB">
<feFlood flood-opacity="0" result="BackgroundImageFix"/>
<feBlend mode="normal" in="SourceGraphic" in2="BackgroundImageFix" result="shape"/>
<feGaussianBlur stdDeviation="0.641901" result="effect1_foregroundBlur"/>
</filter>
<filter id="filter31_f" x="986.439" y="471.447" width="91.5209" height="95.4056" filterUnits="userSpaceOnUse" color-interpolation-filters="sRGB">
<feFlood flood-opacity="0" result="BackgroundImageFix"/>
<feBlend mode="normal" in="SourceGraphic" in2="BackgroundImageFix" result="shape"/>
<feGaussianBlur stdDeviation="0.641901" result="effect1_foregroundBlur"/>
</filter>
<filter id="filter32_i" x="926.501" y="563.541" width="84.2506" height="123.815" filterUnits="userSpaceOnUse" color-interpolation-filters="sRGB">
<feFlood flood-opacity="0" result="BackgroundImageFix"/>
<feBlend mode="normal" in="SourceGraphic" in2="BackgroundImageFix" result="shape"/>
<feColorMatrix in="SourceAlpha" type="matrix" values="0 0 0 0 0 0 0 0 0 0 0 0 0 0 0 0 0 0 127 0" result="hardAlpha"/>
<feOffset dx="-0.684074" dy="-8.89297"/>
<feGaussianBlur stdDeviation="10.6032"/>
<feComposite in2="hardAlpha" operator="arithmetic" k2="-1" k3="1"/>
<feColorMatrix type="matrix" values="0 0 0 0 0.635938 0 0 0 0 0.661719 0 0 0 0 0.6875 0 0 0 0.22 0"/>
<feBlend mode="normal" in2="shape" result="effect1_innerShadow"/>
</filter>
<filter id="filter33_f" x="910.348" y="387.765" width="215.33" height="222.428" filterUnits="userSpaceOnUse" color-interpolation-filters="sRGB">
<feFlood flood-opacity="0" result="BackgroundImageFix"/>
<feBlend mode="normal" in="SourceGraphic" in2="BackgroundImageFix" result="shape"/>
<feGaussianBlur stdDeviation="8.53759" result="effect1_foregroundBlur"/>
</filter>
<linearGradient id="paint0_linear" x1="369.275" y1="337.972" x2="446.421" y2="262.98" gradientUnits="userSpaceOnUse">
<stop/>
<stop offset="1" stop-opacity="0"/>
</linearGradient>
<linearGradient id="paint1_linear" x1="459.994" y1="277.635" x2="364.541" y2="282.59" gradientUnits="userSpaceOnUse">
<stop stop-color="#DAE2EB"/>
<stop offset="1" stop-color="#FBFBFD"/>
</linearGradient>
<linearGradient id="paint2_linear" x1="377.657" y1="385.273" x2="371.052" y2="257.161" gradientUnits="userSpaceOnUse">
<stop offset="0.437974" stop-color="#FDFDFE"/>
<stop offset="1" stop-color="#E5EBF2"/>
</linearGradient>
<linearGradient id="paint3_linear" x1="395.605" y1="322.539" x2="443.074" y2="319.34" gradientUnits="userSpaceOnUse">
<stop stop-color="#F4F4F4"/>
<stop offset="1" stop-color="#DAE2EB"/>
</linearGradient>
<linearGradient id="paint4_linear" x1="400.896" y1="265.186" x2="372.227" y2="356.273" gradientUnits="userSpaceOnUse">
<stop stop-opacity="0"/>
<stop offset="0.373743" stop-opacity="0.06"/>
<stop offset="1" stop-opacity="0"/>
</linearGradient>
<linearGradient id="paint5_linear" x1="263.37" y1="201.829" x2="354.418" y2="249.843" gradientUnits="userSpaceOnUse">
<stop stop-color="#FBFBFD"/>
<stop offset="0.870249" stop-color="#EBEFF4"/>
<stop offset="0.994115" stop-color="#E8ECF2"/>
</linearGradient>
<linearGradient id="paint6_linear" x1="309.051" y1="150.708" x2="325.821" y2="430.077" gradientUnits="userSpaceOnUse">
<stop offset="0.437974" stop-color="#FDFDFE"/>
<stop offset="1" stop-color="#E5EBF2"/>
</linearGradient>
<linearGradient id="paint7_linear" x1="309.051" y1="150.708" x2="325.821" y2="430.077" gradientUnits="userSpaceOnUse">
<stop offset="0.437974" stop-color="#FDFDFE"/>
<stop offset="1" stop-color="#E5EBF2"/>
</linearGradient>
<linearGradient id="paint8_linear" x1="230.967" y1="216.824" x2="320.575" y2="268.086" gradientUnits="userSpaceOnUse">
<stop stop-color="#FE758A"/>
<stop offset="0.870249" stop-color="#FB5A72"/>
<stop offset="0.994115" stop-color="#FB4059"/>
</linearGradient>
<linearGradient id="paint9_linear" x1="314.801" y1="253.53" x2="321.102" y2="257.456" gradientUnits="userSpaceOnUse">
<stop stop-color="#FF4E65"/>
<stop offset="1" stop-color="#FB4059"/>
</linearGradient>
<linearGradient id="paint10_linear" x1="275.27" y1="389.541" x2="248.618" y2="251.457" gradientUnits="userSpaceOnUse">
<stop stop-color="#FB364F"/>
<stop offset="1" stop-color="#FB5770"/>
</linearGradient>
<linearGradient id="paint11_linear" x1="310.061" y1="265.504" x2="237.729" y2="228.391" gradientUnits="userSpaceOnUse">
<stop stop-color="#FB4059"/>
<stop offset="1" stop-color="#FF4D65"/>
</linearGradient>
<linearGradient id="paint12_linear" x1="249.626" y1="234.997" x2="250.876" y2="258.785" gradientUnits="userSpaceOnUse">
<stop stop-color="#FF4D65"/>
<stop offset="1" stop-color="#FF4D65" stop-opacity="0"/>
</linearGradient>
<linearGradient id="paint13_linear" x1="197.818" y1="233.428" x2="288.865" y2="281.442" gradientUnits="userSpaceOnUse">
<stop stop-color="#FBFBFD"/>
<stop offset="0.870249" stop-color="#EBEFF4"/>
<stop offset="0.994115" stop-color="#E8ECF2"/>
</linearGradient>
<linearGradient id="paint14_linear" x1="243.499" y1="182.306" x2="260.268" y2="461.675" gradientUnits="userSpaceOnUse">
<stop offset="0.437974" stop-color="#FDFDFE"/>
<stop offset="1" stop-color="#E5EBF2"/>
</linearGradient>
<linearGradient id="paint15_linear" x1="446.284" y1="282.974" x2="209.83" y2="396.965" gradientUnits="userSpaceOnUse">
<stop stop-color="#DAE2EB"/>
<stop offset="0.998094" stop-color="white"/>
</linearGradient>
<linearGradient id="paint16_linear" x1="246.826" y1="356.204" x2="389.803" y2="356.204" gradientUnits="userSpaceOnUse">
<stop stop-color="#FB5770"/>
<stop offset="0.160911" stop-color="#FB364F"/>
<stop offset="0.770399" stop-color="#FB364F"/>
<stop offset="0.842505" stop-color="#FB2B44"/>
</linearGradient>
<linearGradient id="paint17_linear" x1="166.757" y1="356.204" x2="377.712" y2="344.623" gradientUnits="userSpaceOnUse">
<stop stop-color="#FDFDFE"/>
<stop offset="0.400649" stop-color="#F0F3F7"/>
<stop offset="0.526485" stop-color="#DFE5ED"/>
<stop offset="1" stop-color="#DAE2EB"/>
</linearGradient>
<linearGradient id="paint18_linear" x1="632.457" y1="735.479" x2="729.055" y2="637.921" gradientUnits="userSpaceOnUse">
<stop/>
<stop offset="1" stop-opacity="0"/>
</linearGradient>
<radialGradient id="paint19_radial" cx="0" cy="0" r="1" gradientUnits="userSpaceOnUse" gradientTransform="translate(647.932 689.993) rotate(24.8733) scale(78.2387)">
<stop stop-color="white"/>
<stop offset="1" stop-color="#C9D5E3"/>
</radialGradient>
<linearGradient id="paint20_linear" x1="641.45" y1="693.982" x2="713.25" y2="723.898" gradientUnits="userSpaceOnUse">
<stop stop-color="#58D45C" stop-opacity="0.33"/>
<stop offset="1" stop-color="white" stop-opacity="0"/>
</linearGradient>
<linearGradient id="paint21_linear" x1="639.18" y1="655.468" x2="636.666" y2="739.407" gradientUnits="userSpaceOnUse">
<stop stop-opacity="0.21"/>
<stop offset="1"/>
</linearGradient>
<linearGradient id="paint22_linear" x1="624.19" y1="716.014" x2="449.82" y2="715.175" gradientUnits="userSpaceOnUse">
<stop stop-color="#CED8E4"/>
<stop offset="0.665987" stop-color="white"/>
<stop offset="0.800848" stop-color="white"/>
<stop offset="1" stop-color="#BDCDDE"/>
</linearGradient>
<radialGradient id="paint23_radial" cx="0" cy="0" r="1" gradientUnits="userSpaceOnUse" gradientTransform="translate(522.804 693.052) rotate(-176.607) scale(106.37 110.716)">
<stop stop-color="#44D049" stop-opacity="0.21"/>
<stop offset="0.968694" stop-color="#44D049" stop-opacity="0"/>
</radialGradient>
<linearGradient id="paint24_linear" x1="751.585" y1="575.517" x2="494.355" y2="627.225" gradientUnits="userSpaceOnUse">
<stop stop-color="#C4D2E1"/>
<stop offset="1" stop-color="#FCFDFE"/>
</linearGradient>
<linearGradient id="paint25_linear" x1="624.19" y1="716.014" x2="449.82" y2="715.175" gradientUnits="userSpaceOnUse">
<stop stop-color="#CED8E4"/>
<stop offset="0.665987" stop-color="#FDFDFE"/>
<stop offset="0.800848" stop-color="#FDFDFE"/>
<stop offset="1" stop-color="#BDCDDE"/>
</linearGradient>
<linearGradient id="paint26_linear" x1="641.839" y1="684.238" x2="469.132" y2="688.099" gradientUnits="userSpaceOnUse">
<stop stop-color="#6AEB6E"/>
<stop offset="0.0805294" stop-color="#10D414"/>
<stop offset="0.791522" stop-color="#78EF7A"/>
<stop offset="0.907232" stop-color="#77EF7A"/>
<stop offset="1" stop-color="#3AC43F"/>
</linearGradient>
<linearGradient id="paint27_linear" x1="643.327" y1="681.301" x2="472.546" y2="688.054" gradientUnits="userSpaceOnUse">
<stop stop-color="white"/>
<stop offset="0.193368" stop-color="#10D414"/>
<stop offset="0.791522" stop-color="#A4F4A6"/>
<stop offset="0.907232" stop-color="#A9F4AB"/>
<stop offset="1" stop-color="#3AC43F"/>
</linearGradient>
<linearGradient id="paint28_linear" x1="477.882" y1="692.225" x2="634.197" y2="684.739" gradientUnits="userSpaceOnUse">
<stop stop-color="#3ACC3F"/>
<stop offset="0.123246" stop-color="#3ACC3F" stop-opacity="0"/>
<stop offset="0.912857" stop-color="#3ACC3F" stop-opacity="0.118365"/>
<stop offset="1" stop-color="#3ACC3F"/>
</linearGradient>
<linearGradient id="paint29_linear" x1="635.006" y1="683.11" x2="474.147" y2="686.137" gradientUnits="userSpaceOnUse">
<stop stop-color="#6AEB6E"/>
<stop offset="0.110357" stop-color="#10D414"/>
<stop offset="0.791522" stop-color="#78EF7A"/>
<stop offset="0.907232" stop-color="#77EF7A"/>
<stop offset="1" stop-color="#3AC43F"/>
</linearGradient>
<linearGradient id="paint30_linear" x1="603.837" y1="608.312" x2="503.436" y2="603.181" gradientUnits="userSpaceOnUse">
<stop stop-color="#FBFCFE"/>
<stop offset="1" stop-color="#CAD6E3"/>
</linearGradient>
<linearGradient id="paint31_linear" x1="603.837" y1="608.312" x2="503.436" y2="603.181" gradientUnits="userSpaceOnUse">
<stop stop-color="#FBFCFE"/>
<stop offset="1" stop-color="#CAD6E3"/>
</linearGradient>
<linearGradient id="paint32_linear" x1="154.282" y1="565.505" x2="230.897" y2="491.029" gradientUnits="userSpaceOnUse">
<stop/>
<stop offset="1" stop-opacity="0"/>
</linearGradient>
<linearGradient id="paint33_linear" x1="242.12" y1="497.611" x2="128.802" y2="503.493" gradientUnits="userSpaceOnUse">
<stop stop-color="#DAE2EB"/>
<stop offset="1" stop-color="#FBFBFD"/>
</linearGradient>
<linearGradient id="paint34_linear" x1="144.372" y1="625.392" x2="136.53" y2="473.305" gradientUnits="userSpaceOnUse">
<stop offset="0.437974" stop-color="#FDFDFE"/>
<stop offset="1" stop-color="#E5EBF2"/>
</linearGradient>
<linearGradient id="paint35_linear" x1="165.679" y1="550.918" x2="222.03" y2="547.12" gradientUnits="userSpaceOnUse">
<stop stop-color="#F4F4F4"/>
<stop offset="1" stop-color="#DAE2EB"/>
</linearGradient>
<linearGradient id="paint36_linear" x1="179.913" y1="496.871" x2="102.234" y2="614.506" gradientUnits="userSpaceOnUse">
<stop stop-opacity="0"/>
<stop offset="0.232365" stop-opacity="0.667326"/>
<stop offset="0.544813" stop-opacity="0.22"/>
<stop offset="1"/>
</linearGradient>
<radialGradient id="paint37_radial" cx="0" cy="0" r="1" gradientUnits="userSpaceOnUse" gradientTransform="translate(79.4118 508.083) rotate(5.11926) scale(243.205 296.417)">
<stop stop-color="#13C2FB"/>
<stop offset="0.39566" stop-color="#13C2FB" stop-opacity="0"/>
</radialGradient>
<linearGradient id="paint38_linear" x1="137.76" y1="452.496" x2="138.847" y2="470.589" gradientUnits="userSpaceOnUse">
<stop stop-color="#EBEFF4"/>
<stop offset="1" stop-color="#D2DDE8"/>
</linearGradient>
<linearGradient id="paint39_linear" x1="85.9503" y1="678.74" x2="64.8833" y2="324.582" gradientUnits="userSpaceOnUse">
<stop offset="0.437974" stop-color="#FDFDFE"/>
<stop offset="1" stop-color="#E5EBF2"/>
</linearGradient>
<linearGradient id="paint40_linear" x1="101.376" y1="413.412" x2="126.71" y2="537.219" gradientUnits="userSpaceOnUse">
<stop offset="0.306231" stop-color="#13C2FB"/>
<stop offset="1" stop-color="#1599F7"/>
</linearGradient>
<linearGradient id="paint41_linear" x1="63.1115" y1="409.207" x2="118.616" y2="517.903" gradientUnits="userSpaceOnUse">
<stop stop-color="#13C2FB"/>
<stop offset="0.287449" stop-color="#11BDFA"/>
<stop offset="0.561939" stop-color="#10B9FA"/>
<stop offset="1" stop-color="#1599F7"/>
</linearGradient>
<linearGradient id="paint42_linear" x1="63.1115" y1="409.207" x2="118.616" y2="517.903" gradientUnits="userSpaceOnUse">
<stop stop-color="#13C2FB"/>
<stop offset="0.287449" stop-color="#11BDFA"/>
<stop offset="0.561939" stop-color="#10B9FA"/>
<stop offset="1" stop-color="#1599F7"/>
</linearGradient>
<linearGradient id="paint43_linear" x1="35.6343" y1="419.225" x2="35.6343" y2="439.336" gradientUnits="userSpaceOnUse">
<stop stop-color="#4ACEFF"/>
<stop offset="1" stop-color="#4ACEFF" stop-opacity="0"/>
</linearGradient>
<linearGradient id="paint44_linear" x1="129.046" y1="578.734" x2="35.3948" y2="417.971" gradientUnits="userSpaceOnUse">
<stop stop-color="#128AF6"/>
<stop offset="1" stop-color="#2AB6F4"/>
</linearGradient>
<linearGradient id="paint45_linear" x1="101.376" y1="413.412" x2="126.71" y2="537.219" gradientUnits="userSpaceOnUse">
<stop offset="0.306231" stop-color="#13C2FB"/>
<stop offset="1" stop-color="#1599F7"/>
</linearGradient>
<linearGradient id="paint46_linear" x1="104.833" y1="468.775" x2="106.773" y2="479.412" gradientUnits="userSpaceOnUse">
<stop stop-color="#E7EEF4"/>
<stop offset="1" stop-color="#CAD4DF"/>
</linearGradient>
<linearGradient id="paint47_linear" x1="53.0266" y1="695.019" x2="-15.7014" y2="350.936" gradientUnits="userSpaceOnUse">
<stop offset="0.295365" stop-color="#FDFDFE"/>
<stop offset="1" stop-color="#E5EBF2"/>
</linearGradient>
<linearGradient id="paint48_linear" x1="110.255" y1="492.952" x2="129.095" y2="487.427" gradientUnits="userSpaceOnUse">
<stop stop-color="#1596F7"/>
<stop offset="1" stop-color="#13C2FB"/>
</linearGradient>
<linearGradient id="paint49_linear" x1="112.274" y1="500.807" x2="129.095" y2="495.723" gradientUnits="userSpaceOnUse">
<stop stop-color="#1596F7"/>
<stop offset="1" stop-color="#13C2FB"/>
</linearGradient>
<linearGradient id="paint50_linear" x1="112.274" y1="509.046" x2="129.095" y2="504.019" gradientUnits="userSpaceOnUse">
<stop stop-color="#1090F6"/>
<stop offset="1" stop-color="#13C2FB"/>
</linearGradient>
<linearGradient id="paint51_linear" x1="110.255" y1="517.84" x2="136.468" y2="512.114" gradientUnits="userSpaceOnUse">
<stop stop-color="#108FF6"/>
<stop offset="1" stop-color="#13C2FB"/>
</linearGradient>
<linearGradient id="paint52_linear" x1="110.021" y1="528.354" x2="138.319" y2="519.304" gradientUnits="userSpaceOnUse">
<stop stop-color="#1089F5"/>
<stop offset="1" stop-color="#13C2FB"/>
</linearGradient>
<linearGradient id="paint53_linear" x1="116.844" y1="531.266" x2="131.324" y2="525.149" gradientUnits="userSpaceOnUse">
<stop stop-color="#1089F5"/>
<stop offset="1" stop-color="#13C2FB"/>
</linearGradient>
<linearGradient id="paint54_linear" x1="-0.686165" y1="499.38" x2="141.011" y2="504.272" gradientUnits="userSpaceOnUse">
<stop stop-color="#D8DFE8"/>
<stop offset="1" stop-color="#FDFDFE"/>
</linearGradient>
<linearGradient id="paint55_linear" x1="118.722" y1="503.445" x2="10.9141" y2="505.217" gradientUnits="userSpaceOnUse">
<stop stop-color="#F2F5F8"/>
<stop offset="0.907209" stop-color="#FDFDFE"/>
</linearGradient>
<linearGradient id="paint56_linear" x1="48.4341" y1="528.583" x2="73.3209" y2="578.088" gradientUnits="userSpaceOnUse">
<stop stop-color="#E0E7EF"/>
<stop offset="1" stop-color="#EEF1F5"/>
</linearGradient>
<linearGradient id="paint57_linear" x1="44.2674" y1="525.896" x2="77.2237" y2="590.865" gradientUnits="userSpaceOnUse">
<stop stop-color="#EBEFF4"/>
<stop offset="1" stop-color="#FDFDFE"/>
</linearGradient>
<linearGradient id="paint58_linear" x1="951.817" y1="354.389" x2="996.461" y2="299.293" gradientUnits="userSpaceOnUse">
<stop/>
<stop offset="1" stop-opacity="0"/>
</linearGradient>
<linearGradient id="paint59_linear" x1="868.685" y1="368.823" x2="913.329" y2="313.726" gradientUnits="userSpaceOnUse">
<stop/>
<stop offset="1" stop-opacity="0"/>
</linearGradient>
<radialGradient id="paint60_radial" cx="0" cy="0" r="1" gradientUnits="userSpaceOnUse" gradientTransform="translate(963.936 318.769) rotate(24.8733) scale(61.269)">
<stop stop-color="white"/>
<stop offset="1" stop-color="#C9D5E3"/>
</radialGradient>
<linearGradient id="paint61_linear" x1="939.88" y1="301.559" x2="1015.09" y2="345.321" gradientUnits="userSpaceOnUse">
<stop stop-color="#B057C9" stop-opacity="0.5"/>
<stop offset="1" stop-color="white" stop-opacity="0"/>
</linearGradient>
<linearGradient id="paint62_linear" x1="957.083" y1="291.731" x2="955.115" y2="357.464" gradientUnits="userSpaceOnUse">
<stop stop-opacity="0.21"/>
<stop offset="1"/>
</linearGradient>
<linearGradient id="paint63_linear" x1="782.96" y1="317.782" x2="943.117" y2="310.603" gradientUnits="userSpaceOnUse">
<stop stop-color="#FDFDFE"/>
<stop offset="0.390246" stop-color="#F0F3F7"/>
<stop offset="0.555705" stop-color="#DEE5EC"/>
<stop offset="1" stop-color="#D3DBE3"/>
</linearGradient>
<linearGradient id="paint64_linear" x1="782.96" y1="317.782" x2="943.117" y2="310.603" gradientUnits="userSpaceOnUse">
<stop stop-color="#FDFDFE"/>
<stop offset="0.390246" stop-color="#F0F3F7"/>
<stop offset="0.555705" stop-color="#DEE5EC"/>
<stop offset="1" stop-color="#D3DBE3"/>
</linearGradient>
<linearGradient id="paint65_linear" x1="788.948" y1="317.57" x2="957.992" y2="321.517" gradientUnits="userSpaceOnUse">
<stop stop-color="#BF4BE2"/>
<stop offset="0.110593" stop-color="#EB8BFF"/>
<stop offset="0.152394" stop-color="#E989FE"/>
<stop offset="0.193774" stop-color="#E888FD"/>
<stop offset="0.258058" stop-color="#D361F0"/>
<stop offset="0.44857" stop-color="#D666F1"/>
<stop offset="0.539289" stop-color="#AB5CC1"/>
<stop offset="0.807053" stop-color="#BE4AE2"/>
<stop offset="1" stop-color="#E798FA"/>
</linearGradient>
<linearGradient id="paint66_linear" x1="799.527" y1="335.548" x2="953.398" y2="330.552" gradientUnits="userSpaceOnUse">
<stop stop-color="#FDFDFE"/>
<stop offset="0.400649" stop-color="#F0F3F7"/>
<stop offset="0.526485" stop-color="#DFE5ED"/>
<stop offset="1" stop-color="#DAE2EB"/>
</linearGradient>
<linearGradient id="paint67_linear" x1="799.527" y1="335.548" x2="953.398" y2="330.552" gradientUnits="userSpaceOnUse">
<stop stop-color="#FDFDFE"/>
<stop offset="0.400649" stop-color="#F0F3F7"/>
<stop offset="0.526485" stop-color="#DFE5ED"/>
<stop offset="1" stop-color="#DAE2EB"/>
</linearGradient>
<linearGradient id="paint68_linear" x1="788.948" y1="317.57" x2="957.992" y2="321.517" gradientUnits="userSpaceOnUse">
<stop stop-color="#BF4BE2"/>
<stop offset="0.127491" stop-color="#EB8BFF"/>
<stop offset="0.258058" stop-color="#D361F0"/>
<stop offset="0.44857" stop-color="#D666F1"/>
<stop offset="0.539289" stop-color="#AB5CC1"/>
<stop offset="0.807053" stop-color="#BE4AE2"/>
<stop offset="1" stop-color="#E798FA"/>
</linearGradient>
<linearGradient id="paint69_linear" x1="946.406" y1="328.8" x2="797.828" y2="330.529" gradientUnits="userSpaceOnUse">
<stop stop-color="#BA46DF"/>
<stop offset="0.160041" stop-color="#BA46DF" stop-opacity="0"/>
<stop offset="0.853021" stop-color="#BA46DF" stop-opacity="0"/>
<stop offset="1" stop-color="#BA46DF"/>
</linearGradient>
<linearGradient id="paint70_linear" x1="1018.83" y1="192.063" x2="781.903" y2="256.959" gradientUnits="userSpaceOnUse">
<stop stop-color="#DAE2EB"/>
<stop offset="0.998094" stop-color="white"/>
</linearGradient>
<linearGradient id="paint71_linear" x1="778.586" y1="256.629" x2="917.528" y2="235.802" gradientUnits="userSpaceOnUse">
<stop stop-color="#DAE2EB"/>
<stop offset="0.998094" stop-color="white"/>
</linearGradient>
<linearGradient id="paint72_linear" x1="450.997" y1="116.356" x2="607.556" y2="440.455" gradientUnits="userSpaceOnUse">
<stop offset="0.0726388" stop-color="#FDC007"/>
<stop offset="0.352497" stop-color="#FFE051"/>
<stop offset="0.638412" stop-color="#F4D040"/>
<stop offset="0.805669" stop-color="#FEC107"/>
<stop offset="0.955602" stop-color="#D9A812"/>
</linearGradient>
<linearGradient id="paint73_linear" x1="618.941" y1="-135.359" x2="518.45" y2="429.796" gradientUnits="userSpaceOnUse">
<stop stop-color="#FFFAC0"/>
<stop offset="1" stop-color="#FFDD47"/>
</linearGradient>
<linearGradient id="paint74_linear" x1="567.431" y1="248.434" x2="466.847" y2="91.4088" gradientUnits="userSpaceOnUse">
<stop stop-color="#FCC617"/>
<stop offset="0.517023" stop-color="#FFEBA9"/>
<stop offset="0.694168" stop-color="#FEDD73"/>
<stop offset="0.785854" stop-color="#F4BA0A"/>
</linearGradient>
<linearGradient id="paint75_linear" x1="475.319" y1="222.97" x2="503.019" y2="83.5139" gradientUnits="userSpaceOnUse">
<stop stop-color="#FDC007"/>
<stop offset="1" stop-color="#FDC007" stop-opacity="0"/>
</linearGradient>
<linearGradient id="paint76_linear" x1="588.03" y1="241.118" x2="534.54" y2="282.669" gradientUnits="userSpaceOnUse">
<stop stop-color="#FDC007"/>
<stop offset="1" stop-color="#FDC007" stop-opacity="0"/>
</linearGradient>
<linearGradient id="paint77_linear" x1="880.235" y1="801.46" x2="1066.46" y2="530.519" gradientUnits="userSpaceOnUse">
<stop/>
<stop offset="1" stop-opacity="0"/>
</linearGradient>
<linearGradient id="paint78_linear" x1="1110.63" y1="570.599" x2="998.01" y2="576.445" gradientUnits="userSpaceOnUse">
<stop stop-color="#DAE2EB"/>
<stop offset="1" stop-color="#FBFBFD"/>
</linearGradient>
<linearGradient id="paint79_linear" x1="1013.49" y1="697.598" x2="1005.69" y2="546.442" gradientUnits="userSpaceOnUse">
<stop offset="0.437974" stop-color="#FDFDFE"/>
<stop offset="1" stop-color="#E5EBF2"/>
</linearGradient>
<radialGradient id="paint80_radial" cx="0" cy="0" r="1" gradientUnits="userSpaceOnUse" gradientTransform="translate(994.719 580.744) rotate(6.39801) scale(196.15 239.247)">
<stop stop-color="#FD8315"/>
<stop offset="0.369792" stop-color="#FD8C12" stop-opacity="0"/>
</radialGradient>
<linearGradient id="paint81_linear" x1="1048.65" y1="562.484" x2="961.287" y2="685.408" gradientUnits="userSpaceOnUse">
<stop stop-opacity="0"/>
<stop offset="0.150381"/>
<stop offset="0.27746"/>
<stop offset="0.507478" stop-opacity="0.16"/>
<stop offset="0.745725" stop-opacity="0.24"/>
<stop offset="0.949083"/>
<stop offset="1"/>
</linearGradient>
<linearGradient id="paint82_linear" x1="1034.66" y1="623.579" x2="1090.67" y2="619.804" gradientUnits="userSpaceOnUse">
<stop stop-color="#F4F4F4"/>
<stop offset="1" stop-color="#DAE2EB"/>
</linearGradient>
<linearGradient id="paint83_linear" x1="1065.52" y1="476.021" x2="994.21" y2="588.735" gradientUnits="userSpaceOnUse">
<stop stop-color="#FEA30D"/>
<stop offset="0.137983" stop-color="#FFBC57"/>
<stop offset="0.854529" stop-color="#FD6C1A"/>
<stop offset="1" stop-color="#FD6A1A"/>
</linearGradient>
<linearGradient id="paint84_linear" x1="1027.19" y1="466.593" x2="976.187" y2="538.901" gradientUnits="userSpaceOnUse">
<stop offset="0.0662217" stop-color="#FD6B1A"/>
<stop offset="1" stop-color="#FEA40D"/>
</linearGradient>
<linearGradient id="paint85_linear" x1="1102.21" y1="396.486" x2="962.137" y2="551.537" gradientUnits="userSpaceOnUse">
<stop stop-color="#FBC56C"/>
<stop offset="1" stop-color="#FD8514"/>
</linearGradient>
<linearGradient id="paint86_linear" x1="1047.17" y1="532.382" x2="1011.36" y2="500.143" gradientUnits="userSpaceOnUse">
<stop stop-color="#FD8215"/>
<stop offset="0.528057" stop-color="#DAA60C" stop-opacity="0"/>
</linearGradient>
<linearGradient id="paint87_linear" x1="1004.32" y1="583.639" x2="984.888" y2="573.444" gradientUnits="userSpaceOnUse">
<stop offset="0.159539" stop-color="#ADC1D7"/>
<stop offset="0.581247" stop-color="#E0E7EF"/>
<stop offset="1" stop-color="#FDFDFE"/>
</linearGradient>
<linearGradient id="paint88_linear" x1="995.692" y1="564.547" x2="968.991" y2="621.131" gradientUnits="userSpaceOnUse">
<stop offset="0.056488" stop-color="#FBB251"/>
<stop offset="0.454877" stop-color="#E0E7EF" stop-opacity="0"/>
<stop offset="1" stop-color="#FDFDFE" stop-opacity="0"/>
</linearGradient>
<linearGradient id="paint89_linear" x1="989.092" y1="632.899" x2="958.75" y2="618.283" gradientUnits="userSpaceOnUse">
<stop stop-color="#CED8E4"/>
<stop offset="0.491169" stop-color="#DFE6EE"/>
<stop offset="0.911857" stop-color="#F8F8FE"/>
</linearGradient>
<linearGradient id="paint90_linear" x1="1003.41" y1="553.51" x2="958.75" y2="618.283" gradientUnits="userSpaceOnUse">
<stop stop-color="#FFD535"/>
<stop offset="0.877225" stop-color="#DFE6EE" stop-opacity="0"/>
<stop offset="1" stop-color="#FDFDFE" stop-opacity="0"/>
</linearGradient>
<linearGradient id="paint91_linear" x1="949.951" y1="681.126" x2="925.375" y2="682.35" gradientUnits="userSpaceOnUse">
<stop stop-color="#BEC9D6"/>
<stop offset="1" stop-color="#EBEEF1"/>
</linearGradient>
<linearGradient id="paint92_linear" x1="1066.83" y1="441.556" x2="969.2" y2="556.402" gradientUnits="userSpaceOnUse">
<stop stop-color="#FFFBDF"/>
<stop offset="1" stop-color="#FFEB28" stop-opacity="0"/>
</linearGradient>
</defs>
</svg>

