<svg width="3079" height="2988" viewBox="0 0 3079 2988" fill="none" xmlns="http://www.w3.org/2000/svg">
  <mask id="mask0" mask-type="alpha" maskUnits="userSpaceOnUse" x="-75" y="0" width="3154" height="2988">
    <rect x="-75" width="3154" height="2988" fill="url(#paint0_linear)" />
  </mask>
  <g mask="url(#mask0)">
    <path opacity="0.7" d="M2724.98 695.985C2705.43 686.611 2682.71 686.513 2663.09 695.718L2341.38 846.629C2324.93 854.347 2324.72 877.676 2341.04 885.683L2661.93 1043.16C2682.2 1053.11 2705.95 1053 2726.12 1042.88L3039.55 885.596C3055.63 877.523 3055.43 854.491 3039.2 846.707L2724.98 695.985Z" fill="#F4F5F6" />
    <path d="M2123.94 982.192C2104.4 972.818 2081.68 972.72 2062.06 981.925L1740.35 1132.84C1723.89 1140.55 1723.69 1163.88 1740 1171.89L2060.9 1329.37C2081.16 1339.32 2104.91 1339.21 2125.09 1329.09L2438.51 1171.8C2454.6 1163.73 2454.39 1140.7 2438.17 1132.91L2123.94 982.192Z" fill="#F4F5F6" />
    <path opacity="0.5" d="M209.014 1240.6C195.937 1234.33 180.734 1234.26 167.604 1240.42L-47.6577 1341.4C-58.6671 1346.56 -58.8046 1362.17 -47.8877 1367.53L166.829 1472.9C180.388 1479.56 196.28 1479.49 209.78 1472.71L419.498 1367.47C430.262 1362.07 430.124 1346.66 419.266 1341.45L209.014 1240.6Z" fill="#F4F5F6" />
    <path opacity="0.6" d="M1227.91 702.532C1214.83 696.26 1199.63 696.194 1186.5 702.353L971.239 803.331C960.229 808.495 960.092 824.105 971.009 829.462L1185.73 934.836C1199.28 941.49 1215.18 941.42 1228.68 934.645L1438.39 829.404C1449.16 824.003 1449.02 808.592 1438.16 803.383L1227.91 702.532Z" fill="#F4F5F6" />
    <path d="M1634.53 1829.36C1614.99 1819.99 1592.27 1819.89 1572.64 1829.1L1250.93 1980.01C1234.48 1987.73 1234.27 2011.06 1250.59 2019.06L1571.48 2176.54C1591.75 2186.49 1615.5 2186.38 1635.67 2176.26L1949.1 2018.97C1965.19 2010.9 1964.98 1987.87 1948.75 1980.09L1634.53 1829.36Z" fill="#F4F5F6" />
    <path opacity="0.6" d="M2143.98 2081.23C2124.43 2071.85 2101.71 2071.75 2082.09 2080.96L1760.38 2231.87C1743.93 2239.59 1743.72 2262.92 1760.04 2270.92L2080.93 2428.41C2101.2 2438.35 2124.95 2438.25 2145.12 2428.12L2458.55 2270.84C2474.63 2262.76 2474.43 2239.73 2458.2 2231.95L2143.98 2081.23Z" fill="#F4F5F6" />
    <path opacity="0.5" d="M2738.41 3078.15C2726.97 3071.29 265.11 1745.38 -676.034 1287.93" stroke="url(#paint1_linear)" stroke-width="111.621" />
    <g filter="url(#filter0_f)">
      <ellipse cx="982.291" cy="1695.96" rx="410.463" ry="141.855" fill="#FFEB7F" />
    </g>
    <g filter="url(#filter1_f)">
      <ellipse cx="982.512" cy="1696.72" rx="229.921" ry="80.644" fill="#FFEB7F" fill-opacity="0.5" />
    </g>
    <path opacity="0.5" d="M-435.621 2014.9C-424.173 2008.03 2744.61 460.316 3685.76 2.8623" stroke="url(#paint2_linear)" stroke-width="111.621" />
  </g>
  <path d="M1072.19 197.026L813.402 322.446L780.389 697.247L1169.57 977.996L957.097 1499.38L1214.98 1368.88L1493.02 963.213L1066.73 685.922L1072.19 197.026Z" fill="#DEC344" />
  <path d="M956.68 1492.23C958.162 1491.61 959.934 1490.86 961.972 1490.01C968.747 1487.16 978.454 1483.06 990.183 1478.06C1013.64 1468.05 1045.18 1454.46 1077.51 1440.06C1109.85 1425.66 1142.96 1410.47 1169.56 1397.29C1182.86 1390.7 1194.51 1384.63 1203.62 1379.41C1212.81 1374.15 1219.14 1369.9 1222.05 1366.98L1642.97 944.107C1652.78 934.248 1653.42 916.1 1646.5 897.503C1639.65 879.074 1625.73 861.349 1608.27 853.016L1608.26 853.013M956.68 1492.23L1608.26 853.013M956.68 1492.23L1146.67 942.515L1147.42 940.33L1145.34 939.337L680.189 718.153L956.68 1492.23ZM1608.26 853.013L1143.12 632.81L1141.64 632.11V630.474V269.702C1141.64 248.879 1130.59 228.11 1116.1 214.177C1108.87 207.226 1100.91 202.092 1093.23 199.498C1085.55 196.905 1078.33 196.897 1072.32 199.878C1070.06 200.999 1067.93 202.411 1065.63 203.93L1065.61 203.94C1063.37 205.425 1060.96 207.013 1058.36 208.29L816.212 327.263M1608.26 853.013L816.212 327.263M816.212 327.263L649.138 620.824C647.99 622.84 646.667 624.719 645.407 626.488L645.156 626.842C643.967 628.51 642.846 630.084 641.856 631.726L639.642 630.393L641.856 631.727C635.101 642.938 636.173 660.441 643.51 677.56C650.801 694.574 663.968 710.415 680.186 718.151L816.212 327.263Z" fill="url(#paint3_linear)" stroke="#FDC007" stroke-width="5.16802" />
  <g filter="url(#filter2_ii)">
    <path d="M419.701 845.949L884.852 1067.13V1426.93C884.852 1474.06 939.031 1519.86 964.506 1494.27L1385.43 1071.39C1407.24 1049.48 1386.42 993.516 1350 976.145L884.852 755.938V395.165C884.852 348.035 830.672 302.232 805.197 327.825L384.278 750.7C362.468 772.612 383.282 828.577 419.701 845.949Z" fill="url(#paint4_linear)" />
  </g>
  <path d="M887.436 1065.5V1067.13V1426.93C887.436 1449.57 900.507 1472.13 916.794 1485.9C924.921 1492.77 933.665 1497.29 941.734 1498.62C949.719 1499.94 956.993 1498.15 962.675 1492.45L1383.59 1069.57C1393.41 1059.71 1394.04 1041.56 1387.13 1022.97C1380.27 1004.54 1366.36 986.813 1348.9 978.48L1348.89 978.477M887.436 1065.5L1350 976.145L1348.89 978.477M887.436 1065.5L885.961 1064.8L420.814 843.616L887.436 1065.5ZM1348.89 978.477L883.746 758.274L882.268 757.574V755.938V395.165C882.268 372.525 869.196 349.966 852.909 336.197C844.782 329.326 836.039 324.805 827.969 323.471C819.984 322.152 812.71 323.94 807.029 329.648L386.11 752.523C376.297 762.382 375.659 780.53 382.575 799.126C389.43 817.557 403.346 835.283 420.811 843.615L1348.89 978.477Z" stroke="#FDC007" stroke-width="5.16802" />
  <path d="M887.436 1065.5V1067.13V1426.93C887.436 1449.57 900.507 1472.13 916.794 1485.9C924.921 1492.77 933.665 1497.29 941.734 1498.62C949.719 1499.94 956.993 1498.15 962.675 1492.45L1383.59 1069.57C1393.41 1059.71 1394.04 1041.56 1387.13 1022.97C1380.27 1004.54 1366.36 986.813 1348.9 978.48L1348.89 978.477M887.436 1065.5L1350 976.145L1348.89 978.477M887.436 1065.5L885.961 1064.8L420.814 843.616L887.436 1065.5ZM1348.89 978.477L883.746 758.274L882.268 757.574V755.938V395.165C882.268 372.525 869.196 349.966 852.909 336.197C844.782 329.326 836.039 324.805 827.969 323.471C819.984 322.152 812.71 323.94 807.029 329.648L386.11 752.523C376.297 762.382 375.659 780.53 382.575 799.126C389.43 817.557 403.346 835.283 420.811 843.615L1348.89 978.477Z" stroke="#FDC007" stroke-width="5.16802" />
  <g opacity="0.3" filter="url(#filter3_f)">
    <path d="M1144.96 1308.73V939.571L682.258 713.993C664.599 705.384 650.893 690.357 643.941 671.983L641.855 666.47C639.936 661.398 638.952 656.02 638.952 650.598C638.952 638.509 643.833 626.932 652.487 618.491L868.236 408.056L881.359 388.352L877.271 371.911L855.811 336.897L816.28 323.344L790.302 351.582L500.257 638.573L392.452 748.399C383.985 757.025 379.241 768.629 379.241 780.716C379.241 789.159 381.558 797.44 385.94 804.658L391.649 814.061C400.33 828.358 413.016 839.794 428.134 846.95L887.9 1064.56V1425.34V1450.47L907.228 1476.88L929.777 1495.57L951.682 1500.72L968.433 1488.48L1144.96 1308.73Z" fill="url(#paint5_linear)" />
  </g>
  <g filter="url(#filter4_f)">
    <path d="M1146.81 939.647V941.279V1301.07C1146.81 1323.71 1159.88 1346.27 1176.17 1360.04C1184.3 1366.91 1193.04 1371.43 1201.11 1372.77C1209.09 1374.09 1216.37 1372.3 1222.05 1366.59L1642.97 943.715C1652.78 933.856 1653.42 915.708 1646.5 897.112C1639.65 878.682 1625.73 860.957 1608.27 852.625L1608.26 852.622M1146.81 939.647L1609.38 850.289L1608.26 852.622M1146.81 939.647L1145.34 938.945L680.189 717.761L1146.81 939.647ZM1608.26 852.622L1143.12 632.418L1141.64 631.718V630.083V269.31C1141.64 246.67 1128.57 224.111 1112.28 210.342C1104.16 203.471 1095.41 198.95 1087.34 197.616C1079.36 196.296 1072.09 198.085 1066.4 203.792L645.485 626.668C635.672 636.526 635.034 654.674 641.95 673.271C648.805 691.702 662.721 709.428 680.186 717.76L1608.26 852.622Z" stroke="url(#paint6_linear)" stroke-width="5.16802" />
  </g>
  <path d="M957.424 1496.4L1217.46 1370.55" stroke="#FDC007" stroke-width="5.16802" />
  <path d="M884.852 755.765L1144.89 629.917" stroke="#FDC007" stroke-width="5.16802" />
  <g filter="url(#filter5_f)">
    <path d="M884.189 1066.94L1144.22 941.089" stroke="url(#paint7_linear)" stroke-width="5.16802" />
  </g>
  <path d="M813.926 324.985L1073.96 199.137" stroke="#FDC007" stroke-width="5.16802" />
  <defs>
    <filter id="filter0_f" x="43.3529" y="1025.63" width="1877.88" height="1340.66" filterUnits="userSpaceOnUse" color-interpolation-filters="sRGB">
      <feFlood flood-opacity="0" result="BackgroundImageFix" />
      <feBlend mode="normal" in="SourceGraphic" in2="BackgroundImageFix" result="shape" />
      <feGaussianBlur stdDeviation="264.238" result="effect1_foregroundBlur" />
    </filter>
    <filter id="filter1_f" x="750.387" y="1613.87" width="464.25" height="165.695" filterUnits="userSpaceOnUse" color-interpolation-filters="sRGB">
      <feFlood flood-opacity="0" result="BackgroundImageFix" />
      <feBlend mode="normal" in="SourceGraphic" in2="BackgroundImageFix" result="shape" />
      <feGaussianBlur stdDeviation="1.1019" result="effect1_foregroundBlur" />
    </filter>
    <filter id="filter2_ii" x="375.39" y="302.851" width="1018.92" height="1216.39" filterUnits="userSpaceOnUse" color-interpolation-filters="sRGB">
      <feFlood flood-opacity="0" result="BackgroundImageFix" />
      <feBlend mode="normal" in="SourceGraphic" in2="BackgroundImageFix" result="shape" />
      <feColorMatrix in="SourceAlpha" type="matrix" values="0 0 0 0 0 0 0 0 0 0 0 0 0 0 0 0 0 0 127 0" result="hardAlpha" />
      <feOffset dy="-17.6242" />
      <feGaussianBlur stdDeviation="26.4363" />
      <feComposite in2="hardAlpha" operator="arithmetic" k2="-1" k3="1" />
      <feColorMatrix type="matrix" values="0 0 0 0 1 0 0 0 0 1 0 0 0 0 1 0 0 0 0.96 0" />
      <feBlend mode="overlay" in2="shape" result="effect1_innerShadow" />
      <feColorMatrix in="SourceAlpha" type="matrix" values="0 0 0 0 0 0 0 0 0 0 0 0 0 0 0 0 0 0 127 0" result="hardAlpha" />
      <feOffset dy="17.6242" />
      <feGaussianBlur stdDeviation="15.4212" />
      <feComposite in2="hardAlpha" operator="arithmetic" k2="-1" k3="1" />
      <feColorMatrix type="matrix" values="0 0 0 0 0.975 0 0 0 0 0.902344 0 0 0 0 0.47125 0 0 0 1 0" />
      <feBlend mode="normal" in2="effect1_innerShadow" result="effect2_innerShadow" />
    </filter>
    <filter id="filter3_f" x="375.107" y="319.209" width="773.988" height="1185.65" filterUnits="userSpaceOnUse" color-interpolation-filters="sRGB">
      <feFlood flood-opacity="0" result="BackgroundImageFix" />
      <feBlend mode="normal" in="SourceGraphic" in2="BackgroundImageFix" result="shape" />
      <feGaussianBlur stdDeviation="2.06721" result="effect1_foregroundBlur" />
    </filter>
    <filter id="filter4_f" x="624.429" y="184.284" width="1039.6" height="1201.81" filterUnits="userSpaceOnUse" color-interpolation-filters="sRGB">
      <feFlood flood-opacity="0" result="BackgroundImageFix" />
      <feBlend mode="normal" in="SourceGraphic" in2="BackgroundImageFix" result="shape" />
      <feGaussianBlur stdDeviation="5.16802" result="effect1_foregroundBlur" />
    </filter>
    <filter id="filter5_f" x="872.728" y="928.427" width="282.959" height="151.172" filterUnits="userSpaceOnUse" color-interpolation-filters="sRGB">
      <feFlood flood-opacity="0" result="BackgroundImageFix" />
      <feBlend mode="normal" in="SourceGraphic" in2="BackgroundImageFix" result="shape" />
      <feGaussianBlur stdDeviation="5.16802" result="effect1_foregroundBlur" />
    </filter>
    <linearGradient id="paint0_linear" x1="538.914" y1="1494" x2="2483.69" y2="1524.05" gradientUnits="userSpaceOnUse">
      <stop stop-color="#C4C4C4" />
      <stop offset="1" stop-color="#C4C4C4" stop-opacity="0" />
    </linearGradient>
    <linearGradient id="paint1_linear" x1="-200.931" y1="1319.41" x2="2764.97" y2="2936.94" gradientUnits="userSpaceOnUse">
      <stop stop-color="#E9ECEE" />
      <stop offset="0.733878" stop-color="#E9EDEE" stop-opacity="0.69" />
      <stop offset="1" stop-color="#E9ECEE" stop-opacity="0" />
    </linearGradient>
    <linearGradient id="paint2_linear" x1="-112.207" y1="1442.48" x2="3119.07" y2="117.345" gradientUnits="userSpaceOnUse">
      <stop stop-color="#E9ECEE" />
      <stop offset="0.733878" stop-color="#E9EDEE" stop-opacity="0.69" />
      <stop offset="1" stop-color="#E9ECEE" stop-opacity="0" />
    </linearGradient>
    <linearGradient id="paint3_linear" x1="663.719" y1="539.462" x2="1144.23" y2="1534.18" gradientUnits="userSpaceOnUse">
      <stop offset="0.0726388" stop-color="#FDC007" />
      <stop offset="0.352497" stop-color="#FFE051" />
      <stop offset="0.638412" stop-color="#F4D040" />
      <stop offset="0.805669" stop-color="#FEC107" />
      <stop offset="0.955602" stop-color="#D9A812" />
    </linearGradient>
    <linearGradient id="paint4_linear" x1="1179.17" y1="-233.099" x2="870.743" y2="1501.46" gradientUnits="userSpaceOnUse">
      <stop stop-color="#FFFAC0" />
      <stop offset="1" stop-color="#FFDD47" />
    </linearGradient>
    <linearGradient id="paint5_linear" x1="1021.07" y1="944.83" x2="712.363" y2="462.893" gradientUnits="userSpaceOnUse">
      <stop stop-color="#FCC617" />
      <stop offset="0.517023" stop-color="#FFEBA9" />
      <stop offset="0.694168" stop-color="#FEDD73" />
      <stop offset="0.785854" stop-color="#F4BA0A" />
    </linearGradient>
    <linearGradient id="paint6_linear" x1="738.369" y1="866.677" x2="823.386" y2="438.662" gradientUnits="userSpaceOnUse">
      <stop stop-color="#FDC007" />
      <stop offset="1" stop-color="#FDC007" stop-opacity="0" />
    </linearGradient>
    <linearGradient id="paint7_linear" x1="1084.3" y1="922.381" x2="920.127" y2="1049.91" gradientUnits="userSpaceOnUse">
      <stop stop-color="#FDC007" />
      <stop offset="1" stop-color="#FDC007" stop-opacity="0" />
    </linearGradient>
  </defs>
</svg>