<svg width="2698" height="1352" viewBox="0 0 2698 1352" fill="none" xmlns="http://www.w3.org/2000/svg">
  <g opacity="0.3" filter="url(#filter0_f)">
    <ellipse rx="739.198" ry="761.201" transform="matrix(0.903359 0.428886 -0.901809 0.432135 1354.22 675.973)" fill="url(#paint0_radial)" fill-opacity="0.4" />
  </g>
  <g filter="url(#filter1_i)">
    <path d="M1903.05 874.806L925.118 942.368C886.503 945.036 857.776 931.397 854.214 915.989V623.156L956.363 635.957L967.917 630.328L731.981 517.865C718.884 511.623 713.221 503.768 713.726 496.119V206.312L1815.28 136.027L1816.24 430.464C1815.79 437.399 1810.11 444.43 1797.85 450.281L1475.69 604.044L1654.45 585.409L1956.99 554.044L1956.4 845.877C1955.83 859.497 1935.67 872.553 1903.05 874.806Z" fill="url(#paint1_linear)" />
  </g>
  <path d="M859.469 915.323V629.111L955.709 641.171L957.26 641.365L958.664 640.681L970.219 635.052L980.022 630.276L970.178 625.584L734.242 513.121C721.823 507.202 718.68 500.847 718.97 496.465L718.981 496.292V496.119V211.242L1810.05 141.627L1810.98 430.282C1810.64 434.337 1807.09 440.048 1795.59 445.538L1473.43 599.302L1476.23 609.271L1654.99 590.636L1654.99 590.636L1951.72 559.873L1951.14 845.749C1950.92 849.909 1947.58 855.216 1939.14 860.041C1930.81 864.797 1918.44 868.476 1902.69 869.563L924.755 937.126C906.109 938.414 890.085 935.742 878.48 931.08C866.931 926.441 860.931 920.371 859.469 915.323Z" stroke="#FDC007" stroke-width="10.5105" />
  <g filter="url(#filter2_bi)">
    <path d="M731.981 226.331L1194.42 446.757L872.256 600.521C829.975 620.701 865.931 654.923 925.118 650.834L1903.05 583.271C1953.72 579.771 1974.33 550.195 1938.13 532.936L1475.69 312.51L1797.85 158.746C1840.13 138.566 1804.18 104.344 1744.99 108.433L767.055 175.996C716.382 179.496 695.774 209.072 731.981 226.331Z" fill="url(#paint2_linear)" />
    <path d="M1196.68 451.5L1206.62 446.754L1196.68 442.013L734.242 221.587C725.762 217.545 721.504 213.185 719.852 209.518C718.346 206.178 718.675 202.703 721.25 199.008C723.963 195.115 729.183 191.068 737.125 187.762C744.997 184.486 755.21 182.082 767.417 181.238L1745.35 113.676C1774.18 111.684 1796.24 119.149 1805.85 128.296C1810.53 132.753 1811.65 136.904 1810.69 140.399C1809.63 144.233 1805.58 149.234 1795.59 154.003L1473.43 307.767L1463.48 312.513L1473.43 317.254L1935.86 537.68C1944.34 541.722 1948.6 546.082 1950.26 549.749C1951.76 553.089 1951.43 556.564 1948.86 560.259C1946.14 564.152 1940.92 568.199 1932.98 571.505C1925.11 574.782 1914.9 577.185 1902.69 578.029L924.755 645.591C895.925 647.583 873.869 640.118 864.26 630.971C859.576 626.514 858.457 622.363 859.421 618.868C860.479 615.034 864.526 610.033 874.519 605.264L1196.68 451.5Z" stroke="#FDC30D" stroke-width="10.5105" />
  </g>
  <g style="mix-blend-mode:multiply" opacity="0.2" filter="url(#filter3_f)">
    <path d="M1196.97 743.037L1206.91 738.291L1196.96 733.551L734.528 513.124C726.048 509.082 721.79 504.722 720.137 501.055C718.632 497.715 718.961 494.24 721.535 490.545C724.248 486.652 729.468 482.605 737.411 479.299C745.283 476.023 755.495 473.619 767.703 472.776L1745.64 405.213C1774.47 403.221 1796.52 410.686 1806.13 419.833C1810.82 424.29 1811.94 428.441 1810.97 431.936C1809.91 435.77 1805.87 440.771 1795.87 445.54L1473.71 599.304L1463.77 604.05L1473.71 608.791L1936.15 829.217C1944.63 833.259 1948.89 837.619 1950.54 841.286C1952.05 844.626 1951.72 848.101 1949.14 851.796C1946.43 855.689 1941.21 859.736 1933.27 863.042C1925.4 866.319 1915.18 868.722 1902.98 869.566L925.041 937.128C896.21 939.12 874.155 931.655 864.545 922.509C859.862 918.051 858.743 913.9 859.707 910.405C860.764 906.571 864.811 901.571 874.805 896.801L1196.97 743.037Z" stroke="url(#paint3_linear)" stroke-width="10.5105" />
  </g>
  <g filter="url(#filter4_f)">
    <path d="M1484.83 324.102L1629.8 391.613L978.744 333.342L833.776 268.782L1484.83 324.102Z" fill="url(#paint4_linear)" />
  </g>
  <g filter="url(#filter5_f)">
    <path d="M1710.67 430.381L1929.65 534.704L1159.09 472.335L1203.28 446.271L1073.18 380.719L1710.67 430.381Z" fill="url(#paint5_linear)" />
  </g>
  <path d="M1196.68 451.5L1206.62 446.754L1196.68 442.013L734.242 221.587C725.762 217.545 721.504 213.185 719.852 209.518C718.346 206.178 718.675 202.703 721.25 199.008C723.963 195.115 729.183 191.068 737.125 187.762C744.997 184.486 755.21 182.082 767.417 181.238L1745.35 113.676C1774.18 111.684 1796.24 119.149 1805.85 128.296C1810.53 132.753 1811.65 136.904 1810.69 140.399C1809.63 144.233 1805.58 149.234 1795.59 154.003L1473.43 307.767L1463.48 312.513L1473.43 317.254L1935.86 537.68C1944.34 541.722 1948.6 546.082 1950.26 549.749C1951.76 553.089 1951.43 556.564 1948.86 560.259C1946.14 564.152 1940.92 568.199 1932.98 571.505C1925.11 574.782 1914.9 577.185 1902.69 578.029L924.755 645.591C895.925 647.583 873.869 640.118 864.26 630.971C859.576 626.514 858.457 622.363 859.421 618.868C860.479 615.034 864.526 610.033 874.519 605.264L1196.68 451.5Z" stroke="#FDC30D" stroke-width="10.5105" />
  <g filter="url(#filter6_d)">
    <path d="M2098.56 718.733C2144.37 740.621 2118.3 778.128 2054.19 782.568L816.986 868.25C742.108 873.436 696.62 830.036 750.109 804.444L827.37 770.117" stroke="#FFDD47" stroke-opacity="0.6" stroke-width="7.1247" stroke-linecap="round" stroke-linejoin="round" stroke-dasharray="2.37 47.5" />
  </g>
  <g filter="url(#filter7_d)">
    <path d="M2096.18 583.364C2141.99 605.252 2115.92 642.759 2051.81 647.199L814.608 732.881C739.73 738.067 694.242 694.667 747.731 669.075L824.992 634.748" stroke="#FFDD47" stroke-opacity="0.5" stroke-width="4.7498" stroke-linecap="round" stroke-linejoin="round" stroke-dasharray="23.75 47.5 95 23.75 47.5 95" />
  </g>
  <g filter="url(#filter8_d)">
    <path d="M2098.56 651.913C2144.37 673.8 2118.3 711.308 2054.19 715.748L816.986 801.43C742.108 806.615 696.62 763.216 750.109 737.624L827.37 703.297" stroke="#FFDD47" stroke-width="7.1247" />
  </g>
  <g filter="url(#filter9_d)">
    <path d="M719.314 325.114L617.021 332.239C552.914 336.679 526.841 374.186 572.648 396.073L934.248 571.304M1811.77 251.306L1854.22 246.557C1929.1 241.371 1974.59 284.771 1921.1 310.363L1694.22 417.125" stroke="#FFDD47" stroke-opacity="0.6" stroke-width="7.1247" stroke-linecap="round" stroke-linejoin="round" stroke-dasharray="2.37 47.5" />
  </g>
  <g filter="url(#filter10_d)">
    <path d="M716.938 211.119L614.644 218.244C550.537 222.683 524.464 260.191 570.271 282.078L931.871 457.309M1809.39 137.311L1851.85 132.562C1926.72 127.376 1972.21 170.776 1918.72 196.368L1691.84 303.13" stroke="#FFDD47" stroke-opacity="0.5" stroke-width="4.7498" stroke-linecap="round" stroke-linejoin="round" stroke-dasharray="23.75 47.5 95 23.75 47.5 95" />
  </g>
  <g filter="url(#filter11_d)">
    <path d="M1664.53 372.002L1921.1 253.367C1974.59 227.775 1929.1 184.375 1854.22 189.561L1811.77 194.31M719.314 268.118L617.021 275.243C552.914 279.682 526.841 317.19 572.648 339.077L828.565 462.248" stroke="#FFDD47" stroke-width="7.1247" stroke-linecap="round" stroke-linejoin="round" />
  </g>
  <g style="mix-blend-mode:screen" filter="url(#filter12_f)">
    <path d="M1468.47 116.775L1479.36 268.421C1480.58 285.513 1493.21 299.616 1510.06 302.721L1551.86 310.421L1510.44 318.051C1493.41 321.188 1480.72 335.543 1479.7 352.827L1468.47 542.979L1457.26 353.286C1456.23 335.791 1443.25 321.327 1425.97 318.412L1378.59 310.421L1426.35 302.365C1443.46 299.479 1456.37 285.269 1457.61 267.966L1468.47 116.775Z" fill="white" />
  </g>
  <g style="mix-blend-mode:screen" filter="url(#filter13_f)">
    <path d="M1393.13 218.166C1396.77 237.952 1412.25 253.433 1432.04 257.078C1412.25 260.723 1396.77 276.204 1393.13 295.99C1389.48 276.204 1374 260.723 1354.21 257.078C1374 253.433 1389.48 237.952 1393.13 218.166Z" fill="white" />
  </g>
  <defs>
    <filter id="filter0_f" x="178.005" y="0.577927" width="2352.43" height="1350.79" filterUnits="userSpaceOnUse" color-interpolation-filters="sRGB">
      <feFlood flood-opacity="0" result="BackgroundImageFix" />
      <feBlend mode="normal" in="SourceGraphic" in2="BackgroundImageFix" result="shape" />
      <feGaussianBlur stdDeviation="109.273" result="effect1_foregroundBlur" />
    </filter>
    <filter id="filter1_i" x="713.695" y="136.027" width="1276.34" height="814.229" filterUnits="userSpaceOnUse" color-interpolation-filters="sRGB">
      <feFlood flood-opacity="0" result="BackgroundImageFix" />
      <feBlend mode="normal" in="SourceGraphic" in2="BackgroundImageFix" result="shape" />
      <feColorMatrix in="SourceAlpha" type="matrix" values="0 0 0 0 0 0 0 0 0 0 0 0 0 0 0 0 0 0 127 0" result="hardAlpha" />
      <feOffset dx="33.0411" dy="7.55225" />
      <feGaussianBlur stdDeviation="27.8489" />
      <feComposite in2="hardAlpha" operator="arithmetic" k2="-1" k3="1" />
      <feColorMatrix type="matrix" values="0 0 0 0 1 0 0 0 0 1 0 0 0 0 1 0 0 0 1 0" />
      <feBlend mode="normal" in2="shape" result="effect1_innerShadow" />
    </filter>
    <filter id="filter2_bi" x="683.486" y="77.8886" width="1303.14" height="611.986" filterUnits="userSpaceOnUse" color-interpolation-filters="sRGB">
      <feFlood flood-opacity="0" result="BackgroundImageFix" />
      <feGaussianBlur in="BackgroundImage" stdDeviation="15.1045" />
      <feComposite in2="SourceAlpha" operator="in" result="effect1_backgroundBlur" />
      <feBlend mode="normal" in="SourceGraphic" in2="effect1_backgroundBlur" result="shape" />
      <feColorMatrix in="SourceAlpha" type="matrix" values="0 0 0 0 0 0 0 0 0 0 0 0 0 0 0 0 0 0 127 0" result="hardAlpha" />
      <feOffset dy="38.7053" />
      <feGaussianBlur stdDeviation="22.1847" />
      <feComposite in2="hardAlpha" operator="arithmetic" k2="-1" k3="1" />
      <feColorMatrix type="matrix" values="0 0 0 0 1 0 0 0 0 1 0 0 0 0 1 0 0 0 0.71 0" />
      <feBlend mode="normal" in2="shape" result="effect2_innerShadow" />
    </filter>
    <filter id="filter3_f" x="703.596" y="389.25" width="1263.49" height="563.84" filterUnits="userSpaceOnUse" color-interpolation-filters="sRGB">
      <feFlood flood-opacity="0" result="BackgroundImageFix" />
      <feBlend mode="normal" in="SourceGraphic" in2="BackgroundImageFix" result="shape" />
      <feGaussianBlur stdDeviation="5.19217" result="effect1_foregroundBlur" />
    </filter>
    <filter id="filter4_f" x="826.224" y="261.23" width="811.129" height="137.935" filterUnits="userSpaceOnUse" color-interpolation-filters="sRGB">
      <feFlood flood-opacity="0" result="BackgroundImageFix" />
      <feBlend mode="normal" in="SourceGraphic" in2="BackgroundImageFix" result="shape" />
      <feGaussianBlur stdDeviation="3.77613" result="effect1_foregroundBlur" />
    </filter>
    <filter id="filter5_f" x="1065.63" y="373.166" width="871.572" height="169.089" filterUnits="userSpaceOnUse" color-interpolation-filters="sRGB">
      <feFlood flood-opacity="0" result="BackgroundImageFix" />
      <feBlend mode="normal" in="SourceGraphic" in2="BackgroundImageFix" result="shape" />
      <feGaussianBlur stdDeviation="3.77613" result="effect1_foregroundBlur" />
    </filter>
    <filter id="filter6_d" x="706.62" y="696.171" width="1427.65" height="194.716" filterUnits="userSpaceOnUse" color-interpolation-filters="sRGB">
      <feFlood flood-opacity="0" result="BackgroundImageFix" />
      <feColorMatrix in="SourceAlpha" type="matrix" values="0 0 0 0 0 0 0 0 0 0 0 0 0 0 0 0 0 0 127 0" />
      <feOffset />
      <feGaussianBlur stdDeviation="9.49961" />
      <feColorMatrix type="matrix" values="0 0 0 0 1 0 0 0 0 0.960784 0 0 0 0 0.698039 0 0 0 1 0" />
      <feBlend mode="normal" in2="BackgroundImageFix" result="effect1_dropShadow" />
      <feBlend mode="normal" in="SourceGraphic" in2="effect1_dropShadow" result="shape" />
    </filter>
    <filter id="filter7_d" x="703.06" y="561.99" width="1437.56" height="192.547" filterUnits="userSpaceOnUse" color-interpolation-filters="sRGB">
      <feFlood flood-opacity="0" result="BackgroundImageFix" />
      <feColorMatrix in="SourceAlpha" type="matrix" values="0 0 0 0 0 0 0 0 0 0 0 0 0 0 0 0 0 0 127 0" />
      <feOffset />
      <feGaussianBlur stdDeviation="9.49961" />
      <feColorMatrix type="matrix" values="0 0 0 0 1 0 0 0 0 0.960784 0 0 0 0 0.698039 0 0 0 1 0" />
      <feBlend mode="normal" in2="BackgroundImageFix" result="effect1_dropShadow" />
      <feBlend mode="normal" in="SourceGraphic" in2="effect1_dropShadow" result="shape" />
    </filter>
    <filter id="filter8_d" x="649.623" y="575.077" width="1549.26" height="303.962" filterUnits="userSpaceOnUse" color-interpolation-filters="sRGB">
      <feFlood flood-opacity="0" result="BackgroundImageFix" />
      <feColorMatrix in="SourceAlpha" type="matrix" values="0 0 0 0 0 0 0 0 0 0 0 0 0 0 0 0 0 0 127 0" />
      <feOffset />
      <feGaussianBlur stdDeviation="36.811" />
      <feColorMatrix type="matrix" values="0 0 0 0 1 0 0 0 0 0.960784 0 0 0 0 0.698039 0 0 0 1 0" />
      <feBlend mode="normal" in2="BackgroundImageFix" result="effect1_dropShadow" />
      <feBlend mode="normal" in="SourceGraphic" in2="effect1_dropShadow" result="shape" />
    </filter>
    <filter id="filter9_d" x="536.935" y="223.92" width="1427.65" height="369.948" filterUnits="userSpaceOnUse" color-interpolation-filters="sRGB">
      <feFlood flood-opacity="0" result="BackgroundImageFix" />
      <feColorMatrix in="SourceAlpha" type="matrix" values="0 0 0 0 0 0 0 0 0 0 0 0 0 0 0 0 0 0 127 0" />
      <feOffset />
      <feGaussianBlur stdDeviation="9.49961" />
      <feColorMatrix type="matrix" values="0 0 0 0 1 0 0 0 0 0.960784 0 0 0 0 0.698039 0 0 0 1 0" />
      <feBlend mode="normal" in2="BackgroundImageFix" result="effect1_dropShadow" />
      <feBlend mode="normal" in="SourceGraphic" in2="effect1_dropShadow" result="shape" />
    </filter>
    <filter id="filter10_d" x="525.839" y="110.906" width="1437.56" height="367.778" filterUnits="userSpaceOnUse" color-interpolation-filters="sRGB">
      <feFlood flood-opacity="0" result="BackgroundImageFix" />
      <feColorMatrix in="SourceAlpha" type="matrix" values="0 0 0 0 0 0 0 0 0 0 0 0 0 0 0 0 0 0 127 0" />
      <feOffset />
      <feGaussianBlur stdDeviation="9.49961" />
      <feColorMatrix type="matrix" values="0 0 0 0 1 0 0 0 0 0.960784 0 0 0 0 0.698039 0 0 0 1 0" />
      <feBlend mode="normal" in2="BackgroundImageFix" result="effect1_dropShadow" />
      <feBlend mode="normal" in="SourceGraphic" in2="effect1_dropShadow" result="shape" />
    </filter>
    <filter id="filter11_d" x="472.328" y="111.951" width="1549.26" height="427.482" filterUnits="userSpaceOnUse" color-interpolation-filters="sRGB">
      <feFlood flood-opacity="0" result="BackgroundImageFix" />
      <feColorMatrix in="SourceAlpha" type="matrix" values="0 0 0 0 0 0 0 0 0 0 0 0 0 0 0 0 0 0 127 0" />
      <feOffset />
      <feGaussianBlur stdDeviation="36.811" />
      <feColorMatrix type="matrix" values="0 0 0 0 1 0 0 0 0 0.960784 0 0 0 0 0.698039 0 0 0 1 0" />
      <feBlend mode="normal" in2="BackgroundImageFix" result="effect1_dropShadow" />
      <feBlend mode="normal" in="SourceGraphic" in2="effect1_dropShadow" result="shape" />
    </filter>
    <filter id="filter12_f" x="1348.11" y="86.2931" width="234.23" height="487.169" filterUnits="userSpaceOnUse" color-interpolation-filters="sRGB">
      <feFlood flood-opacity="0" result="BackgroundImageFix" />
      <feBlend mode="normal" in="SourceGraphic" in2="BackgroundImageFix" result="shape" />
      <feGaussianBlur stdDeviation="15.2412" result="effect1_foregroundBlur" />
    </filter>
    <filter id="filter13_f" x="1302.31" y="166.262" width="181.632" height="181.632" filterUnits="userSpaceOnUse" color-interpolation-filters="sRGB">
      <feFlood flood-opacity="0" result="BackgroundImageFix" />
      <feBlend mode="normal" in="SourceGraphic" in2="BackgroundImageFix" result="shape" />
      <feGaussianBlur stdDeviation="25.952" result="effect1_foregroundBlur" />
    </filter>
    <radialGradient id="paint0_radial" cx="0" cy="0" r="1" gradientUnits="userSpaceOnUse" gradientTransform="translate(739.198 761.201) rotate(44.0074) scale(889.56 793.33)">
      <stop offset="0.195875" stop-color="white" />
      <stop offset="0.556926" stop-color="#FFEA31" />
    </radialGradient>
    <linearGradient id="paint1_linear" x1="644.455" y1="1036.28" x2="1886.67" y2="1099.15" gradientUnits="userSpaceOnUse">
      <stop stop-color="#FDC007" />
      <stop offset="0.237143" stop-color="#FFE051" />
      <stop offset="0.50689" stop-color="#FFD735" />
      <stop offset="0.671667" stop-color="#FEC107" />
      <stop offset="0.881931" stop-color="#E9B71D" />
      <stop offset="1" stop-color="#F3D167" />
    </linearGradient>
    <linearGradient id="paint2_linear" x1="1274.46" y1="563.987" x2="1381.42" y2="46.5515" gradientUnits="userSpaceOnUse">
      <stop stop-color="#FFFAC0" />
      <stop offset="1" stop-color="#FFDD47" />
    </linearGradient>
    <linearGradient id="paint3_linear" x1="1335.34" y1="372.382" x2="1335.34" y2="942.706" gradientUnits="userSpaceOnUse">
      <stop stop-color="#FDC30D" />
      <stop offset="0.496526" stop-color="#FDC30D" stop-opacity="0" />
      <stop offset="1" stop-color="#FDC30D" />
    </linearGradient>
    <linearGradient id="paint4_linear" x1="562.931" y1="378.663" x2="1622.55" y2="531.563" gradientUnits="userSpaceOnUse">
      <stop stop-color="white" />
      <stop offset="1" stop-color="white" stop-opacity="0" />
    </linearGradient>
    <linearGradient id="paint5_linear" x1="772.86" y1="480.845" x2="1832.48" y2="633.744" gradientUnits="userSpaceOnUse">
      <stop stop-color="white" />
      <stop offset="1" stop-color="white" stop-opacity="0" />
    </linearGradient>
  </defs>
</svg>