<svg width="1248" height="1683" viewBox="0 0 1248 1683" fill="none" xmlns="http://www.w3.org/2000/svg">
  <path d="M675.145 12.3301L424.773 133.672L392.833 496.288L769.363 767.909L563.796 1272.34L813.298 1146.09L1082.29 753.606L669.868 485.331L675.145 12.3301Z" fill="#DEC344" />
  <path d="M568.511 1263.27C566.539 1264.1 564.824 1264.82 563.39 1265.42L747.202 733.578L747.933 731.464L745.913 730.504L295.888 516.51C295.888 516.51 295.887 516.51 295.886 516.509C280.195 509.025 267.456 493.698 260.402 477.238C253.304 460.675 252.267 443.742 258.802 432.894C259.759 431.305 260.844 429.783 261.994 428.168L262.238 427.826C263.456 426.115 264.737 424.297 265.847 422.346L427.489 138.329L661.769 23.2245C664.283 21.9895 666.608 20.4524 668.781 19.0159L668.797 19.0059C671.02 17.5366 673.088 16.1705 675.274 15.086C681.088 12.2024 688.069 12.2099 695.497 14.7181C702.929 17.2279 710.635 22.1951 717.627 28.9197C731.643 42.4004 742.339 62.4935 742.339 82.6394V431.683V433.265L743.77 433.942L1193.79 646.987C1210.69 655.047 1224.15 672.198 1230.79 690.03C1237.48 708.022 1236.86 725.58 1227.37 735.118L820.132 1144.24C817.321 1147.07 811.191 1151.18 802.297 1156.27C793.491 1161.32 782.221 1167.19 769.349 1173.57C743.611 1186.32 711.58 1201.01 680.294 1214.95C649.013 1228.88 618.499 1242.03 595.804 1251.71C584.456 1256.54 575.065 1260.51 568.511 1263.27Z" fill="url(#paint0_linear)" stroke="#FDC007" stroke-width="5" />
  <g filter="url(#filter0_ii)">
    <path d="M43.871 640.153L493.898 854.147V1202.24C493.898 1247.84 546.316 1292.16 570.963 1267.39L978.197 858.268C999.299 837.068 979.162 782.922 943.926 766.116L493.898 553.069V204.025C493.898 158.427 441.481 114.113 416.834 138.874L9.59976 548.001C-11.5015 569.2 8.63529 623.346 43.871 640.153Z" fill="url(#paint1_linear)" />
  </g>
  <path d="M496.398 854.147V852.568L494.972 851.89L44.9472 637.896C44.9466 637.896 44.9459 637.896 44.9453 637.895C28.0476 629.835 14.5838 612.684 7.9522 594.853C1.26093 576.86 1.87773 559.303 11.3716 549.765L418.606 140.638C424.102 135.115 431.14 133.385 438.865 134.662C446.673 135.952 455.132 140.327 462.995 146.974C478.752 160.296 491.398 182.121 491.398 204.025V553.069V554.651L492.829 555.328L942.85 768.372C959.748 776.432 973.213 793.584 979.845 811.416C986.536 829.408 985.919 846.966 976.425 856.504L569.191 1265.63C563.695 1271.15 556.657 1272.88 548.932 1271.61C541.124 1270.32 532.665 1265.94 524.802 1259.29C509.045 1245.97 496.398 1224.15 496.398 1202.24V854.147Z" stroke="#FDC007" stroke-width="5" />
  <path d="M496.398 854.147V852.568L494.972 851.89L44.9472 637.896C44.9466 637.896 44.9459 637.896 44.9453 637.895C28.0476 629.835 14.5838 612.684 7.9522 594.853C1.26093 576.86 1.87773 559.303 11.3716 549.765L418.606 140.638C424.102 135.115 431.14 133.385 438.865 134.662C446.673 135.952 455.132 140.327 462.995 146.974C478.752 160.296 491.398 182.121 491.398 204.025V553.069V554.651L492.829 555.328L942.85 768.372C959.748 776.432 973.213 793.584 979.845 811.416C986.536 829.408 985.919 846.966 976.425 856.504L569.191 1265.63C563.695 1271.15 556.657 1272.88 548.932 1271.61C541.124 1270.32 532.665 1265.94 524.802 1259.29C509.045 1245.97 496.398 1224.15 496.398 1202.24V854.147Z" stroke="#FDC007" stroke-width="5" />
  <g opacity="0.3" filter="url(#filter1_f)">
    <path d="M745.548 1087.89V730.731L297.889 512.487C280.805 504.157 267.545 489.619 260.818 471.842L258.8 466.508C256.943 461.602 255.992 456.399 255.992 451.152C255.992 439.457 260.714 428.256 269.086 420.09L477.821 216.496L490.517 197.433L486.563 181.526L465.8 147.651L427.554 134.538L402.421 161.858L121.806 439.519L17.5057 545.774C9.31399 554.119 4.72461 565.346 4.72461 577.04C4.72461 585.209 6.96642 593.221 11.2058 600.204L16.7291 609.301C25.1274 623.134 37.401 634.197 52.028 641.12L496.846 851.654V1200.71V1225.02L515.545 1250.57L537.361 1268.65L558.554 1273.64L574.76 1261.79L745.548 1087.89Z" fill="url(#paint2_linear)" />
  </g>
  <g filter="url(#filter2_f)">
    <path d="M747.339 732.384V730.804L745.913 730.126L295.888 516.133C295.888 516.132 295.887 516.132 295.886 516.132C278.989 508.071 265.525 490.921 258.893 473.089C252.202 455.097 252.819 437.539 262.313 428.001L669.547 18.874C675.043 13.3518 682.081 11.6217 689.806 12.8984C697.614 14.1886 706.073 18.5631 713.936 25.2105C729.693 38.5318 742.339 60.3573 742.339 82.2615V431.305V432.887L743.77 433.564L1193.79 646.609C1210.69 654.669 1224.15 671.82 1230.79 689.652C1237.48 707.644 1236.86 725.202 1227.37 734.74L820.132 1143.87C814.635 1149.39 807.598 1151.12 799.872 1149.84C792.065 1148.55 783.606 1144.18 775.743 1137.53C759.986 1124.21 747.339 1102.38 747.339 1080.48V732.384Z" stroke="url(#paint3_linear)" stroke-width="5" />
  </g>
  <path d="M564.114 1269.46L815.695 1147.7" stroke="#FDC007" stroke-width="5" />
  <path d="M493.898 552.902L745.479 431.146" stroke="#FDC007" stroke-width="5" />
  <g filter="url(#filter3_f)">
    <path d="M493.258 853.953L744.839 732.196" stroke="url(#paint4_linear)" stroke-width="5" />
  </g>
  <path d="M425.28 136.129L676.861 14.3721" stroke="#FDC007" stroke-width="5" />
  <g opacity="0.3" filter="url(#filter4_f)">
    <ellipse cx="611.49" cy="1361.84" rx="400.304" ry="163.19" fill="#FEDA47" />
  </g>
  <defs>
    <filter id="filter0_ii" x="1" y="114.712" width="985.797" height="1176.84" filterUnits="userSpaceOnUse" color-interpolation-filters="sRGB">
      <feFlood flood-opacity="0" result="BackgroundImageFix" />
      <feBlend mode="normal" in="SourceGraphic" in2="BackgroundImageFix" result="shape" />
      <feColorMatrix in="SourceAlpha" type="matrix" values="0 0 0 0 0 0 0 0 0 0 0 0 0 0 0 0 0 0 127 0" result="hardAlpha" />
      <feOffset dy="-17.0512" />
      <feGaussianBlur stdDeviation="25.5768" />
      <feComposite in2="hardAlpha" operator="arithmetic" k2="-1" k3="1" />
      <feColorMatrix type="matrix" values="0 0 0 0 1 0 0 0 0 1 0 0 0 0 1 0 0 0 0.96 0" />
      <feBlend mode="overlay" in2="shape" result="effect1_innerShadow" />
      <feColorMatrix in="SourceAlpha" type="matrix" values="0 0 0 0 0 0 0 0 0 0 0 0 0 0 0 0 0 0 127 0" result="hardAlpha" />
      <feOffset dy="17.0512" />
      <feGaussianBlur stdDeviation="14.9198" />
      <feComposite in2="hardAlpha" operator="arithmetic" k2="-1" k3="1" />
      <feColorMatrix type="matrix" values="0 0 0 0 0.975 0 0 0 0 0.902344 0 0 0 0 0.47125 0 0 0 1 0" />
      <feBlend mode="normal" in2="effect1_innerShadow" result="effect2_innerShadow" />
    </filter>
    <filter id="filter1_f" x="0.724609" y="130.538" width="748.824" height="1147.1" filterUnits="userSpaceOnUse" color-interpolation-filters="sRGB">
      <feFlood flood-opacity="0" result="BackgroundImageFix" />
      <feBlend mode="normal" in="SourceGraphic" in2="BackgroundImageFix" result="shape" />
      <feGaussianBlur stdDeviation="2" result="effect1_foregroundBlur" />
    </filter>
    <filter id="filter2_f" x="241.941" y="0" width="1005.8" height="1162.74" filterUnits="userSpaceOnUse" color-interpolation-filters="sRGB">
      <feFlood flood-opacity="0" result="BackgroundImageFix" />
      <feBlend mode="normal" in="SourceGraphic" in2="BackgroundImageFix" result="shape" />
      <feGaussianBlur stdDeviation="5" result="effect1_foregroundBlur" />
    </filter>
    <filter id="filter3_f" x="482.169" y="719.946" width="273.759" height="146.257" filterUnits="userSpaceOnUse" color-interpolation-filters="sRGB">
      <feFlood flood-opacity="0" result="BackgroundImageFix" />
      <feBlend mode="normal" in="SourceGraphic" in2="BackgroundImageFix" result="shape" />
      <feGaussianBlur stdDeviation="5" result="effect1_foregroundBlur" />
    </filter>
    <filter id="filter4_f" x="54.1855" y="1041.65" width="1114.61" height="640.38" filterUnits="userSpaceOnUse" color-interpolation-filters="sRGB">
      <feFlood flood-opacity="0" result="BackgroundImageFix" />
      <feBlend mode="normal" in="SourceGraphic" in2="BackgroundImageFix" result="shape" />
      <feGaussianBlur stdDeviation="78.5" result="effect1_foregroundBlur" />
    </filter>
    <linearGradient id="paint0_linear" x1="279.954" y1="343.629" x2="744.839" y2="1306" gradientUnits="userSpaceOnUse">
      <stop offset="0.0726388" stop-color="#FDC007" />
      <stop offset="0.352497" stop-color="#FFE051" />
      <stop offset="0.638412" stop-color="#F4D040" />
      <stop offset="0.805669" stop-color="#FEC107" />
      <stop offset="0.955602" stop-color="#D9A812" />
    </linearGradient>
    <linearGradient id="paint1_linear" x1="778.647" y1="-403.813" x2="480.249" y2="1274.35" gradientUnits="userSpaceOnUse">
      <stop stop-color="#FFFAC0" />
      <stop offset="1" stop-color="#FFDD47" />
    </linearGradient>
    <linearGradient id="paint2_linear" x1="625.69" y1="735.819" x2="327.016" y2="269.55" gradientUnits="userSpaceOnUse">
      <stop stop-color="#FCC617" />
      <stop offset="0.517023" stop-color="#FFEBA9" />
      <stop offset="0.694168" stop-color="#FEDD73" />
      <stop offset="0.785854" stop-color="#F4BA0A" />
    </linearGradient>
    <linearGradient id="paint3_linear" x1="352.177" y1="660.207" x2="434.43" y2="246.108" gradientUnits="userSpaceOnUse">
      <stop stop-color="#FDC007" />
      <stop offset="1" stop-color="#FDC007" stop-opacity="0" />
    </linearGradient>
    <linearGradient id="paint4_linear" x1="686.86" y1="714.096" x2="528.027" y2="837.475" gradientUnits="userSpaceOnUse">
      <stop stop-color="#FDC007" />
      <stop offset="1" stop-color="#FDC007" stop-opacity="0" />
    </linearGradient>
  </defs>
</svg>