<svg width="183" height="61" viewBox="0 0 183 61" fill="none" xmlns="http://www.w3.org/2000/svg">
  <path d="M83.5703 14.9239V43H88.624V32.7322C88.624 29.2026 90.3487 27.1972 93.5975 27.1972C96.4853 27.1972 98.0896 28.8416 98.0896 31.6091V43H103.143V31.1278C103.143 25.9538 99.8143 22.7852 95.4024 22.7852C91.7525 22.7852 89.9075 24.4698 89.1053 26.3148H88.624V14.9239H83.5703ZM119.597 23.1061L114.383 37.3848H113.901L108.687 23.1061H103.232L111.495 44.2835L108.687 51.0217H114.142L125.051 23.1061H119.597ZM126.169 51.0217H131.222V40.1924H131.703C132.746 41.877 134.511 43.5615 138.041 43.5615C143.014 43.5615 147.185 39.1496 147.185 33.0531C147.185 26.9565 143.014 22.5446 138.041 22.5446C134.511 22.5446 132.746 24.2292 131.703 25.9137H131.142V23.1061H126.169V51.0217ZM136.677 39.0694C133.548 39.0694 131.222 36.8233 131.222 33.0531C131.222 29.2828 133.548 27.0368 136.677 27.0368C139.725 27.0368 142.132 29.2026 142.132 33.0531C142.132 36.9035 139.725 39.0694 136.677 39.0694ZM148.086 32.8926C148.086 39.0694 152.377 43.5615 158.313 43.5615C163.648 43.5615 165.974 40.7539 167.338 38.6683L163.207 36.2617C162.525 37.6656 161.041 39.2298 158.233 39.2298C155.345 39.2298 153.46 37.1842 153.26 34.5371H167.739V32.5718C167.739 26.5956 163.848 22.5446 158.073 22.5446C152.217 22.5446 148.086 26.8763 148.086 32.8926ZM153.3 31.0075C153.701 28.5609 155.185 26.8763 158.033 26.8763C160.64 26.8763 162.244 28.4807 162.605 31.0075H153.3ZM174.641 23.1061H169.668V43H174.721V31.7696C174.721 28.962 176.566 27.5983 179.133 27.5983H182.101V23.0259H180.176C177.649 23.0259 175.965 23.788 175.203 25.9939H174.641V23.1061Z" fill="#252A36" />
  <rect x="0.324219" width="61" height="61" rx="12" fill="url(#paint0_linear)" />
  <path d="M28.9375 18.5759C29.5409 17.7689 30.8242 18.1957 30.8242 19.2033V33.5842H19.8063C18.9436 33.5842 18.4506 32.5999 18.9672 31.909L28.9375 18.5759Z" fill="white" />
  <path d="M32.711 41.8892C32.1076 42.6962 30.8242 42.2694 30.8242 41.2618V26.881H41.8422C42.7048 26.881 43.1979 27.8652 42.6812 28.5561L32.711 41.8892Z" fill="white" />
  <defs>
    <linearGradient id="paint0_linear" x1="30.8242" y1="0" x2="30.8242" y2="61" gradientUnits="userSpaceOnUse">
      <stop offset="1" stop-color="#FABA00" />
    </linearGradient>
  </defs>
</svg>