<svg width="915" height="1394" viewBox="0 0 915 1394" fill="none" xmlns="http://www.w3.org/2000/svg">
<g filter="url(#filter0_f)">
<rect x="314" y="734" width="354" height="346" rx="40" fill="#FDC007" fill-opacity="0.1"/>
</g>
<rect x="314" y="734" width="354" height="346" rx="40" fill="white" stroke="#FFCC36" stroke-width="3"/>
<g opacity="0.7">
<rect x="314" y="734" width="354" height="346" rx="40" fill="url(#paint0_radial)" fill-opacity="0.17" style="mix-blend-mode:multiply"/>
<rect x="314" y="734" width="354" height="346" rx="40" fill="url(#paint1_linear)" fill-opacity="0.8"/>
</g>
<path d="M527 137V34C527 16.3269 512.673 2 495 2C477.327 2 463 16.3269 463 34C463 51.6731 477.327 66 495 66H649" stroke="#FF6F89" stroke-width="3" stroke-linecap="round" stroke-dasharray="2 8"/>
<path d="M439 733V566.066C439 546.175 431.098 527.098 417.033 513.033L297.866 393.866C286.427 382.427 280 366.911 280 350.733V297.5M280 146V181M280 207V280.5" stroke="#E3A900" stroke-width="3"/>
<path d="M473.5 741V537M385 242V301M473.5 515V492L393.257 412.211C387.972 406.955 385 399.809 385 392.356V353.5" stroke="#FFCC36" stroke-width="3"/>
<path d="M544 540V483.516C544 470.096 549.504 457.264 559.226 448.015L611.952 397.854C627.627 382.941 636.5 362.253 636.5 340.618V224.5" stroke="#E3A900" stroke-width="3"/>
<path d="M527 173L527 405.602C527 411.644 524.721 417.464 520.618 421.899L514.882 428.101C510.779 432.536 508.5 438.356 508.5 444.398L508.5 723" stroke="#FABA00" stroke-width="3"/>
<path d="M473 409L473 309" stroke="#FABA00" stroke-width="3"/>
<path d="M559 324V252" stroke="#FABA00" stroke-width="3"/>
<path d="M544 722L544 567" stroke="#FABA00" stroke-width="3"/>
<circle cx="276" cy="125" r="32" fill="#252A36"/>
<circle cx="381" cy="206" r="32" fill="#FCD76A"/>
<g opacity="0.7">
<path d="M380.5 187C377.958 187 375.561 187.491 373.308 188.473C371.055 189.426 369.091 190.74 367.416 192.416C365.74 194.091 364.426 196.055 363.473 198.308C362.491 200.561 362 202.958 362 205.5C362 208.042 362.491 210.439 363.473 212.692C364.426 214.945 365.74 216.909 367.416 218.584C369.091 220.26 371.055 221.574 373.308 222.527C375.561 223.509 377.958 224 380.5 224C383.042 224 385.439 223.509 387.692 222.527C389.945 221.574 391.909 220.26 393.584 218.584C395.26 216.909 396.574 214.945 397.527 212.692C398.509 210.439 399 208.042 399 205.5C399 202.958 398.509 200.561 397.527 198.308C396.574 196.055 395.26 194.091 393.584 192.416C391.909 190.74 389.945 189.426 387.692 188.473C385.439 187.491 383.042 187 380.5 187ZM380.5 220.274C378.449 220.274 376.529 219.884 374.738 219.104C372.947 218.353 371.38 217.306 370.037 215.963C368.694 214.62 367.647 213.053 366.896 211.262C366.116 209.471 365.726 207.551 365.726 205.5C365.726 203.449 366.116 201.529 366.896 199.738C367.647 197.947 368.694 196.38 370.037 195.037C371.38 193.694 372.947 192.647 374.738 191.896C376.529 191.116 378.449 190.726 380.5 190.726C382.551 190.726 384.471 191.116 386.262 191.896C388.053 192.647 389.62 193.694 390.963 195.037C392.306 196.38 393.353 197.947 394.104 199.738C394.884 201.529 395.274 203.449 395.274 205.5C395.274 207.551 394.884 209.471 394.104 211.262C393.353 213.053 392.306 214.62 390.963 215.963C389.62 217.306 388.053 218.353 386.262 219.104C384.471 219.884 382.551 220.274 380.5 220.274ZM376.817 202.727C376.817 203.507 376.543 204.164 375.994 204.698C375.445 205.233 374.795 205.5 374.044 205.5C373.265 205.5 372.608 205.233 372.073 204.698C371.539 204.164 371.272 203.507 371.272 202.727C371.272 201.947 371.539 201.29 372.073 200.756C372.608 200.222 373.265 199.954 374.044 199.954C374.795 199.954 375.445 200.222 375.994 200.756C376.543 201.29 376.817 201.947 376.817 202.727ZM389.728 202.727C389.728 203.478 389.454 204.121 388.905 204.655C388.356 205.19 387.706 205.457 386.956 205.457C386.205 205.457 385.555 205.19 385.006 204.655C384.457 204.121 384.183 203.478 384.183 202.727C384.183 201.947 384.457 201.29 385.006 200.756C385.555 200.222 386.205 199.954 386.956 199.954C387.706 199.954 388.356 200.222 388.905 200.756C389.454 201.29 389.728 201.947 389.728 202.727ZM373.351 214.728L372.875 211.046L387.649 209.226L388.125 212.865L373.351 214.728Z" fill="black"/>
</g>
<circle cx="473" cy="273" r="32" fill="#FABA00"/>
<path d="M462.48 267.8L458.096 274.936V276.792H463.664V279H465.776V276.792H467.6V274.872H465.776V267.8H462.48ZM463.472 269.624H463.664V274.872H460.304L463.472 269.624ZM468.183 272.088V274.712C468.183 277.656 469.911 279.224 472.471 279.224C475.031 279.224 476.759 277.656 476.759 274.712V272.088C476.759 269.24 475.031 267.576 472.471 267.576C469.911 267.576 468.183 269.24 468.183 272.088ZM470.295 271.992C470.295 270.504 471.095 269.464 472.471 269.464C473.799 269.464 474.647 270.44 474.647 271.992V274.808C474.647 276.328 473.975 277.336 472.471 277.336C471.015 277.336 470.295 276.392 470.295 274.808V271.992ZM481.714 267.8L477.33 274.936V276.792H482.898V279H485.01V276.792H486.834V274.872H485.01V267.8H481.714ZM482.706 269.624H482.898V274.872H479.538L482.706 269.624Z" fill="#8E6B04"/>
<circle cx="527" cy="134" r="32" fill="#F4BFFF"/>
<circle cx="637" cy="189" r="32" fill="#EAEFF5"/>
<path d="M634.863 184.025H638.216V192.767H634.863V184.025ZM634.863 194.532H638.216V198.02H634.863V194.532ZM639.464 173.847C639.178 173.272 638.775 172.821 638.255 172.493C637.735 172.164 637.163 172 636.539 172C635.915 172 635.344 172.164 634.824 172.493C634.304 172.821 633.901 173.272 633.615 173.847L621.371 198.144C621.111 198.691 620.988 199.265 621.001 199.867C621.014 200.469 621.176 201.044 621.488 201.591C621.774 202.111 622.171 202.521 622.678 202.822C623.185 203.123 623.737 203.274 624.335 203.274H648.744C649.342 203.274 649.894 203.123 650.401 202.822C650.908 202.521 651.304 202.111 651.59 201.591C651.902 201.044 652.065 200.469 652.078 199.867C652.091 199.265 651.967 198.691 651.707 198.144L639.464 173.847ZM624.335 199.785L636.539 175.489L648.744 199.785H624.335Z" fill="#51555E"/>
<circle cx="648" cy="66" r="32" fill="#FC536C"/>
<rect x="656.95" y="54.4501" width="3.67696" height="27.5772" transform="rotate(45 656.95 54.4501)" fill="white"/>
<rect x="659.55" y="73.9501" width="3.67696" height="27.5772" transform="rotate(135 659.55 73.9501)" fill="white"/>
<path d="M314 123H357C370.255 123 381 133.745 381 147V169" stroke="#FF6F89" stroke-width="3" stroke-linecap="round" stroke-dasharray="2 8"/>
<path d="M674 188H695C708.255 188 719 198.745 719 212V247" stroke="#EAEFF5" stroke-width="3" stroke-linecap="round"/>
<path d="M444.5 325H368C354.745 325 344 335.745 344 349V384" stroke="#EAEFF5" stroke-width="3" stroke-linecap="round"/>
<path d="M423 205L426 205C439.255 205 450 194.255 450 181L450 146" stroke="#EAEFF5" stroke-width="3" stroke-linecap="round"/>
<path d="M557 394L569 394C582.255 394 593 383.255 593 370L593 335" stroke="#EAEFF5" stroke-width="3" stroke-linecap="round"/>
<circle cx="385.5" cy="302.5" r="4.5" fill="#FFCC36"/>
<circle cx="473.5" cy="515.5" r="4.5" fill="#FFCC36"/>
<circle cx="280.5" cy="183.5" r="4.5" fill="#E3A900"/>
<circle cx="280.5" cy="283.5" r="4.5" fill="#E3A900"/>
<rect x="356.35" y="142.85" width="2.54558" height="19.0919" transform="rotate(45 356.35 142.85)" fill="#FC536C"/>
<rect x="358.15" y="156.35" width="2.54558" height="19.0919" transform="rotate(135 358.15 156.35)" fill="#FC536C"/>
<rect x="608.35" y="223.85" width="2.54558" height="19.0919" transform="rotate(45 608.35 223.85)" fill="#FC536C"/>
<rect x="610.15" y="237.35" width="2.54558" height="19.0919" transform="rotate(135 610.15 237.35)" fill="#FC536C"/>
<g clip-path="url(#clip0)">
<path d="M270.667 120.29H280.333V123.5H270.667V120.29ZM270.667 126.747H280.333V129.957H270.667V126.747ZM285.167 114.513L287.923 111.757L285.658 109.491L283.128 111.983C282.121 111.077 280.963 110.353 279.654 109.812C278.345 109.271 276.96 109 275.5 109C274.04 109 272.655 109.271 271.346 109.812C270.037 110.353 268.879 111.077 267.872 111.983L265.342 109.491L263.077 111.757L265.833 114.513C265.33 115.369 264.933 116.281 264.644 117.251C264.354 118.22 264.21 119.233 264.21 120.29H261V123.5H264.21V126.747H261V129.957H264.21C264.21 131.518 264.512 132.978 265.116 134.337C265.695 135.722 266.494 136.924 267.514 137.943C268.533 138.963 269.735 139.762 271.12 140.341C272.479 140.945 273.939 141.247 275.5 141.247C277.061 141.247 278.521 140.945 279.88 140.341C281.265 139.762 282.467 138.963 283.486 137.943C284.506 136.924 285.305 135.722 285.884 134.337C286.488 132.978 286.79 131.518 286.79 129.957H290V126.747H286.79V123.5H290V120.29H286.79C286.79 119.233 286.646 118.22 286.356 117.251C286.067 116.281 285.67 115.369 285.167 114.513ZM283.543 126.747V129.957C283.543 131.065 283.342 132.109 282.939 133.091C282.511 134.073 281.932 134.929 281.202 135.659C280.472 136.389 279.616 136.968 278.634 137.396C277.652 137.799 276.608 138 275.5 138C274.392 138 273.348 137.799 272.366 137.396C271.384 136.968 270.528 136.389 269.798 135.659C269.068 134.929 268.489 134.073 268.061 133.091C267.658 132.109 267.457 131.065 267.457 129.957V120.29C267.457 119.183 267.658 118.138 268.061 117.156C268.489 116.174 269.068 115.319 269.798 114.589C270.528 113.859 271.384 113.28 272.366 112.852C273.348 112.449 274.392 112.247 275.5 112.247C276.608 112.247 277.652 112.449 278.634 112.852C279.616 113.28 280.472 113.859 281.202 114.589C281.932 115.319 282.511 116.174 282.939 117.156C283.342 118.138 283.543 119.183 283.543 120.29V126.747Z" fill="white"/>
</g>
<path d="M510.784 139L508.256 131.064H510.4L512.24 137.528H512.528L514.368 131.064H516.512L513.984 139H510.784ZM517.438 139V137.656C517.438 136.877 517.566 136.232 517.822 135.72C518.078 135.197 518.446 134.771 518.926 134.44C519.416 134.099 520.014 133.821 520.718 133.608L521.79 133.272C522.184 133.144 522.515 132.989 522.782 132.808C523.048 132.616 523.251 132.387 523.39 132.12C523.539 131.853 523.614 131.549 523.614 131.208V131.144C523.614 130.611 523.432 130.189 523.07 129.88C522.707 129.56 522.211 129.4 521.582 129.4C520.963 129.4 520.462 129.571 520.078 129.912C519.704 130.243 519.518 130.723 519.518 131.352V131.64H517.47V131.384C517.47 130.573 517.651 129.885 518.014 129.32C518.376 128.755 518.867 128.323 519.486 128.024C520.115 127.725 520.814 127.576 521.582 127.576C522.35 127.576 523.043 127.725 523.662 128.024C524.28 128.312 524.766 128.723 525.118 129.256C525.48 129.779 525.662 130.397 525.662 131.112V131.272C525.662 131.987 525.512 132.595 525.214 133.096C524.926 133.587 524.531 133.992 524.03 134.312C523.528 134.621 522.958 134.877 522.318 135.08L521.294 135.4C520.835 135.539 520.478 135.693 520.222 135.864C519.966 136.024 519.784 136.205 519.678 136.408C519.582 136.6 519.534 136.835 519.534 137.112V137.176H525.566V139H517.438ZM528.666 139.224C528.228 139.224 527.86 139.085 527.562 138.808C527.274 138.52 527.13 138.152 527.13 137.704C527.13 137.256 527.274 136.893 527.562 136.616C527.86 136.328 528.228 136.184 528.666 136.184C529.092 136.184 529.45 136.328 529.738 136.616C530.026 136.893 530.17 137.256 530.17 137.704C530.17 138.152 530.026 138.52 529.738 138.808C529.45 139.085 529.092 139.224 528.666 139.224ZM534.331 139V129.304H534.043L532.539 132.856H530.395L532.683 127.8H536.379V139H534.331ZM541.566 139V129.304H541.278L539.774 132.856H537.63L539.918 127.8H543.614V139H541.566Z" fill="#BA46DF"/>
<circle cx="719" cy="256" r="7.5" stroke="#EAEFF5" stroke-width="3"/>
<circle r="7.5" transform="matrix(-1 0 0 1 344 393)" stroke="#EAEFF5" stroke-width="3"/>
<circle r="7.5" transform="matrix(1 8.74228e-08 8.74228e-08 -1 450 137)" stroke="#EAEFF5" stroke-width="3"/>
<circle r="7.5" transform="matrix(1 8.74228e-08 8.74228e-08 -1 326 79)" stroke="#EAEFF5" stroke-width="3"/>
<circle r="7.5" transform="matrix(1 8.74228e-08 8.74228e-08 -1 685 143)" stroke="#EAEFF5" stroke-width="3"/>
<circle r="7.5" transform="matrix(1 8.74228e-08 8.74228e-08 -1 253 406)" stroke="#EAEFF5" stroke-width="3"/>
<circle r="7.5" transform="matrix(1 8.74228e-08 8.74228e-08 -1 610 508)" stroke="#EAEFF5" stroke-width="3"/>
<circle r="7.5" transform="matrix(1 8.74228e-08 8.74228e-08 -1 593 326)" stroke="#EAEFF5" stroke-width="3"/>
<path d="M404 631L404 723" stroke="#FFCC36" stroke-width="3"/>
<path d="M404 593V563.939C404 554.712 400.25 545.881 393.61 539.473L289.5 439" stroke="#EAEFF5" stroke-width="3" stroke-linecap="round"/>
<path d="M579 722V494.939C579 485.712 582.75 476.881 589.39 470.473L636.25 425.25" stroke="#E3A900" stroke-width="3" stroke-linecap="round"/>
<circle cx="579" cy="733" r="9.5" fill="white" stroke="#FFCC36" stroke-width="3"/>
<defs>
<filter id="filter0_f" x="0" y="420" width="982" height="974" filterUnits="userSpaceOnUse" color-interpolation-filters="sRGB">
<feFlood flood-opacity="0" result="BackgroundImageFix"/>
<feBlend mode="normal" in="SourceGraphic" in2="BackgroundImageFix" result="shape"/>
<feGaussianBlur stdDeviation="157" result="effect1_foregroundBlur"/>
</filter>
<radialGradient id="paint0_radial" cx="0" cy="0" r="1" gradientUnits="userSpaceOnUse" gradientTransform="translate(490.676 862) rotate(89.9148) scale(218 223.041)">
<stop offset="0.296773" stop-color="#FEF0C8"/>
<stop offset="1" stop-color="#FBCB42"/>
</radialGradient>
<linearGradient id="paint1_linear" x1="413.176" y1="846" x2="612.676" y2="1025.5" gradientUnits="userSpaceOnUse">
<stop offset="0.00850721" stop-color="white" stop-opacity="0.15"/>
<stop offset="0.24478" stop-color="white" stop-opacity="0.784234"/>
<stop offset="0.249777" stop-color="white" stop-opacity="0"/>
<stop offset="0.468611" stop-color="white" stop-opacity="0.5"/>
<stop offset="0.755797" stop-color="white" stop-opacity="0"/>
<stop offset="0.756003" stop-color="white" stop-opacity="0.84"/>
<stop offset="1" stop-color="white" stop-opacity="0"/>
</linearGradient>
<clipPath id="clip0">
<rect width="29" height="32.2474" fill="white" transform="translate(261 109)"/>
</clipPath>
</defs>
</svg>
