<svg width="3590" height="2471" viewBox="0 0 3590 2471" fill="none" xmlns="http://www.w3.org/2000/svg">
<path opacity="0.3" d="M3438.54 1677.23C3438.54 1766.15 3394.39 1852.04 3312.04 1931.41C3229.66 2010.81 3109.79 2082.89 2960.67 2143.69C2662.47 2265.25 2249.67 2340.72 1793.07 2340.72C1336.47 2340.72 923.667 2265.25 625.474 2143.69C476.346 2082.89 356.483 2010.81 274.097 1931.41C191.746 1852.04 147.597 1766.15 147.597 1677.23C147.597 1588.32 191.746 1502.43 274.097 1423.06C356.483 1343.65 476.346 1271.58 625.474 1210.78C923.667 1089.22 1336.47 1013.75 1793.07 1013.75C2249.67 1013.75 2662.47 1089.22 2960.67 1210.78C3109.79 1271.58 3229.66 1343.65 3312.04 1423.06C3394.39 1502.43 3438.54 1588.32 3438.54 1677.23Z" stroke="#DBE3EC" stroke-width="24.7012"/>
<path opacity="0.2" d="M3055.25 1677.23C3055.25 1808.29 2935.07 1927.9 2737.17 2018.75M1793.07 1162.69C1583.53 1162.69 1385.91 1183.5 1211.99 1220.34M896.875 2039.56C670.637 1946.57 530.885 1818.56 530.885 1677.23C530.885 1584.58 590.953 1497.65 696.079 1422.56M1292.98 2149.81C1446.32 2176.82 1615.41 2191.78 1793.07 2191.78C1979.98 2191.78 2157.39 2175.22 2316.97 2145.5M2167.75 1185.74C2417.74 1217.37 2634.45 1279.83 2791.14 1362.22" stroke="#B3BCC6" stroke-width="24.7012"/>
<ellipse cx="1793.07" cy="1621.84" rx="457.353" ry="158.06" fill="url(#paint0_linear)"/>
<path opacity="0.1" d="M1751.34 905.279L1331.62 1113.35L1088.5 980.703L1507.53 772.63L1751.34 905.279Z" fill="url(#paint1_linear)"/>
<path fill-rule="evenodd" clip-rule="evenodd" d="M1270.8 1022.96L1137.91 1077.59V912.751L1270.79 849.426V849.425L1270.8 849.426L1270.8 849.425V849.426L1403.68 912.751V1077.59L1270.8 1022.96Z" fill="url(#paint2_linear)"/>
<path d="M1137.91 912.747L1270.8 976.073V1140.91L1137.91 1077.58V912.747Z" fill="url(#paint3_linear)"/>
<path d="M1403.69 912.747L1270.8 976.073V1140.91L1403.69 1077.58V912.747Z" fill="url(#paint4_linear)"/>
<path d="M601.935 1021.18L645.18 1041.39L646.59 998.773L601.935 1021.18Z" fill="#F4F6F9"/>
<path d="M1225.39 1117.62L1149.28 1153.31L1137.26 1115.44V912.234L1271.28 849.597L1336.79 880.14L1202.81 943.552V978.43L1228.16 990.193L1225.39 1117.62Z" fill="url(#paint5_linear)"/>
<path d="M597.225 1027.81L583.09 1021.34L725.803 953.225L740.733 959.072L597.225 1027.81Z" fill="#FDFDFE"/>
<path d="M1166.58 992.124L1123.34 1012.34L1121.93 969.718L1166.58 992.124Z" fill="#DBE2EB"/>
<path d="M1171.61 999.659L1185.74 993.193L1043.85 924.842L1028.92 930.69L1171.61 999.659Z" fill="#E5EBF1"/>
<path fill-rule="evenodd" clip-rule="evenodd" d="M867.482 1051.15L1125.66 1157.28V791.493C1125.66 784.994 1121.92 779.074 1116.05 776.278L879.534 663.571C876.869 662.301 874.006 662.562 871.74 663.854L856.797 670.782L867.482 677.774V1051.15Z" fill="url(#paint6_linear)"/>
<path d="M1110.15 1164.54L987.494 1185.47L851.973 1058.41V678.438C851.973 672.243 858.433 668.166 864.025 670.831L1100.54 783.538C1106.41 786.334 1110.15 792.254 1110.15 798.753V1164.54Z" fill="url(#paint7_linear)"/>
<mask id="mask0" style="mask-type:alpha" maskUnits="userSpaceOnUse" x="851" y="670" width="260" height="516">
<path d="M1110.15 1164.54L987.494 1185.47L851.973 1058.42V678.442C851.973 672.247 858.433 668.169 864.025 670.834L1100.54 783.542C1106.41 786.338 1110.15 792.258 1110.15 798.757V1164.54Z" fill="url(#paint8_linear)"/>
</mask>
<g mask="url(#mask0)">
<g opacity="0.3" filter="url(#filter0_f)">
<path d="M1071.89 1180.85L944.291 1208.01L788.593 1067.17V673.839L1062.09 799.911C1068.06 802.665 1071.89 808.641 1071.89 815.218V1180.85Z" fill="#FB4059"/>
</g>
</g>
<path d="M776.584 1093.64L1034.76 1199.76V833.98C1034.76 827.481 1031.02 821.561 1025.16 818.765L791.402 707.345C788.517 705.97 785.401 706.39 783.061 707.969L757.562 720.234L776.584 733.501V1093.64Z" fill="url(#paint9_linear)" stroke="url(#paint10_linear)" stroke-width="4.58554"/>
<g filter="url(#filter1_i)">
<path d="M1006.93 1213.34L879.332 1240.5L748.754 1107.21V727.238C748.754 721.043 755.214 716.966 760.807 719.631L997.326 832.338C1003.19 835.134 1006.93 841.054 1006.93 847.553V1213.34Z" fill="url(#paint11_linear)"/>
</g>
<path d="M751.047 1106.28V727.238C751.047 722.729 755.749 719.76 759.82 721.7L996.34 834.408C1001.41 836.824 1004.64 841.938 1004.64 847.553V1211.48L880.088 1238L751.047 1106.28Z" stroke="url(#paint12_linear)" stroke-width="4.58554"/>
<g opacity="0.78" filter="url(#filter2_f)">
<path d="M788.518 823.516L787.79 717.744C787.753 712.374 793.308 708.785 798.188 711.026L812.37 717.536" stroke="url(#paint13_linear)" stroke-width="4.58554"/>
</g>
<g filter="url(#filter3_i)">
<path fill-rule="evenodd" clip-rule="evenodd" d="M658.425 1151.93L916.6 1258.05V892.266C916.6 885.767 912.864 879.847 906.997 877.051L670.477 764.343C667.823 763.078 664.973 763.332 662.712 764.611L647.742 771.551L658.425 778.541V1151.93Z" fill="url(#paint14_linear)"/>
</g>
<path d="M901.094 1265.3L642.918 1159.18V779.205C642.918 773.01 649.378 768.933 654.971 771.598L891.49 884.305C897.357 887.101 901.094 893.021 901.094 899.521V1265.3Z" fill="url(#paint15_linear)"/>
<path d="M865.973 1146.21L866.197 1146.31L856.131 1152.01L583.09 1021.21L596.578 1014.97L849.339 1133.49C852.92 1135.17 857.063 1135.16 860.639 1133.47L1172.3 986.197L1185.65 993.115L865.973 1146.21Z" fill="url(#paint16_linear)"/>
<path d="M845.536 1146.38C851.786 1149.36 859.05 1149.36 865.299 1146.37L1185.61 993.142V1128.78C1185.61 1132.96 1183.21 1136.77 1179.44 1138.57L865.299 1288.85C859.05 1291.84 851.786 1291.84 845.536 1288.86L589.138 1166.42C585.364 1164.61 582.961 1160.8 582.961 1156.62V1020.99L845.536 1146.38Z" fill="url(#paint17_linear)"/>
<path d="M845.536 1146.38C851.786 1149.36 859.05 1149.36 865.299 1146.37L1185.61 993.142V1128.78C1185.61 1132.96 1183.21 1136.77 1179.44 1138.57L865.299 1288.85C859.05 1291.84 851.786 1291.84 845.536 1288.86L589.138 1166.42C585.364 1164.61 582.961 1160.8 582.961 1156.62V1020.99L845.536 1146.38Z" fill="url(#paint18_linear)"/>
<path d="M675.678 817.775L854.954 903.382V917.09L675.678 831.483V817.775Z" fill="#F1F4F8"/>
<path opacity="0.3" d="M675.678 860.355L817.044 927.859V941.567L675.678 874.063V860.355Z" fill="#F1F4F8"/>
<path opacity="0.4" d="M675.678 902.931L765.316 945.734V959.442L675.678 916.638V902.931Z" fill="#F1F4F8"/>
<path opacity="0.4" d="M675.678 945.51L854.954 1031.12V1044.82L675.678 959.218V945.51Z" fill="#F1F4F8"/>
<path opacity="0.6" d="M675.678 988.09L854.954 1073.7V1087.4L675.678 1001.8V988.09Z" fill="#F1F4F8"/>
<ellipse cx="924.17" cy="2049.74" rx="64.752" ry="26.3971" fill="#F0F2F4"/>
<ellipse cx="699.07" cy="1416.52" rx="64.752" ry="26.3971" fill="#F0F2F4"/>
<ellipse cx="1816.1" cy="1161.16" rx="64.752" ry="26.3971" fill="#F8F9FB"/>
<ellipse cx="2179.33" cy="1190.69" rx="64.752" ry="26.3971" fill="#F0F2F4"/>
<ellipse cx="2797.26" cy="1369.04" rx="64.752" ry="26.3971" fill="#F0F2F4"/>
<ellipse cx="2732.51" cy="2029.14" rx="64.752" ry="26.3971" fill="#F0F2F4"/>
<ellipse cx="2346.15" cy="2139.49" rx="64.752" ry="26.3971" fill="#F0F2F4"/>
<ellipse cx="1247.32" cy="2143.24" rx="64.752" ry="26.3971" fill="#F0F2F4"/>
<ellipse cx="1207.4" cy="1226.74" rx="64.752" ry="26.3971" fill="#F0F2F4"/>
<path opacity="0.1" d="M2280.23 2265.84L1954.56 2438.34L1732.5 2329.02L2057.32 2156.53L2280.23 2265.84Z" fill="black"/>
<path opacity="0.1" d="M2732.51 2130.71L2209 2390.24L1905.75 2224.79L2428.41 1965.26L2732.51 2130.71Z" fill="url(#paint19_linear)"/>
<circle cx="2130.48" cy="2249.22" r="162.163" fill="url(#paint20_radial)"/>
<circle cx="2130.48" cy="2249.22" r="162.163" fill="url(#paint21_linear)"/>
<path opacity="0.1" fill-rule="evenodd" clip-rule="evenodd" d="M2108.43 2088.55C2052.21 2180.82 2041.55 2253.69 2049.9 2389.98C2001.15 2362.02 1968.31 2309.46 1968.31 2249.22C1968.31 2167.14 2029.3 2099.31 2108.43 2088.55Z" fill="url(#paint22_linear)"/>
<path fill-rule="evenodd" clip-rule="evenodd" d="M2026.26 1946.51H1504.87V2365.7C1504.87 2365.93 1504.87 2366.16 1504.87 2366.39C1504.87 2366.62 1504.87 2366.85 1504.87 2367.07V2369.47H1504.98C1509.07 2425.43 1624.17 2470.29 1765.56 2470.29C1906.95 2470.29 2022.04 2425.43 2026.14 2369.47H2026.26V1946.51Z" fill="url(#paint23_linear)"/>
<path fill-rule="evenodd" clip-rule="evenodd" d="M2026.26 1946.51H1504.87V2365.7C1504.87 2365.93 1504.87 2366.16 1504.87 2366.39C1504.87 2366.62 1504.87 2366.85 1504.87 2367.07V2369.47H1504.98C1509.07 2425.43 1624.17 2470.29 1765.56 2470.29C1906.95 2470.29 2022.04 2425.43 2026.14 2369.47H2026.26V1946.51Z" fill="url(#paint24_radial)"/>
<ellipse cx="1765.56" cy="1946.51" rx="260.692" ry="103.906" fill="url(#paint25_linear)"/>
<mask id="mask1" style="mask-type:alpha" maskUnits="userSpaceOnUse" x="1504" y="1946" width="523" height="525">
<path fill-rule="evenodd" clip-rule="evenodd" d="M2026.26 1946.51H1504.87V2365.7C1504.87 2365.93 1504.87 2366.16 1504.87 2366.39C1504.87 2366.62 1504.87 2366.85 1504.87 2367.07V2369.47H1504.98C1509.07 2425.43 1624.17 2470.29 1765.56 2470.29C1906.95 2470.29 2022.04 2425.43 2026.14 2369.47H2026.26V1946.51Z" fill="url(#paint26_linear)"/>
</mask>
<g mask="url(#mask1)">
<path d="M1516.17 2113.08L1504.15 2094.19L1496.08 2236.9L1505.18 2246.87L1530.94 2275.03L1565.97 2296.15L1615.26 2313.84L1663.01 2324.66L1727.41 2330.33H1803.66L1888.33 2318.65L1932.98 2308.86L1978.32 2287.05L2001.33 2272.45L2018.5 2257.86L2028.98 2244.8L2031.04 2092.13L2019.19 2106.9L1989.48 2134.38L1935.04 2158.25C1915.35 2163.06 1875.79 2172.74 1875.1 2173.02C1874.42 2173.29 1832.45 2178.28 1811.56 2180.75L1752.14 2183.49L1696.15 2178.69L1628.31 2166.84L1573.01 2150.86L1516.17 2113.08Z" fill="url(#paint27_linear)"/>
<path d="M1516.17 2113.08L1504.15 2094.19L1496.08 2236.9L1505.18 2246.87L1530.94 2275.03L1565.97 2296.15L1615.26 2313.84L1663.01 2324.66L1727.41 2330.33H1803.66L1888.33 2318.65L1932.98 2308.86L1978.32 2287.05L2001.33 2272.45L2018.5 2257.86L2028.98 2244.8L2031.04 2092.13L2019.19 2106.9L1989.48 2134.38L1935.04 2158.25C1915.35 2163.06 1875.79 2172.74 1875.1 2173.02C1874.42 2173.29 1832.45 2178.28 1811.56 2180.75L1752.14 2183.49L1696.15 2178.69L1628.31 2166.84L1573.01 2150.86L1516.17 2113.08Z" fill="url(#paint28_linear)"/>
<g filter="url(#filter4_f)">
<path d="M2029.68 2224.96C2029.68 2196.44 2000.02 2170.61 1952.5 2151.83M1501.44 2224.96C1501.44 2196.56 1530.84 2170.83 1578 2152.08" stroke="url(#paint29_linear)" stroke-width="6.40559"/>
</g>
<path d="M2029.68 2078.66C2029.68 2136.05 1909.54 2182.57 1765.56 2182.57C1621.58 2182.57 1501.44 2136.05 1501.44 2078.66" stroke="#3AC43F" stroke-width="6.40559"/>
<path d="M2029.68 2227.37C2029.68 2284.76 1909.54 2331.28 1765.56 2331.28C1621.58 2331.28 1501.44 2284.76 1501.44 2227.37" stroke="#3AC43F" stroke-width="6.40559"/>
</g>
<g opacity="0.6" filter="url(#filter5_f)">
<path d="M1518.46 2110.8L1506.43 2091.9L1498.36 2234.62L1507.47 2244.58L1533.23 2272.74L1568.26 2293.87L1617.55 2311.56L1665.29 2322.38L1729.69 2328.04H1805.95L1890.61 2316.37L1935.27 2306.58L1980.6 2284.77L2003.62 2270.17L2020.79 2255.57L2031.27 2242.52L2033.33 2089.84L2021.48 2104.61L1991.77 2132.09L1937.33 2155.96C1917.63 2160.77 1878.08 2170.46 1877.39 2170.73C1876.7 2171.01 1834.74 2176 1813.85 2178.46L1754.42 2181.21L1698.44 2176.4L1630.6 2164.55L1575.3 2148.58L1518.46 2110.8Z" fill="url(#paint30_linear)"/>
</g>
<path opacity="0.3" d="M2023.03 2101.67L2023.34 2249.22" stroke="#3BC740" stroke-width="6.40559"/>
<g filter="url(#filter6_i)">
<path d="M1757.06 1872.69C1760.25 1869.61 1765.56 1871.87 1765.56 1876.3V1965.9H1672.85C1668.34 1965.9 1666.12 1960.41 1669.37 1957.27L1757.06 1872.69Z" fill="url(#paint31_linear)"/>
<path d="M1774.06 2020.34C1770.87 2023.41 1765.56 2021.16 1765.56 2016.73V1927.12H1858.26C1862.78 1927.12 1865 1932.62 1861.75 1935.75L1774.06 2020.34Z" fill="url(#paint32_linear)"/>
</g>
<path opacity="0.1" d="M1061.77 1632.07L644.938 1838.71L403.486 1706.97L819.64 1500.33L1061.77 1632.07Z" fill="url(#paint33_linear)"/>
<path fill-rule="evenodd" clip-rule="evenodd" d="M539.282 1750.55L381.523 1815.4V1619.71L539.282 1544.54V1544.54H539.283L697.041 1619.71V1815.4L539.283 1750.55H539.282Z" fill="url(#paint34_linear)"/>
<path d="M381.523 1619.71L539.283 1694.89V1890.57L381.523 1815.39V1619.71Z" fill="url(#paint35_linear)"/>
<path d="M697.041 1619.71L539.282 1694.89V1890.57L697.041 1815.39V1619.71Z" fill="url(#paint36_linear)"/>
<path opacity="0.1" d="M479.55 1875.41L315.311 1957.92L322.92 1940.58L318.339 1899.85L437.914 1858.14L442.987 1590.11L539.218 1544.54L649.3 1596.87L493.72 1674.66V1852.43C493.72 1862.15 488.237 1871.05 479.55 1875.41Z" fill="url(#paint37_linear)"/>
<path d="M539.284 1544.54L381.529 1619.71L381.525 1619.71V1815.4L381.53 1815.39L539.284 1890.57L539.285 1890.57L697.038 1815.39L697.043 1815.4V1619.71L697.039 1619.71L539.285 1544.54H539.284Z" fill="url(#paint38_radial)" fill-opacity="0.6" style="mix-blend-mode:multiply"/>
<path fill-rule="evenodd" clip-rule="evenodd" d="M141.447 1312.51C136.873 1317.65 134.007 1324.44 134.007 1332.19V1740C134.007 1751.29 140.418 1761.61 150.544 1766.61L409.919 1894.63C413.337 1896.32 416.857 1897.28 420.34 1897.61L416.32 1906.27L436.375 1896.81L429.024 1897.11C442.051 1894.39 452.719 1882.98 452.719 1868.03V1460.22C452.719 1448.92 446.308 1438.61 436.182 1433.61L176.807 1305.59C167.24 1300.87 156.881 1301.81 148.751 1306.55L150.155 1303.52L130.1 1312.99L141.447 1312.51Z" fill="url(#paint39_linear)"/>
<path d="M114.742 1341.31C114.742 1319.32 137.825 1304.97 157.542 1314.7L416.917 1442.73C427.043 1447.73 433.454 1458.04 433.454 1469.33V1877.14C433.454 1899.13 410.371 1913.48 390.654 1903.75L131.279 1775.72C121.153 1770.72 114.742 1760.41 114.742 1749.12V1341.31Z" fill="url(#paint40_linear)"/>
<g opacity="0.6" filter="url(#filter7_f)">
<path d="M135.22 1334.84L74.8086 1364.45L336.948 1916.85L401.622 1887.73C407.653 1885.01 411.531 1879.01 411.531 1872.4V1478.04C411.531 1470.55 407.304 1463.71 400.61 1460.36L150.15 1334.9C145.456 1332.55 139.933 1332.53 135.22 1334.84Z" fill="url(#paint41_linear)"/>
</g>
<path d="M135.22 1334.84L74.8086 1364.45L336.948 1916.85L401.622 1887.73C407.653 1885.01 411.531 1879.01 411.531 1872.4V1478.04C411.531 1470.55 407.304 1463.71 400.61 1460.36L150.15 1334.9C145.456 1332.55 139.933 1332.53 135.22 1334.84Z" fill="url(#paint42_linear)"/>
<mask id="mask2" style="mask-type:alpha" maskUnits="userSpaceOnUse" x="74" y="1333" width="338" height="584">
<path d="M135.22 1334.84L74.8086 1364.45L336.948 1916.85L401.622 1887.73C407.653 1885.01 411.531 1879.01 411.531 1872.4V1478.04C411.531 1470.55 407.304 1463.71 400.61 1460.36L150.15 1334.9C145.456 1332.55 139.933 1332.53 135.22 1334.84Z" fill="url(#paint43_linear)"/>
</mask>
<g mask="url(#mask2)">
<path d="M142.655 1345.42V1399.3L77.8652 1364.62L138.947 1335.17L149.418 1338.66C145.683 1338.66 142.655 1341.68 142.655 1345.42Z" fill="url(#paint44_linear)"/>
<g filter="url(#filter8_f)">
<path d="M143.211 1402.06V1347.77C143.211 1341.97 149.242 1338.14 154.489 1340.61L173.482 1349.54" stroke="#11BBFA" stroke-width="4.94473"/>
</g>
<g opacity="0.34" filter="url(#filter9_f)">
<path d="M409.804 1860.4V1865.94C409.804 1874.19 400.972 1879.44 393.723 1875.49L332.871 1842.36" stroke="#1289F6" stroke-width="4.94473"/>
</g>
<path d="M338.143 1913.6L78.0887 1365.6L136.308 1337.06C140.328 1335.08 145.039 1335.11 149.043 1337.11L399.503 1462.57C405.36 1465.5 409.058 1471.49 409.058 1478.04V1872.4C409.058 1878.04 405.751 1883.16 400.607 1885.47L338.143 1913.6Z" stroke="url(#paint45_linear)" stroke-width="4.94473"/>
</g>
<g opacity="0.2">
<mask id="mask3" style="mask-type:alpha" maskUnits="userSpaceOnUse" x="74" y="1333" width="338" height="584">
<path d="M135.22 1334.84L74.8086 1364.45L336.948 1916.85L401.622 1887.73C407.653 1885.01 411.531 1879.01 411.531 1872.4V1478.04C411.531 1470.55 407.304 1463.71 400.61 1460.36L150.15 1334.9C145.456 1332.55 139.933 1332.53 135.22 1334.84Z" fill="url(#paint46_linear)"/>
</mask>
<g mask="url(#mask3)">
<g style="mix-blend-mode:overlay" filter="url(#filter10_f)">
<path d="M358.801 1466.75L106.362 1339.48L51.1602 1357.62L63.2592 1382.58L208.447 1737.99L316.581 1924.76L377.832 1908.88V1497.66C377.832 1484.59 370.471 1472.63 358.801 1466.75Z" fill="black"/>
</g>
</g>
</g>
<path fill-rule="evenodd" clip-rule="evenodd" d="M36.4469 1364.43C31.8728 1369.56 29.0073 1376.36 29.0073 1384.11V1791.92C29.0073 1803.21 35.418 1813.52 45.5442 1818.52L304.919 1946.55C308.337 1948.23 311.857 1949.2 315.34 1949.52L311.32 1958.18L331.375 1948.72L324.024 1949.03C337.051 1946.31 347.719 1934.89 347.719 1919.94V1512.13C347.719 1500.84 341.308 1490.53 331.182 1485.53L71.8072 1357.5C62.2403 1352.78 51.8813 1353.73 43.751 1358.47L45.155 1355.44L25.0996 1364.9L36.4469 1364.43Z" fill="url(#paint47_linear)"/>
<path d="M9.74414 1393.22C9.74414 1371.23 32.8267 1356.89 52.544 1366.62L311.919 1494.64C322.045 1499.64 328.456 1509.95 328.456 1521.25V1929.06C328.456 1951.04 305.373 1965.39 285.656 1955.66L26.281 1827.64C16.1548 1822.64 9.74414 1812.32 9.74414 1801.03V1393.22Z" fill="url(#paint48_linear)"/>
<g filter="url(#filter11_i)">
<path d="M358.047 1571.84C358.047 1569.25 359.522 1566.88 361.851 1565.74L395.207 1549.35C399.728 1547.13 405.011 1550.42 405.011 1555.46V1555.46C405.011 1558.05 403.535 1560.42 401.207 1561.57L367.85 1577.95C363.329 1580.17 358.047 1576.88 358.047 1571.84V1571.84Z" fill="url(#paint49_linear)"/>
</g>
<g filter="url(#filter12_i)">
<path d="M358.047 1598.3C358.047 1595.71 359.522 1593.34 361.851 1592.19L395.207 1575.81C399.728 1573.59 405.011 1576.88 405.011 1581.91V1581.91C405.011 1584.51 403.535 1586.88 401.207 1588.02L367.85 1604.41C363.329 1606.63 358.047 1603.34 358.047 1598.3V1598.3Z" fill="url(#paint50_linear)"/>
</g>
<g filter="url(#filter13_i)">
<path d="M358.047 1624.76C358.047 1622.17 359.522 1619.8 361.851 1618.65L395.207 1602.27C399.728 1600.05 405.011 1603.34 405.011 1608.37V1608.37C405.011 1610.97 403.535 1613.34 401.207 1614.48L367.85 1630.87C363.329 1633.09 358.047 1629.8 358.047 1624.76V1624.76Z" fill="url(#paint51_linear)"/>
</g>
<g filter="url(#filter14_i)">
<path d="M358.047 1651.22C358.047 1648.62 359.522 1646.25 361.851 1645.11L395.207 1628.72C399.728 1626.5 405.011 1629.79 405.011 1634.83V1634.83C405.011 1637.42 403.535 1639.79 401.207 1640.94L367.85 1657.32C363.329 1659.54 358.047 1656.25 358.047 1651.22V1651.22Z" fill="url(#paint52_linear)"/>
</g>
<g filter="url(#filter15_i)">
<path d="M358.047 1677.67C358.047 1675.08 359.522 1672.71 361.851 1671.57L395.207 1655.18C399.728 1652.96 405.011 1656.25 405.011 1661.29V1661.29C405.011 1663.88 403.535 1666.25 401.207 1667.39L367.85 1683.78C363.329 1686 358.047 1682.71 358.047 1677.67V1677.67Z" fill="url(#paint53_linear)"/>
</g>
<g filter="url(#filter16_i)">
<path d="M358.047 1704.13C358.047 1701.53 359.522 1699.17 361.851 1698.02L395.207 1681.64C399.728 1679.41 405.011 1682.71 405.011 1687.74V1687.74C405.011 1690.34 403.535 1692.7 401.207 1693.85L367.85 1710.23C363.329 1712.46 358.047 1709.16 358.047 1704.13V1704.13Z" fill="url(#paint54_linear)"/>
</g>
<ellipse cx="168.805" cy="1599.17" rx="167.384" ry="91.0745" transform="rotate(61.6417 168.805 1599.17)" fill="url(#paint55_linear)"/>
<ellipse cx="159.651" cy="1608.22" rx="167.384" ry="91.0745" transform="rotate(61.6417 159.651 1608.22)" fill="url(#paint56_linear)"/>
<ellipse cx="159.649" cy="1608.22" rx="42.6819" ry="23.2235" transform="rotate(61.6417 159.649 1608.22)" fill="#EBEFF4"/>
<ellipse opacity="0.4" cx="300.07" cy="1519.32" rx="12.9502" ry="7.04628" transform="rotate(61.6417 300.07 1519.32)" fill="#CAD4DF"/>
<ellipse opacity="0.4" cx="33.4309" cy="1405.45" rx="12.9502" ry="7.04628" transform="rotate(61.6417 33.4309 1405.45)" fill="#CAD4DF"/>
<ellipse opacity="0.4" cx="300.021" cy="1618.43" rx="12.9502" ry="7.04628" transform="rotate(61.6417 300.021 1618.43)" fill="#CAD4DF"/>
<ellipse opacity="0.4" cx="33.384" cy="1504.57" rx="12.9502" ry="7.04628" transform="rotate(61.6417 33.384 1504.57)" fill="#CAD4DF"/>
<ellipse opacity="0.4" cx="299.974" cy="1717.55" rx="12.9502" ry="7.04628" transform="rotate(61.6417 299.974 1717.55)" fill="#CAD4DF"/>
<ellipse opacity="0.4" cx="33.3352" cy="1603.69" rx="12.9502" ry="7.04628" transform="rotate(61.6417 33.3352 1603.69)" fill="#CAD4DF"/>
<ellipse opacity="0.4" cx="299.923" cy="1816.67" rx="12.9502" ry="7.04628" transform="rotate(61.6417 299.923 1816.67)" fill="#CAD4DF"/>
<ellipse opacity="0.4" cx="33.2864" cy="1702.81" rx="12.9502" ry="7.04628" transform="rotate(61.6417 33.2864 1702.81)" fill="#CAD4DF"/>
<ellipse opacity="0.4" cx="299.874" cy="1915.79" rx="12.9502" ry="7.04628" transform="rotate(61.6417 299.874 1915.79)" fill="#CAD4DF"/>
<ellipse opacity="0.4" cx="33.2356" cy="1801.93" rx="12.9502" ry="7.04628" transform="rotate(61.6417 33.2356 1801.93)" fill="#CAD4DF"/>
<path d="M254.096 1842.38C261.966 1858.15 260.962 1874.63 251.853 1879.17C242.744 1883.72 228.979 1874.61 221.108 1858.83C214.864 1846.31 176.58 1743.57 161.02 1701.63C159.64 1697.91 162.524 1696.48 164.666 1699.82C188.807 1737.47 247.852 1829.86 254.096 1842.38Z" fill="url(#paint57_linear)"/>
<path d="M155.504 1700.42L161.115 1696.93L170.381 1715.89L168.851 1723.03L155.504 1700.42Z" fill="#E0E7EF"/>
<path d="M248.508 1845.73C256.378 1861.51 255.374 1877.98 246.265 1882.53C237.156 1887.07 223.391 1877.96 215.52 1862.18C209.276 1849.67 170.992 1746.93 155.432 1704.99C154.052 1701.27 156.936 1699.83 159.078 1703.17C183.219 1740.83 242.264 1833.21 248.508 1845.73Z" fill="url(#paint58_linear)"/>
<path opacity="0.1" d="M3330.63 1007.63L2920.67 1210.87L2683.2 1081.3L3092.49 878.069L3330.63 1007.63Z" fill="url(#paint59_linear)"/>
<circle cx="3124.29" cy="1054.41" r="126.99" fill="url(#paint60_radial)"/>
<circle cx="3124.29" cy="1054.41" r="126.99" fill="url(#paint61_linear)"/>
<path opacity="0.1" fill-rule="evenodd" clip-rule="evenodd" d="M3107.03 928.579C3063 1000.84 3054.65 1057.9 3061.19 1164.63C3023.01 1142.73 2997.3 1101.57 2997.3 1054.41C2997.3 990.126 3045.06 937.001 3107.03 928.579Z" fill="url(#paint62_linear)"/>
<path d="M2774.39 981.334L3023.81 866.494V1150.91C3023.81 1157.11 3020.25 1162.77 3014.65 1165.44L2783.99 1275.59C2780.25 1277.07 2778.14 1277.35 2774.39 1277.3V981.334Z" fill="url(#paint63_linear)"/>
<path d="M2774.36 982.511L2531.87 867.208V1150.25C2531.87 1156.38 2535.35 1161.98 2540.85 1164.69L2763.05 1274.36C2767.21 1276.47 2769.67 1277.2 2774.36 1277.31V982.511Z" fill="url(#paint64_linear)"/>
<path opacity="0.32" d="M2849.17 1010.83C2849.17 1009.61 2849.86 1008.49 2850.96 1007.95L2973.93 946.824C2976.08 945.759 2978.59 947.317 2978.59 949.709V956.78C2978.59 958.003 2977.9 959.121 2976.8 959.665L2853.83 1020.79C2851.69 1021.85 2849.17 1020.3 2849.17 1017.9V1010.83Z" fill="#C0CDDC"/>
<path opacity="0.32" d="M2884.68 1180.24C2884.68 1179.03 2885.36 1177.92 2886.44 1177.37L2998.26 1120.52C3000.4 1119.43 3002.94 1120.98 3002.94 1123.39V1130.43C3002.94 1131.64 3002.26 1132.75 3001.18 1133.3L2889.36 1190.15C2887.22 1191.24 2884.68 1189.69 2884.68 1187.28V1180.24Z" fill="#C0CDDC"/>
<ellipse opacity="0.4" rx="17.7665" ry="9.66684" transform="matrix(-0.474984 0.879994 0.879994 0.474984 2824.01 1026.39)" fill="#C0CDDC"/>
<ellipse opacity="0.4" rx="17.7665" ry="9.66684" transform="matrix(-0.474984 0.879994 0.879994 0.474984 2824.08 1215.29)" fill="#C0CDDC"/>
<ellipse opacity="0.4" rx="17.7665" ry="9.66684" transform="matrix(-0.474984 0.879994 0.879994 0.474984 2857.97 1199.62)" fill="#C0CDDC"/>
<g opacity="0.6" filter="url(#filter17_f)">
<path d="M2530.27 1067.71L2527.86 968.339L2537.87 972.974L2663.38 1036.38L2742.73 1075.68L2773.32 1089.4L2793.15 1081.98L2873.61 1043.24L2962.23 1000.23L3014.14 973.159L3027.86 965.002L3025.82 1066.97L2864.16 1146.31L2800.2 1178.2L2775.54 1188.58L2768.13 1187.1L2593.86 1101.26L2530.27 1067.71Z" fill="url(#paint65_linear)"/>
</g>
<mask id="mask4" style="mask-type:alpha" maskUnits="userSpaceOnUse" x="2531" y="866" width="493" height="405">
<path d="M2774.38 981.337L3023.81 866.498V1153.9L2783.99 1268.43C2780.24 1269.91 2778.14 1270.18 2774.38 1270.13V981.337Z" fill="url(#paint66_linear)"/>
<path d="M2774.38 981.337L2531.87 867.211V1153.1L2763.05 1267.2C2767.21 1269.31 2769.69 1270.02 2774.38 1270.13V981.337Z" fill="url(#paint67_linear)"/>
</mask>
<g mask="url(#mask4)">
<path d="M2530.27 1067.71L2527.86 968.339L2537.87 972.974L2663.38 1036.38L2742.73 1075.68L2773.32 1089.4L2793.15 1081.98L2873.61 1043.24L2962.23 1000.23L3014.14 973.159L3027.86 965.002L3025.82 1066.97L2864.16 1146.31L2800.2 1178.2L2775.54 1188.58L2768.13 1187.1L2593.86 1101.26L2530.27 1067.71Z" fill="url(#paint68_linear)"/>
<path d="M2529.55 1061.38C2529.67 1066.02 2534.19 1070.51 2539.02 1072.93L2762.98 1185.1C2770.48 1188.86 2779.31 1188.9 2786.84 1185.21L3015.96 1072.99C3020.86 1070.59 3026.05 1065.96 3026.17 1061.28" stroke="#BA46DF" stroke-width="5.36983"/>
<g opacity="0.21" filter="url(#filter18_i)">
<ellipse rx="17.7665" ry="9.66684" transform="matrix(-0.474984 0.879994 0.879994 0.474984 2832.22 1121.13)" fill="#D564F0"/>
</g>
<g opacity="0.1" filter="url(#filter19_i)">
<path d="M2865.31 1099.82C2865.31 1098.61 2865.99 1097.5 2867.07 1096.95L2978.89 1040.09C2981.03 1039 2983.57 1040.56 2983.57 1042.96V1050C2983.57 1051.21 2982.89 1052.32 2981.81 1052.87L2869.99 1109.73C2867.85 1110.82 2865.31 1109.26 2865.31 1106.86V1099.82Z" fill="#D564F0"/>
</g>
<path d="M2529.51 961.911C2529.63 966.555 2534.15 971.049 2538.98 973.468L2762.94 1085.64C2770.44 1089.39 2779.27 1089.43 2786.8 1085.74L3015.92 973.522C3020.82 971.121 3026.01 966.494 3026.13 961.813" stroke="#BA46DF" stroke-width="5.36983"/>
<g filter="url(#filter20_f)">
<path d="M2786.82 934.605C2779.29 930.916 2770.46 930.955 2762.96 934.711M2529.53 1058.44C2529.65 1053.79 2534.17 1049.3 2539 1046.88L2612.86 1009.89M3026.15 1058.54C3026.03 1053.86 3020.84 1049.23 3015.94 1046.83L2941 1010.12" stroke="url(#paint69_linear)" stroke-width="5.36983"/>
</g>
</g>
<path d="M2761.42 748.922C2770.13 744.753 2780.25 744.71 2788.99 748.804L3010.98 852.735C3023.24 858.471 3023.39 875.841 3011.24 881.792L2789.51 990.395C2780.48 994.819 2769.9 994.772 2760.91 990.269L2544.19 881.727C2532.21 875.727 2532.36 858.578 2544.45 852.793L2761.42 748.922Z" fill="url(#paint70_linear)"/>
<g opacity="0.5" filter="url(#filter21_i)">
<path d="M2761.69 772.481C2770.4 768.312 2780.52 768.268 2789.26 772.362L2974.26 858.972C2981.61 862.414 2981.7 872.836 2974.41 876.407L2789.78 966.839C2780.75 971.262 2770.17 971.215 2761.18 966.712L2580.8 876.368C2573.61 872.768 2573.7 862.478 2580.95 859.007L2761.69 772.481Z" fill="url(#paint71_linear)"/>
</g>
<path d="M1862.66 13.502L1593.77 143.819L1559.46 533.256L1963.84 824.969L1743.07 1366.71L2011.03 1231.12L2299.92 809.608L1856.99 521.489L1862.66 13.502Z" fill="#DEC344"/>
<path d="M1940.83 785.83L1940.04 788.101L1742.63 1359.28C1744.17 1358.63 1746.02 1357.86 1748.13 1356.97C1755.17 1354.01 1765.26 1349.75 1777.45 1344.55C1801.82 1334.16 1834.59 1320.03 1868.19 1305.07C1901.79 1290.11 1936.19 1274.33 1963.83 1260.64C1977.65 1253.79 1989.76 1247.48 1999.21 1242.06C2008.76 1236.59 2015.35 1232.18 2018.37 1229.14L2455.72 789.754C2465.92 779.511 2466.58 760.654 2459.4 741.331C2452.27 722.18 2437.81 703.76 2419.66 695.104L1936.36 466.302L1934.82 465.574V463.875V89.0137C1934.82 67.3777 1923.33 45.7983 1908.28 31.3204C1900.77 24.0985 1892.49 18.7639 1884.51 16.0685C1876.54 13.3747 1869.04 13.3666 1862.79 16.4635C1860.45 17.6283 1858.23 19.0954 1855.84 20.6734L1855.82 20.6839C1853.49 22.2268 1850.99 23.8776 1848.29 25.2041L1596.68 148.823L1423.08 453.847C1421.89 455.942 1420.52 457.895 1419.21 459.733L1418.95 460.1C1417.71 461.834 1416.54 463.469 1415.52 465.176C1408.5 476.825 1409.61 495.011 1417.24 512.799C1424.81 530.477 1438.49 546.937 1455.34 554.975L1940.83 785.83ZM1940.83 785.83L1938.66 784.799L1455.35 554.977L1940.83 785.83Z" fill="url(#paint72_linear)" stroke="#FDC007" stroke-width="5.36983"/>
<g filter="url(#filter22_ii)">
<path d="M1184.69 687.763L1668 917.587V1291.43C1668 1340.4 1724.3 1387.99 1750.77 1361.4L2188.12 922.012C2210.79 899.244 2189.16 841.093 2151.32 823.044L1668 594.238V219.377C1668 170.407 1611.71 122.814 1585.24 149.407L1147.88 588.796C1125.22 611.563 1146.85 669.714 1184.69 687.763Z" fill="url(#paint73_linear)"/>
</g>
<path d="M1670.69 915.89V917.587V1291.43C1670.69 1314.95 1684.27 1338.39 1701.19 1352.7C1709.64 1359.84 1718.72 1364.54 1727.11 1365.92C1735.4 1367.3 1742.96 1365.44 1748.87 1359.51L2186.22 920.118C2196.42 909.874 2197.08 891.017 2189.89 871.694C2182.77 852.543 2168.31 834.123 2150.16 825.467L1666.85 596.665L1665.32 595.938V594.238V219.377C1665.32 195.853 1651.74 172.413 1634.81 158.106C1626.37 150.967 1617.28 146.269 1608.9 144.883C1600.6 143.512 1593.04 145.37 1587.14 151.301L1149.79 590.69C1139.59 600.933 1138.93 619.79 1146.11 639.113C1153.23 658.263 1167.69 676.682 1185.84 685.339L1670.69 915.89ZM1670.69 915.89L1669.16 915.162L1185.84 685.34L1670.69 915.89Z" stroke="#FDC007" stroke-width="5.36983"/>
<path d="M1670.69 915.89V917.587V1291.43C1670.69 1314.95 1684.27 1338.39 1701.19 1352.7C1709.64 1359.84 1718.72 1364.54 1727.11 1365.92C1735.4 1367.3 1742.96 1365.44 1748.87 1359.51L2186.22 920.118C2196.42 909.874 2197.08 891.017 2189.89 871.694C2182.77 852.543 2168.31 834.123 2150.16 825.467L1666.85 596.665L1665.32 595.938V594.238V219.377C1665.32 195.853 1651.74 172.413 1634.81 158.106C1626.37 150.967 1617.28 146.269 1608.9 144.883C1600.6 143.512 1593.04 145.37 1587.14 151.301L1149.79 590.69C1139.59 600.933 1138.93 619.79 1146.11 639.113C1153.23 658.263 1167.69 676.682 1185.84 685.339L1670.69 915.89ZM1670.69 915.89L1669.16 915.162L1185.84 685.34L1670.69 915.89Z" stroke="#FDC007" stroke-width="5.36983"/>
<g opacity="0.3" filter="url(#filter23_f)">
<path d="M1938.27 1168.62V785.042L1457.5 550.655C1439.15 541.709 1424.91 526.096 1417.68 507.004L1415.52 501.276C1413.52 496.006 1412.5 490.418 1412.5 484.784C1412.5 472.223 1417.57 460.194 1426.56 451.423L1650.74 232.771L1664.37 212.297L1660.13 195.214L1637.83 158.833L1596.75 144.75L1569.76 174.092L1268.39 472.29L1156.37 586.404C1147.58 595.367 1142.65 607.424 1142.65 619.983C1142.65 628.756 1145.06 637.361 1149.61 644.86L1155.54 654.63C1164.56 669.486 1177.74 681.368 1193.45 688.803L1671.17 914.909V1289.78V1315.89L1691.25 1343.34L1714.68 1362.75L1737.44 1368.1L1754.85 1355.39L1938.27 1168.62Z" fill="url(#paint74_linear)"/>
</g>
<g filter="url(#filter24_f)">
<path d="M1940.19 785.12V786.816V1160.66C1940.19 1184.18 1953.77 1207.62 1970.69 1221.93C1979.14 1229.07 1988.22 1233.77 1996.61 1235.15C2004.91 1236.52 2012.46 1234.67 2018.37 1228.74L2455.72 789.347C2465.92 779.104 2466.58 760.247 2459.4 740.924C2452.27 721.773 2437.81 703.353 2419.66 694.697L1936.36 465.894L1934.82 465.167V463.468V88.6064C1934.82 65.082 1921.24 41.6422 1904.32 27.3355C1895.87 20.1965 1886.79 15.4985 1878.4 14.1128C1870.1 12.7416 1862.55 14.5997 1856.64 20.5303L1419.29 459.919C1409.09 470.163 1408.43 489.019 1415.61 508.342C1422.74 527.492 1437.2 545.911 1455.34 554.568L1940.19 785.12ZM1940.19 785.12L1938.66 784.391L1455.35 554.57L1940.19 785.12Z" stroke="url(#paint75_linear)" stroke-width="5.36983"/>
</g>
<path d="M1743.41 1363.62L2013.6 1232.85" stroke="#FDC007" stroke-width="5.36983"/>
<path d="M1668 594.058L1938.19 463.296" stroke="#FDC007" stroke-width="5.36983"/>
<g filter="url(#filter25_f)">
<path d="M1667.31 917.38L1937.5 786.618" stroke="url(#paint76_linear)" stroke-width="5.36983"/>
</g>
<path d="M1594.31 146.456L1864.5 15.6938" stroke="#FDC007" stroke-width="5.36983"/>
<path fill-rule="evenodd" clip-rule="evenodd" d="M3310.43 1982.3L3153.63 2046.75V1852.26L3310.43 1777.54V1777.54H3310.43L3467.22 1852.26V2046.75L3310.43 1982.3H3310.43Z" fill="url(#paint77_linear)"/>
<path d="M3153.63 1852.26L3310.43 1926.97V2121.46L3153.63 2046.74V1852.26Z" fill="url(#paint78_linear)"/>
<g opacity="0.6">
<path d="M3310.4 1777.54L3153.64 1852.3L3153.63 1852.3V2046.91L3153.64 2046.91L3310.4 2121.67L3467.17 2046.91L3467.17 2046.91V1852.3L3467.17 1852.3L3310.4 1777.54Z" fill="url(#paint79_radial)" style="mix-blend-mode:multiply"/>
</g>
<path opacity="0.07" d="M3254.84 2101.15L3075.41 2191.33L2970.22 2141.38L3146.25 2053.74L3155.47 1880.89V1818.18L3288.68 1729.76C3345.16 1754.87 3435.67 1797.75 3435.67 1797.75C3389.82 1840.87 3335.41 1861.95 3254.84 1880.89V2101.15Z" fill="url(#paint80_linear)"/>
<path d="M3467.21 1852.25L3310.42 1926.97V2121.46L3467.21 2046.74V1852.25Z" fill="url(#paint81_linear)"/>
<path d="M3100.4 1791.93L3125.84 1788.33L3128.83 1787.91L3127.93 1785.04C3125.85 1778.39 3126.44 1772.96 3128.97 1768.26C3131.56 1763.46 3136.31 1759.15 3143.04 1755.16C3156.56 1747.13 3177.01 1740.91 3200.38 1734.15C3202.15 1733.64 3203.94 1733.12 3205.75 1732.6C3227.55 1726.32 3251.33 1719.46 3273.4 1710.19C3297.3 1700.16 3319.44 1687.2 3335.05 1668.83C3349.91 1651.35 3356.74 1629.77 3359.64 1607.51C3362.54 1585.28 3361.55 1562.15 3360.61 1541.51L3360.57 1540.65C3359.63 1520.18 3358.83 1502.47 3361.68 1490C3363.11 1483.73 3365.4 1479.13 3368.76 1476.18C3372.06 1473.28 3376.73 1471.68 3383.58 1472.08L3385.72 1472.2L3386.22 1470.12L3392.55 1443.39L3443.38 1496.45L3443.42 1496.49L3443.46 1496.53C3469.36 1521.2 3478.12 1561.11 3470.57 1606.61C3463.02 1652.06 3439.22 1702.68 3400.61 1748.1C3362.71 1792.69 3317.57 1823.99 3274.65 1839.1C3231.67 1854.22 3191.3 1853 3162.44 1833.22L3162.42 1833.21L3162.41 1833.2L3100.4 1791.93Z" fill="url(#paint82_linear)" stroke="#FD8813" stroke-width="5.1176"/>
<mask id="path-132-outside-1" maskUnits="userSpaceOnUse" x="3091.79" y="1446.53" width="259.407" height="309.052" fill="black">
<rect fill="white" x="3091.79" y="1446.53" width="259.407" height="309.052"/>
<path fill-rule="evenodd" clip-rule="evenodd" d="M3329 1544.35C3298.58 1549.17 3262.99 1570.7 3234.01 1604.79C3203.4 1640.8 3187.81 1681.85 3189.84 1713.41C3171.46 1716.32 3154.98 1713.13 3142.99 1702.94C3111.13 1675.85 3122.98 1609.58 3169.45 1554.9C3215.93 1500.23 3279.43 1477.86 3311.29 1504.94C3322.16 1514.19 3327.95 1528 3329 1544.35Z"/>
</mask>
<path fill-rule="evenodd" clip-rule="evenodd" d="M3329 1544.35C3298.58 1549.17 3262.99 1570.7 3234.01 1604.79C3203.4 1640.8 3187.81 1681.85 3189.84 1713.41C3171.46 1716.32 3154.98 1713.13 3142.99 1702.94C3111.13 1675.85 3122.98 1609.58 3169.45 1554.9C3215.93 1500.23 3279.43 1477.86 3311.29 1504.94C3322.16 1514.19 3327.95 1528 3329 1544.35Z" fill="url(#paint83_linear)"/>
<path d="M3234.01 1604.79L3230.14 1601.49L3230.14 1601.49L3234.01 1604.79ZM3329 1544.35L3329.79 1549.38L3334.37 1548.65L3334.07 1544.03L3329 1544.35ZM3189.84 1713.41L3190.63 1718.43L3195.21 1717.71L3194.91 1713.08L3189.84 1713.41ZM3142.99 1702.94L3146.28 1699.06L3146.28 1699.06L3142.99 1702.94ZM3169.45 1554.9L3173.33 1558.2L3169.45 1554.9ZM3311.29 1504.94L3314.58 1501.07L3314.58 1501.07L3311.29 1504.94ZM3237.88 1608.08C3266.32 1574.63 3300.9 1553.95 3329.79 1549.38L3328.2 1539.33C3296.26 1544.39 3259.66 1566.77 3230.14 1601.49L3237.88 1608.08ZM3194.91 1713.08C3192.99 1683.24 3207.82 1643.44 3237.88 1608.08L3230.14 1601.49C3198.97 1638.15 3182.62 1680.45 3184.76 1713.74L3194.91 1713.08ZM3189.04 1708.39C3171.65 1711.14 3156.82 1708.02 3146.28 1699.06L3139.69 1706.81C3153.14 1718.24 3171.28 1721.5 3190.63 1718.43L3189.04 1708.39ZM3146.28 1699.06C3132.3 1687.18 3127.22 1666.06 3131.85 1640.16C3136.45 1614.41 3150.57 1584.97 3173.33 1558.2L3165.58 1551.61C3141.86 1579.51 3126.81 1610.55 3121.84 1638.37C3116.89 1666.05 3121.81 1691.61 3139.69 1706.81L3146.28 1699.06ZM3173.33 1558.2C3196.09 1531.42 3222.86 1512.75 3247.54 1504.06C3272.36 1495.32 3294.02 1496.94 3308 1508.82L3314.58 1501.07C3296.7 1485.87 3270.68 1485.13 3244.16 1494.47C3217.51 1503.86 3189.29 1523.71 3165.58 1551.61L3173.33 1558.2ZM3308 1508.82C3317.56 1516.95 3322.94 1529.31 3323.92 1544.68L3334.07 1544.03C3332.96 1526.68 3326.77 1511.43 3314.58 1501.07L3308 1508.82Z" fill="#FD8813" mask="url(#path-132-outside-1)"/>
<mask id="path-134-inside-2" fill="white">
<path fill-rule="evenodd" clip-rule="evenodd" d="M3085.63 1784.53C3142.79 1833.12 3256.14 1793.68 3338.8 1696.44C3421.46 1599.19 3442.14 1480.97 3384.98 1432.38C3327.82 1383.79 3214.47 1423.24 3131.81 1520.48C3049.15 1617.72 3028.47 1735.94 3085.63 1784.53ZM3142.98 1702.93C3174.84 1730.02 3238.34 1707.65 3284.82 1652.97C3331.29 1598.3 3343.14 1532.03 3311.28 1504.94C3279.43 1477.86 3215.92 1500.23 3169.45 1554.9C3122.97 1609.58 3111.12 1675.85 3142.98 1702.93Z"/>
</mask>
<g filter="url(#filter26_ii)">
<path fill-rule="evenodd" clip-rule="evenodd" d="M3085.63 1784.53C3142.79 1833.12 3256.14 1793.68 3338.8 1696.44C3421.46 1599.19 3442.14 1480.97 3384.98 1432.38C3327.82 1383.79 3214.47 1423.24 3131.81 1520.48C3049.15 1617.72 3028.47 1735.94 3085.63 1784.53ZM3142.98 1702.93C3174.84 1730.02 3238.34 1707.65 3284.82 1652.97C3331.29 1598.3 3343.14 1532.03 3311.28 1504.94C3279.43 1477.86 3215.92 1500.23 3169.45 1554.9C3122.97 1609.58 3111.12 1675.85 3142.98 1702.93Z" fill="url(#paint84_linear)"/>
</g>
<path d="M3338.8 1696.44L3342.7 1699.75L3342.7 1699.75L3338.8 1696.44ZM3085.63 1784.53L3088.95 1780.63L3085.63 1784.53ZM3384.98 1432.38L3388.29 1428.48L3388.29 1428.48L3384.98 1432.38ZM3284.82 1652.97L3288.72 1656.29L3288.72 1656.29L3284.82 1652.97ZM3142.98 1702.93L3146.3 1699.04L3146.3 1699.04L3142.98 1702.93ZM3311.28 1504.94L3314.6 1501.04L3314.6 1501.04L3311.28 1504.94ZM3169.45 1554.9L3165.55 1551.59L3165.55 1551.59L3169.45 1554.9ZM3334.9 1693.12C3294.06 1741.17 3245.79 1774.74 3200.97 1790.34C3156.03 1805.97 3115.58 1803.27 3088.95 1780.63L3082.32 1788.43C3112.85 1814.38 3157.65 1816.25 3204.34 1800C3251.15 1783.71 3300.89 1748.94 3342.7 1699.75L3334.9 1693.12ZM3381.66 1436.28C3408.3 1458.92 3417.48 1498.41 3409.28 1545.28C3401.11 1592.02 3375.75 1645.07 3334.9 1693.12L3342.7 1699.75C3384.52 1650.56 3410.83 1595.88 3419.36 1547.05C3427.88 1498.35 3418.82 1454.43 3388.29 1428.48L3381.66 1436.28ZM3135.71 1523.79C3176.55 1475.74 3224.83 1442.17 3269.64 1426.58C3314.58 1410.94 3355.03 1413.64 3381.66 1436.28L3388.29 1428.48C3357.76 1402.53 3312.96 1400.67 3266.27 1416.91C3219.46 1433.2 3169.73 1467.97 3127.91 1517.16L3135.71 1523.79ZM3088.95 1780.63C3062.32 1757.99 3053.13 1718.5 3061.33 1671.63C3069.5 1624.89 3094.86 1571.84 3135.71 1523.79L3127.91 1517.16C3086.09 1566.36 3059.79 1621.04 3051.25 1669.87C3042.73 1718.56 3051.79 1762.48 3082.32 1788.43L3088.95 1780.63ZM3280.92 1649.66C3258.16 1676.43 3231.39 1695.1 3206.72 1703.79C3181.91 1712.53 3160.26 1710.91 3146.3 1699.04L3139.67 1706.83C3157.56 1722.04 3183.59 1722.78 3210.12 1713.44C3236.78 1704.05 3265 1684.19 3288.72 1656.29L3280.92 1649.66ZM3307.97 1508.84C3321.94 1520.71 3327.02 1541.82 3322.39 1567.71C3317.79 1593.46 3303.68 1622.89 3280.92 1649.66L3288.72 1656.29C3312.44 1628.39 3327.49 1597.34 3332.46 1569.51C3337.41 1541.83 3332.49 1516.26 3314.6 1501.04L3307.97 1508.84ZM3173.35 1558.22C3196.1 1531.45 3222.88 1512.78 3247.55 1504.09C3272.36 1495.35 3294.01 1496.97 3307.97 1508.84L3314.6 1501.04C3296.71 1485.83 3270.67 1485.1 3244.15 1494.44C3217.48 1503.83 3189.27 1523.69 3165.55 1551.59L3173.35 1558.22ZM3146.3 1699.04C3132.33 1687.16 3127.25 1666.06 3131.88 1640.17C3136.48 1614.42 3150.59 1584.99 3173.35 1558.22L3165.55 1551.59C3141.83 1579.49 3126.78 1610.54 3121.8 1638.37C3116.85 1666.05 3121.77 1691.62 3139.67 1706.83L3146.3 1699.04Z" fill="#FD8813" mask="url(#path-134-inside-2)"/>
<path d="M3222.25 1851.93L3209.38 1838.48L3202.84 1839.92L3202.48 1851.02C3210.13 1851.81 3214.47 1851.96 3222.25 1851.93Z" fill="#FD6C1A"/>
<g opacity="0.3" filter="url(#filter27_f)">
<path d="M3209.96 1754.45L3144.45 1710.43M3367.07 1550.77L3311.29 1500.1" stroke="#FD8414" stroke-width="5.1176"/>
</g>
<g opacity="0.5" filter="url(#filter28_f)">
<path d="M3374.2 1556.78C3374.2 1556.78 3374.2 1556.78 3374.2 1556.79C3389.15 1569.49 3394.19 1591.71 3389.48 1618.05C3384.78 1644.32 3370.44 1674.15 3347.44 1701.2C3324.44 1728.26 3297.31 1747.22 3272.14 1756.09C3246.9 1764.98 3224.15 1763.58 3209.21 1750.87C3194.26 1738.17 3189.22 1715.94 3193.93 1689.6C3198.62 1663.33 3212.97 1633.5 3235.97 1606.45C3258.96 1579.39 3286.1 1560.43 3311.27 1551.57C3336.25 1542.77 3358.79 1544.05 3373.74 1556.4L3374.2 1556.78Z" stroke="url(#paint85_linear)" stroke-width="5.1176"/>
</g>
<path d="M3143.28 1810.54C3143.59 1809.89 3144.18 1809.42 3144.9 1809.32C3164.44 1806.67 3197.41 1817.42 3208.71 1837.68C3209.03 1838.27 3209.04 1838.98 3208.76 1839.59L3190.07 1879.77L3125.3 1849.65L3143.28 1810.54Z" fill="url(#paint86_linear)"/>
<path opacity="0.5" d="M3143.28 1810.54C3143.59 1809.89 3144.18 1809.42 3144.9 1809.32C3164.44 1806.67 3197.41 1817.42 3208.71 1837.68C3209.03 1838.27 3209.04 1838.98 3208.76 1839.59L3190.07 1879.77L3125.3 1849.65L3143.28 1810.54Z" fill="url(#paint87_linear)"/>
<g filter="url(#filter29_i)">
<path d="M3089.34 1848.23C3092.27 1841.94 3098.65 1837.91 3105.56 1838.46C3148.52 1841.87 3185.25 1858.94 3210.08 1886.77C3214.38 1891.59 3215.04 1898.54 3212.32 1904.39L3079.4 2190.24L2956.82 2133.23L3089.34 1848.23Z" fill="url(#paint88_linear)"/>
</g>
<path opacity="0.5" d="M3089.34 1848.23C3092.27 1841.94 3098.65 1837.91 3105.56 1838.46C3148.52 1841.87 3185.25 1858.94 3210.08 1886.77C3214.38 1891.59 3215.04 1898.54 3212.32 1904.39L3079.4 2190.24L2956.82 2133.23L3089.34 1848.23Z" fill="url(#paint89_linear)"/>
<ellipse cx="3018.21" cy="2161.52" rx="67.5997" ry="11.282" transform="rotate(24.9512 3018.21 2161.52)" fill="url(#paint90_linear)"/>
<g opacity="0.3" filter="url(#filter30_f)">
<path d="M3090.8 1772.62C3150.25 1823.16 3268.13 1782.14 3354.11 1681C3440.08 1579.87 3461.58 1456.91 3402.13 1406.38C3342.68 1355.84 3224.79 1396.86 3138.82 1498" stroke="url(#paint91_linear)" stroke-width="36.3021"/>
</g>
<defs>
<filter id="filter0_f" x="750.075" y="635.32" width="360.333" height="611.213" filterUnits="userSpaceOnUse" color-interpolation-filters="sRGB">
<feFlood flood-opacity="0" result="BackgroundImageFix"/>
<feBlend mode="normal" in="SourceGraphic" in2="BackgroundImageFix" result="shape"/>
<feGaussianBlur stdDeviation="19.2593" result="effect1_foregroundBlur"/>
</filter>
<filter id="filter1_i" x="748.754" y="703.163" width="258.176" height="537.339" filterUnits="userSpaceOnUse" color-interpolation-filters="sRGB">
<feFlood flood-opacity="0" result="BackgroundImageFix"/>
<feBlend mode="normal" in="SourceGraphic" in2="BackgroundImageFix" result="shape"/>
<feColorMatrix in="SourceAlpha" type="matrix" values="0 0 0 0 0 0 0 0 0 0 0 0 0 0 0 0 0 0 127 0" result="hardAlpha"/>
<feOffset dy="-15.6378"/>
<feGaussianBlur stdDeviation="23.4567"/>
<feComposite in2="hardAlpha" operator="arithmetic" k2="-1" k3="1"/>
<feColorMatrix type="matrix" values="0 0 0 0 1 0 0 0 0 1 0 0 0 0 1 0 0 0 0.96 0"/>
<feBlend mode="overlay" in2="shape" result="effect1_innerShadow"/>
</filter>
<filter id="filter2_f" x="781.83" y="704.384" width="35.1665" height="122.816" filterUnits="userSpaceOnUse" color-interpolation-filters="sRGB">
<feFlood flood-opacity="0" result="BackgroundImageFix"/>
<feBlend mode="normal" in="SourceGraphic" in2="BackgroundImageFix" result="shape"/>
<feGaussianBlur stdDeviation="1.83422" result="effect1_foregroundBlur"/>
</filter>
<filter id="filter3_i" x="641.322" y="763.513" width="275.278" height="501.872" filterUnits="userSpaceOnUse" color-interpolation-filters="sRGB">
<feFlood flood-opacity="0" result="BackgroundImageFix"/>
<feBlend mode="normal" in="SourceGraphic" in2="BackgroundImageFix" result="shape"/>
<feColorMatrix in="SourceAlpha" type="matrix" values="0 0 0 0 0 0 0 0 0 0 0 0 0 0 0 0 0 0 127 0" result="hardAlpha"/>
<feOffset dx="-6.41976" dy="7.33686"/>
<feGaussianBlur stdDeviation="9.62963"/>
<feComposite in2="hardAlpha" operator="arithmetic" k2="-1" k3="1"/>
<feColorMatrix type="matrix" values="0 0 0 0 0.984314 0 0 0 0 0.32549 0 0 0 0 0.423529 0 0 0 0.24 0"/>
<feBlend mode="normal" in2="shape" result="effect1_innerShadow"/>
</filter>
<filter id="filter4_f" x="1493.11" y="2143.73" width="544.902" height="86.3506" filterUnits="userSpaceOnUse" color-interpolation-filters="sRGB">
<feFlood flood-opacity="0" result="BackgroundImageFix"/>
<feBlend mode="normal" in="SourceGraphic" in2="BackgroundImageFix" result="shape"/>
<feGaussianBlur stdDeviation="2.56224" result="effect1_foregroundBlur"/>
</filter>
<filter id="filter5_f" x="1357.44" y="1948.92" width="816.81" height="520.047" filterUnits="userSpaceOnUse" color-interpolation-filters="sRGB">
<feFlood flood-opacity="0" result="BackgroundImageFix"/>
<feBlend mode="normal" in="SourceGraphic" in2="BackgroundImageFix" result="shape"/>
<feGaussianBlur stdDeviation="70.4615" result="effect1_foregroundBlur"/>
</filter>
<filter id="filter6_i" x="1667.83" y="1871.27" width="195.464" height="150.487" filterUnits="userSpaceOnUse" color-interpolation-filters="sRGB">
<feFlood flood-opacity="0" result="BackgroundImageFix"/>
<feBlend mode="normal" in="SourceGraphic" in2="BackgroundImageFix" result="shape"/>
<feColorMatrix in="SourceAlpha" type="matrix" values="0 0 0 0 0 0 0 0 0 0 0 0 0 0 0 0 0 0 127 0" result="hardAlpha"/>
<feOffset dy="12.8112"/>
<feComposite in2="hardAlpha" operator="arithmetic" k2="-1" k3="1"/>
<feColorMatrix type="matrix" values="0 0 0 0 0.796078 0 0 0 0 0.843137 0 0 0 0 0.894118 0 0 0 1 0"/>
<feBlend mode="normal" in2="shape" result="effect1_innerShadow"/>
</filter>
<filter id="filter7_f" x="16.4608" y="1274.77" width="453.418" height="700.426" filterUnits="userSpaceOnUse" color-interpolation-filters="sRGB">
<feFlood flood-opacity="0" result="BackgroundImageFix"/>
<feBlend mode="normal" in="SourceGraphic" in2="BackgroundImageFix" result="shape"/>
<feGaussianBlur stdDeviation="29.1739" result="effect1_foregroundBlur"/>
</filter>
<filter id="filter8_f" x="137.771" y="1334.4" width="39.7288" height="70.6205" filterUnits="userSpaceOnUse" color-interpolation-filters="sRGB">
<feFlood flood-opacity="0" result="BackgroundImageFix"/>
<feBlend mode="normal" in="SourceGraphic" in2="BackgroundImageFix" result="shape"/>
<feGaussianBlur stdDeviation="1.48342" result="effect1_foregroundBlur"/>
</filter>
<filter id="filter9_f" x="328.723" y="1837.22" width="86.5209" height="45.0526" filterUnits="userSpaceOnUse" color-interpolation-filters="sRGB">
<feFlood flood-opacity="0" result="BackgroundImageFix"/>
<feBlend mode="normal" in="SourceGraphic" in2="BackgroundImageFix" result="shape"/>
<feGaussianBlur stdDeviation="1.48342" result="effect1_foregroundBlur"/>
</filter>
<filter id="filter10_f" x="12.5913" y="1300.91" width="403.809" height="662.425" filterUnits="userSpaceOnUse" color-interpolation-filters="sRGB">
<feFlood flood-opacity="0" result="BackgroundImageFix"/>
<feBlend mode="normal" in="SourceGraphic" in2="BackgroundImageFix" result="shape"/>
<feGaussianBlur stdDeviation="19.2844" result="effect1_foregroundBlur"/>
</filter>
<filter id="filter11_i" x="358.047" y="1548.65" width="46.9638" height="30.0102" filterUnits="userSpaceOnUse" color-interpolation-filters="sRGB">
<feFlood flood-opacity="0" result="BackgroundImageFix"/>
<feBlend mode="normal" in="SourceGraphic" in2="BackgroundImageFix" result="shape"/>
<feColorMatrix in="SourceAlpha" type="matrix" values="0 0 0 0 0 0 0 0 0 0 0 0 0 0 0 0 0 0 127 0" result="hardAlpha"/>
<feOffset dx="-6.92262" dy="-2.96684"/>
<feComposite in2="hardAlpha" operator="arithmetic" k2="-1" k3="1"/>
<feColorMatrix type="matrix" values="0 0 0 0 0.0823529 0 0 0 0 0.447059 0 0 0 0 0.94902 0 0 0 0.18 0"/>
<feBlend mode="normal" in2="shape" result="effect1_innerShadow"/>
</filter>
<filter id="filter12_i" x="358.047" y="1575.1" width="46.9638" height="30.0102" filterUnits="userSpaceOnUse" color-interpolation-filters="sRGB">
<feFlood flood-opacity="0" result="BackgroundImageFix"/>
<feBlend mode="normal" in="SourceGraphic" in2="BackgroundImageFix" result="shape"/>
<feColorMatrix in="SourceAlpha" type="matrix" values="0 0 0 0 0 0 0 0 0 0 0 0 0 0 0 0 0 0 127 0" result="hardAlpha"/>
<feOffset dx="-6.92262" dy="-2.96684"/>
<feComposite in2="hardAlpha" operator="arithmetic" k2="-1" k3="1"/>
<feColorMatrix type="matrix" values="0 0 0 0 0.0823529 0 0 0 0 0.447059 0 0 0 0 0.94902 0 0 0 0.18 0"/>
<feBlend mode="normal" in2="shape" result="effect1_innerShadow"/>
</filter>
<filter id="filter13_i" x="358.047" y="1601.56" width="46.9638" height="30.0102" filterUnits="userSpaceOnUse" color-interpolation-filters="sRGB">
<feFlood flood-opacity="0" result="BackgroundImageFix"/>
<feBlend mode="normal" in="SourceGraphic" in2="BackgroundImageFix" result="shape"/>
<feColorMatrix in="SourceAlpha" type="matrix" values="0 0 0 0 0 0 0 0 0 0 0 0 0 0 0 0 0 0 127 0" result="hardAlpha"/>
<feOffset dx="-6.92262" dy="-2.96684"/>
<feComposite in2="hardAlpha" operator="arithmetic" k2="-1" k3="1"/>
<feColorMatrix type="matrix" values="0 0 0 0 0.0823529 0 0 0 0 0.447059 0 0 0 0 0.94902 0 0 0 0.18 0"/>
<feBlend mode="normal" in2="shape" result="effect1_innerShadow"/>
</filter>
<filter id="filter14_i" x="358.047" y="1628.02" width="46.9638" height="30.0102" filterUnits="userSpaceOnUse" color-interpolation-filters="sRGB">
<feFlood flood-opacity="0" result="BackgroundImageFix"/>
<feBlend mode="normal" in="SourceGraphic" in2="BackgroundImageFix" result="shape"/>
<feColorMatrix in="SourceAlpha" type="matrix" values="0 0 0 0 0 0 0 0 0 0 0 0 0 0 0 0 0 0 127 0" result="hardAlpha"/>
<feOffset dx="-6.92262" dy="-2.96684"/>
<feComposite in2="hardAlpha" operator="arithmetic" k2="-1" k3="1"/>
<feColorMatrix type="matrix" values="0 0 0 0 0.0823529 0 0 0 0 0.447059 0 0 0 0 0.94902 0 0 0 0.18 0"/>
<feBlend mode="normal" in2="shape" result="effect1_innerShadow"/>
</filter>
<filter id="filter15_i" x="358.047" y="1654.47" width="46.9638" height="30.0102" filterUnits="userSpaceOnUse" color-interpolation-filters="sRGB">
<feFlood flood-opacity="0" result="BackgroundImageFix"/>
<feBlend mode="normal" in="SourceGraphic" in2="BackgroundImageFix" result="shape"/>
<feColorMatrix in="SourceAlpha" type="matrix" values="0 0 0 0 0 0 0 0 0 0 0 0 0 0 0 0 0 0 127 0" result="hardAlpha"/>
<feOffset dx="-6.92262" dy="-2.96684"/>
<feComposite in2="hardAlpha" operator="arithmetic" k2="-1" k3="1"/>
<feColorMatrix type="matrix" values="0 0 0 0 0.0823529 0 0 0 0 0.447059 0 0 0 0 0.94902 0 0 0 0.18 0"/>
<feBlend mode="normal" in2="shape" result="effect1_innerShadow"/>
</filter>
<filter id="filter16_i" x="358.047" y="1680.93" width="46.9638" height="30.0102" filterUnits="userSpaceOnUse" color-interpolation-filters="sRGB">
<feFlood flood-opacity="0" result="BackgroundImageFix"/>
<feBlend mode="normal" in="SourceGraphic" in2="BackgroundImageFix" result="shape"/>
<feColorMatrix in="SourceAlpha" type="matrix" values="0 0 0 0 0 0 0 0 0 0 0 0 0 0 0 0 0 0 127 0" result="hardAlpha"/>
<feOffset dx="-6.92262" dy="-2.96684"/>
<feComposite in2="hardAlpha" operator="arithmetic" k2="-1" k3="1"/>
<feColorMatrix type="matrix" values="0 0 0 0 0.0823529 0 0 0 0 0.447059 0 0 0 0 0.94902 0 0 0 0.18 0"/>
<feBlend mode="normal" in2="shape" result="effect1_innerShadow"/>
</filter>
<filter id="filter17_f" x="2409.72" y="846.866" width="736.267" height="459.852" filterUnits="userSpaceOnUse" color-interpolation-filters="sRGB">
<feFlood flood-opacity="0" result="BackgroundImageFix"/>
<feBlend mode="normal" in="SourceGraphic" in2="BackgroundImageFix" result="shape"/>
<feGaussianBlur stdDeviation="59.0682" result="effect1_foregroundBlur"/>
</filter>
<filter id="filter18_i" x="2815.28" y="1100.91" width="33.8911" height="40.452" filterUnits="userSpaceOnUse" color-interpolation-filters="sRGB">
<feFlood flood-opacity="0" result="BackgroundImageFix"/>
<feBlend mode="normal" in="SourceGraphic" in2="BackgroundImageFix" result="shape"/>
<feColorMatrix in="SourceAlpha" type="matrix" values="0 0 0 0 0 0 0 0 0 0 0 0 0 0 0 0 0 0 127 0" result="hardAlpha"/>
<feOffset dx="-4.29587" dy="-3.2219"/>
<feComposite in2="hardAlpha" operator="arithmetic" k2="-1" k3="1"/>
<feColorMatrix type="matrix" values="0 0 0 0 0 0 0 0 0 0 0 0 0 0 0 0 0 0 0.34 0"/>
<feBlend mode="normal" in2="shape" result="effect1_innerShadow"/>
</filter>
<filter id="filter19_i" x="2865.31" y="1039.74" width="118.261" height="70.3447" filterUnits="userSpaceOnUse" color-interpolation-filters="sRGB">
<feFlood flood-opacity="0" result="BackgroundImageFix"/>
<feBlend mode="normal" in="SourceGraphic" in2="BackgroundImageFix" result="shape"/>
<feColorMatrix in="SourceAlpha" type="matrix" values="0 0 0 0 0 0 0 0 0 0 0 0 0 0 0 0 0 0 127 0" result="hardAlpha"/>
<feOffset dx="-4.29587" dy="-3.2219"/>
<feComposite in2="hardAlpha" operator="arithmetic" k2="-1" k3="1"/>
<feColorMatrix type="matrix" values="0 0 0 0 0 0 0 0 0 0 0 0 0 0 0 0 0 0 0.34 0"/>
<feBlend mode="normal" in2="shape" result="effect1_innerShadow"/>
</filter>
<filter id="filter20_f" x="2522.55" y="924.885" width="510.577" height="138.017" filterUnits="userSpaceOnUse" color-interpolation-filters="sRGB">
<feFlood flood-opacity="0" result="BackgroundImageFix"/>
<feBlend mode="normal" in="SourceGraphic" in2="BackgroundImageFix" result="shape"/>
<feGaussianBlur stdDeviation="2.14793" result="effect1_foregroundBlur"/>
</filter>
<filter id="filter21_i" x="2575.46" y="769.323" width="404.37" height="200.8" filterUnits="userSpaceOnUse" color-interpolation-filters="sRGB">
<feFlood flood-opacity="0" result="BackgroundImageFix"/>
<feBlend mode="normal" in="SourceGraphic" in2="BackgroundImageFix" result="shape"/>
<feColorMatrix in="SourceAlpha" type="matrix" values="0 0 0 0 0 0 0 0 0 0 0 0 0 0 0 0 0 0 127 0" result="hardAlpha"/>
<feOffset dy="9.6657"/>
<feComposite in2="hardAlpha" operator="arithmetic" k2="-1" k3="1"/>
<feColorMatrix type="matrix" values="0 0 0 0 0.8175 0 0 0 0 0.856429 0 0 0 0 0.908333 0 0 0 1 0"/>
<feBlend mode="normal" in2="shape" result="effect1_innerShadow"/>
</filter>
<filter id="filter22_ii" x="1138.65" y="123.458" width="1058.71" height="1263.89" filterUnits="userSpaceOnUse" color-interpolation-filters="sRGB">
<feFlood flood-opacity="0" result="BackgroundImageFix"/>
<feBlend mode="normal" in="SourceGraphic" in2="BackgroundImageFix" result="shape"/>
<feColorMatrix in="SourceAlpha" type="matrix" values="0 0 0 0 0 0 0 0 0 0 0 0 0 0 0 0 0 0 127 0" result="hardAlpha"/>
<feOffset dy="-18.3124"/>
<feGaussianBlur stdDeviation="27.4686"/>
<feComposite in2="hardAlpha" operator="arithmetic" k2="-1" k3="1"/>
<feColorMatrix type="matrix" values="0 0 0 0 1 0 0 0 0 1 0 0 0 0 1 0 0 0 0.96 0"/>
<feBlend mode="overlay" in2="shape" result="effect1_innerShadow"/>
<feColorMatrix in="SourceAlpha" type="matrix" values="0 0 0 0 0 0 0 0 0 0 0 0 0 0 0 0 0 0 127 0" result="hardAlpha"/>
<feOffset dy="18.3124"/>
<feGaussianBlur stdDeviation="16.0234"/>
<feComposite in2="hardAlpha" operator="arithmetic" k2="-1" k3="1"/>
<feColorMatrix type="matrix" values="0 0 0 0 0.975 0 0 0 0 0.902344 0 0 0 0 0.47125 0 0 0 1 0"/>
<feBlend mode="normal" in2="effect1_innerShadow" result="effect2_innerShadow"/>
</filter>
<filter id="filter23_f" x="1138.35" y="140.455" width="804.212" height="1231.95" filterUnits="userSpaceOnUse" color-interpolation-filters="sRGB">
<feFlood flood-opacity="0" result="BackgroundImageFix"/>
<feBlend mode="normal" in="SourceGraphic" in2="BackgroundImageFix" result="shape"/>
<feGaussianBlur stdDeviation="2.14793" result="effect1_foregroundBlur"/>
</filter>
<filter id="filter24_f" x="1397.41" y="0.26033" width="1080.19" height="1248.75" filterUnits="userSpaceOnUse" color-interpolation-filters="sRGB">
<feFlood flood-opacity="0" result="BackgroundImageFix"/>
<feBlend mode="normal" in="SourceGraphic" in2="BackgroundImageFix" result="shape"/>
<feGaussianBlur stdDeviation="5.36983" result="effect1_foregroundBlur"/>
</filter>
<filter id="filter25_f" x="1655.4" y="773.461" width="294.008" height="157.075" filterUnits="userSpaceOnUse" color-interpolation-filters="sRGB">
<feFlood flood-opacity="0" result="BackgroundImageFix"/>
<feBlend mode="normal" in="SourceGraphic" in2="BackgroundImageFix" result="shape"/>
<feGaussianBlur stdDeviation="5.36983" result="effect1_foregroundBlur"/>
</filter>
<filter id="filter26_ii" x="3007.62" y="1322.8" width="455.366" height="569.328" filterUnits="userSpaceOnUse" color-interpolation-filters="sRGB">
<feFlood flood-opacity="0" result="BackgroundImageFix"/>
<feBlend mode="normal" in="SourceGraphic" in2="BackgroundImageFix" result="shape"/>
<feColorMatrix in="SourceAlpha" type="matrix" values="0 0 0 0 0 0 0 0 0 0 0 0 0 0 0 0 0 0 127 0" result="hardAlpha"/>
<feOffset dy="17.4522"/>
<feGaussianBlur stdDeviation="15.2707"/>
<feComposite in2="hardAlpha" operator="arithmetic" k2="-1" k3="1"/>
<feColorMatrix type="matrix" values="0 0 0 0 0.996078 0 0 0 0 0.631373 0 0 0 0 0.054902 0 0 0 1 0"/>
<feBlend mode="normal" in2="shape" result="effect1_innerShadow"/>
<feColorMatrix in="SourceAlpha" type="matrix" values="0 0 0 0 0 0 0 0 0 0 0 0 0 0 0 0 0 0 127 0" result="hardAlpha"/>
<feOffset dy="-19.4469"/>
<feGaussianBlur stdDeviation="24.294"/>
<feComposite in2="hardAlpha" operator="arithmetic" k2="-1" k3="1"/>
<feColorMatrix type="matrix" values="0 0 0 0 1 0 0 0 0 1 0 0 0 0 1 0 0 0 0.33 0"/>
<feBlend mode="normal" in2="effect1_innerShadow" result="effect2_innerShadow"/>
</filter>
<filter id="filter27_f" x="3138.93" y="1494.11" width="233.951" height="266.551" filterUnits="userSpaceOnUse" color-interpolation-filters="sRGB">
<feFlood flood-opacity="0" result="BackgroundImageFix"/>
<feBlend mode="normal" in="SourceGraphic" in2="BackgroundImageFix" result="shape"/>
<feGaussianBlur stdDeviation="2.04704" result="effect1_foregroundBlur"/>
</filter>
<filter id="filter28_f" x="3131.69" y="1494.01" width="305.939" height="317.859" filterUnits="userSpaceOnUse" color-interpolation-filters="sRGB">
<feFlood flood-opacity="0" result="BackgroundImageFix"/>
<feBlend mode="normal" in="SourceGraphic" in2="BackgroundImageFix" result="shape"/>
<feGaussianBlur stdDeviation="2.04704" result="effect1_foregroundBlur"/>
</filter>
<filter id="filter29_i" x="2954.63" y="1795.39" width="268.677" height="394.849" filterUnits="userSpaceOnUse" color-interpolation-filters="sRGB">
<feFlood flood-opacity="0" result="BackgroundImageFix"/>
<feBlend mode="normal" in="SourceGraphic" in2="BackgroundImageFix" result="shape"/>
<feColorMatrix in="SourceAlpha" type="matrix" values="0 0 0 0 0 0 0 0 0 0 0 0 0 0 0 0 0 0 127 0" result="hardAlpha"/>
<feOffset dx="-2.18153" dy="-28.3599"/>
<feGaussianBlur stdDeviation="33.8137"/>
<feComposite in2="hardAlpha" operator="arithmetic" k2="-1" k3="1"/>
<feColorMatrix type="matrix" values="0 0 0 0 0.635938 0 0 0 0 0.661719 0 0 0 0 0.6875 0 0 0 0.22 0"/>
<feBlend mode="normal" in2="shape" result="effect1_innerShadow"/>
</filter>
<filter id="filter30_f" x="2903.12" y="1234.84" width="686.692" height="709.328" filterUnits="userSpaceOnUse" color-interpolation-filters="sRGB">
<feFlood flood-opacity="0" result="BackgroundImageFix"/>
<feBlend mode="normal" in="SourceGraphic" in2="BackgroundImageFix" result="shape"/>
<feGaussianBlur stdDeviation="27.2266" result="effect1_foregroundBlur"/>
</filter>
<linearGradient id="paint0_linear" x1="1235.06" y1="1563.05" x2="3371.35" y2="2194.05" gradientUnits="userSpaceOnUse">
<stop stop-color="#F5F7FA"/>
<stop offset="1" stop-color="#F5F7FA" stop-opacity="0"/>
</linearGradient>
<linearGradient id="paint1_linear" x1="1177.63" y1="1076.04" x2="1423.65" y2="836.893" gradientUnits="userSpaceOnUse">
<stop/>
<stop offset="1" stop-opacity="0"/>
</linearGradient>
<linearGradient id="paint2_linear" x1="1466.93" y1="883.631" x2="1162.52" y2="899.431" gradientUnits="userSpaceOnUse">
<stop stop-color="#DAE2EB"/>
<stop offset="1" stop-color="#FBFBFD"/>
</linearGradient>
<linearGradient id="paint3_linear" x1="1204.35" y1="1226.89" x2="1183.29" y2="818.335" gradientUnits="userSpaceOnUse">
<stop offset="0.437974" stop-color="#FDFDFE"/>
<stop offset="1" stop-color="#E5EBF2"/>
</linearGradient>
<linearGradient id="paint4_linear" x1="1261.58" y1="1026.83" x2="1412.96" y2="1016.62" gradientUnits="userSpaceOnUse">
<stop stop-color="#F4F4F4"/>
<stop offset="1" stop-color="#DAE2EB"/>
</linearGradient>
<linearGradient id="paint5_linear" x1="1278.47" y1="843.932" x2="1187.04" y2="1134.41" gradientUnits="userSpaceOnUse">
<stop stop-opacity="0"/>
<stop offset="0.373743" stop-opacity="0.06"/>
<stop offset="1" stop-opacity="0"/>
</linearGradient>
<linearGradient id="paint6_linear" x1="839.895" y1="641.882" x2="1130.25" y2="795.001" gradientUnits="userSpaceOnUse">
<stop stop-color="#FBFBFD"/>
<stop offset="0.870249" stop-color="#EBEFF4"/>
<stop offset="0.994115" stop-color="#E8ECF2"/>
</linearGradient>
<linearGradient id="paint7_linear" x1="985.573" y1="478.856" x2="1039.05" y2="1369.77" gradientUnits="userSpaceOnUse">
<stop offset="0.437974" stop-color="#FDFDFE"/>
<stop offset="1" stop-color="#E5EBF2"/>
</linearGradient>
<linearGradient id="paint8_linear" x1="985.573" y1="478.86" x2="1039.05" y2="1369.77" gradientUnits="userSpaceOnUse">
<stop offset="0.437974" stop-color="#FDFDFE"/>
<stop offset="1" stop-color="#E5EBF2"/>
</linearGradient>
<linearGradient id="paint9_linear" x1="736.552" y1="689.704" x2="1022.31" y2="853.179" gradientUnits="userSpaceOnUse">
<stop stop-color="#FE758A"/>
<stop offset="0.870249" stop-color="#FB5A72"/>
<stop offset="0.994115" stop-color="#FB4059"/>
</linearGradient>
<linearGradient id="paint10_linear" x1="1003.9" y1="806.761" x2="1024" y2="819.279" gradientUnits="userSpaceOnUse">
<stop stop-color="#FF4E65"/>
<stop offset="1" stop-color="#FB4059"/>
</linearGradient>
<linearGradient id="paint11_linear" x1="877.842" y1="1240.5" x2="792.847" y2="800.149" gradientUnits="userSpaceOnUse">
<stop stop-color="#FB364F"/>
<stop offset="1" stop-color="#FB5770"/>
</linearGradient>
<linearGradient id="paint12_linear" x1="988.793" y1="844.945" x2="758.121" y2="726.59" gradientUnits="userSpaceOnUse">
<stop stop-color="#FB4059"/>
<stop offset="1" stop-color="#FF4D65"/>
</linearGradient>
<linearGradient id="paint13_linear" x1="796.054" y1="747.654" x2="800.041" y2="823.516" gradientUnits="userSpaceOnUse">
<stop stop-color="#FF4D65"/>
<stop offset="1" stop-color="#FF4D65" stop-opacity="0"/>
</linearGradient>
<linearGradient id="paint14_linear" x1="630.84" y1="742.655" x2="921.191" y2="895.771" gradientUnits="userSpaceOnUse">
<stop stop-color="#FBFBFD"/>
<stop offset="0.870249" stop-color="#EBEFF4"/>
<stop offset="0.994115" stop-color="#E8ECF2"/>
</linearGradient>
<linearGradient id="paint15_linear" x1="776.518" y1="579.623" x2="829.998" y2="1470.54" gradientUnits="userSpaceOnUse">
<stop offset="0.437974" stop-color="#FDFDFE"/>
<stop offset="1" stop-color="#E5EBF2"/>
</linearGradient>
<linearGradient id="paint16_linear" x1="1423.21" y1="900.654" x2="669.151" y2="1264.18" gradientUnits="userSpaceOnUse">
<stop stop-color="#DAE2EB"/>
<stop offset="0.998094" stop-color="white"/>
</linearGradient>
<linearGradient id="paint17_linear" x1="787.132" y1="1134.19" x2="1243.09" y2="1134.19" gradientUnits="userSpaceOnUse">
<stop stop-color="#FB5770"/>
<stop offset="0.160911" stop-color="#FB364F"/>
<stop offset="0.770399" stop-color="#FB364F"/>
<stop offset="0.842505" stop-color="#FB2B44"/>
</linearGradient>
<linearGradient id="paint18_linear" x1="531.789" y1="1134.19" x2="1204.53" y2="1097.26" gradientUnits="userSpaceOnUse">
<stop stop-color="#FDFDFE"/>
<stop offset="0.400649" stop-color="#F0F3F7"/>
<stop offset="0.526485" stop-color="#DFE5ED"/>
<stop offset="1" stop-color="#DAE2EB"/>
</linearGradient>
<linearGradient id="paint19_linear" x1="2016.93" y1="2343.71" x2="2324.98" y2="2032.59" gradientUnits="userSpaceOnUse">
<stop/>
<stop offset="1" stop-opacity="0"/>
</linearGradient>
<radialGradient id="paint20_radial" cx="0" cy="0" r="1" gradientUnits="userSpaceOnUse" gradientTransform="translate(2066.28 2198.65) rotate(24.8733) scale(249.505)">
<stop stop-color="white"/>
<stop offset="1" stop-color="#C9D5E3"/>
</radialGradient>
<linearGradient id="paint21_linear" x1="2045.61" y1="2211.37" x2="2274.58" y2="2306.77" gradientUnits="userSpaceOnUse">
<stop stop-color="#58D45C" stop-opacity="0.33"/>
<stop offset="1" stop-color="white" stop-opacity="0"/>
</linearGradient>
<linearGradient id="paint22_linear" x1="2038.37" y1="2088.55" x2="2030.35" y2="2356.23" gradientUnits="userSpaceOnUse">
<stop stop-opacity="0.21"/>
<stop offset="1"/>
</linearGradient>
<linearGradient id="paint23_linear" x1="1990.56" y1="2281.63" x2="1434.49" y2="2278.95" gradientUnits="userSpaceOnUse">
<stop stop-color="#CED8E4"/>
<stop offset="0.665987" stop-color="white"/>
<stop offset="0.800848" stop-color="white"/>
<stop offset="1" stop-color="#BDCDDE"/>
</linearGradient>
<radialGradient id="paint24_radial" cx="0" cy="0" r="1" gradientUnits="userSpaceOnUse" gradientTransform="translate(1667.24 2208.4) rotate(-176.607) scale(339.217 353.074)">
<stop stop-color="#44D049" stop-opacity="0.21"/>
<stop offset="0.968694" stop-color="#44D049" stop-opacity="0"/>
</radialGradient>
<linearGradient id="paint25_linear" x1="2396.83" y1="1833.58" x2="1576.51" y2="1998.48" gradientUnits="userSpaceOnUse">
<stop stop-color="#C4D2E1"/>
<stop offset="1" stop-color="#FCFDFE"/>
</linearGradient>
<linearGradient id="paint26_linear" x1="1990.56" y1="2281.63" x2="1434.49" y2="2278.95" gradientUnits="userSpaceOnUse">
<stop stop-color="#CED8E4"/>
<stop offset="0.665987" stop-color="#FDFDFE"/>
<stop offset="0.800848" stop-color="#FDFDFE"/>
<stop offset="1" stop-color="#BDCDDE"/>
</linearGradient>
<linearGradient id="paint27_linear" x1="2046.84" y1="2180.29" x2="1496.08" y2="2192.61" gradientUnits="userSpaceOnUse">
<stop stop-color="#6AEB6E"/>
<stop offset="0.0805294" stop-color="#10D414"/>
<stop offset="0.791522" stop-color="#78EF7A"/>
<stop offset="0.907232" stop-color="#77EF7A"/>
<stop offset="1" stop-color="#3AC43F"/>
</linearGradient>
<linearGradient id="paint28_linear" x1="2051.59" y1="2170.93" x2="1506.96" y2="2192.46" gradientUnits="userSpaceOnUse">
<stop stop-color="white"/>
<stop offset="0.193368" stop-color="#10D414"/>
<stop offset="0.791522" stop-color="#A4F4A6"/>
<stop offset="0.907232" stop-color="#A9F4AB"/>
<stop offset="1" stop-color="#3AC43F"/>
</linearGradient>
<linearGradient id="paint29_linear" x1="1523.99" y1="2205.77" x2="2022.48" y2="2181.89" gradientUnits="userSpaceOnUse">
<stop stop-color="#3ACC3F"/>
<stop offset="0.123246" stop-color="#3ACC3F" stop-opacity="0"/>
<stop offset="0.912857" stop-color="#3ACC3F" stop-opacity="0.118365"/>
<stop offset="1" stop-color="#3ACC3F"/>
</linearGradient>
<linearGradient id="paint30_linear" x1="2025.05" y1="2176.7" x2="1512.07" y2="2186.35" gradientUnits="userSpaceOnUse">
<stop stop-color="#6AEB6E"/>
<stop offset="0.110357" stop-color="#10D414"/>
<stop offset="0.791522" stop-color="#78EF7A"/>
<stop offset="0.907232" stop-color="#77EF7A"/>
<stop offset="1" stop-color="#3AC43F"/>
</linearGradient>
<linearGradient id="paint31_linear" x1="1925.65" y1="1938.17" x2="1605.47" y2="1921.81" gradientUnits="userSpaceOnUse">
<stop stop-color="#FBFCFE"/>
<stop offset="1" stop-color="#CAD6E3"/>
</linearGradient>
<linearGradient id="paint32_linear" x1="1925.65" y1="1938.17" x2="1605.47" y2="1921.81" gradientUnits="userSpaceOnUse">
<stop stop-color="#FBFCFE"/>
<stop offset="1" stop-color="#CAD6E3"/>
</linearGradient>
<linearGradient id="paint33_linear" x1="492.006" y1="1801.66" x2="736.332" y2="1564.15" gradientUnits="userSpaceOnUse">
<stop/>
<stop offset="1" stop-opacity="0"/>
</linearGradient>
<linearGradient id="paint34_linear" x1="772.12" y1="1585.14" x2="410.748" y2="1603.9" gradientUnits="userSpaceOnUse">
<stop stop-color="#DAE2EB"/>
<stop offset="1" stop-color="#FBFBFD"/>
</linearGradient>
<linearGradient id="paint35_linear" x1="460.403" y1="1992.64" x2="435.395" y2="1507.63" gradientUnits="userSpaceOnUse">
<stop offset="0.437974" stop-color="#FDFDFE"/>
<stop offset="1" stop-color="#E5EBF2"/>
</linearGradient>
<linearGradient id="paint36_linear" x1="528.346" y1="1755.14" x2="708.053" y2="1743.03" gradientUnits="userSpaceOnUse">
<stop stop-color="#F4F4F4"/>
<stop offset="1" stop-color="#DAE2EB"/>
</linearGradient>
<linearGradient id="paint37_linear" x1="573.746" y1="1582.78" x2="326.023" y2="1957.92" gradientUnits="userSpaceOnUse">
<stop stop-opacity="0"/>
<stop offset="0.232365" stop-opacity="0.667326"/>
<stop offset="0.544813" stop-opacity="0.22"/>
<stop offset="1"/>
</linearGradient>
<radialGradient id="paint38_radial" cx="0" cy="0" r="1" gradientUnits="userSpaceOnUse" gradientTransform="translate(253.246 1618.53) rotate(5.11926) scale(775.589 945.282)">
<stop stop-color="#13C2FB"/>
<stop offset="0.39566" stop-color="#13C2FB" stop-opacity="0"/>
</radialGradient>
<linearGradient id="paint39_linear" x1="439.316" y1="1441.27" x2="442.784" y2="1498.97" gradientUnits="userSpaceOnUse">
<stop stop-color="#EBEFF4"/>
<stop offset="1" stop-color="#D2DDE8"/>
</linearGradient>
<linearGradient id="paint40_linear" x1="274.098" y1="2162.76" x2="206.915" y2="1033.34" gradientUnits="userSpaceOnUse">
<stop offset="0.437974" stop-color="#FDFDFE"/>
<stop offset="1" stop-color="#E5EBF2"/>
</linearGradient>
<linearGradient id="paint41_linear" x1="323.29" y1="1316.63" x2="404.079" y2="1711.45" gradientUnits="userSpaceOnUse">
<stop offset="0.306231" stop-color="#13C2FB"/>
<stop offset="1" stop-color="#1599F7"/>
</linearGradient>
<linearGradient id="paint42_linear" x1="201.263" y1="1303.22" x2="378.268" y2="1649.85" gradientUnits="userSpaceOnUse">
<stop stop-color="#13C2FB"/>
<stop offset="0.287449" stop-color="#11BDFA"/>
<stop offset="0.561939" stop-color="#10B9FA"/>
<stop offset="1" stop-color="#1599F7"/>
</linearGradient>
<linearGradient id="paint43_linear" x1="201.263" y1="1303.22" x2="378.268" y2="1649.85" gradientUnits="userSpaceOnUse">
<stop stop-color="#13C2FB"/>
<stop offset="0.287449" stop-color="#11BDFA"/>
<stop offset="0.561939" stop-color="#10B9FA"/>
<stop offset="1" stop-color="#1599F7"/>
</linearGradient>
<linearGradient id="paint44_linear" x1="113.641" y1="1335.17" x2="113.641" y2="1399.3" gradientUnits="userSpaceOnUse">
<stop stop-color="#4ACEFF"/>
<stop offset="1" stop-color="#4ACEFF" stop-opacity="0"/>
</linearGradient>
<linearGradient id="paint45_linear" x1="411.531" y1="1843.85" x2="112.874" y2="1331.17" gradientUnits="userSpaceOnUse">
<stop stop-color="#128AF6"/>
<stop offset="1" stop-color="#2AB6F4"/>
</linearGradient>
<linearGradient id="paint46_linear" x1="323.29" y1="1316.63" x2="404.079" y2="1711.45" gradientUnits="userSpaceOnUse">
<stop offset="0.306231" stop-color="#13C2FB"/>
<stop offset="1" stop-color="#1599F7"/>
</linearGradient>
<linearGradient id="paint47_linear" x1="334.316" y1="1493.18" x2="340.502" y2="1527.1" gradientUnits="userSpaceOnUse">
<stop stop-color="#E7EEF4"/>
<stop offset="1" stop-color="#CAD4DF"/>
</linearGradient>
<linearGradient id="paint48_linear" x1="169.1" y1="2214.68" x2="-50.0753" y2="1117.39" gradientUnits="userSpaceOnUse">
<stop offset="0.295365" stop-color="#FDFDFE"/>
<stop offset="1" stop-color="#E5EBF2"/>
</linearGradient>
<linearGradient id="paint49_linear" x1="351.608" y1="1570.28" x2="411.687" y2="1552.66" gradientUnits="userSpaceOnUse">
<stop stop-color="#1596F7"/>
<stop offset="1" stop-color="#13C2FB"/>
</linearGradient>
<linearGradient id="paint50_linear" x1="358.047" y1="1595.33" x2="411.687" y2="1579.12" gradientUnits="userSpaceOnUse">
<stop stop-color="#1596F7"/>
<stop offset="1" stop-color="#13C2FB"/>
</linearGradient>
<linearGradient id="paint51_linear" x1="358.047" y1="1621.61" x2="411.687" y2="1605.58" gradientUnits="userSpaceOnUse">
<stop stop-color="#1090F6"/>
<stop offset="1" stop-color="#13C2FB"/>
</linearGradient>
<linearGradient id="paint52_linear" x1="351.608" y1="1649.65" x2="435.202" y2="1631.39" gradientUnits="userSpaceOnUse">
<stop stop-color="#108FF6"/>
<stop offset="1" stop-color="#13C2FB"/>
</linearGradient>
<linearGradient id="paint53_linear" x1="350.862" y1="1683.18" x2="441.102" y2="1654.32" gradientUnits="userSpaceOnUse">
<stop stop-color="#1089F5"/>
<stop offset="1" stop-color="#13C2FB"/>
</linearGradient>
<linearGradient id="paint54_linear" x1="372.618" y1="1692.46" x2="418.797" y2="1672.96" gradientUnits="userSpaceOnUse">
<stop stop-color="#1089F5"/>
<stop offset="1" stop-color="#13C2FB"/>
</linearGradient>
<linearGradient id="paint55_linear" x1="-2.18874" y1="1590.78" x2="449.688" y2="1606.38" gradientUnits="userSpaceOnUse">
<stop stop-color="#D8DFE8"/>
<stop offset="1" stop-color="#FDFDFE"/>
</linearGradient>
<linearGradient id="paint56_linear" x1="378.609" y1="1603.74" x2="34.8066" y2="1609.4" gradientUnits="userSpaceOnUse">
<stop stop-color="#F2F5F8"/>
<stop offset="0.907209" stop-color="#FDFDFE"/>
</linearGradient>
<linearGradient id="paint57_linear" x1="154.455" y1="1683.91" x2="233.819" y2="1841.78" gradientUnits="userSpaceOnUse">
<stop stop-color="#E0E7EF"/>
<stop offset="1" stop-color="#EEF1F5"/>
</linearGradient>
<linearGradient id="paint58_linear" x1="141.166" y1="1675.34" x2="246.265" y2="1882.53" gradientUnits="userSpaceOnUse">
<stop stop-color="#EBEFF4"/>
<stop offset="1" stop-color="#FDFDFE"/>
</linearGradient>
<linearGradient id="paint59_linear" x1="2770.26" y1="1174.43" x2="2912.63" y2="998.724" gradientUnits="userSpaceOnUse">
<stop/>
<stop offset="1" stop-opacity="0"/>
</linearGradient>
<radialGradient id="paint60_radial" cx="0" cy="0" r="1" gradientUnits="userSpaceOnUse" gradientTransform="translate(3074.01 1014.81) rotate(24.8733) scale(195.388)">
<stop stop-color="white"/>
<stop offset="1" stop-color="#C9D5E3"/>
</radialGradient>
<linearGradient id="paint61_linear" x1="2997.3" y1="959.922" x2="3237.14" y2="1099.48" gradientUnits="userSpaceOnUse">
<stop stop-color="#B057C9" stop-opacity="0.5"/>
<stop offset="1" stop-color="white" stop-opacity="0"/>
</linearGradient>
<linearGradient id="paint62_linear" x1="3052.16" y1="928.579" x2="3045.88" y2="1138.2" gradientUnits="userSpaceOnUse">
<stop stop-opacity="0.21"/>
<stop offset="1"/>
</linearGradient>
<linearGradient id="paint63_linear" x1="2496.88" y1="1011.66" x2="3007.62" y2="988.766" gradientUnits="userSpaceOnUse">
<stop stop-color="#FDFDFE"/>
<stop offset="0.390246" stop-color="#F0F3F7"/>
<stop offset="0.555705" stop-color="#DEE5EC"/>
<stop offset="1" stop-color="#D3DBE3"/>
</linearGradient>
<linearGradient id="paint64_linear" x1="2496.88" y1="1011.66" x2="3007.62" y2="988.766" gradientUnits="userSpaceOnUse">
<stop stop-color="#FDFDFE"/>
<stop offset="0.390246" stop-color="#F0F3F7"/>
<stop offset="0.555705" stop-color="#DEE5EC"/>
<stop offset="1" stop-color="#D3DBE3"/>
</linearGradient>
<linearGradient id="paint65_linear" x1="2515.98" y1="1010.98" x2="3055.07" y2="1023.57" gradientUnits="userSpaceOnUse">
<stop stop-color="#BF4BE2"/>
<stop offset="0.110593" stop-color="#EB8BFF"/>
<stop offset="0.152394" stop-color="#E989FE"/>
<stop offset="0.193774" stop-color="#E888FD"/>
<stop offset="0.258058" stop-color="#D361F0"/>
<stop offset="0.44857" stop-color="#D666F1"/>
<stop offset="0.539289" stop-color="#AB5CC1"/>
<stop offset="0.807053" stop-color="#BE4AE2"/>
<stop offset="1" stop-color="#E798FA"/>
</linearGradient>
<linearGradient id="paint66_linear" x1="2549.71" y1="1068.32" x2="3040.41" y2="1052.39" gradientUnits="userSpaceOnUse">
<stop stop-color="#FDFDFE"/>
<stop offset="0.400649" stop-color="#F0F3F7"/>
<stop offset="0.526485" stop-color="#DFE5ED"/>
<stop offset="1" stop-color="#DAE2EB"/>
</linearGradient>
<linearGradient id="paint67_linear" x1="2549.71" y1="1068.32" x2="3040.41" y2="1052.39" gradientUnits="userSpaceOnUse">
<stop stop-color="#FDFDFE"/>
<stop offset="0.400649" stop-color="#F0F3F7"/>
<stop offset="0.526485" stop-color="#DFE5ED"/>
<stop offset="1" stop-color="#DAE2EB"/>
</linearGradient>
<linearGradient id="paint68_linear" x1="2515.98" y1="1010.98" x2="3055.07" y2="1023.57" gradientUnits="userSpaceOnUse">
<stop stop-color="#BF4BE2"/>
<stop offset="0.127491" stop-color="#EB8BFF"/>
<stop offset="0.258058" stop-color="#D361F0"/>
<stop offset="0.44857" stop-color="#D666F1"/>
<stop offset="0.539289" stop-color="#AB5CC1"/>
<stop offset="0.807053" stop-color="#BE4AE2"/>
<stop offset="1" stop-color="#E798FA"/>
</linearGradient>
<linearGradient id="paint69_linear" x1="3018.12" y1="1046.8" x2="2544.3" y2="1052.31" gradientUnits="userSpaceOnUse">
<stop stop-color="#BA46DF"/>
<stop offset="0.160041" stop-color="#BA46DF" stop-opacity="0"/>
<stop offset="0.853021" stop-color="#BA46DF" stop-opacity="0"/>
<stop offset="1" stop-color="#BA46DF"/>
</linearGradient>
<linearGradient id="paint70_linear" x1="3249.09" y1="610.738" x2="2493.51" y2="817.692" gradientUnits="userSpaceOnUse">
<stop stop-color="#DAE2EB"/>
<stop offset="0.998094" stop-color="white"/>
</linearGradient>
<linearGradient id="paint71_linear" x1="2482.93" y1="816.638" x2="2926.02" y2="750.222" gradientUnits="userSpaceOnUse">
<stop stop-color="#DAE2EB"/>
<stop offset="0.998094" stop-color="white"/>
</linearGradient>
<linearGradient id="paint72_linear" x1="1438.23" y1="369.308" x2="1937.51" y2="1402.87" gradientUnits="userSpaceOnUse">
<stop offset="0.0726388" stop-color="#FDC007"/>
<stop offset="0.352497" stop-color="#FFE051"/>
<stop offset="0.638412" stop-color="#F4D040"/>
<stop offset="0.805669" stop-color="#FEC107"/>
<stop offset="0.955602" stop-color="#D9A812"/>
</linearGradient>
<linearGradient id="paint73_linear" x1="1973.81" y1="-433.421" x2="1653.34" y2="1368.87" gradientUnits="userSpaceOnUse">
<stop stop-color="#FFFAC0"/>
<stop offset="1" stop-color="#FFDD47"/>
</linearGradient>
<linearGradient id="paint74_linear" x1="1809.54" y1="790.506" x2="1488.78" y2="289.749" gradientUnits="userSpaceOnUse">
<stop stop-color="#FCC617"/>
<stop offset="0.517023" stop-color="#FFEBA9"/>
<stop offset="0.694168" stop-color="#FEDD73"/>
<stop offset="0.785854" stop-color="#F4BA0A"/>
</linearGradient>
<linearGradient id="paint75_linear" x1="1515.8" y1="709.301" x2="1604.14" y2="264.572" gradientUnits="userSpaceOnUse">
<stop stop-color="#FDC007"/>
<stop offset="1" stop-color="#FDC007" stop-opacity="0"/>
</linearGradient>
<linearGradient id="paint76_linear" x1="1875.24" y1="767.179" x2="1704.66" y2="899.684" gradientUnits="userSpaceOnUse">
<stop stop-color="#FDC007"/>
<stop offset="1" stop-color="#FDC007" stop-opacity="0"/>
</linearGradient>
<linearGradient id="paint77_linear" x1="3541.84" y1="1817.9" x2="3182.68" y2="1836.54" gradientUnits="userSpaceOnUse">
<stop stop-color="#DAE2EB"/>
<stop offset="1" stop-color="#FBFBFD"/>
</linearGradient>
<linearGradient id="paint78_linear" x1="3232.03" y1="2222.9" x2="3207.18" y2="1740.86" gradientUnits="userSpaceOnUse">
<stop offset="0.437974" stop-color="#FDFDFE"/>
<stop offset="1" stop-color="#E5EBF2"/>
</linearGradient>
<radialGradient id="paint79_radial" cx="0" cy="0" r="1" gradientUnits="userSpaceOnUse" gradientTransform="translate(3172.18 1850.25) rotate(6.39801) scale(625.528 762.964)">
<stop stop-color="#FD8315"/>
<stop offset="0.369792" stop-color="#FD8C12" stop-opacity="0"/>
</radialGradient>
<linearGradient id="paint80_linear" x1="3344.16" y1="1792.02" x2="3065.57" y2="2184.03" gradientUnits="userSpaceOnUse">
<stop stop-opacity="0"/>
<stop offset="0.150381"/>
<stop offset="0.27746"/>
<stop offset="0.507478" stop-opacity="0.16"/>
<stop offset="0.745725" stop-opacity="0.24"/>
<stop offset="0.949083"/>
<stop offset="1"/>
</linearGradient>
<linearGradient id="paint81_linear" x1="3299.55" y1="1986.85" x2="3478.16" y2="1974.82" gradientUnits="userSpaceOnUse">
<stop stop-color="#F4F4F4"/>
<stop offset="1" stop-color="#DAE2EB"/>
</linearGradient>
<linearGradient id="paint82_linear" x1="3397.98" y1="1516.29" x2="3170.55" y2="1875.73" gradientUnits="userSpaceOnUse">
<stop stop-color="#FEA30D"/>
<stop offset="0.137983" stop-color="#FFBC57"/>
<stop offset="0.854529" stop-color="#FD6C1A"/>
<stop offset="1" stop-color="#FD6A1A"/>
</linearGradient>
<linearGradient id="paint83_linear" x1="3275.74" y1="1486.23" x2="3113.08" y2="1716.82" gradientUnits="userSpaceOnUse">
<stop offset="0.0662217" stop-color="#FD6B1A"/>
<stop offset="1" stop-color="#FEA40D"/>
</linearGradient>
<linearGradient id="paint84_linear" x1="3514.97" y1="1262.65" x2="3068.28" y2="1757.11" gradientUnits="userSpaceOnUse">
<stop stop-color="#FBC56C"/>
<stop offset="1" stop-color="#FD8514"/>
</linearGradient>
<linearGradient id="paint85_linear" x1="3339.45" y1="1696.02" x2="3225.25" y2="1593.21" gradientUnits="userSpaceOnUse">
<stop stop-color="#FD8215"/>
<stop offset="0.528057" stop-color="#DAA60C" stop-opacity="0"/>
</linearGradient>
<linearGradient id="paint86_linear" x1="3202.79" y1="1859.49" x2="3140.83" y2="1826.97" gradientUnits="userSpaceOnUse">
<stop offset="0.159539" stop-color="#ADC1D7"/>
<stop offset="0.581247" stop-color="#E0E7EF"/>
<stop offset="1" stop-color="#FDFDFE"/>
</linearGradient>
<linearGradient id="paint87_linear" x1="3175.29" y1="1798.6" x2="3090.14" y2="1979.05" gradientUnits="userSpaceOnUse">
<stop offset="0.056488" stop-color="#FBB251"/>
<stop offset="0.454877" stop-color="#E0E7EF" stop-opacity="0"/>
<stop offset="1" stop-color="#FDFDFE" stop-opacity="0"/>
</linearGradient>
<linearGradient id="paint88_linear" x1="3154.24" y1="2016.57" x2="3057.48" y2="1969.96" gradientUnits="userSpaceOnUse">
<stop stop-color="#CED8E4"/>
<stop offset="0.491169" stop-color="#DFE6EE"/>
<stop offset="0.911857" stop-color="#F8F8FE"/>
</linearGradient>
<linearGradient id="paint89_linear" x1="3199.9" y1="1763.4" x2="3057.48" y2="1969.96" gradientUnits="userSpaceOnUse">
<stop stop-color="#FFD535"/>
<stop offset="0.877225" stop-color="#DFE6EE" stop-opacity="0"/>
<stop offset="1" stop-color="#FDFDFE" stop-opacity="0"/>
</linearGradient>
<linearGradient id="paint90_linear" x1="3029.42" y1="2170.37" x2="2951.05" y2="2174.28" gradientUnits="userSpaceOnUse">
<stop stop-color="#BEC9D6"/>
<stop offset="1" stop-color="#EBEEF1"/>
</linearGradient>
<linearGradient id="paint91_linear" x1="3402.13" y1="1406.38" x2="3090.8" y2="1772.62" gradientUnits="userSpaceOnUse">
<stop stop-color="#FFFBDF"/>
<stop offset="1" stop-color="#FFEB28" stop-opacity="0"/>
</linearGradient>
</defs>
</svg>
