<svg width="3199" height="2285" viewBox="0 0 3199 2285" fill="none" xmlns="http://www.w3.org/2000/svg">
  <path opacity="0.1" d="M910.025 2015.54L337.069 2284.2L0 2097.81L572.054 1829.15L910.025 2015.54Z" fill="url(#paint0_linear)" />
  <g opacity="0.3" filter="url(#filter0_f)">
    <ellipse cx="2157.64" cy="1928.38" rx="508.272" ry="207.284" fill="url(#paint1_radial)" />
  </g>
  <g filter="url(#filter1_d)">
    <path d="M2191.8 363.39L1908.37 500.755L1872.21 911.252L2298.46 1218.74L2065.75 1789.78L2348.2 1646.86L2652.71 1202.55L2185.83 898.848L2191.8 363.39Z" fill="#DEC344" />
    <g filter="url(#filter2_i)">
      <path d="M1761.21 936.706L2270.66 1178.96L2062.69 1790.4C2062.69 1790.4 2313.48 1672.46 2355.67 1648.09C2357.26 1647.18 2358.55 1646.12 2359.85 1644.82L2818.91 1183.62C2842.8 1159.62 2820 1098.33 2780.11 1079.3L2270.66 838.122V442.989C2270.66 393.102 2212.64 343.968 2183.56 366.03L2183.4 366.155C2181.4 367.666 2179.4 369.189 2177.15 370.278L1909.01 500L1723.94 829.67C1722.93 831.472 1721.63 833.096 1720.34 834.707C1699.95 860.121 1722.55 918.266 1761.21 936.706Z" fill="url(#paint2_linear)" />
    </g>
    <path d="M2069.07 1783.25C2069.96 1782.83 2070.92 1782.38 2071.95 1781.89C2078.89 1778.62 2088.85 1773.92 2100.93 1768.2C2125.1 1756.77 2157.76 1741.27 2191.74 1725C2259.8 1692.43 2332.87 1656.94 2353.8 1644.85C2355.04 1644.13 2356.08 1643.29 2357.19 1642.18L2816.26 1180.98C2826.62 1170.57 2827.45 1151.16 2819.92 1130.9C2812.47 1110.88 2797.37 1091.68 2778.5 1082.68L2269.06 841.508L2266.92 840.494V838.122V442.989C2266.92 419.408 2253.12 395.612 2235.56 380.356C2226.81 372.756 2217.36 367.482 2208.56 365.375C2199.82 363.279 2191.97 364.349 2185.82 369.014L2069.07 1783.25ZM2069.07 1783.25L2274.21 1180.16L2275.28 1177.01L2272.27 1175.57L1762.82 933.325M2069.07 1783.25L1762.82 933.325M1762.82 933.325L1762.82 933.323C1744.54 924.603 1729.79 906.304 1722.11 886.941C1714.36 867.376 1714.33 848.176 1723.26 837.052L1723.28 837.027C1724.54 835.454 1726.02 833.607 1727.2 831.504L1911.7 502.86L2178.78 373.65C2181.37 372.398 2183.63 370.682 2185.54 369.229L2185.66 369.139L2185.66 369.139L2185.82 369.014L1761.21 936.706L1762.82 933.325Z" stroke="#FDC007" stroke-width="7.49184" />
    <g filter="url(#filter3_ii)">
      <path d="M1477.13 1074.12L1986.58 1316.38V1710.44C1986.58 1762.05 2045.92 1812.22 2073.82 1784.19L2534.83 1321.04C2558.72 1297.04 2535.92 1235.75 2496.04 1216.72L1986.58 975.54V580.407C1986.58 528.788 1927.24 478.622 1899.34 506.653L1438.33 969.803C1414.45 993.802 1437.24 1055.1 1477.13 1074.12Z" fill="url(#paint3_linear)" />
    </g>
    <path d="M1990.33 1314.01V1316.38V1710.44C1990.33 1734.91 2004.48 1759.37 2022.16 1774.32C2030.98 1781.78 2040.4 1786.63 2049.03 1788.05C2057.54 1789.46 2065.19 1787.55 2071.17 1781.55L2532.18 1318.4C2542.54 1307.99 2543.37 1288.58 2535.84 1268.32C2528.39 1248.3 2513.29 1229.1 2494.42 1220.1L1984.98 978.926L1982.84 977.911V975.54V580.407C1982.84 555.938 1968.69 531.47 1951.01 516.522C1942.19 509.068 1932.76 504.214 1924.13 502.788C1915.63 501.383 1907.98 503.289 1902 509.295L1440.99 972.446C1430.63 982.855 1429.79 1002.26 1437.33 1022.52C1444.77 1042.54 1459.88 1061.74 1478.74 1070.74L1478.74 1070.74M1990.33 1314.01L1477.13 1074.12L1478.74 1070.74M1990.33 1314.01L1988.19 1312.99L1478.74 1070.74M1990.33 1314.01L1478.74 1070.74" stroke="#FDC007" stroke-width="7.49184" />
    <path d="M1990.33 1314.01V1316.38V1710.44C1990.33 1734.91 2004.48 1759.37 2022.16 1774.32C2030.98 1781.78 2040.4 1786.63 2049.03 1788.05C2057.54 1789.46 2065.19 1787.55 2071.17 1781.55L2532.18 1318.4C2542.54 1307.99 2543.37 1288.58 2535.84 1268.32C2528.39 1248.3 2513.29 1229.1 2494.42 1220.1L1984.98 978.926L1982.84 977.911V975.54V580.407C1982.84 555.938 1968.69 531.47 1951.01 516.522C1942.19 509.068 1932.76 504.214 1924.13 502.788C1915.63 501.383 1907.98 503.289 1902 509.295L1440.99 972.446C1430.63 982.855 1429.79 1002.26 1437.33 1022.52C1444.77 1042.54 1459.88 1061.74 1478.74 1070.74L1478.74 1070.74M1990.33 1314.01L1477.13 1074.12L1478.74 1070.74M1990.33 1314.01L1988.19 1312.99L1478.74 1070.74M1990.33 1314.01L1478.74 1070.74" stroke="#FDC007" stroke-width="7.49184" />
    <g opacity="0.3" filter="url(#filter4_f)">
      <path d="M2271.46 1580.98V1176.66L1754.13 924.447C1741.57 918.325 1731.82 907.641 1726.88 894.576L1720.44 877.547C1718.34 871.992 1717.26 866.102 1717.26 860.163C1717.26 846.923 1722.6 834.243 1732.08 824.999L1968.38 594.522L1982.75 572.941L1978.28 554.934L1954.77 516.586L1911.47 501.741L1883.02 532.669L1565.35 846.994L1447.13 967.432C1437.95 976.782 1432.81 989.359 1432.81 1002.46V1002.82C1432.81 1011.97 1435.32 1020.95 1440.07 1028.77L1453.19 1050.37C1458.27 1058.74 1465.69 1065.43 1474.54 1069.62L1989.92 1313.55V1708.7V1736.22L2011.08 1765.15L2035.78 1785.61L2059.77 1791.25L2078.12 1777.85L2271.46 1580.98Z" fill="url(#paint4_linear)" />
    </g>
    <g filter="url(#filter5_f)">
      <path d="M2274.41 1176.16V1178.53V1572.59C2274.41 1597.06 2288.56 1621.53 2306.24 1636.47C2315.05 1643.93 2324.48 1648.78 2333.11 1650.21C2341.62 1651.61 2349.27 1649.71 2355.25 1643.7L2816.26 1180.55C2826.62 1170.14 2827.45 1150.73 2819.92 1130.47C2812.47 1110.45 2797.37 1091.25 2778.5 1082.25L2269.06 841.078L2266.92 840.064V837.693V442.559C2266.92 418.09 2252.77 393.622 2235.09 378.674C2226.27 371.22 2216.84 366.366 2208.21 364.941C2199.71 363.535 2192.05 365.441 2186.08 371.448L1725.07 834.598C1714.71 845.007 1713.87 864.415 1721.41 884.675C1728.85 904.694 1743.95 923.893 1762.82 932.893L1762.82 932.895M2274.41 1176.16L1761.21 936.276L1762.82 932.895M2274.41 1176.16L2272.27 1175.14L1762.82 932.895M2274.41 1176.16L1762.82 932.895" stroke="url(#paint5_linear)" stroke-width="7.49184" />
    </g>
    <path d="M2064.95 1785.22L2347.82 1647.6" stroke="#FDC007" stroke-width="7.49184" />
    <path d="M1986.58 975.356L2271.38 837.522" stroke="#FDC007" stroke-width="7.49184" />
    <g filter="url(#filter6_f)">
      <path d="M1985.87 1316.15L2270.67 1178.32" stroke="url(#paint6_linear)" stroke-width="7.49184" />
    </g>
    <path d="M1908.89 503.533L2193.69 365.699" stroke="#FDC007" stroke-width="7.49184" />
    <g opacity="0.7" filter="url(#filter7_bi)">
      <path d="M1477.13 1074.12L1986.58 1316.38V1710.44C1986.58 1762.05 2045.92 1812.22 2073.82 1784.19L2534.83 1321.04C2558.72 1297.04 2535.92 1235.75 2496.04 1216.72L1986.58 975.54V580.407C1986.58 528.788 1927.24 478.622 1899.34 506.653L1438.33 969.803C1414.45 993.802 1437.24 1055.1 1477.13 1074.12Z" fill="url(#paint7_linear)" />
      <path d="M1990.33 1314.01V1316.38V1710.44C1990.33 1734.91 2004.48 1759.37 2022.16 1774.32C2030.98 1781.78 2040.4 1786.63 2049.03 1788.05C2057.54 1789.46 2065.19 1787.55 2071.17 1781.55L2532.18 1318.4C2542.54 1307.99 2543.37 1288.58 2535.84 1268.32C2528.39 1248.3 2513.29 1229.1 2494.42 1220.1L1984.98 978.926L1982.84 977.911V975.54V580.407C1982.84 555.938 1968.69 531.47 1951.01 516.522C1942.19 509.068 1932.76 504.214 1924.13 502.788C1915.63 501.383 1907.98 503.289 1902 509.295L1440.99 972.446C1430.63 982.855 1429.79 1002.26 1437.33 1022.52C1444.77 1042.54 1459.88 1061.74 1478.74 1070.74L1478.74 1070.74M1990.33 1314.01L1477.13 1074.12L1478.74 1070.74M1990.33 1314.01L1988.19 1312.99L1478.74 1070.74M1990.33 1314.01L1478.74 1070.74" stroke="#FDC30D" stroke-width="7.49184" />
    </g>
    <g opacity="0.7" filter="url(#filter8_bi)">
      <path d="M1477.13 1074.12L1986.58 1316.38V1710.44C1986.58 1762.05 2045.92 1812.22 2073.82 1784.19L2534.83 1321.04C2558.72 1297.04 2535.92 1235.75 2496.04 1216.72L1986.58 975.54V580.407C1986.58 528.788 1927.24 478.622 1899.34 506.653L1438.33 969.803C1414.45 993.802 1437.24 1055.1 1477.13 1074.12Z" fill="url(#paint8_linear)" />
      <path d="M1990.33 1314.01V1316.38V1710.44C1990.33 1734.91 2004.48 1759.37 2022.16 1774.32C2030.98 1781.78 2040.4 1786.63 2049.03 1788.05C2057.54 1789.46 2065.19 1787.55 2071.17 1781.55L2532.18 1318.4C2542.54 1307.99 2543.37 1288.58 2535.84 1268.32C2528.39 1248.3 2513.29 1229.1 2494.42 1220.1L1984.98 978.926L1982.84 977.911V975.54V580.407C1982.84 555.938 1968.69 531.47 1951.01 516.522C1942.19 509.068 1932.76 504.214 1924.13 502.788C1915.63 501.383 1907.98 503.289 1902 509.295L1440.99 972.446C1430.63 982.855 1429.79 1002.26 1437.33 1022.52C1444.77 1042.54 1459.88 1061.74 1478.74 1070.74L1478.74 1070.74M1990.33 1314.01L1477.13 1074.12L1478.74 1070.74M1990.33 1314.01L1988.19 1312.99L1478.74 1070.74M1990.33 1314.01L1478.74 1070.74" stroke="#FDC30D" stroke-width="7.49184" />
    </g>
    <g style="mix-blend-mode:screen" filter="url(#filter9_f)">
      <path d="M2525.99 1036.76L2538.53 1211.46C2539.81 1229.2 2552.91 1243.83 2570.39 1247.05L2620.53 1256.29L2570.78 1265.45C2553.12 1268.7 2539.95 1283.6 2538.89 1301.53L2525.99 1519.93L2513.12 1302.01C2512.04 1283.86 2498.58 1268.85 2480.65 1265.82L2424.1 1256.29L2481.04 1246.68C2498.79 1243.69 2512.19 1228.94 2513.48 1210.99L2525.99 1036.76Z" fill="white" />
    </g>
    <g style="mix-blend-mode:screen" filter="url(#filter10_f)">
      <path d="M2461.14 1320.97C2465.28 1343.4 2482.83 1360.95 2505.26 1365.08C2482.83 1369.21 2465.28 1386.76 2461.14 1409.19C2457.01 1386.76 2439.46 1369.21 2417.03 1365.08C2439.46 1360.95 2457.01 1343.4 2461.14 1320.97Z" fill="white" />
    </g>
    <g filter="url(#filter11_f)">
      <path d="M2107.08 1036.29L2034.15 1006.51L1893.04 1263.79L1966.03 1296.8L2107.08 1036.29Z" fill="url(#paint9_linear)" />
    </g>
    <g filter="url(#filter12_f)">
      <path d="M2277.4 1120.9L2167.27 1067.95L1995.71 1408.43V1671.06L2277.4 1120.9Z" fill="url(#paint10_linear)" />
    </g>
  </g>
  <path fill-rule="evenodd" clip-rule="evenodd" d="M2053.16 1216.95C2054.84 1216.45 2056.47 1215.78 2058.03 1214.94C2076.86 1204.78 2079.46 1173.1 2063.86 1144.19C2048.25 1115.27 2020.34 1100.07 2001.51 1110.23C2001.17 1110.41 2000.84 1110.6 2000.51 1110.8L1934.03 1142.53L1990.57 1245.5L2053.16 1216.95Z" fill="url(#paint11_linear)" />
  <path d="M2058.03 1214.94L2056.16 1211.48L2058.03 1214.94ZM2053.16 1216.95L2052.04 1213.18L2051.78 1213.26L2051.53 1213.37L2053.16 1216.95ZM2063.86 1144.19L2060.39 1146.06L2063.86 1144.19ZM2001.51 1110.23L2003.38 1113.69L2003.38 1113.69L2001.51 1110.23ZM2000.51 1110.8L2002.21 1114.35L2002.37 1114.27L2002.53 1114.17L2000.51 1110.8ZM1934.03 1142.53L1932.34 1138.98L1928.58 1140.77L1930.58 1144.42L1934.03 1142.53ZM1990.57 1245.5L1987.12 1247.39L1988.88 1250.59L1992.21 1249.08L1990.57 1245.5ZM2056.16 1211.48C2054.84 1212.19 2053.46 1212.76 2052.04 1213.18L2054.29 1220.72C2056.22 1220.15 2058.1 1219.38 2059.9 1218.4L2056.16 1211.48ZM2060.39 1146.06C2067.89 1159.94 2070.92 1174.33 2069.93 1186.27C2068.95 1198.26 2064.02 1207.24 2056.16 1211.48L2059.9 1218.4C2070.87 1212.48 2076.66 1200.54 2077.78 1186.92C2078.9 1173.25 2075.43 1157.35 2067.32 1142.32L2060.39 1146.06ZM2003.38 1113.69C2011.24 1109.45 2021.45 1110.26 2032.01 1116.01C2042.53 1121.74 2052.9 1132.17 2060.39 1146.06L2067.32 1142.32C2059.21 1127.29 2047.82 1115.66 2035.77 1109.1C2023.77 1102.56 2010.61 1100.84 1999.65 1106.76L2003.38 1113.69ZM2002.53 1114.17C2002.81 1114.01 2003.1 1113.84 2003.38 1113.69L1999.65 1106.76C1999.25 1106.97 1998.87 1107.19 1998.49 1107.42L2002.53 1114.17ZM1998.81 1107.25L1932.34 1138.98L1935.73 1146.08L2002.21 1114.35L1998.81 1107.25ZM1930.58 1144.42L1987.12 1247.39L1994.02 1243.6L1937.48 1140.64L1930.58 1144.42ZM1992.21 1249.08L2054.8 1220.53L2051.53 1213.37L1988.94 1241.92L1992.21 1249.08Z" fill="#FDC30D" />
  <ellipse cx="1961.61" cy="1194.07" rx="59.4963" ry="38.7301" transform="rotate(61.6417 1961.61 1194.07)" fill="url(#paint12_linear)" stroke="#FDC30D" stroke-width="7.87056" />
  <ellipse cx="1962.14" cy="1196.28" rx="19.4908" ry="12.6878" transform="rotate(61.6417 1962.14 1196.28)" fill="#EEF2F6" />
  <path d="M1961.93 1196.37L1817.17 1266.31C1792.7 1278.13 1777.15 1302.91 1777.16 1330.09L1777.16 1870.13C1777.16 1897.06 1761.88 1921.67 1737.74 1933.61L1616.89 1993.4C1597.54 2002.98 1574.88 2003.2 1555.34 1994.02L1338.34 1892.01C1313.5 1880.33 1297.64 1855.36 1297.64 1827.91V1225.5" stroke="url(#paint13_linear)" stroke-width="39.3528" />
  <path d="M1954.25 1174.82L1952.9 1174.51L1951.66 1175.11L1806.91 1245.05C1774.28 1260.81 1753.55 1293.85 1753.55 1330.09L1753.55 1870.13C1753.55 1888.08 1743.37 1904.49 1727.27 1912.45L1606.43 1972.24C1593.53 1978.62 1578.42 1978.77 1565.39 1972.65L1348.39 1870.64C1331.83 1862.86 1321.26 1846.21 1321.26 1827.91V1225.5V1221.56H1317.32H1277.97H1274.04V1225.5V1827.91C1274.04 1864.51 1295.18 1897.81 1328.3 1913.38L1545.3 2015.39C1571.35 2027.63 1601.57 2027.33 1627.37 2014.57L1748.21 1954.78C1780.4 1938.85 1800.77 1906.04 1800.77 1870.13L1800.77 1330.09C1800.77 1311.97 1811.14 1295.45 1827.45 1287.57L1972.2 1217.63L1973.6 1216.96L1974.16 1215.51C1977.84 1206.03 1975.88 1196.53 1971.7 1189.23C1967.58 1182.06 1960.93 1176.34 1954.25 1174.82Z" stroke="url(#paint14_linear)" stroke-width="7.87056" />
  <g opacity="0.57" filter="url(#filter13_f)">
    <path d="M1961.93 1196.37L1810.5 1269.53C1790.11 1279.38 1777.15 1300.03 1777.16 1322.68L1777.16 1877.46C1777.16 1899.9 1764.43 1920.41 1744.31 1930.36L1611.79 1995.93C1595.66 2003.91 1576.78 2004.1 1560.5 1996.44L1331.56 1888.82C1310.86 1879.09 1297.64 1858.28 1297.64 1835.4V1225.5" stroke="url(#paint15_linear)" stroke-width="7.87056" stroke-linecap="round" stroke-linejoin="round" />
  </g>
  <path d="M1961.93 1196.37L1810.5 1269.53C1790.11 1279.38 1777.15 1300.03 1777.16 1322.68L1777.16 1877.46C1777.16 1899.9 1764.43 1920.41 1744.31 1930.36L1611.79 1995.93C1595.66 2003.91 1576.78 2004.1 1560.5 1996.44L1331.56 1888.82C1310.86 1879.09 1297.64 1858.28 1297.64 1835.4V1225.5" stroke="url(#paint16_linear)" stroke-width="11.8058" stroke-linecap="round" stroke-linejoin="round" />
  <path fill-rule="evenodd" clip-rule="evenodd" d="M1637.04 1821.02L1554.94 1860.02L233.6 1214.13L221.32 100.111L298.208 64.0633C303.822 59.0432 312.209 57.2788 319.882 60.9636L1638.2 694.077C1645.02 697.353 1649.36 704.249 1649.36 711.815V1802.76C1649.36 1811.33 1644.07 1818.16 1637.04 1821.02Z" fill="#DAE1E8" />
  <path fill-rule="evenodd" clip-rule="evenodd" d="M1637.04 1821.02L1554.94 1860.02L233.6 1214.13L221.32 100.111L298.208 64.0633C303.822 59.0432 312.209 57.2788 319.882 60.9636L1638.2 694.077C1645.02 697.353 1649.36 704.249 1649.36 711.815V1802.76C1649.36 1811.33 1644.07 1818.16 1637.04 1821.02Z" fill="url(#paint17_radial)" />
  <path d="M799.134 1725.95C869.334 1701.87 900.164 1619.75 863.161 1555.42L689.157 1252.9L1065.88 1426.14L1212.08 1691.54C1256.2 1771.61 1223.04 1872.3 1139.99 1910.5L877.445 2031.26L510.521 1858.52V1824.97L799.134 1725.95Z" fill="url(#paint18_linear)" />
  <path d="M762.604 1704.26C824.577 1674.59 848.221 1598.47 813.963 1538.91L632.072 1222.68L1012.4 1398.5L1184.47 1712.66C1217.01 1772.07 1193 1846.61 1131.91 1875.86L877.445 1997.68L510.521 1824.94L762.604 1704.26Z" fill="url(#paint19_linear)" />
  <path d="M209.047 118.054C209.047 103.563 224.179 94.0435 237.241 100.317L1555.56 733.43C1562.38 736.706 1566.72 743.602 1566.72 751.167V1842.12C1566.72 1856.61 1551.59 1866.13 1538.52 1859.85L220.205 1226.74C213.385 1223.46 209.047 1216.57 209.047 1209V118.054Z" fill="url(#paint20_linear)" />
  <path d="M254.477 178.439C254.477 169.739 263.567 164.028 271.406 167.803L1507.65 763.253C1511.74 765.22 1514.33 769.354 1514.33 773.889V1779.79C1514.33 1788.49 1505.24 1794.2 1497.41 1790.43L261.159 1194.98C257.074 1193.01 254.477 1188.88 254.477 1184.34V178.439Z" fill="url(#paint21_linear)" />
  <path opacity="0.4" d="M254.477 178.439C254.477 169.739 263.567 164.028 271.406 167.803L711.36 379.711V1411.82L261.159 1194.98C257.074 1193.01 254.477 1188.88 254.477 1184.34V178.439Z" fill="url(#paint22_linear)" />
  <g style="mix-blend-mode:multiply" opacity="0.7" filter="url(#filter14_f)">
    <path d="M1827.49 1236.56L1881.5 1262.4" stroke="#FDC822" stroke-width="7.47703" />
  </g>
  <path d="M796.233 548.785C796.233 540.103 805.29 534.391 813.125 538.131L1373.04 805.414C1377.15 807.374 1379.76 811.518 1379.76 816.068V837.106C1379.76 845.788 1370.71 851.5 1362.87 847.76L802.953 580.477C798.848 578.517 796.233 574.372 796.233 569.822V548.785Z" fill="#F8F9FB" />
  <path d="M796.233 668.315C796.233 659.633 805.29 653.92 813.125 657.661L1088 788.874L1227.16 855.305C1231.27 857.265 1233.88 861.41 1233.88 865.959V886.997C1233.88 895.679 1224.82 901.391 1216.99 897.651L802.953 700.006C798.848 698.047 796.233 693.902 796.233 689.352V668.315Z" fill="#EAEEF2" />
  <path d="M311.675 308.479C311.675 301.74 318.704 297.306 324.785 300.209L437.201 353.872L494.748 381.342C497.934 382.864 499.963 386.081 499.963 389.612C499.963 396.351 492.934 400.784 486.853 397.881L316.891 316.748C313.704 315.227 311.675 312.01 311.675 308.479Z" fill="#FE8394" />
  <path d="M348.124 371.442C348.124 364.704 355.153 360.27 361.235 363.173L473.65 416.836L531.197 444.306C534.384 445.828 536.413 449.044 536.413 452.576C536.413 459.314 529.383 463.748 523.302 460.845L353.34 379.712C350.153 378.191 348.124 374.974 348.124 371.442Z" fill="#EAEEF2" />
  <path d="M351.066 694.009C351.066 687.271 358.096 682.837 364.177 685.74L476.592 739.402L534.139 766.873C537.326 768.394 539.355 771.611 539.355 775.143C539.355 781.881 532.326 786.315 526.244 783.412L356.282 702.279C353.095 700.757 351.066 697.54 351.066 694.009Z" fill="#EAEEF2" />
  <path d="M351.066 779.396C351.066 772.657 358.096 768.223 364.177 771.126L476.592 824.789L534.139 852.259C537.326 853.781 539.355 856.998 539.355 860.529C539.355 867.268 532.326 871.701 526.244 868.798L356.282 787.665C353.095 786.144 351.066 782.927 351.066 779.396Z" fill="#16ADFA" />
  <path d="M469.82 518.058C469.82 511.319 476.85 506.886 482.931 509.789L595.346 563.451L652.893 590.922C656.08 592.443 658.109 595.66 658.109 599.191C658.109 605.93 651.08 610.364 644.998 607.461L475.036 526.327C471.849 524.806 469.82 521.589 469.82 518.058Z" fill="#EAEEF2" />
  <path d="M311.675 717.799C311.675 711.056 318.727 706.635 324.796 709.573L652.112 868.031C655.266 869.557 657.269 872.753 657.269 876.257C657.269 882.999 650.217 887.42 644.148 884.482L316.832 726.025C313.678 724.498 311.675 721.303 311.675 717.799Z" fill="#EAEEF2" />
  <path d="M796.233 787.848C796.233 779.165 805.29 773.453 813.125 777.193L1277.98 999.095C1282.08 1001.06 1284.7 1005.2 1284.7 1009.75V1030.79C1284.7 1039.47 1275.64 1045.18 1267.8 1041.44L802.953 819.539C798.848 817.579 796.233 813.435 796.233 808.885V787.848Z" fill="#F8F9FB" />
  <path d="M796.233 907.377C796.233 898.695 805.29 892.983 813.125 896.723L1373.04 1164.01C1377.15 1165.97 1379.76 1170.11 1379.76 1174.66V1195.7C1379.76 1204.38 1370.71 1210.09 1362.87 1206.35L802.953 939.069C798.848 937.109 796.233 932.964 796.233 928.415V907.377Z" fill="#EAEEF2" />
  <path d="M796.233 1026.91C796.233 1018.22 805.29 1012.51 813.125 1016.25L1025.69 1117.73C1029.8 1119.69 1032.41 1123.83 1032.41 1128.38V1149.42C1032.41 1158.1 1023.36 1163.81 1015.52 1160.07L802.953 1058.6C798.848 1056.64 796.233 1052.49 796.233 1047.94V1026.91Z" fill="#F8F9FB" />
  <path d="M514.696 405.019C514.696 397.925 522.097 393.257 528.499 396.314L616.181 438.169C619.536 439.771 621.672 443.158 621.672 446.875C621.672 453.97 614.272 458.637 607.869 455.581L520.187 413.725C516.832 412.124 514.696 408.737 514.696 405.019Z" fill="#EAEEF2" />
  <path d="M311.675 399.591C311.675 392.497 319.075 387.829 325.478 390.885L413.16 432.741C416.514 434.343 418.651 437.729 418.651 441.447C418.651 448.542 411.25 453.209 404.848 450.153L317.166 408.297C313.811 406.695 311.675 403.309 311.675 399.591Z" fill="#EAEEF2" />
  <path d="M311.675 592.584C311.675 585.49 319.075 580.822 325.478 583.878L413.16 625.734C416.514 627.336 418.651 630.723 418.651 634.44C418.651 641.535 411.25 646.202 404.848 643.146L317.166 601.29C313.811 599.689 311.675 596.302 311.675 592.584Z" fill="#16ADFA" />
  <path d="M432.394 457.194C432.394 450.1 439.794 445.432 446.196 448.488L533.878 490.344C537.233 491.946 539.369 495.333 539.369 499.05C539.369 506.145 531.969 510.812 525.567 507.756L437.885 465.9C434.53 464.299 432.394 460.912 432.394 457.194Z" fill="#FFEB83" />
  <path d="M432.394 650.191C432.394 643.096 439.794 638.429 446.196 641.485L533.878 683.341C537.233 684.942 539.369 688.329 539.369 692.047C539.369 699.141 531.969 703.809 525.567 700.753L437.885 658.897C434.53 657.295 432.394 653.908 432.394 650.191Z" fill="#EAEEF2" />
  <path d="M388.778 671.29C388.778 664.196 396.179 659.528 402.581 662.584L490.263 704.44C493.618 706.042 495.754 709.429 495.754 713.146C495.754 720.241 488.354 724.908 481.951 721.852L394.269 679.996C390.914 678.395 388.778 675.008 388.778 671.29Z" fill="#FE8394" />
  <path d="M510.479 728.585C510.479 721.49 517.879 716.823 524.282 719.879L611.964 761.735C615.319 763.336 617.455 766.723 617.455 770.441C617.455 777.535 610.054 782.203 603.652 779.147L515.97 737.291C512.615 735.689 510.479 732.302 510.479 728.585Z" fill="#FFEB83" />
  <path d="M551.146 512.79C551.146 505.695 558.546 501.028 564.948 504.084L652.63 545.94C655.985 547.541 658.121 550.928 658.121 554.646C658.121 561.74 650.721 566.408 644.319 563.352L556.637 521.496C553.282 519.894 551.146 516.507 551.146 512.79Z" fill="#4FD253" />
  <path d="M551.146 790.306C551.146 783.211 558.546 778.544 564.948 781.6L652.63 823.456C655.985 825.058 658.121 828.444 658.121 832.162C658.121 839.256 650.721 843.924 644.319 840.868L556.637 799.012C553.282 797.41 551.146 794.024 551.146 790.306Z" fill="#EAEEF2" />
  <path d="M796.233 1152.68C796.233 1144 805.29 1138.28 813.125 1142.02L1426.08 1434.62C1430.18 1436.58 1432.8 1440.73 1432.8 1445.28V1625.04C1432.8 1633.72 1423.74 1639.43 1415.9 1635.69L802.953 1343.09C798.848 1341.13 796.233 1336.99 796.233 1332.44V1152.68Z" fill="#F8F9FB" />
  <path d="M306.537 877.665L665.21 1048.88V1164.91L306.537 993.694V877.665Z" fill="#F8F9FB" />
  <path d="M305.139 1041.98L663.812 1213.2V1329.23L305.139 1158.01V1041.98Z" fill="#F8F9FB" />
  <path d="M338.244 934.992C338.244 928.253 345.273 923.82 351.355 926.723L463.77 980.385L521.317 1007.86C524.504 1009.38 526.533 1012.59 526.533 1016.13C526.533 1022.86 519.503 1027.3 513.422 1024.39L343.46 943.262C340.273 941.74 338.244 938.523 338.244 934.992Z" fill="#EAEEF2" />
  <path d="M338.244 1101.21C338.244 1094.47 345.273 1090.04 351.355 1092.94L463.77 1146.6L521.317 1174.07C524.504 1175.6 526.533 1178.81 526.533 1182.34C526.533 1189.08 519.503 1193.52 513.422 1190.61L343.46 1109.48C340.273 1107.96 338.244 1104.74 338.244 1101.21Z" fill="#EAEEF2" />
  <path d="M338.244 978.765C338.244 972.025 345.281 967.595 351.358 970.51L610.964 1095.01C614.139 1096.54 616.16 1099.75 616.16 1103.27C616.16 1110.01 609.123 1114.44 603.046 1111.52L343.44 987.02C340.265 985.497 338.244 982.287 338.244 978.765Z" fill="#4FD253" />
  <defs>
    <filter id="filter0_f" x="1532.79" y="1604.52" width="1249.69" height="647.715" filterUnits="userSpaceOnUse" color-interpolation-filters="sRGB">
      <feFlood flood-opacity="0" result="BackgroundImageFix" />
      <feBlend mode="normal" in="SourceGraphic" in2="BackgroundImageFix" result="shape" />
      <feGaussianBlur stdDeviation="58.2866" result="effect1_foregroundBlur" />
    </filter>
    <filter id="filter1_d" x="1058.98" y="0.77348" width="2139.29" height="2170.88" filterUnits="userSpaceOnUse" color-interpolation-filters="sRGB">
      <feFlood flood-opacity="0" result="BackgroundImageFix" />
      <feColorMatrix in="SourceAlpha" type="matrix" values="0 0 0 0 0 0 0 0 0 0 0 0 0 0 0 0 0 0 127 0" />
      <feOffset dy="9.79133" />
      <feGaussianBlur stdDeviation="184.811" />
      <feColorMatrix type="matrix" values="0 0 0 0 1 0 0 0 0 1 0 0 0 0 1 0 0 0 0.62 0" />
      <feBlend mode="normal" in2="BackgroundImageFix" result="effect1_dropShadow" />
      <feBlend mode="normal" in="SourceGraphic" in2="effect1_dropShadow" result="shape" />
    </filter>
    <filter id="filter2_i" x="1712.68" y="332.343" width="1115.97" height="1458.05" filterUnits="userSpaceOnUse" color-interpolation-filters="sRGB">
      <feFlood flood-opacity="0" result="BackgroundImageFix" />
      <feBlend mode="normal" in="SourceGraphic" in2="BackgroundImageFix" result="shape" />
      <feColorMatrix in="SourceAlpha" type="matrix" values="0 0 0 0 0 0 0 0 0 0 0 0 0 0 0 0 0 0 127 0" result="hardAlpha" />
      <feOffset dy="-28.262" />
      <feGaussianBlur stdDeviation="62.4197" />
      <feComposite in2="hardAlpha" operator="arithmetic" k2="-1" k3="1" />
      <feColorMatrix type="matrix" values="0 0 0 0 1 0 0 0 0 1 0 0 0 0 1 0 0 0 1 0" />
      <feBlend mode="normal" in2="shape" result="effect1_innerShadow" />
    </filter>
    <filter id="filter3_ii" x="1428.6" y="490.405" width="1115.97" height="1310.03" filterUnits="userSpaceOnUse" color-interpolation-filters="sRGB">
      <feFlood flood-opacity="0" result="BackgroundImageFix" />
      <feBlend mode="normal" in="SourceGraphic" in2="BackgroundImageFix" result="shape" />
      <feColorMatrix in="SourceAlpha" type="matrix" values="0 0 0 0 0 0 0 0 0 0 0 0 0 0 0 0 0 0 127 0" result="hardAlpha" />
      <feOffset dy="-8.19806" />
      <feGaussianBlur stdDeviation="12.2971" />
      <feComposite in2="hardAlpha" operator="arithmetic" k2="-1" k3="1" />
      <feColorMatrix type="matrix" values="0 0 0 0 1 0 0 0 0 1 0 0 0 0 1 0 0 0 0.96 0" />
      <feBlend mode="overlay" in2="shape" result="effect1_innerShadow" />
      <feColorMatrix in="SourceAlpha" type="matrix" values="0 0 0 0 0 0 0 0 0 0 0 0 0 0 0 0 0 0 127 0" result="hardAlpha" />
      <feOffset dy="8.19806" />
      <feGaussianBlur stdDeviation="7.17331" />
      <feComposite in2="hardAlpha" operator="arithmetic" k2="-1" k3="1" />
      <feColorMatrix type="matrix" values="0 0 0 0 0.975 0 0 0 0 0.902344 0 0 0 0 0.47125 0 0 0 1 0" />
      <feBlend mode="normal" in2="effect1_innerShadow" result="effect2_innerShadow" />
    </filter>
    <filter id="filter4_f" x="1430.89" y="499.818" width="842.493" height="1293.36" filterUnits="userSpaceOnUse" color-interpolation-filters="sRGB">
      <feFlood flood-opacity="0" result="BackgroundImageFix" />
      <feBlend mode="normal" in="SourceGraphic" in2="BackgroundImageFix" result="shape" />
      <feGaussianBlur stdDeviation="0.961582" result="effect1_foregroundBlur" />
    </filter>
    <filter id="filter5_f" x="1707.87" y="355.948" width="1125.58" height="1303.25" filterUnits="userSpaceOnUse" color-interpolation-filters="sRGB">
      <feFlood flood-opacity="0" result="BackgroundImageFix" />
      <feBlend mode="normal" in="SourceGraphic" in2="BackgroundImageFix" result="shape" />
      <feGaussianBlur stdDeviation="2.40396" result="effect1_foregroundBlur" />
    </filter>
    <filter id="filter6_f" x="1979.43" y="1170.14" width="297.681" height="154.193" filterUnits="userSpaceOnUse" color-interpolation-filters="sRGB">
      <feFlood flood-opacity="0" result="BackgroundImageFix" />
      <feBlend mode="normal" in="SourceGraphic" in2="BackgroundImageFix" result="shape" />
      <feGaussianBlur stdDeviation="2.40396" result="effect1_foregroundBlur" />
    </filter>
    <filter id="filter7_bi" x="1362.67" y="430.064" width="1247.82" height="1428.1" filterUnits="userSpaceOnUse" color-interpolation-filters="sRGB">
      <feFlood flood-opacity="0" result="BackgroundImageFix" />
      <feGaussianBlur in="BackgroundImage" stdDeviation="32.9641" />
      <feComposite in2="SourceAlpha" operator="in" result="effect1_backgroundBlur" />
      <feBlend mode="normal" in="SourceGraphic" in2="effect1_backgroundBlur" result="shape" />
      <feColorMatrix in="SourceAlpha" type="matrix" values="0 0 0 0 0 0 0 0 0 0 0 0 0 0 0 0 0 0 127 0" result="hardAlpha" />
      <feOffset dy="-68.5393" />
      <feGaussianBlur stdDeviation="66.0915" />
      <feComposite in2="hardAlpha" operator="arithmetic" k2="-1" k3="1" />
      <feColorMatrix type="matrix" values="0 0 0 0 1 0 0 0 0 1 0 0 0 0 1 0 0 0 0.81 0" />
      <feBlend mode="normal" in2="shape" result="effect2_innerShadow" />
    </filter>
    <filter id="filter8_bi" x="1362.67" y="430.064" width="1247.82" height="1428.1" filterUnits="userSpaceOnUse" color-interpolation-filters="sRGB">
      <feFlood flood-opacity="0" result="BackgroundImageFix" />
      <feGaussianBlur in="BackgroundImage" stdDeviation="32.9641" />
      <feComposite in2="SourceAlpha" operator="in" result="effect1_backgroundBlur" />
      <feBlend mode="normal" in="SourceGraphic" in2="effect1_backgroundBlur" result="shape" />
      <feColorMatrix in="SourceAlpha" type="matrix" values="0 0 0 0 0 0 0 0 0 0 0 0 0 0 0 0 0 0 127 0" result="hardAlpha" />
      <feOffset dy="-68.5393" />
      <feGaussianBlur stdDeviation="66.0915" />
      <feComposite in2="hardAlpha" operator="arithmetic" k2="-1" k3="1" />
      <feColorMatrix type="matrix" values="0 0 0 0 1 0 0 0 0 1 0 0 0 0 1 0 0 0 0.81 0" />
      <feBlend mode="normal" in2="shape" result="effect2_innerShadow" />
    </filter>
    <filter id="filter9_f" x="2392.48" y="1005.13" width="259.676" height="546.42" filterUnits="userSpaceOnUse" color-interpolation-filters="sRGB">
      <feFlood flood-opacity="0" result="BackgroundImageFix" />
      <feBlend mode="normal" in="SourceGraphic" in2="BackgroundImageFix" result="shape" />
      <feGaussianBlur stdDeviation="15.8133" result="effect1_foregroundBlur" />
    </filter>
    <filter id="filter10_f" x="2363.18" y="1267.12" width="195.93" height="195.93" filterUnits="userSpaceOnUse" color-interpolation-filters="sRGB">
      <feFlood flood-opacity="0" result="BackgroundImageFix" />
      <feBlend mode="normal" in="SourceGraphic" in2="BackgroundImageFix" result="shape" />
      <feGaussianBlur stdDeviation="26.9262" result="effect1_foregroundBlur" />
    </filter>
    <filter id="filter11_f" x="1875.9" y="989.372" width="248.313" height="324.561" filterUnits="userSpaceOnUse" color-interpolation-filters="sRGB">
      <feFlood flood-opacity="0" result="BackgroundImageFix" />
      <feBlend mode="normal" in="SourceGraphic" in2="BackgroundImageFix" result="shape" />
      <feGaussianBlur stdDeviation="8.56742" result="effect1_foregroundBlur" />
    </filter>
    <filter id="filter12_f" x="1985.92" y="1058.16" width="301.273" height="622.688" filterUnits="userSpaceOnUse" color-interpolation-filters="sRGB">
      <feFlood flood-opacity="0" result="BackgroundImageFix" />
      <feBlend mode="normal" in="SourceGraphic" in2="BackgroundImageFix" result="shape" />
      <feGaussianBlur stdDeviation="4.89567" result="effect1_foregroundBlur" />
    </filter>
    <filter id="filter13_f" x="1277.97" y="1176.69" width="703.638" height="845.034" filterUnits="userSpaceOnUse" color-interpolation-filters="sRGB">
      <feFlood flood-opacity="0" result="BackgroundImageFix" />
      <feBlend mode="normal" in="SourceGraphic" in2="BackgroundImageFix" result="shape" />
      <feGaussianBlur stdDeviation="7.87056" result="effect1_foregroundBlur" />
    </filter>
    <filter id="filter14_f" x="1818" y="1225.32" width="72.9839" height="48.3204" filterUnits="userSpaceOnUse" color-interpolation-filters="sRGB">
      <feFlood flood-opacity="0" result="BackgroundImageFix" />
      <feBlend mode="normal" in="SourceGraphic" in2="BackgroundImageFix" result="shape" />
      <feGaussianBlur stdDeviation="3.93528" result="effect1_foregroundBlur" />
    </filter>
    <linearGradient id="paint0_linear" x1="151.019" y1="2238.95" x2="474.956" y2="1923.74" gradientUnits="userSpaceOnUse">
      <stop stop-color="#DBE1E9" stop-opacity="0" />
      <stop offset="1" stop-color="#DBE1E9" />
    </linearGradient>
    <radialGradient id="paint1_radial" cx="0" cy="0" r="1" gradientUnits="userSpaceOnUse" gradientTransform="translate(2157.64 1928.38) rotate(90) scale(207.284 508.272)">
      <stop stop-color="#FEDA47" />
      <stop offset="1" stop-color="#FEDA47" stop-opacity="0" />
    </radialGradient>
    <linearGradient id="paint2_linear" x1="1744.39" y1="738.44" x2="2270.66" y2="1827.89" gradientUnits="userSpaceOnUse">
      <stop offset="0.0726388" stop-color="#FDC007" />
      <stop offset="0.352497" stop-color="#FFE051" />
      <stop offset="0.645186" stop-color="#FFD735" />
      <stop offset="0.771631" stop-color="#FEC107" />
      <stop offset="1" stop-color="#D9A812" />
    </linearGradient>
    <linearGradient id="paint3_linear" x1="2308.93" y1="-107.694" x2="1971.13" y2="1792.07" gradientUnits="userSpaceOnUse">
      <stop stop-color="#FFFAC0" />
      <stop offset="1" stop-color="#FFDD47" />
    </linearGradient>
    <linearGradient id="paint4_linear" x1="2135.77" y1="1182.42" x2="1797.66" y2="654.581" gradientUnits="userSpaceOnUse">
      <stop stop-color="#FCC617" />
      <stop offset="0.517023" stop-color="#FFEBA9" />
      <stop offset="0.694168" stop-color="#FEDD73" />
      <stop offset="0.785854" stop-color="#F4BA0A" />
    </linearGradient>
    <linearGradient id="paint5_linear" x1="1826.15" y1="1096.82" x2="1919.26" y2="628.041" gradientUnits="userSpaceOnUse">
      <stop stop-color="#FDC007" />
      <stop offset="1" stop-color="#FDC007" stop-opacity="0" />
    </linearGradient>
    <linearGradient id="paint6_linear" x1="2205.04" y1="1157.83" x2="2025.23" y2="1297.5" gradientUnits="userSpaceOnUse">
      <stop stop-color="#FDC007" />
      <stop offset="1" stop-color="#FDC007" stop-opacity="0" />
    </linearGradient>
    <linearGradient id="paint7_linear" x1="2308.93" y1="-107.694" x2="1971.13" y2="1792.07" gradientUnits="userSpaceOnUse">
      <stop stop-color="#FFFAC0" />
      <stop offset="1" stop-color="#FFDD47" />
    </linearGradient>
    <linearGradient id="paint8_linear" x1="2308.93" y1="-107.694" x2="1971.13" y2="1792.07" gradientUnits="userSpaceOnUse">
      <stop stop-color="#FFFAC0" />
      <stop offset="1" stop-color="#FFDD47" />
    </linearGradient>
    <linearGradient id="paint9_linear" x1="1381.57" y1="1409.98" x2="2206.77" y2="1126.69" gradientUnits="userSpaceOnUse">
      <stop stop-color="white" />
      <stop offset="1" stop-color="white" stop-opacity="0" />
    </linearGradient>
    <linearGradient id="paint10_linear" x1="1439.66" y1="1499.4" x2="2277.4" y2="1103.02" gradientUnits="userSpaceOnUse">
      <stop offset="0.380842" stop-color="white" />
      <stop offset="1" stop-color="white" stop-opacity="0" />
    </linearGradient>
    <linearGradient id="paint11_linear" x1="1970.65" y1="1107.07" x2="2029.73" y2="1220.47" gradientUnits="userSpaceOnUse">
      <stop stop-color="#FEDF57" />
      <stop offset="1" stop-color="#FDCC23" />
    </linearGradient>
    <linearGradient id="paint12_linear" x1="2020.32" y1="1183.56" x2="1932.02" y2="1217.8" gradientUnits="userSpaceOnUse">
      <stop stop-color="#FFE879" />
      <stop offset="1" stop-color="#FFF3B7" />
    </linearGradient>
    <linearGradient id="paint13_linear" x1="2022.86" y1="1165" x2="1762.14" y2="1290.84" gradientUnits="userSpaceOnUse">
      <stop stop-color="#EBEFF4" />
      <stop offset="1" stop-color="#F9FBFD" />
    </linearGradient>
    <linearGradient id="paint14_linear" x1="1988.53" y1="1178.65" x2="1369.01" y2="1892.78" gradientUnits="userSpaceOnUse">
      <stop stop-color="#E4E9EF" stop-opacity="0.19" />
      <stop offset="0.420874" stop-color="#E4E9EF" stop-opacity="0.71" />
      <stop offset="1" stop-color="#E4E9EF" stop-opacity="0.36" />
    </linearGradient>
    <linearGradient id="paint15_linear" x1="1562.2" y1="1993.14" x2="1569.97" y2="1245.47" gradientUnits="userSpaceOnUse">
      <stop offset="0.036964" stop-color="#8000FF" />
      <stop offset="0.183126" stop-color="#1286F6" />
      <stop offset="0.341508" stop-color="#10D414" />
      <stop offset="0.458208" stop-color="#FD8813" />
      <stop offset="0.634012" stop-color="#FF006F" />
      <stop offset="0.914402" stop-color="#FABC06" />
    </linearGradient>
    <linearGradient id="paint16_linear" x1="1562.2" y1="1993.14" x2="1569.97" y2="1245.47" gradientUnits="userSpaceOnUse">
      <stop offset="0.036964" stop-color="#8000FF" />
      <stop offset="0.183126" stop-color="#1286F6" />
      <stop offset="0.341508" stop-color="#10D414" />
      <stop offset="0.458208" stop-color="#FD8813" />
      <stop offset="0.634012" stop-color="#FF006F" />
      <stop offset="0.914402" stop-color="#FABC06" />
    </linearGradient>
    <radialGradient id="paint17_radial" cx="0" cy="0" r="1" gradientUnits="userSpaceOnUse" gradientTransform="translate(2060.29 573.929) rotate(159.965) scale(1703.16 1350.45)">
      <stop stop-color="#FFEA7D" />
      <stop offset="1" stop-color="white" stop-opacity="0" />
    </radialGradient>
    <linearGradient id="paint18_linear" x1="902.133" y1="2010.93" x2="844.253" y2="2000.7" gradientUnits="userSpaceOnUse">
      <stop stop-color="#DAE1E8" />
      <stop offset="1" stop-color="#E9EDF2" />
    </linearGradient>
    <linearGradient id="paint19_linear" x1="862.661" y1="1631.77" x2="812.058" y2="1737.37" gradientUnits="userSpaceOnUse">
      <stop stop-color="#DAE1E8" />
      <stop offset="1" stop-color="#F2F4F7" />
    </linearGradient>
    <linearGradient id="paint20_linear" x1="346.782" y1="427.178" x2="1566.72" y2="1418.87" gradientUnits="userSpaceOnUse">
      <stop stop-color="#F8F9FB" />
      <stop offset="1" stop-color="#E4E9EF" />
    </linearGradient>
    <linearGradient id="paint21_linear" x1="395.67" y1="477.125" x2="1505.4" y2="1379.23" gradientUnits="userSpaceOnUse">
      <stop stop-color="white" />
      <stop offset="1" stop-color="white" />
    </linearGradient>
    <linearGradient id="paint22_linear" x1="1254.75" y1="-286.37" x2="-325.652" y2="850.965" gradientUnits="userSpaceOnUse">
      <stop stop-color="#EAEEF2" />
      <stop offset="1" stop-color="#EAEEF2" stop-opacity="0" />
    </linearGradient>
  </defs>
</svg>