<svg width="150" height="49" viewBox="0 0 150 49" fill="none" xmlns="http://www.w3.org/2000/svg">
<path d="M66.2285 32.5806V10.3936H70.2221V18.793H70.7926C70.9617 18.4549 71.2258 18.1168 71.585 17.7787C71.9442 17.4406 72.4197 17.1659 73.0113 16.9546C73.6241 16.7222 74.3954 16.606 75.3251 16.606C76.5507 16.606 77.6177 16.8912 78.5264 17.4618C79.4561 18.0111 80.1745 18.7824 80.6817 19.7755C81.1888 20.7475 81.4424 21.8886 81.4424 23.1987V32.5806H77.4487V23.5156C77.4487 22.3323 77.1529 21.4448 76.5612 20.8532C75.9907 20.2615 75.1666 19.9657 74.089 19.9657C72.8634 19.9657 71.9125 20.3778 71.2364 21.2018C70.5602 22.0048 70.2221 23.1353 70.2221 24.5933V32.5806H66.2285ZM86.2727 38.9197V35.4332H94.8305C95.4222 35.4332 95.718 35.1162 95.718 34.4823V30.5204H95.1475C94.9784 30.8796 94.7143 31.2388 94.3551 31.598C93.9959 31.9572 93.5099 32.253 92.8971 32.4855C92.2843 32.7179 91.5025 32.8341 90.5516 32.8341C89.3261 32.8341 88.2484 32.5594 87.3187 32.01C86.4101 31.4395 85.7022 30.6577 85.1951 29.6646C84.6879 28.6714 84.4344 27.5304 84.4344 26.2414V16.8595H88.428V25.9245C88.428 27.1078 88.7133 27.9953 89.2838 28.5869C89.8754 29.1786 90.7101 29.4744 91.7877 29.4744C93.0133 29.4744 93.9642 29.0729 94.6404 28.27C95.3165 27.4459 95.6546 26.3048 95.6546 24.8468V16.8595H99.6483V35.3698C99.6483 36.4474 99.3313 37.3032 98.6974 37.9371C98.0635 38.5922 97.2183 38.9197 96.1617 38.9197H86.2727ZM103.141 38.9197V16.8595H107.072V18.7613H107.642C108.001 18.1485 108.561 17.6097 109.322 17.1448C110.083 16.6588 111.171 16.4158 112.587 16.4158C113.855 16.4158 115.027 16.7328 116.105 17.3667C117.183 17.9795 118.049 18.8881 118.704 20.0925C119.359 21.2969 119.687 22.7549 119.687 24.4665V24.9736C119.687 26.6852 119.359 28.1432 118.704 29.3476C118.049 30.552 117.183 31.4712 116.105 32.1051C115.027 32.7179 113.855 33.0243 112.587 33.0243C111.636 33.0243 110.833 32.9081 110.178 32.6757C109.544 32.4643 109.026 32.1897 108.625 31.8516C108.244 31.4924 107.938 31.1331 107.706 30.7739H107.135V38.9197H103.141ZM111.382 29.5378C112.629 29.5378 113.654 29.1469 114.457 28.3651C115.281 27.5621 115.693 26.3999 115.693 24.8785V24.5616C115.693 23.0402 115.281 21.8886 114.457 21.1068C113.633 20.3038 112.608 19.9023 111.382 19.9023C110.157 19.9023 109.132 20.3038 108.308 21.1068C107.484 21.8886 107.072 23.0402 107.072 24.5616V24.8785C107.072 26.3999 107.484 27.5621 108.308 28.3651C109.132 29.1469 110.157 29.5378 111.382 29.5378ZM129.566 33.0243C128.002 33.0243 126.618 32.6968 125.414 32.0417C124.231 31.3656 123.301 30.4253 122.625 29.2208C121.97 27.9953 121.642 26.5584 121.642 24.9102V24.5299C121.642 22.8817 121.97 21.4554 122.625 20.251C123.28 19.0254 124.199 18.0851 125.382 17.4301C126.565 16.7539 127.939 16.4158 129.503 16.4158C131.045 16.4158 132.387 16.7645 133.528 17.4618C134.669 18.1379 135.556 19.0888 136.19 20.3144C136.824 21.5188 137.141 22.924 137.141 24.5299V25.8928H125.699C125.741 26.9704 126.143 27.8474 126.904 28.5235C127.664 29.1997 128.594 29.5378 129.693 29.5378C130.813 29.5378 131.637 29.2948 132.165 28.8088C132.693 28.3228 133.095 27.784 133.369 27.1923L136.634 28.9039C136.338 29.4533 135.905 30.0555 135.335 30.7105C134.785 31.3444 134.046 31.8938 133.116 32.3587C132.186 32.8024 131.003 33.0243 129.566 33.0243ZM125.731 22.9134H133.084C133 22.0048 132.63 21.2758 131.975 20.7264C131.341 20.177 130.506 19.9023 129.471 19.9023C128.393 19.9023 127.537 20.177 126.904 20.7264C126.27 21.2758 125.879 22.0048 125.731 22.9134ZM139.745 32.5806V16.8595H143.675V18.6345H144.246C144.478 18.0006 144.858 17.5357 145.387 17.2399C145.936 16.9441 146.57 16.7962 147.288 16.7962H149.19V20.3461H147.225C146.211 20.3461 145.376 20.6208 144.721 21.1701C144.066 21.6984 143.739 22.5225 143.739 23.6424V32.5806H139.745Z" fill="#252A36"/>
<rect width="48.2049" height="48.2049" rx="9.48293" fill="url(#paint0_linear)"/>
<path d="M22.6114 14.6795C23.0883 14.0418 24.1024 14.379 24.1024 15.1753V26.5396H15.3956C14.7138 26.5396 14.3242 25.7618 14.7325 25.2159L22.6114 14.6795Z" fill="white"/>
<path d="M25.5934 33.1027C25.1166 33.7404 24.1024 33.4031 24.1024 32.6069V21.2425H32.8093C33.491 21.2425 33.8806 22.0203 33.4724 22.5663L25.5934 33.1027Z" fill="white"/>
<defs>
<linearGradient id="paint0_linear" x1="24.1024" y1="0" x2="24.1024" y2="48.2049" gradientUnits="userSpaceOnUse">
<stop offset="1" stop-color="#FABA00"/>
</linearGradient>
</defs>
</svg>

