<svg width="421" height="431" viewBox="0 0 421 431" fill="none" xmlns="http://www.w3.org/2000/svg">
<path d="M99.8496 175.246L251.405 247.313L188.888 428.198C188.888 428.198 269.058 394.821 277.358 386.482L414.502 248.701C421.609 241.562 414.827 223.327 402.961 217.667L251.405 145.919V28.3719C251.405 14.2411 236.457 0.476154 227.604 4.86775C226.022 5.6525 224.643 6.82842 223.058 7.60714L143.927 46.4851L89.3634 142.358C88.6629 143.589 87.732 144.68 87.0012 145.893C82.1905 153.878 88.8258 169.988 99.8496 175.246Z" fill="url(#paint0_linear)"/>
<path fill-rule="evenodd" clip-rule="evenodd" d="M253.489 246.44L191.71 425.19C193.915 424.262 197.072 422.929 200.884 421.304C208.525 418.047 218.797 413.618 229.326 408.929C239.858 404.239 250.633 399.296 259.286 395.01C263.613 392.866 267.392 390.895 270.337 389.208C273.34 387.487 275.309 386.154 276.165 385.294L413.309 247.513C416.15 244.658 416.484 239.176 414.268 233.216C412.092 227.364 407.685 221.786 402.236 219.187L249.721 146.985V28.3719C249.721 21.8683 246.254 15.3087 241.657 10.8875C239.37 8.68761 236.878 7.09251 234.519 6.29576C232.162 5.50002 230.054 5.53185 228.352 6.3762C227.67 6.71428 227.017 7.14426 226.26 7.64445L226.237 7.65969C225.517 8.13613 224.696 8.6787 223.801 9.11844L145.135 47.768L90.8268 143.191C90.4291 143.89 89.9745 144.534 89.5653 145.109L89.4884 145.217C89.0959 145.768 88.7486 146.255 88.4435 146.762C86.4473 150.075 86.6899 155.456 89.0352 160.929C91.3513 166.333 95.5174 171.314 100.574 173.727L253.489 246.44ZM99.8496 175.246L251.405 247.313L188.888 428.198C188.888 428.198 189.628 427.891 190.971 427.327C203.621 422.02 269.855 394.021 277.358 386.482L414.502 248.701C421.609 241.562 414.827 223.327 402.961 217.667L251.405 145.919V28.3719C251.405 14.2411 236.457 0.476154 227.604 4.86775C226.819 5.25716 226.084 5.7429 225.349 6.22862C224.603 6.72174 223.857 7.21484 223.058 7.60714L143.927 46.4851L89.3634 142.358C88.9888 143.016 88.5483 143.635 88.1077 144.253C87.7245 144.791 87.3412 145.328 87.0012 145.893C82.1905 153.878 88.8258 169.988 99.8496 175.246Z" fill="#FDC007"/>
<g filter="url(#filter0_ii)">
<path d="M15.3402 216.126L166.896 288.193V405.421C166.896 420.777 184.549 435.701 192.849 427.362L329.993 289.58C337.099 282.441 330.318 264.206 318.451 258.546L166.896 186.799V69.2514C166.896 53.8954 149.243 38.9716 140.943 47.3104L3.79873 185.092C-3.30755 192.231 3.47392 210.466 15.3402 216.126Z" fill="url(#paint1_linear)"/>
</g>
<g filter="url(#filter1_ii)">
<path fill-rule="evenodd" clip-rule="evenodd" d="M168.58 287.129V405.421C168.58 412.496 172.684 419.627 177.847 423.991C180.417 426.164 183.13 427.547 185.567 427.95C187.948 428.343 190.028 427.809 191.655 426.174L328.799 288.392C331.641 285.538 331.975 280.055 329.759 274.096C327.582 268.243 323.175 262.665 317.727 260.066L165.212 187.864V69.2514C165.212 62.176 161.107 55.0456 155.945 50.6813C153.374 48.5081 150.661 47.1253 148.225 46.7226C145.844 46.3291 143.763 46.8636 142.136 48.4983L4.99214 186.28C2.15077 189.134 1.81653 194.617 4.033 200.577C6.20941 206.429 10.6164 212.007 16.0651 214.606L168.58 287.129ZM15.3402 216.126L166.896 288.193V405.421C166.896 420.777 184.549 435.701 192.849 427.362L329.993 289.58C337.099 282.441 330.318 264.206 318.451 258.546L166.896 186.799V69.2514C166.896 53.8954 149.243 38.9716 140.943 47.3104L3.79873 185.092C-3.30755 192.231 3.47392 210.466 15.3402 216.126Z" fill="#FDC007"/>
</g>
<path fill-rule="evenodd" clip-rule="evenodd" d="M168.58 287.129V405.421C168.58 412.496 172.684 419.627 177.847 423.991C180.417 426.164 183.13 427.547 185.567 427.95C187.948 428.343 190.028 427.809 191.655 426.174L328.799 288.392C331.641 285.538 331.975 280.055 329.759 274.096C327.582 268.243 323.175 262.665 317.727 260.066L165.212 187.864V69.2514C165.212 62.176 161.107 55.0456 155.945 50.6813C153.374 48.5081 150.661 47.1253 148.225 46.7226C145.844 46.3291 143.763 46.8636 142.136 48.4983L4.99214 186.28C2.15077 189.134 1.81653 194.617 4.033 200.577C6.20942 206.429 10.6164 212.007 16.0651 214.606L168.58 287.129ZM15.3402 216.126L166.896 288.193V405.421C166.896 420.777 184.549 435.701 192.849 427.362L329.993 289.58C337.099 282.441 330.318 264.206 318.451 258.546L166.896 186.799V69.2514C166.896 53.8954 149.243 38.9716 140.943 47.3104L3.79873 185.092C-3.30755 192.231 3.47392 210.466 15.3402 216.126Z" fill="#FDC007"/>
<g opacity="0.3" filter="url(#filter2_f)">
<path d="M251.645 366.91V246.63L100.887 173.132C95.1332 170.327 90.6677 165.431 88.4024 159.444L87.7227 157.648C87.0975 155.995 86.7771 154.243 86.7771 152.476C86.7771 148.538 88.3671 144.766 91.1868 142.015L161.482 73.4513L165.758 67.0313L164.426 61.6745L157.434 50.2663L144.554 45.8503L136.09 55.0509L41.5873 148.559L6.46213 184.342C3.7034 187.153 2.15784 190.933 2.15784 194.872C2.15784 197.623 2.91281 200.321 4.3405 202.672L6.20058 205.736C9.02889 210.394 13.1622 214.12 18.0882 216.452L167.889 287.353V404.904V413.091L174.187 421.697L181.534 427.785L188.671 429.464L194.128 425.476L251.645 366.91Z" fill="url(#paint2_linear)"/>
</g>
<g filter="url(#filter3_f)">
<path fill-rule="evenodd" clip-rule="evenodd" d="M253.089 246.122V364.414C253.089 371.49 257.194 378.62 262.356 382.985C264.927 385.158 267.64 386.54 270.076 386.943C272.457 387.337 274.538 386.802 276.165 385.167L413.309 247.386C416.15 244.531 416.484 239.049 414.268 233.089C412.092 227.237 407.685 221.659 402.236 219.06L249.721 146.858V28.2449C249.721 21.1695 245.617 14.0392 240.454 9.67479C237.884 7.50162 235.171 6.1188 232.734 5.71617C230.353 5.32266 228.273 5.85715 226.646 7.49185L89.5015 145.273C86.6601 148.128 86.3259 153.61 88.5423 159.57C90.7188 165.422 95.1258 171.001 100.574 173.6L253.089 246.122ZM99.8496 175.119L251.405 247.186V364.414C251.405 379.77 269.058 394.694 277.358 386.355L414.502 248.574C421.609 241.435 414.827 223.2 402.961 217.54L251.405 145.792V28.2449C251.405 12.889 233.752 -2.03486 225.452 6.30395L88.3081 144.085C81.2018 151.225 87.9833 169.459 99.8496 175.119Z" fill="url(#paint3_linear)"/>
</g>
<path fill-rule="evenodd" clip-rule="evenodd" d="M275.633 387.811L190.908 428.815L190.174 427.299L274.899 386.295L275.633 387.811Z" fill="#FDC007"/>
<path fill-rule="evenodd" clip-rule="evenodd" d="M251.987 146.496L167.262 187.5L166.529 185.984L251.254 144.981L251.987 146.496Z" fill="#FDC007"/>
<g filter="url(#filter4_f)">
<path fill-rule="evenodd" clip-rule="evenodd" d="M251.772 247.881L167.047 288.885L166.313 287.369L251.038 246.366L251.772 247.881Z" fill="url(#paint4_linear)"/>
</g>
<path d="M143.786 46.3857L228.511 5.38184" stroke="#FDC007" stroke-width="1.68385"/>
<defs>
<filter id="filter0_ii" x="0.902588" y="39.1736" width="331.986" height="396.325" filterUnits="userSpaceOnUse" color-interpolation-filters="sRGB">
<feFlood flood-opacity="0" result="BackgroundImageFix"/>
<feBlend mode="normal" in="SourceGraphic" in2="BackgroundImageFix" result="shape"/>
<feColorMatrix in="SourceAlpha" type="matrix" values="0 0 0 0 0 0 0 0 0 0 0 0 0 0 0 0 0 0 127 0" result="hardAlpha"/>
<feOffset dy="-5.74232"/>
<feGaussianBlur stdDeviation="8.61349"/>
<feComposite in2="hardAlpha" operator="arithmetic" k2="-1" k3="1"/>
<feColorMatrix type="matrix" values="0 0 0 0 1 0 0 0 0 1 0 0 0 0 1 0 0 0 0.96 0"/>
<feBlend mode="overlay" in2="shape" result="effect1_innerShadow"/>
<feColorMatrix in="SourceAlpha" type="matrix" values="0 0 0 0 0 0 0 0 0 0 0 0 0 0 0 0 0 0 127 0" result="hardAlpha"/>
<feOffset dy="5.74232"/>
<feGaussianBlur stdDeviation="5.02453"/>
<feComposite in2="hardAlpha" operator="arithmetic" k2="-1" k3="1"/>
<feColorMatrix type="matrix" values="0 0 0 0 0.975 0 0 0 0 0.902344 0 0 0 0 0.47125 0 0 0 1 0"/>
<feBlend mode="normal" in2="effect1_innerShadow" result="effect2_innerShadow"/>
</filter>
<filter id="filter1_ii" x="0.902588" y="39.1736" width="331.986" height="396.325" filterUnits="userSpaceOnUse" color-interpolation-filters="sRGB">
<feFlood flood-opacity="0" result="BackgroundImageFix"/>
<feBlend mode="normal" in="SourceGraphic" in2="BackgroundImageFix" result="shape"/>
<feColorMatrix in="SourceAlpha" type="matrix" values="0 0 0 0 0 0 0 0 0 0 0 0 0 0 0 0 0 0 127 0" result="hardAlpha"/>
<feOffset dy="-5.74232"/>
<feGaussianBlur stdDeviation="8.61349"/>
<feComposite in2="hardAlpha" operator="arithmetic" k2="-1" k3="1"/>
<feColorMatrix type="matrix" values="0 0 0 0 1 0 0 0 0 1 0 0 0 0 1 0 0 0 0.96 0"/>
<feBlend mode="overlay" in2="shape" result="effect1_innerShadow"/>
<feColorMatrix in="SourceAlpha" type="matrix" values="0 0 0 0 0 0 0 0 0 0 0 0 0 0 0 0 0 0 127 0" result="hardAlpha"/>
<feOffset dy="5.74232"/>
<feGaussianBlur stdDeviation="5.02453"/>
<feComposite in2="hardAlpha" operator="arithmetic" k2="-1" k3="1"/>
<feColorMatrix type="matrix" values="0 0 0 0 0.975 0 0 0 0 0.902344 0 0 0 0 0.47125 0 0 0 1 0"/>
<feBlend mode="normal" in2="effect1_innerShadow" result="effect2_innerShadow"/>
</filter>
<filter id="filter2_f" x="0.810758" y="44.5032" width="252.181" height="386.308" filterUnits="userSpaceOnUse" color-interpolation-filters="sRGB">
<feFlood flood-opacity="0" result="BackgroundImageFix"/>
<feBlend mode="normal" in="SourceGraphic" in2="BackgroundImageFix" result="shape"/>
<feGaussianBlur stdDeviation="0.673539" result="effect1_foregroundBlur"/>
</filter>
<filter id="filter3_f" x="82.0442" y="0.541728" width="338.722" height="391.576" filterUnits="userSpaceOnUse" color-interpolation-filters="sRGB">
<feFlood flood-opacity="0" result="BackgroundImageFix"/>
<feBlend mode="normal" in="SourceGraphic" in2="BackgroundImageFix" result="shape"/>
<feGaussianBlur stdDeviation="1.68385" result="effect1_foregroundBlur"/>
</filter>
<filter id="filter4_f" x="162.946" y="242.998" width="92.1938" height="49.255" filterUnits="userSpaceOnUse" color-interpolation-filters="sRGB">
<feFlood flood-opacity="0" result="BackgroundImageFix"/>
<feBlend mode="normal" in="SourceGraphic" in2="BackgroundImageFix" result="shape"/>
<feGaussianBlur stdDeviation="1.68385" result="effect1_foregroundBlur"/>
</filter>
<linearGradient id="paint0_linear" x1="94.846" y1="116.265" x2="251.405" y2="440.364" gradientUnits="userSpaceOnUse">
<stop offset="0.0726388" stop-color="#FDC007"/>
<stop offset="0.352497" stop-color="#FFE051"/>
<stop offset="0.638412" stop-color="#F4D040"/>
<stop offset="0.805669" stop-color="#FEC107"/>
<stop offset="0.955602" stop-color="#D9A812"/>
</linearGradient>
<linearGradient id="paint1_linear" x1="262.79" y1="-135.45" x2="162.299" y2="429.705" gradientUnits="userSpaceOnUse">
<stop stop-color="#FFFAC0"/>
<stop offset="1" stop-color="#FFDD47"/>
</linearGradient>
<linearGradient id="paint2_linear" x1="211.28" y1="248.343" x2="110.696" y2="91.3182" gradientUnits="userSpaceOnUse">
<stop stop-color="#FCC617"/>
<stop offset="0.517023" stop-color="#FFEBA9"/>
<stop offset="0.694168" stop-color="#FEDD73"/>
<stop offset="0.785854" stop-color="#F4BA0A"/>
</linearGradient>
<linearGradient id="paint3_linear" x1="119.168" y1="222.879" x2="146.869" y2="83.4233" gradientUnits="userSpaceOnUse">
<stop stop-color="#FDC007"/>
<stop offset="1" stop-color="#FDC007" stop-opacity="0"/>
</linearGradient>
<linearGradient id="paint4_linear" x1="231.879" y1="241.028" x2="178.389" y2="282.578" gradientUnits="userSpaceOnUse">
<stop stop-color="#FDC007"/>
<stop offset="1" stop-color="#FDC007" stop-opacity="0"/>
</linearGradient>
</defs>
</svg>
