<svg width="1223" height="790" viewBox="0 0 1223 790" fill="none" xmlns="http://www.w3.org/2000/svg">
<path opacity="0.3" d="M1079.05 540.49C1079.05 568.37 1065.21 595.303 1039.38 620.192C1013.55 645.092 975.961 667.694 929.199 686.757C835.693 724.876 706.248 748.542 563.069 748.542C419.89 748.542 290.446 724.876 196.94 686.757C150.177 667.694 112.591 645.092 86.7565 620.192C60.9333 595.303 47.0892 568.37 47.0892 540.49C47.0892 512.609 60.9333 485.676 86.7565 460.787C112.591 435.887 150.177 413.285 196.94 394.222C290.446 356.103 419.89 332.437 563.069 332.437C706.248 332.437 835.693 356.103 929.199 394.222C975.961 413.285 1013.55 435.887 1039.38 460.787C1065.21 485.676 1079.05 512.609 1079.05 540.49Z" stroke="#DBE3EC" stroke-width="7.7457"/>
<path opacity="0.2" d="M958.859 540.49C958.859 581.586 921.172 619.093 859.117 647.581M563.069 379.14C497.362 379.14 435.395 385.668 380.856 397.219M282.044 654.107C211.102 624.947 167.279 584.805 167.279 540.49C167.279 511.437 186.115 484.178 219.08 460.63M406.252 688.679C454.337 697.147 507.359 701.839 563.069 701.839C621.678 701.839 677.312 696.646 727.352 687.327M680.56 386.368C758.951 396.289 826.905 415.875 876.039 441.708" stroke="#B3BCC6" stroke-width="7.7457"/>
<g filter="url(#filter0_f)">
<ellipse cx="563.066" cy="523.119" rx="143.415" ry="49.5637" fill="#FFEB7F"/>
</g>
<g filter="url(#filter1_f)">
<ellipse cx="563.144" cy="523.384" rx="80.3339" ry="28.1768" fill="#FFEB7F" fill-opacity="0.5"/>
</g>
<path opacity="0.1" d="M549.984 298.424L418.369 363.671L342.132 322.075L473.531 256.829L549.984 298.424Z" fill="url(#paint0_linear)"/>
<path fill-rule="evenodd" clip-rule="evenodd" d="M399.298 335.327L357.628 352.455V300.767L399.297 280.91V280.909L399.298 280.91L399.299 280.909V280.91L440.968 300.767V352.455L399.298 335.327Z" fill="url(#paint1_linear)"/>
<path d="M357.628 300.766L399.299 320.623V372.312L357.628 352.455V300.766Z" fill="url(#paint2_linear)"/>
<path d="M440.971 300.766L399.3 320.623V372.312L440.971 352.455V300.766Z" fill="url(#paint3_linear)"/>
<path d="M189.559 334.767L203.119 341.105L203.561 327.741L189.559 334.767Z" fill="#F4F6F9"/>
<path d="M385.058 365.009L361.192 376.2L357.424 364.324V300.604L399.447 280.962L419.99 290.54L377.978 310.424V321.361L385.926 325.05L385.058 365.009Z" fill="url(#paint4_linear)"/>
<path d="M188.081 336.845L183.649 334.818L228.4 313.459L233.082 315.292L188.081 336.845Z" fill="#FDFDFE"/>
<path d="M366.618 325.656L353.058 331.994L352.616 318.63L366.618 325.656Z" fill="#DBE2EB"/>
<path d="M368.194 328.019L372.627 325.992L328.131 304.559L323.449 306.392L368.194 328.019Z" fill="#E5EBF1"/>
<path fill-rule="evenodd" clip-rule="evenodd" d="M272.827 344.167L353.784 377.444V262.743C353.784 260.705 352.612 258.849 350.773 257.972L276.606 222.63C275.773 222.233 274.877 222.313 274.168 222.716L269.476 224.891L272.827 227.083V344.167Z" fill="url(#paint5_linear)"/>
<path d="M348.92 379.72L310.459 386.284L267.963 346.443V227.292C267.963 225.349 269.989 224.071 271.742 224.906L345.909 260.249C347.749 261.125 348.92 262.982 348.92 265.02V379.72Z" fill="url(#paint6_linear)"/>
<mask id="mask0" mask-type="alpha" maskUnits="userSpaceOnUse" x="267" y="224" width="82" height="163">
<path d="M348.921 379.72L310.459 386.284L267.963 346.443V227.292C267.963 225.349 269.989 224.071 271.742 224.906L345.909 260.249C347.749 261.125 348.921 262.982 348.921 265.02V379.72Z" fill="url(#paint7_linear)"/>
</mask>
<g mask="url(#mask0)">
<g opacity="0.3" filter="url(#filter2_f)">
<path d="M336.924 384.835L296.912 393.353L248.089 349.186V225.849L333.851 265.382C335.724 266.245 336.924 268.119 336.924 270.182V384.835Z" fill="#FB4059"/>
</g>
</g>
<path d="M244.326 357.489L325.284 390.766V276.065C325.284 274.027 324.112 272.171 322.272 271.294L248.973 236.356C248.068 235.925 247.091 236.056 246.357 236.551L238.361 240.397L244.326 244.558V357.489Z" fill="url(#paint8_linear)" stroke="url(#paint9_linear)" stroke-width="1.43791"/>
<g filter="url(#filter3_i)">
<path d="M316.555 395.023L276.543 403.541L235.597 361.745V242.594C235.597 240.652 237.623 239.373 239.377 240.209L313.543 275.551C315.383 276.428 316.555 278.284 316.555 280.322V395.023Z" fill="url(#paint10_linear)"/>
</g>
<path d="M236.316 361.452V242.594C236.316 241.18 237.791 240.249 239.067 240.858L313.234 276.2C314.823 276.958 315.836 278.561 315.836 280.322V394.441L276.78 402.756L236.316 361.452Z" stroke="url(#paint11_linear)" stroke-width="1.43791"/>
<g opacity="0.78" filter="url(#filter4_f)">
<path d="M248.068 272.785L247.84 239.617C247.828 237.933 249.57 236.808 251.1 237.511L255.548 239.552" stroke="url(#paint12_linear)" stroke-width="1.43791"/>
</g>
<g filter="url(#filter5_i)">
<path fill-rule="evenodd" clip-rule="evenodd" d="M207.274 375.766L288.231 409.043V294.342C288.231 292.304 287.059 290.448 285.22 289.571L211.053 254.229C210.222 253.833 209.329 253.912 208.621 254.311L203.923 256.489L207.274 258.682V375.766Z" fill="url(#paint13_linear)"/>
</g>
<path d="M283.368 411.318L202.411 378.041V258.89C202.411 256.947 204.436 255.669 206.19 256.504L280.357 291.847C282.196 292.724 283.368 294.58 283.368 296.618V411.318Z" fill="url(#paint14_linear)"/>
<path d="M272.354 373.973L272.424 374.006L269.268 375.791L183.649 334.776L187.878 332.821L267.138 369.985C268.261 370.511 269.56 370.51 270.681 369.98L368.411 323.798L372.597 325.967L272.354 373.973Z" fill="url(#paint15_linear)"/>
<path d="M265.946 374.027C267.906 374.963 270.184 374.962 272.143 374.025L372.586 325.975V368.508C372.586 369.818 371.833 371.012 370.651 371.578L272.143 418.702C270.184 419.639 267.906 419.64 265.946 418.704L185.546 380.31C184.362 379.744 183.609 378.55 183.609 377.238V334.707L265.946 374.027Z" fill="url(#paint16_linear)"/>
<path d="M265.946 374.027C267.906 374.963 270.184 374.962 272.143 374.025L372.586 325.975V368.508C372.586 369.818 371.833 371.012 370.651 371.578L272.143 418.702C270.184 419.639 267.906 419.64 265.946 418.704L185.546 380.31C184.362 379.744 183.609 378.55 183.609 377.238V334.707L265.946 374.027Z" fill="url(#paint17_linear)"/>
<path d="M212.683 270.985L268.899 297.829V302.127L212.683 275.283V270.985Z" fill="#F1F4F8"/>
<path opacity="0.3" d="M212.683 284.336L257.012 305.504V309.802L212.683 288.634V284.336Z" fill="#F1F4F8"/>
<path opacity="0.4" d="M212.683 297.688L240.791 311.11V315.408L212.683 301.986V297.688Z" fill="#F1F4F8"/>
<path opacity="0.4" d="M212.683 311.039L268.899 337.883V342.182L212.683 315.337V311.039Z" fill="#F1F4F8"/>
<path opacity="0.6" d="M212.683 324.392L268.899 351.236V355.534L212.683 328.69V324.392Z" fill="#F1F4F8"/>
<ellipse cx="290.603" cy="657.298" rx="20.3046" ry="8.27748" fill="#F0F2F4"/>
<ellipse cx="220.018" cy="458.736" rx="20.3046" ry="8.27748" fill="#F0F2F4"/>
<ellipse cx="570.289" cy="378.662" rx="20.3046" ry="8.27748" fill="#F8F9FB"/>
<ellipse cx="684.19" cy="387.92" rx="20.3046" ry="8.27748" fill="#F0F2F4"/>
<ellipse cx="877.957" cy="443.846" rx="20.3046" ry="8.27748" fill="#F0F2F4"/>
<ellipse cx="857.654" cy="650.839" rx="20.3046" ry="8.27748" fill="#F0F2F4"/>
<ellipse cx="736.5" cy="685.442" rx="20.3046" ry="8.27748" fill="#F0F2F4"/>
<ellipse cx="391.936" cy="686.618" rx="20.3046" ry="8.27748" fill="#F0F2F4"/>
<ellipse cx="379.416" cy="399.226" rx="20.3046" ry="8.27748" fill="#F0F2F4"/>
<path opacity="0.1" d="M715.829 725.064L613.706 779.154L544.076 744.875L645.931 690.785L715.829 725.064Z" fill="black"/>
<path opacity="0.1" d="M857.651 682.69L693.491 764.071L598.401 712.19L762.294 630.809L857.651 682.69Z" fill="url(#paint18_linear)"/>
<circle cx="668.869" cy="719.852" r="50.8502" fill="url(#paint19_radial)"/>
<circle cx="668.869" cy="719.852" r="50.8502" fill="url(#paint20_linear)"/>
<path opacity="0.1" fill-rule="evenodd" clip-rule="evenodd" d="M661.953 669.468C644.325 698.402 640.984 721.253 643.6 763.99C628.314 755.22 618.018 738.739 618.018 719.852C618.018 694.114 637.14 672.842 661.953 669.468Z" fill="url(#paint21_linear)"/>
<path fill-rule="evenodd" clip-rule="evenodd" d="M636.19 624.928H472.696V756.343C472.695 756.426 472.694 756.509 472.694 756.592C472.694 756.676 472.695 756.759 472.696 756.842V757.559H472.729C474.013 775.107 510.105 789.175 554.441 789.175C598.777 789.175 634.869 775.107 636.152 757.559H636.19V624.928Z" fill="url(#paint22_linear)"/>
<path fill-rule="evenodd" clip-rule="evenodd" d="M636.19 624.928H472.696V756.343C472.695 756.426 472.694 756.509 472.694 756.592C472.694 756.676 472.695 756.759 472.696 756.842V757.559H472.729C474.013 775.107 510.105 789.175 554.441 789.175C598.777 789.175 634.869 775.107 636.152 757.559H636.19V624.928Z" fill="url(#paint23_radial)"/>
<ellipse cx="554.441" cy="624.928" rx="81.7466" ry="32.5825" fill="url(#paint24_linear)"/>
<mask id="mask1" mask-type="alpha" maskUnits="userSpaceOnUse" x="472" y="624" width="165" height="166">
<path fill-rule="evenodd" clip-rule="evenodd" d="M636.19 624.928H472.696V756.343C472.695 756.426 472.694 756.509 472.694 756.592C472.694 756.676 472.695 756.759 472.696 756.842V757.559H472.729C474.013 775.107 510.105 789.175 554.441 789.175C598.777 789.175 634.869 775.107 636.152 757.559H636.19V624.928Z" fill="url(#paint25_linear)"/>
</mask>
<g mask="url(#mask1)">
<path d="M476.239 677.162L472.469 671.238L469.938 715.99L472.792 719.113L480.87 727.945L491.856 734.569L507.312 740.116L522.283 743.509L542.478 745.286H566.388L592.938 741.624L606.939 738.554L621.157 731.715L628.373 727.137L633.758 722.56L637.043 718.467L637.689 670.592L633.974 675.223L624.657 683.84L607.586 691.325C601.411 692.833 589.006 695.87 588.791 695.956C588.576 696.043 575.418 697.608 568.865 698.38L550.232 699.242L532.676 697.734L511.404 694.018L494.064 689.009L476.239 677.162Z" fill="url(#paint26_linear)"/>
<path d="M476.239 677.162L472.469 671.238L469.938 715.99L472.792 719.113L480.87 727.945L491.856 734.569L507.312 740.116L522.283 743.509L542.478 745.286H566.388L592.938 741.624L606.939 738.554L621.157 731.715L628.373 727.137L633.758 722.56L637.043 718.467L637.689 670.592L633.974 675.223L624.657 683.84L607.586 691.325C601.411 692.833 589.006 695.87 588.791 695.956C588.576 696.043 575.418 697.608 568.865 698.38L550.232 699.242L532.676 697.734L511.404 694.018L494.064 689.009L476.239 677.162Z" fill="url(#paint27_linear)"/>
<g filter="url(#filter6_f)">
<path d="M637.262 712.242C637.262 703.301 627.96 695.2 613.06 689.313M471.617 712.242C471.617 703.339 480.839 695.27 495.625 689.39" stroke="url(#paint28_linear)" stroke-width="2.00864"/>
</g>
<path d="M637.262 666.368C637.262 684.363 599.587 698.951 554.44 698.951C509.292 698.951 471.617 684.363 471.617 666.368" stroke="#3AC43F" stroke-width="2.00864"/>
<path d="M637.262 712.999C637.262 730.993 599.587 745.581 554.44 745.581C509.292 745.581 471.617 730.993 471.617 712.999" stroke="#3AC43F" stroke-width="2.00864"/>
</g>
<g opacity="0.6" filter="url(#filter7_f)">
<path d="M476.956 676.445L473.186 670.521L470.655 715.273L473.509 718.396L481.587 727.228L492.573 733.852L508.029 739.399L523 742.792L543.195 744.569H567.106L593.655 740.907L607.657 737.837L621.874 730.998L629.09 726.42L634.475 721.843L637.76 717.75L638.407 669.875L634.691 674.506L625.374 683.123L608.303 690.608C602.128 692.116 589.724 695.153 589.508 695.239C589.293 695.326 576.135 696.891 569.583 697.663L550.95 698.524L533.394 697.017L512.122 693.301L494.781 688.292L476.956 676.445Z" fill="url(#paint29_linear)"/>
</g>
<path opacity="0.3" d="M635.177 673.584L635.275 719.852" stroke="#3BC740" stroke-width="2.00864"/>
<g filter="url(#filter8_i)">
<path d="M551.776 601.778C552.775 600.814 554.442 601.522 554.442 602.91V631.008H525.372C523.956 631.008 523.261 629.285 524.279 628.302L551.776 601.778Z" fill="url(#paint30_linear)"/>
<path d="M557.107 648.079C556.108 649.042 554.442 648.334 554.442 646.946V618.849H583.512C584.927 618.849 585.622 620.571 584.604 621.554L557.107 648.079Z" fill="url(#paint31_linear)"/>
</g>
<path opacity="0.1" d="M333.753 526.326L203.044 591.123L127.33 549.814L257.826 485.016L333.753 526.326Z" fill="url(#paint32_linear)"/>
<path fill-rule="evenodd" clip-rule="evenodd" d="M169.913 563.479L120.443 583.813V522.452L169.913 498.878V563.479ZM169.914 563.479L219.383 583.813V522.452L169.914 498.878V563.479Z" fill="url(#paint33_linear)"/>
<path d="M120.443 522.451L169.913 546.024V607.386L120.443 583.812V522.451Z" fill="url(#paint34_linear)"/>
<path d="M219.383 522.451L169.914 546.024V607.386L219.383 583.812V522.451Z" fill="url(#paint35_linear)"/>
<path opacity="0.1" d="M151.182 602.633L99.6804 628.506L102.067 623.07L100.63 610.296L138.126 597.219L139.717 513.169L169.892 498.881L204.411 515.29L155.625 539.683V595.428C155.625 598.477 153.906 601.264 151.182 602.633Z" fill="url(#paint36_linear)"/>
<path d="M169.912 498.879L120.444 522.452L120.443 522.451V583.814L120.444 583.814L169.912 607.386L169.913 607.387L219.38 583.814L219.382 583.814V522.451L219.38 522.452L169.913 498.879H169.912Z" fill="url(#paint37_radial)" fill-opacity="0.6" style="mix-blend-mode:multiply"/>
<path fill-rule="evenodd" clip-rule="evenodd" d="M45.1611 426.122C43.7268 427.731 42.8283 429.863 42.8283 432.292V560.172C42.8283 563.713 44.8385 566.947 48.0138 568.514L129.347 608.659C130.42 609.189 131.523 609.491 132.616 609.593L131.355 612.31L137.644 609.342L135.335 609.438C139.421 608.587 142.768 605.006 142.768 600.317V472.438C142.768 468.897 140.758 465.663 137.583 464.095L56.2493 423.95C53.2497 422.469 50.0017 422.766 47.4523 424.251L47.8924 423.303L41.6035 426.271L45.1611 426.122Z" fill="url(#paint38_linear)"/>
<path d="M36.7861 435.151C36.7861 428.256 44.0243 423.757 50.2071 426.809L131.541 466.954C134.716 468.521 136.726 471.756 136.726 475.297V603.176C136.726 610.071 129.488 614.57 123.305 611.518L41.9717 571.373C38.7964 569.805 36.7861 566.571 36.7861 563.03V435.151Z" fill="url(#paint39_linear)"/>
<g opacity="0.6" filter="url(#filter9_f)">
<path d="M43.2078 433.121L24.2644 442.409L106.465 615.627L126.745 606.494C128.636 605.642 129.852 603.761 129.852 601.687V478.027C129.852 475.679 128.527 473.533 126.428 472.481L47.8896 433.141C46.4177 432.404 44.6859 432.397 43.2078 433.121Z" fill="url(#paint40_linear)"/>
</g>
<path d="M43.2078 433.121L24.2644 442.409L106.465 615.627L126.745 606.494C128.636 605.642 129.852 603.761 129.852 601.687V478.027C129.852 475.679 128.527 473.533 126.428 472.481L47.8896 433.141C46.4177 432.404 44.6859 432.397 43.2078 433.121Z" fill="url(#paint41_linear)"/>
<mask id="mask2" mask-type="alpha" maskUnits="userSpaceOnUse" x="24" y="432" width="106" height="184">
<path d="M43.2078 433.121L24.2644 442.409L106.465 615.627L126.745 606.494C128.636 605.642 129.852 603.761 129.852 601.687V478.027C129.852 475.679 128.527 473.533 126.428 472.481L47.8896 433.141C46.4177 432.404 44.6859 432.397 43.2078 433.121Z" fill="url(#paint42_linear)"/>
</mask>
<g mask="url(#mask2)">
<path d="M45.5381 436.439V453.336L25.2217 442.459L44.3753 433.224L47.6588 434.319C46.4876 434.319 45.5381 435.268 45.5381 436.439Z" fill="url(#paint43_linear)"/>
<g filter="url(#filter10_f)">
<path d="M45.7126 454.201V437.176C45.7126 435.358 47.6039 434.158 49.2492 434.931L55.2048 437.732" stroke="#11BBFA" stroke-width="1.55054"/>
</g>
<g opacity="0.34" filter="url(#filter11_f)">
<path d="M129.31 597.924V599.66C129.31 602.248 126.54 603.894 124.267 602.656L105.186 592.267" stroke="#1289F6" stroke-width="1.55054"/>
</g>
<path d="M106.84 614.608L25.293 442.768L43.5491 433.817C44.8098 433.199 46.2869 433.206 47.5424 433.834L126.08 473.174C127.917 474.094 129.077 475.972 129.077 478.027V601.687C129.077 603.456 128.04 605.061 126.427 605.787L106.84 614.608Z" stroke="url(#paint44_linear)" stroke-width="1.55054"/>
</g>
<g opacity="0.2">
<mask id="mask3" mask-type="alpha" maskUnits="userSpaceOnUse" x="24" y="432" width="106" height="184">
<path d="M43.2078 433.121L24.2644 442.409L106.465 615.627L126.745 606.494C128.636 605.642 129.852 603.761 129.852 601.687V478.027C129.852 475.679 128.527 473.533 126.428 472.481L47.8896 433.141C46.4177 432.404 44.6859 432.397 43.2078 433.121Z" fill="url(#paint45_linear)"/>
</mask>
<g mask="url(#mask3)">
<g style="mix-blend-mode:overlay" filter="url(#filter12_f)">
<path d="M113.318 474.486L34.1594 434.576L16.8496 440.267L20.6436 448.092L66.1708 559.539L100.079 618.108L119.286 613.128V484.178C119.286 480.08 116.978 476.331 113.318 474.486Z" fill="black"/>
</g>
</g>
</g>
<path fill-rule="evenodd" clip-rule="evenodd" d="M12.2351 442.401C10.8008 444.01 9.90226 446.142 9.90226 448.571V576.45C9.90226 579.991 11.9125 583.225 15.0878 584.793L96.4214 624.938C97.4936 625.467 98.5974 625.77 99.6898 625.871L98.4291 628.589L104.718 625.621L102.409 625.717C106.495 624.866 109.842 621.285 109.842 616.596V488.717C109.842 485.176 107.832 481.942 104.657 480.374L23.3232 440.229C20.3236 438.748 17.0757 439.045 14.5263 440.53L14.9664 439.582L8.67749 442.55L12.2351 442.401Z" fill="url(#paint46_linear)"/>
<path d="M3.86255 451.43C3.86255 444.535 11.1007 440.036 17.2835 443.088L98.6171 483.233C101.792 484.801 103.803 488.035 103.803 491.576V619.455C103.803 626.35 96.5645 630.849 90.3817 627.797L9.0481 587.652C5.87279 586.084 3.86255 582.85 3.86255 579.309V451.43Z" fill="url(#paint47_linear)"/>
<g filter="url(#filter13_i)">
<path d="M113.08 507.443C113.08 506.629 113.543 505.886 114.273 505.528L124.733 500.389C126.151 499.693 127.807 500.725 127.807 502.304V502.304C127.807 503.118 127.344 503.861 126.614 504.219L116.154 509.357C114.737 510.054 113.08 509.022 113.08 507.443V507.443Z" fill="url(#paint48_linear)"/>
</g>
<g filter="url(#filter14_i)">
<path d="M113.08 515.738C113.08 514.925 113.543 514.182 114.273 513.824L124.733 508.685C126.151 507.989 127.807 509.021 127.807 510.6V510.6C127.807 511.414 127.344 512.156 126.614 512.515L116.154 517.653C114.737 518.35 113.08 517.318 113.08 515.738V515.738Z" fill="url(#paint49_linear)"/>
</g>
<g filter="url(#filter15_i)">
<path d="M113.08 524.034C113.08 523.221 113.543 522.478 114.273 522.119L124.733 516.981C126.151 516.285 127.807 517.317 127.807 518.896V518.896C127.807 519.71 127.344 520.452 126.614 520.811L116.154 525.949C114.737 526.646 113.08 525.614 113.08 524.034V524.034Z" fill="url(#paint50_linear)"/>
</g>
<g filter="url(#filter16_i)">
<path d="M113.08 532.331C113.08 531.517 113.543 530.775 114.273 530.416L124.733 525.278C126.151 524.582 127.807 525.613 127.807 527.193V527.193C127.807 528.006 127.344 528.749 126.614 529.108L116.154 534.246C114.737 534.942 113.08 533.91 113.08 532.331V532.331Z" fill="url(#paint51_linear)"/>
</g>
<g filter="url(#filter17_i)">
<path d="M113.08 540.627C113.08 539.813 113.543 539.071 114.273 538.712L124.733 533.574C126.151 532.877 127.807 533.909 127.807 535.489V535.489C127.807 536.302 127.344 537.045 126.614 537.404L116.154 542.542C114.737 543.238 113.08 542.206 113.08 540.627V540.627Z" fill="url(#paint52_linear)"/>
</g>
<g filter="url(#filter18_i)">
<path d="M113.08 548.923C113.08 548.11 113.543 547.367 114.273 547.008L124.733 541.87C126.151 541.174 127.807 542.206 127.807 543.785V543.785C127.807 544.599 127.344 545.341 126.614 545.7L116.154 550.838C114.737 551.534 113.08 550.503 113.08 548.923V548.923Z" fill="url(#paint53_linear)"/>
</g>
<ellipse cx="53.7391" cy="516.008" rx="52.4875" ry="28.5587" transform="rotate(61.6417 53.7391 516.008)" fill="url(#paint54_linear)"/>
<ellipse cx="50.868" cy="518.848" rx="52.4875" ry="28.5587" transform="rotate(61.6417 50.868 518.848)" fill="url(#paint55_linear)"/>
<ellipse cx="50.8677" cy="518.848" rx="13.384" ry="7.28231" transform="rotate(61.6417 50.8677 518.848)" fill="#EBEFF4"/>
<ellipse opacity="0.4" cx="94.9017" cy="490.97" rx="4.06087" ry="2.20954" transform="rotate(61.6417 94.9017 490.97)" fill="#CAD4DF"/>
<ellipse opacity="0.4" cx="11.2892" cy="455.266" rx="4.06087" ry="2.20954" transform="rotate(61.6417 11.2892 455.266)" fill="#CAD4DF"/>
<ellipse opacity="0.4" cx="94.8853" cy="522.052" rx="4.06087" ry="2.20954" transform="rotate(61.6417 94.8853 522.052)" fill="#CAD4DF"/>
<ellipse opacity="0.4" cx="11.2752" cy="486.347" rx="4.06087" ry="2.20954" transform="rotate(61.6417 11.2752 486.347)" fill="#CAD4DF"/>
<ellipse opacity="0.4" cx="94.8712" cy="553.133" rx="4.06087" ry="2.20954" transform="rotate(61.6417 94.8712 553.133)" fill="#CAD4DF"/>
<ellipse opacity="0.4" cx="11.2589" cy="517.429" rx="4.06087" ry="2.20954" transform="rotate(61.6417 11.2589 517.429)" fill="#CAD4DF"/>
<ellipse opacity="0.4" cx="94.8548" cy="584.214" rx="4.06087" ry="2.20954" transform="rotate(61.6417 94.8548 584.214)" fill="#CAD4DF"/>
<ellipse opacity="0.4" cx="11.2447" cy="548.51" rx="4.06087" ry="2.20954" transform="rotate(61.6417 11.2447 548.51)" fill="#CAD4DF"/>
<ellipse opacity="0.4" cx="94.8407" cy="615.295" rx="4.06087" ry="2.20954" transform="rotate(61.6417 94.8407 615.295)" fill="#CAD4DF"/>
<ellipse opacity="0.4" cx="11.2284" cy="579.591" rx="4.06087" ry="2.20954" transform="rotate(61.6417 11.2284 579.591)" fill="#CAD4DF"/>
<path d="M80.4846 592.275C82.9526 597.223 82.6377 602.389 79.7813 603.814C76.9249 605.238 72.6086 602.382 70.1405 597.434C68.1827 593.509 56.1776 561.292 51.2984 548.142C50.8656 546.975 51.7699 546.524 52.4415 547.572C60.0118 559.38 78.5267 588.35 80.4846 592.275Z" fill="url(#paint56_linear)"/>
<path d="M49.5686 547.762L51.3281 546.669L54.2338 552.614L53.754 554.853L49.5686 547.762Z" fill="#E0E7EF"/>
<path d="M78.7326 593.326C81.2006 598.274 80.8858 603.44 78.0294 604.865C75.1729 606.29 70.8566 603.434 68.3886 598.486C66.4307 594.561 54.4256 562.344 49.5465 549.193C49.1136 548.027 50.018 547.575 50.6896 548.623C58.2599 560.431 76.7747 589.401 78.7326 593.326Z" fill="url(#paint57_linear)"/>
<path opacity="0.1" d="M1128.34 316.087L999.789 379.816L925.323 339.188L1053.67 275.458L1128.34 316.087Z" fill="url(#paint58_linear)"/>
<path opacity="0.1" d="M1045.21 330.521L916.657 394.25L842.191 353.622L970.536 289.892L1045.21 330.521Z" fill="url(#paint59_linear)"/>
<circle cx="980.507" cy="345.189" r="39.821" fill="url(#paint60_radial)"/>
<circle cx="980.507" cy="345.189" r="39.821" fill="url(#paint61_linear)"/>
<path opacity="0.1" fill-rule="evenodd" clip-rule="evenodd" d="M975.093 305.731C961.288 328.39 958.671 346.284 960.72 379.752C948.749 372.885 940.686 359.978 940.686 345.187C940.686 325.031 955.661 308.372 975.093 305.731Z" fill="url(#paint62_linear)"/>
<path d="M870.785 322.273L949 286.262V375.447C949 377.393 947.882 379.166 946.125 380.005L873.798 414.544C872.623 415.009 871.963 415.095 870.785 415.079V322.273Z" fill="url(#paint63_linear)"/>
<path d="M870.776 322.642L794.739 286.485V375.239C794.739 377.162 795.83 378.918 797.555 379.769L867.23 414.159C868.535 414.82 869.306 415.047 870.776 415.083V322.642Z" fill="url(#paint64_linear)"/>
<path opacity="0.32" d="M894.236 331.523C894.236 331.139 894.453 330.789 894.796 330.618L933.358 311.451C934.03 311.117 934.818 311.606 934.818 312.356V314.573C934.818 314.957 934.601 315.307 934.257 315.478L895.696 334.645C895.024 334.979 894.236 334.49 894.236 333.74V331.523Z" fill="#C0CDDC"/>
<path opacity="0.32" d="M905.371 384.645C905.371 384.265 905.585 383.917 905.923 383.745L940.987 365.916C941.659 365.575 942.455 366.063 942.455 366.817V369.024C942.455 369.404 942.241 369.752 941.902 369.924L906.839 387.753C906.167 388.094 905.371 387.606 905.371 386.852V384.645Z" fill="#C0CDDC"/>
<ellipse opacity="0.4" rx="5.57113" ry="3.03128" transform="matrix(-0.474984 0.879994 0.879994 0.474984 886.345 336.4)" fill="#C0CDDC"/>
<ellipse opacity="0.4" rx="5.57113" ry="3.03128" transform="matrix(-0.474984 0.879994 0.879994 0.474984 886.366 395.634)" fill="#C0CDDC"/>
<ellipse opacity="0.4" rx="5.57113" ry="3.03128" transform="matrix(-0.474984 0.879994 0.879994 0.474984 896.993 390.721)" fill="#C0CDDC"/>
<g opacity="0.6" filter="url(#filter19_f)">
<path d="M794.236 349.356L793.48 318.197L796.619 319.65L835.976 339.532L860.857 351.856L870.449 356.158L876.669 353.833L901.899 341.683L929.687 328.196L945.964 319.708L950.266 317.15L949.627 349.124L898.934 374.005L878.878 384.004L871.146 387.259L868.821 386.794L814.175 359.879L794.236 349.356Z" fill="url(#paint65_linear)"/>
</g>
<mask id="mask4" mask-type="alpha" maskUnits="userSpaceOnUse" x="794" y="286" width="155" height="127">
<path d="M870.784 322.273L948.999 286.262V376.385L873.797 412.297C872.622 412.762 871.962 412.848 870.784 412.832V322.273Z" fill="url(#paint66_linear)"/>
<path d="M870.784 322.273L794.738 286.485V376.132L867.229 411.911C868.533 412.573 869.314 412.797 870.784 412.832V322.273Z" fill="url(#paint67_linear)"/>
</mask>
<g mask="url(#mask4)">
<path d="M794.236 349.356L793.48 318.197L796.619 319.65L835.976 339.532L860.857 351.856L870.449 356.158L876.669 353.833L901.899 341.683L929.687 328.196L945.964 319.708L950.266 317.15L949.627 349.124L898.934 374.005L878.878 384.004L871.146 387.259L868.821 386.794L814.175 359.879L794.236 349.356Z" fill="url(#paint68_linear)"/>
<path d="M794.009 347.371C794.047 348.827 795.463 350.236 796.977 350.995L867.208 386.169C869.559 387.347 872.326 387.359 874.688 386.202L946.535 351.012C948.072 350.259 949.698 348.808 949.736 347.34" stroke="#BA46DF" stroke-width="1.68385"/>
<g opacity="0.21" filter="url(#filter20_i)">
<ellipse rx="5.57113" ry="3.03128" transform="matrix(-0.474984 0.879994 0.879994 0.474984 888.921 366.109)" fill="#D564F0"/>
</g>
<g opacity="0.1" filter="url(#filter21_i)">
<path d="M899.295 359.426C899.295 359.046 899.509 358.698 899.848 358.525L934.911 340.697C935.583 340.355 936.379 340.844 936.379 341.598V343.804C936.379 344.185 936.165 344.533 935.826 344.705L900.763 362.533C900.091 362.875 899.295 362.387 899.295 361.633V359.426Z" fill="#D564F0"/>
</g>
<path d="M793.998 316.181C794.035 317.638 795.451 319.047 796.966 319.805L867.196 354.979C869.548 356.157 872.314 356.169 874.676 355.013L946.523 319.822C948.06 319.07 949.687 317.618 949.724 316.151" stroke="#BA46DF" stroke-width="1.68385"/>
<g filter="url(#filter22_f)">
<path d="M874.683 307.619C872.321 306.462 869.555 306.474 867.203 307.652M794.005 346.45C794.042 344.994 795.458 343.585 796.973 342.826L820.135 331.225M949.732 346.481C949.694 345.013 948.067 343.562 946.53 342.809L923.032 331.3" stroke="url(#paint69_linear)" stroke-width="1.68385"/>
</g>
</g>
<path d="M866.719 249.394C869.45 248.087 872.623 248.073 875.365 249.357L944.977 281.947C948.819 283.746 948.867 289.193 945.057 291.059L875.527 325.114C872.696 326.501 869.378 326.487 866.559 325.074L798.601 291.039C794.845 289.157 794.893 283.78 798.682 281.965L866.719 249.394Z" fill="url(#paint70_linear)"/>
<g opacity="0.5" filter="url(#filter23_i)">
<path d="M866.805 256.782C869.536 255.475 872.709 255.461 875.451 256.745L933.461 283.904C935.766 284.983 935.795 288.251 933.509 289.371L875.613 317.728C872.781 319.115 869.464 319.1 866.645 317.688L810.08 289.358C807.826 288.23 807.855 285.003 810.129 283.915L866.805 256.782Z" fill="url(#paint71_linear)"/>
</g>
<path opacity="0.3" d="M1212.16 596.124L1038.87 679.855L981.718 640.436L1117.2 567.825L1212.16 596.124Z" fill="url(#paint72_linear)"/>
<path fill-rule="evenodd" clip-rule="evenodd" d="M1038.87 636.15L989.708 656.359V595.373L1038.87 571.944V571.944H1038.88L1088.04 595.373V656.359L1038.88 636.15H1038.87Z" fill="url(#paint73_linear)"/>
<path d="M989.708 595.372L1038.88 618.802V679.788L989.708 656.359V595.372Z" fill="url(#paint74_linear)"/>
<g opacity="0.6">
<path d="M1038.87 571.944L989.71 595.387L989.708 595.386V656.412L989.71 656.412L1038.87 679.855L1088.03 656.412L1088.03 656.412V595.386L1088.03 595.387L1038.87 571.944Z" fill="url(#paint75_radial)" style="mix-blend-mode:multiply"/>
</g>
<path opacity="0.07" d="M1021.44 673.42L965.18 701.699L932.196 686.036L987.394 658.554L990.286 604.352V584.688L1032.05 556.961C1049.77 564.833 1078.15 578.281 1078.15 578.281C1063.77 591.802 1046.71 598.412 1021.44 604.352V673.42Z" fill="url(#paint76_linear)"/>
<path d="M1088.04 595.371L1038.87 618.8V679.786L1088.04 656.357V595.371Z" fill="url(#paint77_linear)"/>
<g opacity="0.2" filter="url(#filter24_f)">
<path d="M1081.15 483.245L1064.19 465.544L1061.86 475.358C1043.47 474.292 1064.08 516.053 1045.99 537.336C1026.87 559.822 975.221 556.404 980.883 574.534L970.817 575.957L992.016 590.065C1010.69 602.867 1043.84 591.378 1067.77 563.232C1092.14 534.557 1097.91 499.217 1081.15 483.245Z" fill="#FD7A17"/>
<path fill-rule="evenodd" clip-rule="evenodd" d="M1044.7 498.821C1035.16 500.333 1024 507.084 1014.91 517.772C1005.31 529.064 1000.43 541.935 1001.06 551.832C995.3 552.745 990.131 551.746 986.369 548.548C976.379 540.056 980.094 519.273 994.668 502.129C1009.24 484.985 1029.15 477.971 1039.14 486.463C1042.55 489.362 1044.37 493.692 1044.7 498.821Z" fill="#FD7618"/>
<path fill-rule="evenodd" clip-rule="evenodd" d="M968.386 574.136C986.31 589.372 1021.85 577.004 1047.77 546.511C1073.69 516.019 1080.18 478.948 1062.25 463.711C1044.33 448.475 1008.79 460.843 982.865 491.335C956.944 521.828 950.462 558.899 968.386 574.136ZM986.367 548.549C996.357 557.042 1016.27 550.027 1030.84 532.883C1045.42 515.739 1049.13 494.956 1039.14 486.464C1029.15 477.972 1009.24 484.986 994.666 502.13C980.092 519.275 976.377 540.057 986.367 548.549Z" fill="#FD8714"/>
</g>
<path d="M973.016 576.457L980.995 575.328L981.931 575.196L981.649 574.294C980.998 572.209 981.184 570.506 981.977 569.033C982.788 567.528 984.278 566.179 986.389 564.925C990.627 562.408 997.04 560.459 1004.37 558.339C1004.92 558.178 1005.49 558.016 1006.05 557.853C1012.89 555.882 1020.34 553.731 1027.27 550.825C1034.76 547.678 1041.7 543.615 1046.6 537.856C1051.26 532.375 1053.4 525.606 1054.31 518.627C1055.22 511.655 1054.91 504.404 1054.61 497.929L1054.6 497.662C1054.31 491.241 1054.05 485.689 1054.95 481.778C1055.4 479.813 1056.11 478.371 1057.17 477.445C1058.2 476.537 1059.67 476.035 1061.81 476.159L1062.49 476.198L1062.64 475.543L1064.63 467.164L1080.57 483.8L1080.58 483.813L1080.59 483.826C1088.71 491.561 1091.46 504.076 1089.09 518.344C1086.73 532.596 1079.26 548.469 1067.16 562.713C1055.27 576.693 1041.12 586.511 1027.66 591.247C1014.18 595.989 1001.52 595.607 992.47 589.404L992.461 589.398L973.016 576.457Z" fill="url(#paint78_linear)" stroke="#FD8813" stroke-width="1.60475"/>
<mask id="path-127-outside-1" maskUnits="userSpaceOnUse" x="970.004" y="467.988" width="81.4435" height="97.3674" fill="black">
<rect fill="white" x="970.004" y="467.988" width="81.4435" height="97.3674"/>
<path fill-rule="evenodd" clip-rule="evenodd" d="M1044.7 498.821C1035.16 500.333 1024 507.084 1014.91 517.772C1005.31 529.064 1000.43 541.935 1001.06 551.832C995.3 552.745 990.131 551.746 986.369 548.548C976.379 540.056 980.094 519.273 994.668 502.129C1009.24 484.985 1029.15 477.971 1039.14 486.463C1042.55 489.362 1044.37 493.692 1044.7 498.821Z"/>
</mask>
<path fill-rule="evenodd" clip-rule="evenodd" d="M1044.7 498.821C1035.16 500.333 1024 507.084 1014.91 517.772C1005.31 529.064 1000.43 541.935 1001.06 551.832C995.3 552.745 990.131 551.746 986.369 548.548C976.379 540.056 980.094 519.273 994.668 502.129C1009.24 484.985 1029.15 477.971 1039.14 486.463C1042.55 489.362 1044.37 493.692 1044.7 498.821Z" fill="url(#paint79_linear)"/>
<path d="M1014.91 517.772L1013.7 516.739L1013.7 516.739L1014.91 517.772ZM1044.7 498.821L1044.95 500.396L1046.38 500.169L1046.29 498.719L1044.7 498.821ZM1001.06 551.832L1001.31 553.407L1002.75 553.179L1002.65 551.73L1001.06 551.832ZM986.369 548.548L987.401 547.333L987.401 547.333L986.369 548.548ZM994.668 502.129L993.453 501.096L993.453 501.096L994.668 502.129ZM1039.14 486.463L1040.18 485.248L1040.18 485.248L1039.14 486.463ZM1016.13 518.804C1025.04 508.316 1035.89 501.831 1044.95 500.396L1044.45 497.247C1034.43 498.834 1022.95 505.851 1013.7 516.739L1016.13 518.804ZM1002.65 551.73C1002.05 542.372 1006.7 529.894 1016.13 518.804L1013.7 516.739C1003.93 528.235 998.8 541.498 999.47 551.934L1002.65 551.73ZM1000.81 550.258C995.359 551.122 990.707 550.143 987.401 547.333L985.336 549.763C989.554 553.348 995.241 554.368 1001.31 553.407L1000.81 550.258ZM987.401 547.333C983.018 543.608 981.424 536.985 982.876 528.864C984.32 520.787 988.746 511.558 995.883 503.162L993.453 501.096C986.017 509.845 981.297 519.579 979.738 528.303C978.186 536.981 979.729 544.996 985.336 549.763L987.401 547.333ZM995.883 503.162C1003.02 494.766 1011.42 488.912 1019.15 486.186C1026.94 483.445 1033.73 483.952 1038.11 487.677L1040.18 485.248C1034.57 480.482 1026.41 480.249 1018.1 483.179C1009.74 486.123 1000.89 492.348 993.453 501.096L995.883 503.162ZM1038.11 487.677C1041.11 490.227 1042.8 494.105 1043.11 498.924L1046.29 498.719C1045.94 493.28 1044 488.496 1040.18 485.248L1038.11 487.677Z" fill="#FD8813" mask="url(#path-127-outside-1)"/>
<mask id="path-129-inside-2" fill="white">
<path fill-rule="evenodd" clip-rule="evenodd" d="M968.386 574.136C986.31 589.372 1021.85 577.004 1047.77 546.511C1073.69 516.019 1080.18 478.948 1062.25 463.711C1044.33 448.475 1008.79 460.843 982.865 491.335C956.944 521.828 950.462 558.899 968.386 574.136ZM986.367 548.549C996.357 557.042 1016.27 550.027 1030.84 532.883C1045.42 515.739 1049.13 494.956 1039.14 486.464C1029.15 477.972 1009.24 484.986 994.666 502.13C980.092 519.275 976.377 540.057 986.367 548.549Z"/>
</mask>
<g filter="url(#filter25_ii)">
<path fill-rule="evenodd" clip-rule="evenodd" d="M968.386 574.136C986.31 589.372 1021.85 577.004 1047.77 546.511C1073.69 516.019 1080.18 478.948 1062.25 463.711C1044.33 448.475 1008.79 460.843 982.865 491.335C956.944 521.828 950.462 558.899 968.386 574.136ZM986.367 548.549C996.357 557.042 1016.27 550.027 1030.84 532.883C1045.42 515.739 1049.13 494.956 1039.14 486.464C1029.15 477.972 1009.24 484.986 994.666 502.13C980.092 519.275 976.377 540.057 986.367 548.549Z" fill="url(#paint80_linear)"/>
</g>
<path d="M1047.77 546.511L1049 547.551L1049 547.551L1047.77 546.511ZM968.386 574.136L967.346 575.358L968.386 574.136ZM1062.25 463.711L1061.21 464.934L1062.25 463.711ZM982.865 491.335L981.642 490.296L982.865 491.335ZM1030.84 532.883L1032.07 533.922L1032.07 533.922L1030.84 532.883ZM1039.14 486.464L1038.1 487.687L1038.1 487.687L1039.14 486.464ZM994.666 502.13L995.889 503.17L995.889 503.17L994.666 502.13ZM1046.55 545.472C1033.74 560.539 1018.61 571.067 1004.55 575.956C990.46 580.86 977.776 580.012 969.425 572.913L967.346 575.358C976.919 583.496 990.968 584.082 1005.61 578.988C1020.29 573.879 1035.88 562.976 1049 547.551L1046.55 545.472ZM1061.21 464.934C1069.56 472.033 1072.44 484.415 1069.87 499.114C1067.31 513.77 1059.36 530.405 1046.55 545.472L1049 547.551C1062.11 532.125 1070.36 514.978 1073.04 499.667C1075.71 484.398 1072.86 470.626 1063.29 462.489L1061.21 464.934ZM984.088 492.375C996.896 477.307 1012.03 466.78 1026.08 461.89C1040.18 456.987 1052.86 457.835 1061.21 464.934L1063.29 462.489C1053.72 454.351 1039.67 453.765 1025.03 458.859C1010.35 463.968 994.755 474.87 981.642 490.296L984.088 492.375ZM969.425 572.913C961.074 565.814 958.194 553.432 960.764 538.733C963.327 524.077 971.279 507.442 984.088 492.375L981.642 490.296C968.529 505.722 960.28 522.869 957.603 538.18C954.933 553.449 957.773 567.221 967.346 575.358L969.425 572.913ZM1029.62 531.844C1022.48 540.239 1014.09 546.091 1006.35 548.816C998.573 551.557 991.785 551.049 987.406 547.327L985.327 549.772C990.938 554.542 999.102 554.773 1007.42 551.844C1015.78 548.899 1024.63 542.672 1032.07 533.922L1029.62 531.844ZM1038.1 487.687C1042.48 491.409 1044.08 498.027 1042.62 506.147C1041.18 514.221 1036.76 523.449 1029.62 531.844L1032.07 533.922C1039.5 525.173 1044.22 515.437 1045.78 506.712C1047.34 498.031 1045.79 490.011 1040.18 485.241L1038.1 487.687ZM995.889 503.17C1003.02 494.775 1011.42 488.922 1019.16 486.197C1026.94 483.457 1033.72 483.964 1038.1 487.687L1040.18 485.241C1034.57 480.472 1026.41 480.24 1018.09 483.17C1009.73 486.115 1000.88 492.342 993.443 501.091L995.889 503.17ZM987.406 547.327C983.027 543.604 981.433 536.987 982.885 528.867C984.328 520.793 988.753 511.565 995.889 503.17L993.443 501.091C986.006 509.841 981.285 519.576 979.725 528.302C978.173 536.983 979.716 545.002 985.327 549.772L987.406 547.327Z" fill="#FD8813" mask="url(#path-129-inside-2)"/>
<path d="M1011.23 595.27L1007.19 591.051L1005.14 591.503L1005.03 594.986C1007.43 595.233 1008.79 595.278 1011.23 595.27Z" fill="#FD6C1A"/>
<g opacity="0.3" filter="url(#filter26_f)">
<path d="M1007.37 564.702L986.832 550.901M1056.64 500.833L1039.15 484.946" stroke="#FD8414" stroke-width="1.60475"/>
</g>
<g opacity="0.5" filter="url(#filter27_f)">
<path d="M1058.87 502.719C1058.87 502.719 1058.88 502.72 1058.88 502.72C1063.56 506.705 1065.14 513.672 1063.67 521.931C1062.19 530.168 1057.69 539.523 1050.48 548.007C1043.27 556.49 1034.76 562.436 1026.87 565.216C1018.96 568.004 1011.82 567.565 1007.14 563.581C1002.45 559.597 1000.87 552.629 1002.35 544.369C1003.82 536.131 1008.32 526.777 1015.53 518.293C1022.74 509.81 1031.25 503.864 1039.14 501.083C1046.98 498.324 1054.04 498.726 1058.73 502.599L1058.87 502.719Z" stroke="url(#paint81_linear)" stroke-width="1.60475"/>
</g>
<path d="M986.463 582.291C986.558 582.085 986.745 581.939 986.97 581.908C993.096 581.078 1003.44 584.449 1006.98 590.801C1007.08 590.986 1007.08 591.208 1006.99 591.4L1001.14 604L980.823 594.555L986.463 582.291Z" fill="url(#paint82_linear)"/>
<path opacity="0.5" d="M986.463 582.291C986.558 582.085 986.745 581.939 986.97 581.908C993.096 581.078 1003.44 584.449 1006.98 590.801C1007.08 590.986 1007.08 591.208 1006.99 591.4L1001.14 604L980.823 594.555L986.463 582.291Z" fill="url(#paint83_linear)"/>
<g filter="url(#filter28_i)">
<path d="M969.549 594.109C970.465 592.138 972.466 590.874 974.633 591.046C988.106 592.116 999.622 597.469 1007.41 606.197C1008.76 607.708 1008.96 609.886 1008.11 611.722L966.431 701.355L927.991 683.481L969.549 594.109Z" fill="url(#paint84_linear)"/>
</g>
<path opacity="0.5" d="M969.549 594.109C970.465 592.138 972.466 590.874 974.633 591.046C988.106 592.116 999.622 597.469 1007.41 606.197C1008.76 607.708 1008.96 609.886 1008.11 611.722L966.431 701.355L927.991 683.481L969.549 594.109Z" fill="url(#paint85_linear)"/>
<ellipse cx="947.242" cy="692.35" rx="21.1976" ry="3.53777" transform="rotate(24.9512 947.242 692.35)" fill="url(#paint86_linear)"/>
<g opacity="0.3" filter="url(#filter29_f)">
<path d="M970.006 570.402C988.647 586.248 1025.61 573.386 1052.57 541.672C1079.53 509.958 1086.27 471.403 1067.63 455.556C1048.99 439.709 1012.02 452.572 985.065 484.286" stroke="url(#paint87_linear)" stroke-width="11.3835"/>
</g>
<g clip-path="url(#clip0)">
<path d="M452.493 176.217L604.048 248.284L541.531 429.169C541.531 429.169 621.701 395.792 630.001 387.453L767.146 249.672C774.253 242.533 767.47 224.298 755.604 218.638L604.048 146.89V29.343C604.048 15.2122 589.1 1.44728 580.247 5.83888C578.665 6.62363 577.286 7.79955 575.701 8.57827L496.57 47.4562L442.007 143.329C441.306 144.56 440.375 145.651 439.645 146.864C434.834 154.849 441.469 170.959 452.493 176.217Z" fill="url(#paint88_linear)"/>
<path fill-rule="evenodd" clip-rule="evenodd" d="M606.132 247.411L544.354 426.161C546.559 425.233 549.715 423.9 553.527 422.275C561.168 419.018 571.44 414.589 581.969 409.9C592.501 405.21 603.277 400.267 611.93 395.981C616.257 393.837 620.035 391.866 622.98 390.179C625.983 388.458 627.953 387.125 628.809 386.265L765.952 248.484C768.793 245.629 769.127 240.147 766.911 234.187C764.735 228.335 760.328 222.757 754.879 220.158L602.364 147.956V29.343C602.364 22.8394 598.897 16.2798 594.3 11.8586C592.013 9.65874 589.521 8.06364 587.162 7.26689C584.805 6.47115 582.697 6.50298 580.995 7.34733C580.313 7.68541 579.66 8.11539 578.903 8.61558L578.88 8.63082C578.16 9.10726 577.339 9.64983 576.444 10.0896L497.778 48.7391L443.47 144.162C443.073 144.861 442.618 145.505 442.209 146.08L442.132 146.188C441.739 146.739 441.392 147.226 441.087 147.733C439.091 151.046 439.333 156.427 441.679 161.9C443.995 167.304 448.161 172.285 453.217 174.698L606.132 247.411ZM452.493 176.217L604.048 248.284L541.531 429.169C541.531 429.169 542.271 428.862 543.614 428.298C556.264 422.991 622.498 394.992 630.001 387.453L767.146 249.672C774.253 242.533 767.47 224.298 755.604 218.638L604.048 146.89V29.343C604.048 15.2122 589.1 1.44728 580.247 5.83888C579.462 6.22829 578.727 6.71403 577.992 7.19975C577.246 7.69287 576.5 8.18597 575.701 8.57827L496.57 47.4562L442.007 143.329C441.632 143.987 441.192 144.606 440.751 145.224C440.368 145.762 439.985 146.299 439.645 146.864C434.834 154.849 441.469 170.959 452.493 176.217Z" fill="#FDC007"/>
<g filter="url(#filter30_ii)">
<path d="M367.984 217.097L519.54 289.164V406.392C519.54 421.748 537.193 436.672 545.493 428.333L682.637 290.551C689.743 283.412 682.962 265.177 671.095 259.517L519.54 187.77V70.2225C519.54 54.8665 501.887 39.9427 493.587 48.2815L356.442 186.063C349.336 193.202 356.117 211.437 367.984 217.097Z" fill="url(#paint89_linear)"/>
</g>
<g filter="url(#filter31_ii)">
<path fill-rule="evenodd" clip-rule="evenodd" d="M521.224 288.1V406.392C521.224 413.467 525.328 420.598 530.491 424.962C533.061 427.135 535.774 428.518 538.211 428.921C540.592 429.314 542.672 428.78 544.299 427.145L681.443 289.363C684.285 286.509 684.619 281.026 682.403 275.067C680.226 269.214 675.819 263.636 670.371 261.037L517.856 188.835V70.2225C517.856 63.1471 513.751 56.0167 508.589 51.6524C506.018 49.4792 503.305 48.0964 500.869 47.6937C498.488 47.3002 496.407 47.8347 494.78 49.4694L357.636 187.251C354.794 190.105 354.46 195.588 356.677 201.548C358.853 207.4 363.26 212.978 368.709 215.577L521.224 288.1ZM367.984 217.097L519.54 289.164V406.392C519.54 421.748 537.193 436.672 545.493 428.333L682.637 290.551C689.743 283.412 682.962 265.177 671.095 259.517L519.54 187.77V70.2225C519.54 54.8665 501.887 39.9427 493.587 48.2815L356.442 186.063C349.336 193.202 356.117 211.437 367.984 217.097Z" fill="#FDC007"/>
</g>
<path fill-rule="evenodd" clip-rule="evenodd" d="M521.224 288.1V406.392C521.224 413.467 525.328 420.598 530.491 424.962C533.061 427.135 535.774 428.518 538.211 428.921C540.592 429.314 542.672 428.78 544.299 427.145L681.443 289.363C684.285 286.509 684.619 281.026 682.403 275.067C680.226 269.214 675.819 263.636 670.371 261.037L517.856 188.835V70.2225C517.856 63.1471 513.751 56.0167 508.589 51.6524C506.018 49.4792 503.305 48.0964 500.869 47.6937C498.488 47.3002 496.407 47.8347 494.78 49.4694L357.636 187.251C354.794 190.105 354.46 195.588 356.677 201.548C358.853 207.4 363.26 212.978 368.709 215.577L521.224 288.1ZM367.984 217.097L519.54 289.164V406.392C519.54 421.748 537.193 436.672 545.493 428.333L682.637 290.551C689.743 283.412 682.962 265.177 671.095 259.517L519.54 187.77V70.2225C519.54 54.8665 501.887 39.9427 493.587 48.2815L356.442 186.063C349.336 193.202 356.117 211.437 367.984 217.097Z" fill="#FDC007"/>
<g opacity="0.3" filter="url(#filter32_f)">
<path opacity="0.3" d="M604.289 367.881V247.601L453.531 174.103C447.777 171.298 443.311 166.402 441.046 160.415L440.366 158.619C439.741 156.966 439.421 155.214 439.421 153.447C439.421 149.509 441.011 145.737 443.83 142.986L514.126 74.4225L518.402 68.0025L517.07 62.6457L510.078 51.2375L497.198 46.8215L488.734 56.0221L394.231 149.53L359.106 185.313C356.347 188.124 354.802 191.904 354.802 195.843C354.802 198.594 355.556 201.292 356.984 203.643L358.844 206.707C361.673 211.365 365.806 215.091 370.732 217.423L520.533 288.324V405.875V414.062L526.831 422.668L534.178 428.756L541.315 430.435L546.772 426.447L604.289 367.881Z" fill="url(#paint90_linear)"/>
</g>
<g filter="url(#filter33_f)">
<path fill-rule="evenodd" clip-rule="evenodd" d="M605.732 247.093V365.385C605.732 372.461 609.837 379.591 614.999 383.956C617.57 386.129 620.283 387.511 622.719 387.914C625.1 388.308 627.181 387.773 628.808 386.138L765.952 248.357C768.793 245.502 769.127 240.02 766.911 234.06C764.735 228.208 760.328 222.63 754.879 220.031L602.364 147.829V29.2161C602.364 22.1407 598.26 15.0104 593.097 10.646C590.527 8.47281 587.814 7.08999 585.377 6.68736C582.996 6.29385 580.916 6.82834 579.289 8.46304L442.145 146.244C439.304 149.099 438.969 154.581 441.186 160.541C443.362 166.393 447.769 171.972 453.217 174.571L605.732 247.093ZM452.493 176.09L604.048 248.157V365.385C604.048 380.741 621.701 395.665 630.001 387.326L767.145 249.545C774.252 242.406 767.47 224.171 755.604 218.511L604.048 146.763V29.2161C604.048 13.8602 586.395 -1.06367 578.095 7.27514L440.952 145.056C433.845 152.196 440.627 170.43 452.493 176.09Z" fill="url(#paint91_linear)"/>
</g>
<path fill-rule="evenodd" clip-rule="evenodd" d="M628.277 388.782L543.552 429.786L542.818 428.27L627.543 387.266L628.277 388.782Z" fill="#FDC007"/>
<path fill-rule="evenodd" clip-rule="evenodd" d="M604.631 147.467L519.906 188.471L519.173 186.955L603.898 145.952L604.631 147.467Z" fill="#FDC007"/>
<g filter="url(#filter34_f)">
<path fill-rule="evenodd" clip-rule="evenodd" d="M604.416 248.852L519.691 289.856L518.957 288.34L603.682 247.337L604.416 248.852Z" fill="url(#paint92_linear)"/>
</g>
<path d="M496.429 47.3569L581.154 6.35303" stroke="#FDC007" stroke-width="1.68385"/>
</g>
<defs>
<filter id="filter0_f" x="235.004" y="288.907" width="656.125" height="468.423" filterUnits="userSpaceOnUse" color-interpolation-filters="sRGB">
<feFlood flood-opacity="0" result="BackgroundImageFix"/>
<feBlend mode="normal" in="SourceGraphic" in2="BackgroundImageFix" result="shape"/>
<feGaussianBlur stdDeviation="92.324" result="effect1_foregroundBlur"/>
</filter>
<filter id="filter1_f" x="482.04" y="494.437" width="162.208" height="57.8936" filterUnits="userSpaceOnUse" color-interpolation-filters="sRGB">
<feFlood flood-opacity="0" result="BackgroundImageFix"/>
<feBlend mode="normal" in="SourceGraphic" in2="BackgroundImageFix" result="shape"/>
<feGaussianBlur stdDeviation="0.385" result="effect1_foregroundBlur"/>
</filter>
<filter id="filter2_f" x="236.011" y="213.77" width="112.991" height="191.661" filterUnits="userSpaceOnUse" color-interpolation-filters="sRGB">
<feFlood flood-opacity="0" result="BackgroundImageFix"/>
<feBlend mode="normal" in="SourceGraphic" in2="BackgroundImageFix" result="shape"/>
<feGaussianBlur stdDeviation="6.03923" result="effect1_foregroundBlur"/>
</filter>
<filter id="filter3_i" x="235.597" y="235.045" width="80.9575" height="168.496" filterUnits="userSpaceOnUse" color-interpolation-filters="sRGB">
<feFlood flood-opacity="0" result="BackgroundImageFix"/>
<feBlend mode="normal" in="SourceGraphic" in2="BackgroundImageFix" result="shape"/>
<feColorMatrix in="SourceAlpha" type="matrix" values="0 0 0 0 0 0 0 0 0 0 0 0 0 0 0 0 0 0 127 0" result="hardAlpha"/>
<feOffset dy="-4.90362"/>
<feGaussianBlur stdDeviation="7.35544"/>
<feComposite in2="hardAlpha" operator="arithmetic" k2="-1" k3="1"/>
<feColorMatrix type="matrix" values="0 0 0 0 1 0 0 0 0 1 0 0 0 0 1 0 0 0 0.96 0"/>
<feBlend mode="overlay" in2="shape" result="effect1_innerShadow"/>
</filter>
<filter id="filter4_f" x="245.971" y="235.428" width="11.0274" height="38.5122" filterUnits="userSpaceOnUse" color-interpolation-filters="sRGB">
<feFlood flood-opacity="0" result="BackgroundImageFix"/>
<feBlend mode="normal" in="SourceGraphic" in2="BackgroundImageFix" result="shape"/>
<feGaussianBlur stdDeviation="0.575165" result="effect1_foregroundBlur"/>
</filter>
<filter id="filter5_i" x="201.91" y="253.969" width="86.321" height="157.375" filterUnits="userSpaceOnUse" color-interpolation-filters="sRGB">
<feFlood flood-opacity="0" result="BackgroundImageFix"/>
<feBlend mode="normal" in="SourceGraphic" in2="BackgroundImageFix" result="shape"/>
<feColorMatrix in="SourceAlpha" type="matrix" values="0 0 0 0 0 0 0 0 0 0 0 0 0 0 0 0 0 0 127 0" result="hardAlpha"/>
<feOffset dx="-2.01308" dy="2.30066"/>
<feGaussianBlur stdDeviation="3.01962"/>
<feComposite in2="hardAlpha" operator="arithmetic" k2="-1" k3="1"/>
<feColorMatrix type="matrix" values="0 0 0 0 0.984314 0 0 0 0 0.32549 0 0 0 0 0.423529 0 0 0 0.24 0"/>
<feBlend mode="normal" in2="shape" result="effect1_innerShadow"/>
</filter>
<filter id="filter6_f" x="469.006" y="686.772" width="170.868" height="27.0774" filterUnits="userSpaceOnUse" color-interpolation-filters="sRGB">
<feFlood flood-opacity="0" result="BackgroundImageFix"/>
<feBlend mode="normal" in="SourceGraphic" in2="BackgroundImageFix" result="shape"/>
<feGaussianBlur stdDeviation="0.803454" result="effect1_foregroundBlur"/>
</filter>
<filter id="filter7_f" x="426.465" y="625.685" width="256.132" height="163.074" filterUnits="userSpaceOnUse" color-interpolation-filters="sRGB">
<feFlood flood-opacity="0" result="BackgroundImageFix"/>
<feBlend mode="normal" in="SourceGraphic" in2="BackgroundImageFix" result="shape"/>
<feGaussianBlur stdDeviation="22.095" result="effect1_foregroundBlur"/>
</filter>
<filter id="filter8_i" x="523.795" y="601.333" width="61.2928" height="47.1891" filterUnits="userSpaceOnUse" color-interpolation-filters="sRGB">
<feFlood flood-opacity="0" result="BackgroundImageFix"/>
<feBlend mode="normal" in="SourceGraphic" in2="BackgroundImageFix" result="shape"/>
<feColorMatrix in="SourceAlpha" type="matrix" values="0 0 0 0 0 0 0 0 0 0 0 0 0 0 0 0 0 0 127 0" result="hardAlpha"/>
<feOffset dy="4.01727"/>
<feComposite in2="hardAlpha" operator="arithmetic" k2="-1" k3="1"/>
<feColorMatrix type="matrix" values="0 0 0 0 0.796078 0 0 0 0 0.843137 0 0 0 0 0.894118 0 0 0 1 0"/>
<feBlend mode="normal" in2="shape" result="effect1_innerShadow"/>
</filter>
<filter id="filter9_f" x="5.96798" y="414.287" width="142.181" height="219.636" filterUnits="userSpaceOnUse" color-interpolation-filters="sRGB">
<feFlood flood-opacity="0" result="BackgroundImageFix"/>
<feBlend mode="normal" in="SourceGraphic" in2="BackgroundImageFix" result="shape"/>
<feGaussianBlur stdDeviation="9.14821" result="effect1_foregroundBlur"/>
</filter>
<filter id="filter10_f" x="44.0069" y="432.986" width="12.458" height="22.1448" filterUnits="userSpaceOnUse" color-interpolation-filters="sRGB">
<feFlood flood-opacity="0" result="BackgroundImageFix"/>
<feBlend mode="normal" in="SourceGraphic" in2="BackgroundImageFix" result="shape"/>
<feGaussianBlur stdDeviation="0.465163" result="effect1_foregroundBlur"/>
</filter>
<filter id="filter11_f" x="103.885" y="590.656" width="27.1308" height="14.1274" filterUnits="userSpaceOnUse" color-interpolation-filters="sRGB">
<feFlood flood-opacity="0" result="BackgroundImageFix"/>
<feBlend mode="normal" in="SourceGraphic" in2="BackgroundImageFix" result="shape"/>
<feGaussianBlur stdDeviation="0.465163" result="effect1_foregroundBlur"/>
</filter>
<filter id="filter12_f" x="4.75536" y="422.482" width="126.625" height="207.72" filterUnits="userSpaceOnUse" color-interpolation-filters="sRGB">
<feFlood flood-opacity="0" result="BackgroundImageFix"/>
<feBlend mode="normal" in="SourceGraphic" in2="BackgroundImageFix" result="shape"/>
<feGaussianBlur stdDeviation="6.04712" result="effect1_foregroundBlur"/>
</filter>
<filter id="filter13_i" x="113.08" y="500.168" width="14.7267" height="9.41046" filterUnits="userSpaceOnUse" color-interpolation-filters="sRGB">
<feFlood flood-opacity="0" result="BackgroundImageFix"/>
<feBlend mode="normal" in="SourceGraphic" in2="BackgroundImageFix" result="shape"/>
<feColorMatrix in="SourceAlpha" type="matrix" values="0 0 0 0 0 0 0 0 0 0 0 0 0 0 0 0 0 0 127 0" result="hardAlpha"/>
<feOffset dx="-2.17076" dy="-0.930327"/>
<feComposite in2="hardAlpha" operator="arithmetic" k2="-1" k3="1"/>
<feColorMatrix type="matrix" values="0 0 0 0 0.0823529 0 0 0 0 0.447059 0 0 0 0 0.94902 0 0 0 0.18 0"/>
<feBlend mode="normal" in2="shape" result="effect1_innerShadow"/>
</filter>
<filter id="filter14_i" x="113.08" y="508.464" width="14.7267" height="9.41046" filterUnits="userSpaceOnUse" color-interpolation-filters="sRGB">
<feFlood flood-opacity="0" result="BackgroundImageFix"/>
<feBlend mode="normal" in="SourceGraphic" in2="BackgroundImageFix" result="shape"/>
<feColorMatrix in="SourceAlpha" type="matrix" values="0 0 0 0 0 0 0 0 0 0 0 0 0 0 0 0 0 0 127 0" result="hardAlpha"/>
<feOffset dx="-2.17076" dy="-0.930327"/>
<feComposite in2="hardAlpha" operator="arithmetic" k2="-1" k3="1"/>
<feColorMatrix type="matrix" values="0 0 0 0 0.0823529 0 0 0 0 0.447059 0 0 0 0 0.94902 0 0 0 0.18 0"/>
<feBlend mode="normal" in2="shape" result="effect1_innerShadow"/>
</filter>
<filter id="filter15_i" x="113.08" y="516.76" width="14.7267" height="9.41046" filterUnits="userSpaceOnUse" color-interpolation-filters="sRGB">
<feFlood flood-opacity="0" result="BackgroundImageFix"/>
<feBlend mode="normal" in="SourceGraphic" in2="BackgroundImageFix" result="shape"/>
<feColorMatrix in="SourceAlpha" type="matrix" values="0 0 0 0 0 0 0 0 0 0 0 0 0 0 0 0 0 0 127 0" result="hardAlpha"/>
<feOffset dx="-2.17076" dy="-0.930327"/>
<feComposite in2="hardAlpha" operator="arithmetic" k2="-1" k3="1"/>
<feColorMatrix type="matrix" values="0 0 0 0 0.0823529 0 0 0 0 0.447059 0 0 0 0 0.94902 0 0 0 0.18 0"/>
<feBlend mode="normal" in2="shape" result="effect1_innerShadow"/>
</filter>
<filter id="filter16_i" x="113.08" y="525.057" width="14.7267" height="9.41046" filterUnits="userSpaceOnUse" color-interpolation-filters="sRGB">
<feFlood flood-opacity="0" result="BackgroundImageFix"/>
<feBlend mode="normal" in="SourceGraphic" in2="BackgroundImageFix" result="shape"/>
<feColorMatrix in="SourceAlpha" type="matrix" values="0 0 0 0 0 0 0 0 0 0 0 0 0 0 0 0 0 0 127 0" result="hardAlpha"/>
<feOffset dx="-2.17076" dy="-0.930327"/>
<feComposite in2="hardAlpha" operator="arithmetic" k2="-1" k3="1"/>
<feColorMatrix type="matrix" values="0 0 0 0 0.0823529 0 0 0 0 0.447059 0 0 0 0 0.94902 0 0 0 0.18 0"/>
<feBlend mode="normal" in2="shape" result="effect1_innerShadow"/>
</filter>
<filter id="filter17_i" x="113.08" y="533.353" width="14.7267" height="9.41046" filterUnits="userSpaceOnUse" color-interpolation-filters="sRGB">
<feFlood flood-opacity="0" result="BackgroundImageFix"/>
<feBlend mode="normal" in="SourceGraphic" in2="BackgroundImageFix" result="shape"/>
<feColorMatrix in="SourceAlpha" type="matrix" values="0 0 0 0 0 0 0 0 0 0 0 0 0 0 0 0 0 0 127 0" result="hardAlpha"/>
<feOffset dx="-2.17076" dy="-0.930327"/>
<feComposite in2="hardAlpha" operator="arithmetic" k2="-1" k3="1"/>
<feColorMatrix type="matrix" values="0 0 0 0 0.0823529 0 0 0 0 0.447059 0 0 0 0 0.94902 0 0 0 0.18 0"/>
<feBlend mode="normal" in2="shape" result="effect1_innerShadow"/>
</filter>
<filter id="filter18_i" x="113.08" y="541.649" width="14.7267" height="9.41046" filterUnits="userSpaceOnUse" color-interpolation-filters="sRGB">
<feFlood flood-opacity="0" result="BackgroundImageFix"/>
<feBlend mode="normal" in="SourceGraphic" in2="BackgroundImageFix" result="shape"/>
<feColorMatrix in="SourceAlpha" type="matrix" values="0 0 0 0 0 0 0 0 0 0 0 0 0 0 0 0 0 0 127 0" result="hardAlpha"/>
<feOffset dx="-2.17076" dy="-0.930327"/>
<feComposite in2="hardAlpha" operator="arithmetic" k2="-1" k3="1"/>
<feColorMatrix type="matrix" values="0 0 0 0 0.0823529 0 0 0 0 0.447059 0 0 0 0 0.94902 0 0 0 0.18 0"/>
<feBlend mode="normal" in2="shape" result="effect1_innerShadow"/>
</filter>
<filter id="filter19_f" x="756.435" y="280.106" width="230.875" height="144.198" filterUnits="userSpaceOnUse" color-interpolation-filters="sRGB">
<feFlood flood-opacity="0" result="BackgroundImageFix"/>
<feBlend mode="normal" in="SourceGraphic" in2="BackgroundImageFix" result="shape"/>
<feGaussianBlur stdDeviation="18.5223" result="effect1_foregroundBlur"/>
</filter>
<filter id="filter20_i" x="883.607" y="359.766" width="10.6274" height="12.6847" filterUnits="userSpaceOnUse" color-interpolation-filters="sRGB">
<feFlood flood-opacity="0" result="BackgroundImageFix"/>
<feBlend mode="normal" in="SourceGraphic" in2="BackgroundImageFix" result="shape"/>
<feColorMatrix in="SourceAlpha" type="matrix" values="0 0 0 0 0 0 0 0 0 0 0 0 0 0 0 0 0 0 127 0" result="hardAlpha"/>
<feOffset dx="-1.34708" dy="-1.01031"/>
<feComposite in2="hardAlpha" operator="arithmetic" k2="-1" k3="1"/>
<feColorMatrix type="matrix" values="0 0 0 0 0 0 0 0 0 0 0 0 0 0 0 0 0 0 0.34 0"/>
<feBlend mode="normal" in2="shape" result="effect1_innerShadow"/>
</filter>
<filter id="filter21_i" x="899.295" y="340.586" width="37.0837" height="22.0584" filterUnits="userSpaceOnUse" color-interpolation-filters="sRGB">
<feFlood flood-opacity="0" result="BackgroundImageFix"/>
<feBlend mode="normal" in="SourceGraphic" in2="BackgroundImageFix" result="shape"/>
<feColorMatrix in="SourceAlpha" type="matrix" values="0 0 0 0 0 0 0 0 0 0 0 0 0 0 0 0 0 0 127 0" result="hardAlpha"/>
<feOffset dx="-1.34708" dy="-1.01031"/>
<feComposite in2="hardAlpha" operator="arithmetic" k2="-1" k3="1"/>
<feColorMatrix type="matrix" values="0 0 0 0 0 0 0 0 0 0 0 0 0 0 0 0 0 0 0.34 0"/>
<feBlend mode="normal" in2="shape" result="effect1_innerShadow"/>
</filter>
<filter id="filter22_f" x="791.816" y="304.571" width="160.104" height="43.2786" filterUnits="userSpaceOnUse" color-interpolation-filters="sRGB">
<feFlood flood-opacity="0" result="BackgroundImageFix"/>
<feBlend mode="normal" in="SourceGraphic" in2="BackgroundImageFix" result="shape"/>
<feGaussianBlur stdDeviation="0.673539" result="effect1_foregroundBlur"/>
</filter>
<filter id="filter23_i" x="808.406" y="255.792" width="126.8" height="62.9661" filterUnits="userSpaceOnUse" color-interpolation-filters="sRGB">
<feFlood flood-opacity="0" result="BackgroundImageFix"/>
<feBlend mode="normal" in="SourceGraphic" in2="BackgroundImageFix" result="shape"/>
<feColorMatrix in="SourceAlpha" type="matrix" values="0 0 0 0 0 0 0 0 0 0 0 0 0 0 0 0 0 0 127 0" result="hardAlpha"/>
<feOffset dy="3.03093"/>
<feComposite in2="hardAlpha" operator="arithmetic" k2="-1" k3="1"/>
<feColorMatrix type="matrix" values="0 0 0 0 0.8175 0 0 0 0 0.856429 0 0 0 0 0.908333 0 0 0 1 0"/>
<feBlend mode="normal" in2="shape" result="effect1_innerShadow"/>
</filter>
<filter id="filter24_f" x="830.367" y="321.889" width="391.662" height="408.119" filterUnits="userSpaceOnUse" color-interpolation-filters="sRGB">
<feFlood flood-opacity="0" result="BackgroundImageFix"/>
<feBlend mode="normal" in="SourceGraphic" in2="BackgroundImageFix" result="shape"/>
<feGaussianBlur stdDeviation="56.7782" result="effect1_foregroundBlur"/>
</filter>
<filter id="filter25_ii" x="943.923" y="429.347" width="142.792" height="178.527" filterUnits="userSpaceOnUse" color-interpolation-filters="sRGB">
<feFlood flood-opacity="0" result="BackgroundImageFix"/>
<feBlend mode="normal" in="SourceGraphic" in2="BackgroundImageFix" result="shape"/>
<feColorMatrix in="SourceAlpha" type="matrix" values="0 0 0 0 0 0 0 0 0 0 0 0 0 0 0 0 0 0 127 0" result="hardAlpha"/>
<feOffset dy="5.47259"/>
<feGaussianBlur stdDeviation="4.78852"/>
<feComposite in2="hardAlpha" operator="arithmetic" k2="-1" k3="1"/>
<feColorMatrix type="matrix" values="0 0 0 0 0.996078 0 0 0 0 0.631373 0 0 0 0 0.054902 0 0 0 1 0"/>
<feBlend mode="normal" in2="shape" result="effect1_innerShadow"/>
<feColorMatrix in="SourceAlpha" type="matrix" values="0 0 0 0 0 0 0 0 0 0 0 0 0 0 0 0 0 0 127 0" result="hardAlpha"/>
<feOffset dy="-6.09806"/>
<feGaussianBlur stdDeviation="7.61799"/>
<feComposite in2="hardAlpha" operator="arithmetic" k2="-1" k3="1"/>
<feColorMatrix type="matrix" values="0 0 0 0 1 0 0 0 0 1 0 0 0 0 1 0 0 0 0.33 0"/>
<feBlend mode="normal" in2="effect1_innerShadow" result="effect2_innerShadow"/>
</filter>
<filter id="filter26_f" x="985.1" y="483.068" width="73.3614" height="83.5838" filterUnits="userSpaceOnUse" color-interpolation-filters="sRGB">
<feFlood flood-opacity="0" result="BackgroundImageFix"/>
<feBlend mode="normal" in="SourceGraphic" in2="BackgroundImageFix" result="shape"/>
<feGaussianBlur stdDeviation="0.641901" result="effect1_foregroundBlur"/>
</filter>
<filter id="filter27_f" x="982.831" y="483.036" width="95.9348" height="99.6726" filterUnits="userSpaceOnUse" color-interpolation-filters="sRGB">
<feFlood flood-opacity="0" result="BackgroundImageFix"/>
<feBlend mode="normal" in="SourceGraphic" in2="BackgroundImageFix" result="shape"/>
<feGaussianBlur stdDeviation="0.641901" result="effect1_foregroundBlur"/>
</filter>
<filter id="filter28_i" x="927.307" y="577.54" width="84.2506" height="123.815" filterUnits="userSpaceOnUse" color-interpolation-filters="sRGB">
<feFlood flood-opacity="0" result="BackgroundImageFix"/>
<feBlend mode="normal" in="SourceGraphic" in2="BackgroundImageFix" result="shape"/>
<feColorMatrix in="SourceAlpha" type="matrix" values="0 0 0 0 0 0 0 0 0 0 0 0 0 0 0 0 0 0 127 0" result="hardAlpha"/>
<feOffset dx="-0.684074" dy="-8.89297"/>
<feGaussianBlur stdDeviation="10.6032"/>
<feComposite in2="hardAlpha" operator="arithmetic" k2="-1" k3="1"/>
<feColorMatrix type="matrix" values="0 0 0 0 0.635938 0 0 0 0 0.661719 0 0 0 0 0.6875 0 0 0 0.22 0"/>
<feBlend mode="normal" in2="shape" result="effect1_innerShadow"/>
</filter>
<filter id="filter29_f" x="911.154" y="401.765" width="215.33" height="222.428" filterUnits="userSpaceOnUse" color-interpolation-filters="sRGB">
<feFlood flood-opacity="0" result="BackgroundImageFix"/>
<feBlend mode="normal" in="SourceGraphic" in2="BackgroundImageFix" result="shape"/>
<feGaussianBlur stdDeviation="8.53759" result="effect1_foregroundBlur"/>
</filter>
<filter id="filter30_ii" x="353.546" y="40.1446" width="331.986" height="396.325" filterUnits="userSpaceOnUse" color-interpolation-filters="sRGB">
<feFlood flood-opacity="0" result="BackgroundImageFix"/>
<feBlend mode="normal" in="SourceGraphic" in2="BackgroundImageFix" result="shape"/>
<feColorMatrix in="SourceAlpha" type="matrix" values="0 0 0 0 0 0 0 0 0 0 0 0 0 0 0 0 0 0 127 0" result="hardAlpha"/>
<feOffset dy="-5.74232"/>
<feGaussianBlur stdDeviation="8.61349"/>
<feComposite in2="hardAlpha" operator="arithmetic" k2="-1" k3="1"/>
<feColorMatrix type="matrix" values="0 0 0 0 1 0 0 0 0 1 0 0 0 0 1 0 0 0 0.96 0"/>
<feBlend mode="overlay" in2="shape" result="effect1_innerShadow"/>
<feColorMatrix in="SourceAlpha" type="matrix" values="0 0 0 0 0 0 0 0 0 0 0 0 0 0 0 0 0 0 127 0" result="hardAlpha"/>
<feOffset dy="5.74232"/>
<feGaussianBlur stdDeviation="5.02453"/>
<feComposite in2="hardAlpha" operator="arithmetic" k2="-1" k3="1"/>
<feColorMatrix type="matrix" values="0 0 0 0 0.975 0 0 0 0 0.902344 0 0 0 0 0.47125 0 0 0 1 0"/>
<feBlend mode="normal" in2="effect1_innerShadow" result="effect2_innerShadow"/>
</filter>
<filter id="filter31_ii" x="353.546" y="40.1446" width="331.986" height="396.325" filterUnits="userSpaceOnUse" color-interpolation-filters="sRGB">
<feFlood flood-opacity="0" result="BackgroundImageFix"/>
<feBlend mode="normal" in="SourceGraphic" in2="BackgroundImageFix" result="shape"/>
<feColorMatrix in="SourceAlpha" type="matrix" values="0 0 0 0 0 0 0 0 0 0 0 0 0 0 0 0 0 0 127 0" result="hardAlpha"/>
<feOffset dy="-5.74232"/>
<feGaussianBlur stdDeviation="8.61349"/>
<feComposite in2="hardAlpha" operator="arithmetic" k2="-1" k3="1"/>
<feColorMatrix type="matrix" values="0 0 0 0 1 0 0 0 0 1 0 0 0 0 1 0 0 0 0.96 0"/>
<feBlend mode="overlay" in2="shape" result="effect1_innerShadow"/>
<feColorMatrix in="SourceAlpha" type="matrix" values="0 0 0 0 0 0 0 0 0 0 0 0 0 0 0 0 0 0 127 0" result="hardAlpha"/>
<feOffset dy="5.74232"/>
<feGaussianBlur stdDeviation="5.02453"/>
<feComposite in2="hardAlpha" operator="arithmetic" k2="-1" k3="1"/>
<feColorMatrix type="matrix" values="0 0 0 0 0.975 0 0 0 0 0.902344 0 0 0 0 0.47125 0 0 0 1 0"/>
<feBlend mode="normal" in2="effect1_innerShadow" result="effect2_innerShadow"/>
</filter>
<filter id="filter32_f" x="353.454" y="45.4745" width="252.181" height="386.308" filterUnits="userSpaceOnUse" color-interpolation-filters="sRGB">
<feFlood flood-opacity="0" result="BackgroundImageFix"/>
<feBlend mode="normal" in="SourceGraphic" in2="BackgroundImageFix" result="shape"/>
<feGaussianBlur stdDeviation="0.673539" result="effect1_foregroundBlur"/>
</filter>
<filter id="filter33_f" x="434.688" y="1.51292" width="338.722" height="391.576" filterUnits="userSpaceOnUse" color-interpolation-filters="sRGB">
<feFlood flood-opacity="0" result="BackgroundImageFix"/>
<feBlend mode="normal" in="SourceGraphic" in2="BackgroundImageFix" result="shape"/>
<feGaussianBlur stdDeviation="1.68385" result="effect1_foregroundBlur"/>
</filter>
<filter id="filter34_f" x="515.589" y="243.969" width="92.1944" height="49.2544" filterUnits="userSpaceOnUse" color-interpolation-filters="sRGB">
<feFlood flood-opacity="0" result="BackgroundImageFix"/>
<feBlend mode="normal" in="SourceGraphic" in2="BackgroundImageFix" result="shape"/>
<feGaussianBlur stdDeviation="1.68385" result="effect1_foregroundBlur"/>
</filter>
<linearGradient id="paint0_linear" x1="370.081" y1="351.972" x2="447.227" y2="276.98" gradientUnits="userSpaceOnUse">
<stop/>
<stop offset="1" stop-opacity="0"/>
</linearGradient>
<linearGradient id="paint1_linear" x1="460.8" y1="291.635" x2="365.347" y2="296.59" gradientUnits="userSpaceOnUse">
<stop stop-color="#DAE2EB"/>
<stop offset="1" stop-color="#FBFBFD"/>
</linearGradient>
<linearGradient id="paint2_linear" x1="378.463" y1="399.273" x2="371.858" y2="271.161" gradientUnits="userSpaceOnUse">
<stop offset="0.437974" stop-color="#FDFDFE"/>
<stop offset="1" stop-color="#E5EBF2"/>
</linearGradient>
<linearGradient id="paint3_linear" x1="396.411" y1="336.539" x2="443.879" y2="333.339" gradientUnits="userSpaceOnUse">
<stop stop-color="#F4F4F4"/>
<stop offset="1" stop-color="#DAE2EB"/>
</linearGradient>
<linearGradient id="paint4_linear" x1="401.702" y1="279.186" x2="373.033" y2="370.273" gradientUnits="userSpaceOnUse">
<stop stop-opacity="0"/>
<stop offset="0.373743" stop-opacity="0.06"/>
<stop offset="1" stop-opacity="0"/>
</linearGradient>
<linearGradient id="paint5_linear" x1="264.176" y1="215.829" x2="355.224" y2="263.843" gradientUnits="userSpaceOnUse">
<stop stop-color="#FBFBFD"/>
<stop offset="0.870249" stop-color="#EBEFF4"/>
<stop offset="0.994115" stop-color="#E8ECF2"/>
</linearGradient>
<linearGradient id="paint6_linear" x1="309.857" y1="164.708" x2="326.627" y2="444.077" gradientUnits="userSpaceOnUse">
<stop offset="0.437974" stop-color="#FDFDFE"/>
<stop offset="1" stop-color="#E5EBF2"/>
</linearGradient>
<linearGradient id="paint7_linear" x1="309.857" y1="164.708" x2="326.627" y2="444.077" gradientUnits="userSpaceOnUse">
<stop offset="0.437974" stop-color="#FDFDFE"/>
<stop offset="1" stop-color="#E5EBF2"/>
</linearGradient>
<linearGradient id="paint8_linear" x1="231.773" y1="230.824" x2="321.381" y2="282.086" gradientUnits="userSpaceOnUse">
<stop stop-color="#FE758A"/>
<stop offset="0.870249" stop-color="#FB5A72"/>
<stop offset="0.994115" stop-color="#FB4059"/>
</linearGradient>
<linearGradient id="paint9_linear" x1="315.607" y1="267.53" x2="321.908" y2="271.455" gradientUnits="userSpaceOnUse">
<stop stop-color="#FF4E65"/>
<stop offset="1" stop-color="#FB4059"/>
</linearGradient>
<linearGradient id="paint10_linear" x1="276.076" y1="403.541" x2="249.424" y2="265.457" gradientUnits="userSpaceOnUse">
<stop stop-color="#FB364F"/>
<stop offset="1" stop-color="#FB5770"/>
</linearGradient>
<linearGradient id="paint11_linear" x1="310.867" y1="279.504" x2="238.535" y2="242.391" gradientUnits="userSpaceOnUse">
<stop stop-color="#FB4059"/>
<stop offset="1" stop-color="#FF4D65"/>
</linearGradient>
<linearGradient id="paint12_linear" x1="250.431" y1="248.996" x2="251.682" y2="272.785" gradientUnits="userSpaceOnUse">
<stop stop-color="#FF4D65"/>
<stop offset="1" stop-color="#FF4D65" stop-opacity="0"/>
</linearGradient>
<linearGradient id="paint13_linear" x1="198.623" y1="247.428" x2="289.671" y2="295.442" gradientUnits="userSpaceOnUse">
<stop stop-color="#FBFBFD"/>
<stop offset="0.870249" stop-color="#EBEFF4"/>
<stop offset="0.994115" stop-color="#E8ECF2"/>
</linearGradient>
<linearGradient id="paint14_linear" x1="244.304" y1="196.306" x2="261.074" y2="475.675" gradientUnits="userSpaceOnUse">
<stop offset="0.437974" stop-color="#FDFDFE"/>
<stop offset="1" stop-color="#E5EBF2"/>
</linearGradient>
<linearGradient id="paint15_linear" x1="447.09" y1="296.974" x2="210.635" y2="410.965" gradientUnits="userSpaceOnUse">
<stop stop-color="#DAE2EB"/>
<stop offset="0.998094" stop-color="white"/>
</linearGradient>
<linearGradient id="paint16_linear" x1="247.632" y1="370.204" x2="390.609" y2="370.204" gradientUnits="userSpaceOnUse">
<stop stop-color="#FB5770"/>
<stop offset="0.160911" stop-color="#FB364F"/>
<stop offset="0.770399" stop-color="#FB364F"/>
<stop offset="0.842505" stop-color="#FB2B44"/>
</linearGradient>
<linearGradient id="paint17_linear" x1="167.562" y1="370.204" x2="378.518" y2="358.623" gradientUnits="userSpaceOnUse">
<stop stop-color="#FDFDFE"/>
<stop offset="0.400649" stop-color="#F0F3F7"/>
<stop offset="0.526485" stop-color="#DFE5ED"/>
<stop offset="1" stop-color="#DAE2EB"/>
</linearGradient>
<linearGradient id="paint18_linear" x1="633.263" y1="749.479" x2="729.861" y2="651.92" gradientUnits="userSpaceOnUse">
<stop/>
<stop offset="1" stop-opacity="0"/>
</linearGradient>
<radialGradient id="paint19_radial" cx="0" cy="0" r="1" gradientUnits="userSpaceOnUse" gradientTransform="translate(648.738 703.992) rotate(24.8733) scale(78.2387)">
<stop stop-color="white"/>
<stop offset="1" stop-color="#C9D5E3"/>
</radialGradient>
<linearGradient id="paint20_linear" x1="642.256" y1="707.981" x2="714.056" y2="737.898" gradientUnits="userSpaceOnUse">
<stop stop-color="#58D45C" stop-opacity="0.33"/>
<stop offset="1" stop-color="white" stop-opacity="0"/>
</linearGradient>
<linearGradient id="paint21_linear" x1="639.986" y1="669.468" x2="637.472" y2="753.407" gradientUnits="userSpaceOnUse">
<stop stop-opacity="0.21"/>
<stop offset="1"/>
</linearGradient>
<linearGradient id="paint22_linear" x1="624.996" y1="730.014" x2="450.626" y2="729.174" gradientUnits="userSpaceOnUse">
<stop stop-color="#CED8E4"/>
<stop offset="0.665987" stop-color="white"/>
<stop offset="0.800848" stop-color="white"/>
<stop offset="1" stop-color="#BDCDDE"/>
</linearGradient>
<radialGradient id="paint23_radial" cx="0" cy="0" r="1" gradientUnits="userSpaceOnUse" gradientTransform="translate(523.61 707.051) rotate(-176.607) scale(106.37 110.716)">
<stop stop-color="#44D049" stop-opacity="0.21"/>
<stop offset="0.968694" stop-color="#44D049" stop-opacity="0"/>
</radialGradient>
<linearGradient id="paint24_linear" x1="752.391" y1="589.517" x2="495.161" y2="641.225" gradientUnits="userSpaceOnUse">
<stop stop-color="#C4D2E1"/>
<stop offset="1" stop-color="#FCFDFE"/>
</linearGradient>
<linearGradient id="paint25_linear" x1="624.996" y1="730.014" x2="450.626" y2="729.174" gradientUnits="userSpaceOnUse">
<stop stop-color="#CED8E4"/>
<stop offset="0.665987" stop-color="#FDFDFE"/>
<stop offset="0.800848" stop-color="#FDFDFE"/>
<stop offset="1" stop-color="#BDCDDE"/>
</linearGradient>
<linearGradient id="paint26_linear" x1="642.645" y1="698.238" x2="469.938" y2="702.099" gradientUnits="userSpaceOnUse">
<stop stop-color="#6AEB6E"/>
<stop offset="0.0805294" stop-color="#10D414"/>
<stop offset="0.791522" stop-color="#78EF7A"/>
<stop offset="0.907232" stop-color="#77EF7A"/>
<stop offset="1" stop-color="#3AC43F"/>
</linearGradient>
<linearGradient id="paint27_linear" x1="644.133" y1="695.301" x2="473.352" y2="702.053" gradientUnits="userSpaceOnUse">
<stop stop-color="white"/>
<stop offset="0.193368" stop-color="#10D414"/>
<stop offset="0.791522" stop-color="#A4F4A6"/>
<stop offset="0.907232" stop-color="#A9F4AB"/>
<stop offset="1" stop-color="#3AC43F"/>
</linearGradient>
<linearGradient id="paint28_linear" x1="478.688" y1="706.225" x2="635.003" y2="698.739" gradientUnits="userSpaceOnUse">
<stop stop-color="#3ACC3F"/>
<stop offset="0.123246" stop-color="#3ACC3F" stop-opacity="0"/>
<stop offset="0.912857" stop-color="#3ACC3F" stop-opacity="0.118365"/>
<stop offset="1" stop-color="#3ACC3F"/>
</linearGradient>
<linearGradient id="paint29_linear" x1="635.812" y1="697.11" x2="474.953" y2="700.137" gradientUnits="userSpaceOnUse">
<stop stop-color="#6AEB6E"/>
<stop offset="0.110357" stop-color="#10D414"/>
<stop offset="0.791522" stop-color="#78EF7A"/>
<stop offset="0.907232" stop-color="#77EF7A"/>
<stop offset="1" stop-color="#3AC43F"/>
</linearGradient>
<linearGradient id="paint30_linear" x1="604.643" y1="622.312" x2="504.242" y2="617.181" gradientUnits="userSpaceOnUse">
<stop stop-color="#FBFCFE"/>
<stop offset="1" stop-color="#CAD6E3"/>
</linearGradient>
<linearGradient id="paint31_linear" x1="604.643" y1="622.312" x2="504.242" y2="617.181" gradientUnits="userSpaceOnUse">
<stop stop-color="#FBFCFE"/>
<stop offset="1" stop-color="#CAD6E3"/>
</linearGradient>
<linearGradient id="paint32_linear" x1="155.088" y1="579.505" x2="231.702" y2="505.029" gradientUnits="userSpaceOnUse">
<stop/>
<stop offset="1" stop-opacity="0"/>
</linearGradient>
<linearGradient id="paint33_linear" x1="242.926" y1="511.611" x2="129.607" y2="517.493" gradientUnits="userSpaceOnUse">
<stop stop-color="#DAE2EB"/>
<stop offset="1" stop-color="#FBFBFD"/>
</linearGradient>
<linearGradient id="paint34_linear" x1="145.178" y1="639.392" x2="137.336" y2="487.305" gradientUnits="userSpaceOnUse">
<stop offset="0.437974" stop-color="#FDFDFE"/>
<stop offset="1" stop-color="#E5EBF2"/>
</linearGradient>
<linearGradient id="paint35_linear" x1="166.484" y1="564.918" x2="222.836" y2="561.12" gradientUnits="userSpaceOnUse">
<stop stop-color="#F4F4F4"/>
<stop offset="1" stop-color="#DAE2EB"/>
</linearGradient>
<linearGradient id="paint36_linear" x1="180.719" y1="510.871" x2="103.039" y2="628.506" gradientUnits="userSpaceOnUse">
<stop stop-opacity="0"/>
<stop offset="0.232365" stop-opacity="0.667326"/>
<stop offset="0.544813" stop-opacity="0.22"/>
<stop offset="1"/>
</linearGradient>
<radialGradient id="paint37_radial" cx="0" cy="0" r="1" gradientUnits="userSpaceOnUse" gradientTransform="translate(80.2178 522.083) rotate(5.11926) scale(243.205 296.417)">
<stop stop-color="#13C2FB"/>
<stop offset="0.39566" stop-color="#13C2FB" stop-opacity="0"/>
</radialGradient>
<linearGradient id="paint38_linear" x1="138.566" y1="466.496" x2="139.653" y2="484.589" gradientUnits="userSpaceOnUse">
<stop stop-color="#EBEFF4"/>
<stop offset="1" stop-color="#D2DDE8"/>
</linearGradient>
<linearGradient id="paint39_linear" x1="86.7562" y1="692.739" x2="65.6892" y2="338.582" gradientUnits="userSpaceOnUse">
<stop offset="0.437974" stop-color="#FDFDFE"/>
<stop offset="1" stop-color="#E5EBF2"/>
</linearGradient>
<linearGradient id="paint40_linear" x1="102.182" y1="427.411" x2="127.516" y2="551.219" gradientUnits="userSpaceOnUse">
<stop offset="0.306231" stop-color="#13C2FB"/>
<stop offset="1" stop-color="#1599F7"/>
</linearGradient>
<linearGradient id="paint41_linear" x1="63.9175" y1="423.206" x2="119.422" y2="531.903" gradientUnits="userSpaceOnUse">
<stop stop-color="#13C2FB"/>
<stop offset="0.287449" stop-color="#11BDFA"/>
<stop offset="0.561939" stop-color="#10B9FA"/>
<stop offset="1" stop-color="#1599F7"/>
</linearGradient>
<linearGradient id="paint42_linear" x1="63.9175" y1="423.206" x2="119.422" y2="531.903" gradientUnits="userSpaceOnUse">
<stop stop-color="#13C2FB"/>
<stop offset="0.287449" stop-color="#11BDFA"/>
<stop offset="0.561939" stop-color="#10B9FA"/>
<stop offset="1" stop-color="#1599F7"/>
</linearGradient>
<linearGradient id="paint43_linear" x1="36.4402" y1="433.224" x2="36.4402" y2="453.336" gradientUnits="userSpaceOnUse">
<stop stop-color="#4ACEFF"/>
<stop offset="1" stop-color="#4ACEFF" stop-opacity="0"/>
</linearGradient>
<linearGradient id="paint44_linear" x1="129.852" y1="592.734" x2="36.2007" y2="431.971" gradientUnits="userSpaceOnUse">
<stop stop-color="#128AF6"/>
<stop offset="1" stop-color="#2AB6F4"/>
</linearGradient>
<linearGradient id="paint45_linear" x1="102.182" y1="427.411" x2="127.516" y2="551.219" gradientUnits="userSpaceOnUse">
<stop offset="0.306231" stop-color="#13C2FB"/>
<stop offset="1" stop-color="#1599F7"/>
</linearGradient>
<linearGradient id="paint46_linear" x1="105.64" y1="482.775" x2="107.579" y2="493.412" gradientUnits="userSpaceOnUse">
<stop stop-color="#E7EEF4"/>
<stop offset="1" stop-color="#CAD4DF"/>
</linearGradient>
<linearGradient id="paint47_linear" x1="53.8326" y1="709.018" x2="-14.8953" y2="364.936" gradientUnits="userSpaceOnUse">
<stop offset="0.295365" stop-color="#FDFDFE"/>
<stop offset="1" stop-color="#E5EBF2"/>
</linearGradient>
<linearGradient id="paint48_linear" x1="111.061" y1="506.952" x2="129.901" y2="501.427" gradientUnits="userSpaceOnUse">
<stop stop-color="#1596F7"/>
<stop offset="1" stop-color="#13C2FB"/>
</linearGradient>
<linearGradient id="paint49_linear" x1="113.08" y1="514.807" x2="129.901" y2="509.723" gradientUnits="userSpaceOnUse">
<stop stop-color="#1596F7"/>
<stop offset="1" stop-color="#13C2FB"/>
</linearGradient>
<linearGradient id="paint50_linear" x1="113.08" y1="523.045" x2="129.901" y2="518.019" gradientUnits="userSpaceOnUse">
<stop stop-color="#1090F6"/>
<stop offset="1" stop-color="#13C2FB"/>
</linearGradient>
<linearGradient id="paint51_linear" x1="111.061" y1="531.84" x2="137.274" y2="526.114" gradientUnits="userSpaceOnUse">
<stop stop-color="#108FF6"/>
<stop offset="1" stop-color="#13C2FB"/>
</linearGradient>
<linearGradient id="paint52_linear" x1="110.827" y1="542.354" x2="139.125" y2="533.304" gradientUnits="userSpaceOnUse">
<stop stop-color="#1089F5"/>
<stop offset="1" stop-color="#13C2FB"/>
</linearGradient>
<linearGradient id="paint53_linear" x1="117.65" y1="545.266" x2="132.13" y2="539.149" gradientUnits="userSpaceOnUse">
<stop stop-color="#1089F5"/>
<stop offset="1" stop-color="#13C2FB"/>
</linearGradient>
<linearGradient id="paint54_linear" x1="0.119728" y1="513.38" x2="141.817" y2="518.271" gradientUnits="userSpaceOnUse">
<stop stop-color="#D8DFE8"/>
<stop offset="1" stop-color="#FDFDFE"/>
</linearGradient>
<linearGradient id="paint55_linear" x1="119.528" y1="517.444" x2="11.72" y2="519.216" gradientUnits="userSpaceOnUse">
<stop stop-color="#F2F5F8"/>
<stop offset="0.907209" stop-color="#FDFDFE"/>
</linearGradient>
<linearGradient id="paint56_linear" x1="49.2396" y1="542.583" x2="74.1264" y2="592.088" gradientUnits="userSpaceOnUse">
<stop stop-color="#E0E7EF"/>
<stop offset="1" stop-color="#EEF1F5"/>
</linearGradient>
<linearGradient id="paint57_linear" x1="45.073" y1="539.896" x2="78.0294" y2="604.865" gradientUnits="userSpaceOnUse">
<stop stop-color="#EBEFF4"/>
<stop offset="1" stop-color="#FDFDFE"/>
</linearGradient>
<linearGradient id="paint58_linear" x1="952.623" y1="368.389" x2="997.267" y2="313.293" gradientUnits="userSpaceOnUse">
<stop/>
<stop offset="1" stop-opacity="0"/>
</linearGradient>
<linearGradient id="paint59_linear" x1="869.491" y1="382.823" x2="914.135" y2="327.726" gradientUnits="userSpaceOnUse">
<stop/>
<stop offset="1" stop-opacity="0"/>
</linearGradient>
<radialGradient id="paint60_radial" cx="0" cy="0" r="1" gradientUnits="userSpaceOnUse" gradientTransform="translate(964.742 332.769) rotate(24.8733) scale(61.269)">
<stop stop-color="white"/>
<stop offset="1" stop-color="#C9D5E3"/>
</radialGradient>
<linearGradient id="paint61_linear" x1="940.686" y1="315.559" x2="1015.89" y2="359.321" gradientUnits="userSpaceOnUse">
<stop stop-color="#B057C9" stop-opacity="0.5"/>
<stop offset="1" stop-color="white" stop-opacity="0"/>
</linearGradient>
<linearGradient id="paint62_linear" x1="957.889" y1="305.731" x2="955.921" y2="371.464" gradientUnits="userSpaceOnUse">
<stop stop-opacity="0.21"/>
<stop offset="1"/>
</linearGradient>
<linearGradient id="paint63_linear" x1="783.766" y1="331.782" x2="943.923" y2="324.603" gradientUnits="userSpaceOnUse">
<stop stop-color="#FDFDFE"/>
<stop offset="0.390246" stop-color="#F0F3F7"/>
<stop offset="0.555705" stop-color="#DEE5EC"/>
<stop offset="1" stop-color="#D3DBE3"/>
</linearGradient>
<linearGradient id="paint64_linear" x1="783.766" y1="331.782" x2="943.923" y2="324.603" gradientUnits="userSpaceOnUse">
<stop stop-color="#FDFDFE"/>
<stop offset="0.390246" stop-color="#F0F3F7"/>
<stop offset="0.555705" stop-color="#DEE5EC"/>
<stop offset="1" stop-color="#D3DBE3"/>
</linearGradient>
<linearGradient id="paint65_linear" x1="789.754" y1="331.57" x2="958.798" y2="335.517" gradientUnits="userSpaceOnUse">
<stop stop-color="#BF4BE2"/>
<stop offset="0.110593" stop-color="#EB8BFF"/>
<stop offset="0.152394" stop-color="#E989FE"/>
<stop offset="0.193774" stop-color="#E888FD"/>
<stop offset="0.258058" stop-color="#D361F0"/>
<stop offset="0.44857" stop-color="#D666F1"/>
<stop offset="0.539289" stop-color="#AB5CC1"/>
<stop offset="0.807053" stop-color="#BE4AE2"/>
<stop offset="1" stop-color="#E798FA"/>
</linearGradient>
<linearGradient id="paint66_linear" x1="800.333" y1="349.548" x2="954.204" y2="344.552" gradientUnits="userSpaceOnUse">
<stop stop-color="#FDFDFE"/>
<stop offset="0.400649" stop-color="#F0F3F7"/>
<stop offset="0.526485" stop-color="#DFE5ED"/>
<stop offset="1" stop-color="#DAE2EB"/>
</linearGradient>
<linearGradient id="paint67_linear" x1="800.333" y1="349.548" x2="954.204" y2="344.552" gradientUnits="userSpaceOnUse">
<stop stop-color="#FDFDFE"/>
<stop offset="0.400649" stop-color="#F0F3F7"/>
<stop offset="0.526485" stop-color="#DFE5ED"/>
<stop offset="1" stop-color="#DAE2EB"/>
</linearGradient>
<linearGradient id="paint68_linear" x1="789.754" y1="331.57" x2="958.798" y2="335.517" gradientUnits="userSpaceOnUse">
<stop stop-color="#BF4BE2"/>
<stop offset="0.127491" stop-color="#EB8BFF"/>
<stop offset="0.258058" stop-color="#D361F0"/>
<stop offset="0.44857" stop-color="#D666F1"/>
<stop offset="0.539289" stop-color="#AB5CC1"/>
<stop offset="0.807053" stop-color="#BE4AE2"/>
<stop offset="1" stop-color="#E798FA"/>
</linearGradient>
<linearGradient id="paint69_linear" x1="947.213" y1="342.8" x2="798.635" y2="344.53" gradientUnits="userSpaceOnUse">
<stop stop-color="#BA46DF"/>
<stop offset="0.160041" stop-color="#BA46DF" stop-opacity="0"/>
<stop offset="0.853021" stop-color="#BA46DF" stop-opacity="0"/>
<stop offset="1" stop-color="#BA46DF"/>
</linearGradient>
<linearGradient id="paint70_linear" x1="1019.64" y1="206.063" x2="782.709" y2="270.959" gradientUnits="userSpaceOnUse">
<stop stop-color="#DAE2EB"/>
<stop offset="0.998094" stop-color="white"/>
</linearGradient>
<linearGradient id="paint71_linear" x1="779.392" y1="270.629" x2="918.334" y2="249.802" gradientUnits="userSpaceOnUse">
<stop stop-color="#DAE2EB"/>
<stop offset="0.998094" stop-color="white"/>
</linearGradient>
<linearGradient id="paint72_linear" x1="881.041" y1="815.46" x2="1067.27" y2="544.519" gradientUnits="userSpaceOnUse">
<stop/>
<stop offset="1" stop-opacity="0"/>
</linearGradient>
<linearGradient id="paint73_linear" x1="1111.44" y1="584.599" x2="998.816" y2="590.445" gradientUnits="userSpaceOnUse">
<stop stop-color="#DAE2EB"/>
<stop offset="1" stop-color="#FBFBFD"/>
</linearGradient>
<linearGradient id="paint74_linear" x1="1014.29" y1="711.598" x2="1006.5" y2="560.442" gradientUnits="userSpaceOnUse">
<stop offset="0.437974" stop-color="#FDFDFE"/>
<stop offset="1" stop-color="#E5EBF2"/>
</linearGradient>
<radialGradient id="paint75_radial" cx="0" cy="0" r="1" gradientUnits="userSpaceOnUse" gradientTransform="translate(995.525 594.744) rotate(6.39801) scale(196.15 239.247)">
<stop stop-color="#FD8315"/>
<stop offset="0.369792" stop-color="#FD8C12" stop-opacity="0"/>
</radialGradient>
<linearGradient id="paint76_linear" x1="1049.45" y1="576.484" x2="962.093" y2="699.408" gradientUnits="userSpaceOnUse">
<stop stop-opacity="0"/>
<stop offset="0.150381"/>
<stop offset="0.27746"/>
<stop offset="0.507478" stop-opacity="0.16"/>
<stop offset="0.745725" stop-opacity="0.24"/>
<stop offset="0.949083"/>
<stop offset="1"/>
</linearGradient>
<linearGradient id="paint77_linear" x1="1035.46" y1="637.579" x2="1091.47" y2="633.803" gradientUnits="userSpaceOnUse">
<stop stop-color="#F4F4F4"/>
<stop offset="1" stop-color="#DAE2EB"/>
</linearGradient>
<linearGradient id="paint78_linear" x1="1066.33" y1="490.021" x2="995.016" y2="602.735" gradientUnits="userSpaceOnUse">
<stop stop-color="#FEA30D"/>
<stop offset="0.137983" stop-color="#FFBC57"/>
<stop offset="0.854529" stop-color="#FD6C1A"/>
<stop offset="1" stop-color="#FD6A1A"/>
</linearGradient>
<linearGradient id="paint79_linear" x1="1028" y1="480.593" x2="976.993" y2="552.901" gradientUnits="userSpaceOnUse">
<stop offset="0.0662217" stop-color="#FD6B1A"/>
<stop offset="1" stop-color="#FEA40D"/>
</linearGradient>
<linearGradient id="paint80_linear" x1="1103.01" y1="410.486" x2="962.943" y2="565.537" gradientUnits="userSpaceOnUse">
<stop stop-color="#FBC56C"/>
<stop offset="1" stop-color="#FD8514"/>
</linearGradient>
<linearGradient id="paint81_linear" x1="1047.98" y1="546.382" x2="1012.17" y2="514.143" gradientUnits="userSpaceOnUse">
<stop stop-color="#FD8215"/>
<stop offset="0.528057" stop-color="#DAA60C" stop-opacity="0"/>
</linearGradient>
<linearGradient id="paint82_linear" x1="1005.12" y1="597.639" x2="985.694" y2="587.444" gradientUnits="userSpaceOnUse">
<stop offset="0.159539" stop-color="#ADC1D7"/>
<stop offset="0.581247" stop-color="#E0E7EF"/>
<stop offset="1" stop-color="#FDFDFE"/>
</linearGradient>
<linearGradient id="paint83_linear" x1="996.498" y1="578.547" x2="969.797" y2="635.131" gradientUnits="userSpaceOnUse">
<stop offset="0.056488" stop-color="#FBB251"/>
<stop offset="0.454877" stop-color="#E0E7EF" stop-opacity="0"/>
<stop offset="1" stop-color="#FDFDFE" stop-opacity="0"/>
</linearGradient>
<linearGradient id="paint84_linear" x1="989.898" y1="646.899" x2="959.556" y2="632.282" gradientUnits="userSpaceOnUse">
<stop stop-color="#CED8E4"/>
<stop offset="0.491169" stop-color="#DFE6EE"/>
<stop offset="0.911857" stop-color="#F8F8FE"/>
</linearGradient>
<linearGradient id="paint85_linear" x1="1004.22" y1="567.51" x2="959.556" y2="632.282" gradientUnits="userSpaceOnUse">
<stop stop-color="#FFD535"/>
<stop offset="0.877225" stop-color="#DFE6EE" stop-opacity="0"/>
<stop offset="1" stop-color="#FDFDFE" stop-opacity="0"/>
</linearGradient>
<linearGradient id="paint86_linear" x1="950.757" y1="695.126" x2="926.181" y2="696.35" gradientUnits="userSpaceOnUse">
<stop stop-color="#BEC9D6"/>
<stop offset="1" stop-color="#EBEEF1"/>
</linearGradient>
<linearGradient id="paint87_linear" x1="1067.63" y1="455.556" x2="970.006" y2="570.402" gradientUnits="userSpaceOnUse">
<stop stop-color="#FFFBDF"/>
<stop offset="1" stop-color="#FFEB28" stop-opacity="0"/>
</linearGradient>
<linearGradient id="paint88_linear" x1="447.489" y1="117.236" x2="604.049" y2="441.335" gradientUnits="userSpaceOnUse">
<stop offset="0.0726388" stop-color="#FDC007"/>
<stop offset="0.352497" stop-color="#FFE051"/>
<stop offset="0.638412" stop-color="#F4D040"/>
<stop offset="0.805669" stop-color="#FEC107"/>
<stop offset="0.955602" stop-color="#D9A812"/>
</linearGradient>
<linearGradient id="paint89_linear" x1="615.434" y1="-134.479" x2="514.943" y2="430.676" gradientUnits="userSpaceOnUse">
<stop stop-color="#FFFAC0"/>
<stop offset="1" stop-color="#FFDD47"/>
</linearGradient>
<linearGradient id="paint90_linear" x1="563.924" y1="249.314" x2="463.34" y2="92.2894" gradientUnits="userSpaceOnUse">
<stop stop-color="#FCC617"/>
<stop offset="0.517023" stop-color="#FFEBA9"/>
<stop offset="0.694168" stop-color="#FEDD73"/>
<stop offset="0.785854" stop-color="#F4BA0A"/>
</linearGradient>
<linearGradient id="paint91_linear" x1="471.811" y1="223.85" x2="499.512" y2="84.3945" gradientUnits="userSpaceOnUse">
<stop stop-color="#FDC007"/>
<stop offset="1" stop-color="#FDC007" stop-opacity="0"/>
</linearGradient>
<linearGradient id="paint92_linear" x1="584.523" y1="241.999" x2="531.033" y2="283.549" gradientUnits="userSpaceOnUse">
<stop stop-color="#FDC007"/>
<stop offset="1" stop-color="#FDC007" stop-opacity="0"/>
</linearGradient>
<clipPath id="clip0">
<rect width="421" height="431" fill="white" transform="translate(352.644 0.971191)"/>
</clipPath>
</defs>
</svg>
